<?xml version="1.0" encoding="UTF-8"?><svg xmlns="http://www.w3.org/2000/svg" xmlns:xlink="http://www.w3.org/1999/xlink"><symbol viewBox="0 0 10 10" id="activity" xmlns="http://www.w3.org/2000/svg"><title>activity</title><path d="M0 4h1v6H0V4zm3 2h1v4H3V6zm3-4h1v8H6V2zm3-2h1v10H9V0z" fill="#000" fill-rule="evenodd"/></symbol><symbol viewBox="0 0 12 12" id="add-cart" xmlns="http://www.w3.org/2000/svg"><title>add-cart</title><path d="M3 1h.5a.5.5 0 0 0 0-1h-3a.5.5 0 1 0 0 1H2v8c0 .667.333 1 1 1h7.5c.325-.014.491-.173.5-.5.009-.327-.158-.5-.5-.5H3V8h8a1 1 0 0 0 1-1V2h-1v5H3V1zm4.667 1.333V1H6.333v1.333H5v1.334h1.333V5h1.334V3.667H9V2.333H7.667zM4 12a1 1 0 1 0 0-2 1 1 0 0 0 0 2zm5 0a1 1 0 1 0 0-2 1 1 0 0 0 0 2z" fill="#000" fill-rule="evenodd"/></symbol><symbol viewBox="0 0 12 14" id="align-bottom" xmlns="http://www.w3.org/2000/svg"><title>align-bottom</title><path d="M2 10h3V0H2v10zm5 0h3V4H7v6zm-7 4h12v-2H0v2z" fill="#000" fill-rule="evenodd"/></symbol><symbol viewBox="0 0 12 14" id="align-center" xmlns="http://www.w3.org/2000/svg"><title>align-center</title><path d="M1.997 7v3H5v4h2v-4h3.003V7H7V5h4.998V2H7V0H5v2H.002v3H5v2H1.997z" fill="#000" fill-rule="evenodd"/></symbol><symbol viewBox="0 0 12 14" id="align-left" xmlns="http://www.w3.org/2000/svg"><title>align-left</title><path d="M4 2h8v3H4V2zm0 5h6v3H4V7zM0 0h2v14H0V0z" fill="#000" fill-rule="evenodd"/></symbol><symbol viewBox="0 0 12 13" id="align-right" xmlns="http://www.w3.org/2000/svg"><title>align-right</title><path d="M8 2H0v3h8V2zm0 5H1.996v3H8V7zm4-7h-2v14h2V0z" fill="#000" fill-rule="evenodd"/></symbol><symbol viewBox="0 0 12 14" id="align-top" xmlns="http://www.w3.org/2000/svg"><title>align-top</title><path d="M7 4h3v10H7V4zM2 4h3v6H2V4zM0 0h12v2H0V0z" fill="#000" fill-rule="evenodd"/></symbol><symbol viewBox="0 0 12 14" id="align-vertically" xmlns="http://www.w3.org/2000/svg"><title>align-vertically</title><path d="M5 0H2v6H0v2h2v6h3V8h2v4h3V8h2V6h-2V2H7v4H5V0z" fill="#000" fill-rule="evenodd"/></symbol><symbol viewBox="0 0 14 14" id="angry" xmlns="http://www.w3.org/2000/svg"><title>angry</title><path d="M7 13A6 6 0 1 0 7 1a6 6 0 0 0 0 12zm0 1A7 7 0 1 1 7 0a7 7 0 0 1 0 14zm0-5c-2.003 0-2.003 2-2.003 2H6s0-1 1-1 1 1 1 1h.997S9.003 9 7 9zm2.8-3.6A1 1 0 1 1 8 6V5l3-1v1l-1.2.4zm-5.6 0A1 1 0 1 0 6 6V5L3 4v1l1.2.4z" fill="#000" fill-rule="evenodd"/></symbol><symbol viewBox="0 0 10 10" id="app-menu" xmlns="http://www.w3.org/2000/svg"><title>app-menu</title><path d="M8 8h2v2H8V8zM4 8h2v2H4V8zM0 8h2v2H0V8zm8-4h2v2H8V4zM4 4h2v2H4V4zM0 4h2v2H0V4zm8-4h2v2H8V0zM4 0h2v2H4V0zM0 0h2v2H0V0z" fill="#000" fill-rule="evenodd"/></symbol><symbol viewBox="0 0 10 7" id="arrow-down" xmlns="http://www.w3.org/2000/svg"><title>arrow-down</title><path d="M9 0L5 3.999 1 0 0 1l5 5 5-5z" fill="#000" fill-rule="evenodd"/></symbol><symbol viewBox="0 0 6 11" id="arrow-left" xmlns="http://www.w3.org/2000/svg"><title>arrow-left</title><path d="M5 0L0 4.999 5 10l1-1-4-4.001L6 1z" fill="#000" fill-rule="evenodd"/></symbol><symbol viewBox="0 0 6 11" id="arrow-right" xmlns="http://www.w3.org/2000/svg"><title>arrow-right</title><path d="M1 0L0 1l3.999 3.998L0 9l1 1 5-5.002z" fill="#000" fill-rule="evenodd"/></symbol><symbol viewBox="0 0 10 7" id="arrow-up" xmlns="http://www.w3.org/2000/svg"><title>arrow-up</title><path d="M5 0L0 5l1 1 4-4 4 4 1-1z" fill="#000" fill-rule="evenodd"/></symbol><symbol viewBox="0 0 14 14" id="artboard" xmlns="http://www.w3.org/2000/svg"><title>artboard</title><path d="M3 3h8v8H3V3zm7 9h1v2h-1v-2zM0 3h2v1H0V3zm0 7h2v1H0v-1zm12-7h2v1h-2V3zm0 7h2v1h-2v-1zm-9 2h1v2H3v-2zm7-12h1v2h-1V0zM3 0h1v2H3V0z" fill="#000" fill-rule="evenodd"/></symbol><symbol viewBox="0 0 8 14" id="audio-player" xmlns="http://www.w3.org/2000/svg"><title>audio-player</title><path d="M0 1s0-1 1-1h6c1 0 1 1 1 1v12s0 1-1 1H1c-1 0-1-1-1-1V1zm4 12a3 3 0 1 0 0-6 3 3 0 0 0 0 6zm0-1a2 2 0 1 1 0-4 2 2 0 0 1 0 4zM1 1h6v5H1V1z" fill="#000" fill-rule="evenodd"/></symbol><symbol viewBox="0 0 14 10" id="backward" xmlns="http://www.w3.org/2000/svg"><title>backward</title><path d="M7 0v10L0 5l7-5zm7 0v10L7 5l7-5z" fill="#000" fill-rule="evenodd"/></symbol><symbol viewBox="0 0 12 12" id="bar" xmlns="http://www.w3.org/2000/svg"><title>bar</title><path d="M0 0h12v2H0V0zm0 5h12v2H0V5zm0 5h12v2H0v-2z" fill="#000" fill-rule="evenodd"/></symbol><symbol viewBox="0 0 12 12" id="bar-chart" xmlns="http://www.w3.org/2000/svg"><title>bar-chart</title><path d="M0 4h1v7h11v1H0V4zm3-2h2v7H3V2zm3-2h2v9H6V0zm3 3h2v6H9V3z" fill="#000" fill-rule="evenodd"/></symbol><symbol viewBox="0 0 11 14" id="beer" xmlns="http://www.w3.org/2000/svg"><title>beer</title><path d="M9 11v1h1v2H0v-2h1V5H0V4h.379A2.25 2.25 0 0 1 2.64.534 1.993 1.993 0 0 1 4 0c.364 0 .706.097 1 .268A1.99 1.99 0 0 1 6 0c.525 0 1.003.202 1.36.534A2.25 2.25 0 0 1 9.621 4H10v1H9v1h1.001c.552 0 .999.444.999 1v3c0 .552-.443 1-.999 1H9zM6.5 6v5h1V6h-1zm-2 0v5h1V6h-1zm-2 0v5h1V6h-1zm4.653-4.46A1.497 1.497 0 0 0 5 1.382a1.497 1.497 0 0 0-2.153.158 1.5 1.5 0 1 0 .806 2.42A1.504 1.504 0 0 0 5 3.618a1.494 1.494 0 0 0 1.347.342 1.5 1.5 0 1 0 .806-2.42z" fill="#000" fill-rule="evenodd"/></symbol><symbol viewBox="0 0 12 12" id="beginner" xmlns="http://www.w3.org/2000/svg"><title>beginner</title><path d="M1 1.037v7.976L6 10.9V2.923L1 1.037zm.342-.974L6 1.82 10.658.063c.52-.196 1.093.082 1.282.62.04.114.06.234.06.354v7.976c0 .436-.263.826-.658.975l-5 1.885a.966.966 0 0 1-.684 0l-5-1.885A1.036 1.036 0 0 1 0 9.013V1.037C0 .465.448 0 1 0c.117 0 .232.021.342.063z" fill="#000" fill-rule="nonzero"/></symbol><symbol viewBox="0 0 12 14" id="bell" xmlns="http://www.w3.org/2000/svg"><title>bell</title><path d="M0 11a1 1 0 0 0 1 1h3a2 2 0 1 0 4 0h3a1 1 0 0 0 0-2s0-5.768-3.06-7.508a2 2 0 1 0-3.878 0C.999 4.232.999 10 .999 10a1 1 0 0 0-1 1z" fill="#000" fill-rule="evenodd"/></symbol><symbol viewBox="0 0 14 14" id="birthday-cake" xmlns="http://www.w3.org/2000/svg"><title>birthday-cake</title><path d="M14 11.376v.874C14 14 12.25 14 12.25 14H1.75S0 14 0 12.25v-.874c.895 0 .875-.876 1.75-.876s.875.876 1.75.876.875-.876 1.75-.876.875.875 1.75.876c.875-.001.875-.876 1.75-.876s.875.876 1.75.876.875-.876 1.75-.876.857.876 1.75.876zM6.125 6.125V3.937c0-.437.438-.437.438-.437h.875s.437 0 .437.438v2.187h1.75V3.937c0-.437.438-.437.438-.437h.874s.438 0 .438.438v2.187C14 6.125 14 8.75 14 8.75v.875c-.875 0-.875-.875-1.75-.875s-.875.875-1.75.875-.875-.875-1.75-.875-.875.875-1.75.875-.875-.875-1.75-.875-.875.875-1.75.875-.875-.875-1.75-.875-.875.875-1.75.875V8.75s0-2.625 2.625-2.625V3.937c0-.437.438-.437.438-.437h.874s.438 0 .438.438v2.187h1.75zm4.375-3.5c-.483 0-.875-.588-.875-1.313.438-.437.875-.44.875-1.312.483 0 .875.588.875 1.313 0 .724-.392 1.312-.875 1.312zm-3.5 0c-.483 0-.875-.588-.875-1.313C6.563.875 7 .873 7 0c.483 0 .875.588.875 1.313 0 .724-.392 1.312-.875 1.312zm-3.5 0c-.483 0-.875-.588-.875-1.313C3.063.875 3.5.873 3.5 0c.483 0 .875.588.875 1.313 0 .724-.392 1.312-.875 1.312z" fill="#000" fill-rule="evenodd"/></symbol><symbol viewBox="0 0 10 14" id="bold" xmlns="http://www.w3.org/2000/svg"><title>bold</title><path d="M1 14s-1 0-1-1V1c0-1 .957-1 .957-1h3.698c.883 0 1.637.087 2.262.261.625.175 1.138.423 1.54.746.4.323.694.713.88 1.171.187.459.28.975.28 1.55 0 .329-.046.643-.14.944-.093.3-.237.58-.433.842a3.3 3.3 0 0 1-.746.711c-.302.213-.661.394-1.078.543C9.073 7.2 10 8.239 10 9.885c0 .594-.109 1.143-.326 1.646a3.62 3.62 0 0 1-.952 1.302c-.417.365-.93.65-1.54.857-.609.207-1.305.31-2.089.31H1zm1.51-6.138v4.105h2.546c.466 0 .857-.058 1.17-.174.315-.117.567-.272.756-.465.19-.194.327-.42.41-.678.085-.258.127-.532.127-.823a2.26 2.26 0 0 0-.14-.818 1.532 1.532 0 0 0-.439-.62 2.022 2.022 0 0 0-.765-.392 4.086 4.086 0 0 0-1.128-.135H2.509zm0-1.801h2.005c.852 0 1.499-.162 1.94-.484.442-.323.663-.836.663-1.54 0-.729-.2-1.249-.597-1.558-.398-.31-1.02-.465-1.866-.465H2.509V6.06z" fill="#000" fill-rule="evenodd"/></symbol><symbol viewBox="0 0 6 12" id="bolt" xmlns="http://www.w3.org/2000/svg"><title>bolt</title><path d="M5 0H2L0 6h3l-1 6 4-8H3z" fill="#000" fill-rule="evenodd"/></symbol><symbol viewBox="0 0 14 10" id="book" xmlns="http://www.w3.org/2000/svg"><title>book</title><path d="M13 9c1 0 1-1 1-1V1s0-1-1-1H8L7 1 6 0H1C0 0 0 1 0 1v7s0 1 1 1h5c0 .483.5 1 1 1s1-.517 1-1h5zM9 2h3v1H9V2zm0 2h3v1H9V4zm0 2h3v1H9V6zM2 2h3v1H2V2zm0 2h3v1H2V4zm0 2h3v1H2V6zM1 1h4l1 1v6H1V1zm7 1l1-1h4v6.99H8V2z" fill="#000" fill-rule="evenodd"/></symbol><symbol viewBox="0 0 10 14" id="bookmark" xmlns="http://www.w3.org/2000/svg"><title>bookmark</title><path d="M0 1s0-1 1-1h8c1 0 1 1 1 1v13l-5-3-5 3V1zm7 1h1v2H7V2zm0 3h1v2H7V5z" fill="#000" fill-rule="evenodd"/></symbol><symbol viewBox="0 0 14 10" id="browser" xmlns="http://www.w3.org/2000/svg"><title>browser</title><path d="M0 1c0-1 1-1 1-1h12s1 0 1 1.003V9c0 1-1 1-1 1H1s-1 0-1-1V1zm1 2v6h12V3H1zm4-2v1h8V1H5zM1 1v1h1V1H1zm2 0v1h1V1H3z" fill="#000" fill-rule="evenodd"/></symbol><symbol viewBox="0 0 12 12" id="brush" xmlns="http://www.w3.org/2000/svg"><title>brush</title><path d="M2 12H0v-2a2 2 0 1 1 2 2zm9.005-12L12 1 5 9 3 7l8.005-7z" fill="#000" fill-rule="evenodd"/></symbol><symbol viewBox="0 0 14 14" id="bug" xmlns="http://www.w3.org/2000/svg"><title>bug</title><path d="M5 2.278C3 3.248 3 5.6 3 5.6h8s0-2.352-2-3.322V0H8v1.955a5.41 5.41 0 0 0-1-.088 5.41 5.41 0 0 0-1 .088V0H5v2.278zm6.153 9.777C10.562 13.166 9.339 14 7 14c-2.341 0-3.564-.835-4.154-1.947l-2.504.85L0 12.026l2.513-.854a5.166 5.166 0 0 1-.138-.905H0v-.934h2.378c.018-.261.049-.516.086-.759L0 7.737l.342-.877 2.312.785C2.822 6.975 3 6.533 3 6.533h8s.177.441.345 1.11l2.314-.787.342.877-2.466.838c.038.244.069.5.087.762H14v.934h-2.375c-.02.305-.064.611-.139.908l2.504.851-.342.877-2.495-.848z" fill="#000" fill-rule="evenodd"/></symbol><symbol viewBox="0 0 10 14" id="building" xmlns="http://www.w3.org/2000/svg"><title>building</title><path d="M0 1s0-1 1-1h8c1 0 1 1 1 1v12s0 1-1 1H1c-1 0-1-1-1-1V1zm1 0v12h3.002v-3H6v3h3V1H1zm1 1h6v1H2V2zm0 2h6v1H2V4zm0 2h6v1H2V6zm0 2h6v1H2V8z" fill="#000" fill-rule="evenodd"/></symbol><symbol viewBox="0 0 12 10" id="cage" xmlns="http://www.w3.org/2000/svg"><title>cage</title><path d="M7 4V0H5v4H1.07c-.116 0-.23.017-.339.051-.56.175-.863.741-.676 1.265l1.425 4c.146.409.554.684 1.015.684h7.01c.46 0 .87-.275 1.015-.684l1.425-4A.941.941 0 0 0 12 5c0-.552-.479-1-1.069-1H7zM6 7a1 1 0 1 0 0-2 1 1 0 0 0 0 2z" fill="#000" fill-rule="evenodd"/></symbol><symbol viewBox="0 0 14 14" id="calendar" xmlns="http://www.w3.org/2000/svg"><title>calendar</title><path d="M14 3v10s0 1-1 1H1c-1 0-1-1-1-1V3s0-1 1-1h2V1s.069-1 1-1h1c.933 0 1 1 1 1v1h2V1s0-1 1-1h.998C11 0 11 1 11 1v1h2c1 0 1 1 1 1zM1 4h12v9H1V4zm2 2v2h2V6H3zm3 0v2h2V6H6zm3 0v2h2V6H9zM3 9v2h2V9H3zm3 0v2h2V9H6zm3 0v2h2V9H9zm0-8h1v2H9V1zM4 1h1v2H4V1z" fill="#000" fill-rule="evenodd"/></symbol><symbol viewBox="0 0 12 11" id="camera" xmlns="http://www.w3.org/2000/svg"><title>camera</title><path d="M11 1H9L8 0H4L3 1H1C0 1 0 2 0 2v8s0 1 1 1h10c1 0 1-1 1-1V2c0-.049 0-1-1-1zM9 2h2v1H9V2zM6 9a3 3 0 1 0 0-6 3 3 0 0 0 0 6zm0-1a2 2 0 1 0 0-4 2 2 0 0 0 0 4z" fill="#000" fill-rule="evenodd"/></symbol><symbol viewBox="0 0 12 12" id="cart" xmlns="http://www.w3.org/2000/svg"><title>cart</title><path d="M3 1h.5a.5.5 0 0 0 0-1h-3a.5.5 0 1 0 0 1H2v8c0 .667.333 1 1 1h7.5c.325-.014.491-.173.5-.5.009-.327-.158-.5-.5-.5H3V8h8a1 1 0 0 0 1-1V3a1 1 0 0 0-1-1H3V1zm0 2h8v4H3V3zm1 9a1 1 0 1 0 0-2 1 1 0 0 0 0 2zm5 0a1 1 0 1 0 0-2 1 1 0 0 0 0 2z" fill="#000" fill-rule="evenodd"/></symbol><symbol viewBox="0 0 8 6" id="check" xmlns="http://www.w3.org/2000/svg"><title>check</title><path d="M1 2L0 3l3 3 5-5-1-1-4 4z" fill="#000" fill-rule="evenodd"/></symbol><symbol viewBox="0 0 14 14" id="check-circle" xmlns="http://www.w3.org/2000/svg"><title>check-circle</title><path d="M7 14A7 7 0 1 1 7 0a7 7 0 0 1 0 14zM4 6L3 7l3 3 5-5-1-1-4 4-2-2z" fill="#000" fill-rule="evenodd"/></symbol><symbol viewBox="0 0 14 14" id="check-circle-o" xmlns="http://www.w3.org/2000/svg"><title>check-circle-o</title><path d="M7 14A7 7 0 1 0 7 0a7 7 0 0 0 0 14zm0-1A6 6 0 1 0 7 1a6 6 0 0 0 0 12zM4 6L3 7l3 3 5-5-1-1-4 4-2-2z" fill="#000" fill-rule="evenodd"/></symbol><symbol viewBox="0 0 14 14" id="check-verified" xmlns="http://www.w3.org/2000/svg"><title>check-verified</title><path d="M0 7a2 2 0 0 1 1.298-1.873c.097-.296.217-.581.357-.855a2 2 0 0 1 2.618-2.618c.273-.14.558-.259.854-.356a2 2 0 0 1 3.746 0c.296.097.581.217.855.357a2 2 0 0 1 2.618 2.618c.14.273.259.558.356.854a2 2 0 0 1 0 3.746 5.963 5.963 0 0 1-.357.855 2 2 0 0 1-2.618 2.618c-.273.14-.558.259-.854.356a2 2 0 0 1-3.746 0 5.963 5.963 0 0 1-.855-.357 2 2 0 0 1-2.618-2.618 5.963 5.963 0 0 1-.356-.854A2 2 0 0 1 0 7zm4-1L3 7l3 3 5-5-1-1-4 4-2-2z" fill="#000" fill-rule="evenodd"/></symbol><symbol viewBox="0 0 14 14" id="clock" xmlns="http://www.w3.org/2000/svg"><title>clock</title><path d="M7 14A7 7 0 1 0 7 0a7 7 0 0 0 0 14zm6-7A6 6 0 1 1 1 7a6 6 0 0 1 12 0zM7 8.5h4v-2H8V3H6v4.498S6 8.5 7 8.5z" fill="#000" fill-rule="evenodd"/></symbol><symbol viewBox="0 0 12 12" id="close" xmlns="http://www.w3.org/2000/svg"><title>close</title><path d="M6.002 5L1 0 0 1l5 5-5 5 1.004 1 4.998-4.998L11 12l1.004-1-5-5 5-5-1-1z" fill="#000" fill-rule="evenodd"/></symbol><symbol viewBox="0 0 14 10" id="cloud" xmlns="http://www.w3.org/2000/svg"><title>cloud</title><path d="M11 10H2.5A2.5 2.5 0 0 1 2 5.05V5a3 3 0 0 1 4.105-2.79 3.001 3.001 0 1 1 5.685 1.895A3.001 3.001 0 0 1 11 10z" fill="#000" fill-rule="evenodd"/></symbol><symbol viewBox="0 0 12 12" id="cocktail" xmlns="http://www.w3.org/2000/svg"><title>cocktail</title><path d="M5 7L0 2V0h12v2L7 7v4h3v1H2s-.003-1 0-1h3V7zM3 3h6l2-2H1l2 2z" fill="#000" fill-rule="evenodd"/></symbol><symbol viewBox="0 0 14 8" id="code" xmlns="http://www.w3.org/2000/svg"><title>code</title><path d="M5 6.966L4 8 0 4l4-4 1 1-3 3 3 2.966zM9 7l3-3-3-3 1-1 4 4-4 4-1-1z" fill="#000" fill-rule="evenodd"/></symbol><symbol viewBox="0 0 14 14" id="codepen" xmlns="http://www.w3.org/2000/svg"><title>codepen</title><path d="M14 9.133a.592.592 0 0 1-.005.079l-.005.025-.01.05-.01.03-.016.044-.013.03a.736.736 0 0 1-.02.04l-.018.027a.538.538 0 0 1-.076.095c-.008.008-.015.016-.024.023a.568.568 0 0 1-.034.03l-.027.02-.01.007L7.334 13.9a.6.6 0 0 1-.668 0L.268 9.633l-.01-.007a.565.565 0 0 1-.061-.05l-.024-.023-.03-.033a.495.495 0 0 1-.063-.09.703.703 0 0 1-.02-.04l-.014-.029a.608.608 0 0 1-.016-.044l-.01-.03-.01-.05-.004-.025A.593.593 0 0 1 0 9.132V4.868c0-.026.002-.053.006-.078 0-.01.003-.018.004-.026l.01-.05a.504.504 0 0 1 .026-.074.716.716 0 0 1 .097-.16l.03-.032.024-.024a.584.584 0 0 1 .061-.049l.01-.007L6.666.1a.601.601 0 0 1 .668 0l6.398 4.266.01.007.027.02.034.03c.009.007.016.015.024.023a.514.514 0 0 1 .076.095l.018.028a.597.597 0 0 1 .02.04c.004.01.01.02.013.03l.016.043.01.03.01.05.005.026a.584.584 0 0 1 .005.078v4.266zM1.203 5.993v2.014L2.708 7 1.203 5.993zm5.195-1.461V1.726L1.685 4.868 3.79 6.276l2.608-1.744zm5.917.336L7.602 1.726v2.806l2.608 1.744 2.105-1.408zM1.685 9.132l4.713 3.142V9.468L3.79 7.724 1.685 9.132zm5.917.336v2.806l4.713-3.142-2.105-1.408-2.608 1.744zM7 5.577L4.872 7 7 8.423 9.128 7 7 5.577zm5.797 2.43V5.993L11.292 7l1.505 1.007z" fill="#050101" fill-rule="evenodd"/></symbol><symbol viewBox="0 0 12 10" id="coffee" xmlns="http://www.w3.org/2000/svg"><title>coffee</title><path d="M10 0v1h1s1 0 1 2.5S11 6 11 6h-1c0 1-1.003 2-2 2H1.997C1 8 0 7 0 5.994V0h10zM0 9h12v1H0V9z" fill="#000" fill-rule="evenodd"/></symbol><symbol viewBox="0 0 14 9" id="columns" xmlns="http://www.w3.org/2000/svg"><title>columns</title><path d="M10 0h4v9h-4V0zM5 0h4v9H5V0zM0 0h4v9H0V0z" fill="#000" fill-rule="evenodd"/></symbol><symbol viewBox="0 0 14 14" id="comment" xmlns="http://www.w3.org/2000/svg"><title>comment</title><path d="M2 11.05C.763 9.876 0 8.27 0 6.5 0 2.91 3.134 0 7 0s7 2.91 7 6.5S10.866 13 7 13a7.403 7.403 0 0 1-3.256-.744L2 14v-2.95z" fill="#000" fill-rule="evenodd"/></symbol><symbol viewBox="0 0 14 14" id="comment-o" xmlns="http://www.w3.org/2000/svg"><title>comment-o</title><path d="M2 11.05C.763 9.876 0 8.27 0 6.5 0 2.91 3.134 0 7 0s7 2.91 7 6.5S10.866 13 7 13a7.403 7.403 0 0 1-3.256-.744L2 14v-2.95zM7 12c3.314 0 6-2.462 6-5.5S10.314 1 7 1 1 3.462 1 6.5 3.686 12 7 12z" fill="#000" fill-rule="evenodd"/></symbol><symbol viewBox="0 0 14 14" id="commenting" xmlns="http://www.w3.org/2000/svg"><title>commenting</title><path d="M2 11.05C.763 9.876 0 8.27 0 6.5 0 2.91 3.134 0 7 0s7 2.91 7 6.5S10.866 13 7 13a7.403 7.403 0 0 1-3.256-.744L2 14v-2.95zM4 7.5a1 1 0 1 0 0-2 1 1 0 0 0 0 2zm3 0a1 1 0 1 0 0-2 1 1 0 0 0 0 2zm3 0a1 1 0 1 0 0-2 1 1 0 0 0 0 2z" fill="#000" fill-rule="evenodd"/></symbol><symbol viewBox="0 0 14 12" id="comments" xmlns="http://www.w3.org/2000/svg"><title>comments</title><path d="M4.048 4C4.384 1.74 6.473 0 9 0c2.761 0 5 2.079 5 4.643 0 1.265-.545 2.412-1.429 3.25V10l-1.246-1.246a5.37 5.37 0 0 1-3.625.373c-.598 1.35-2.03 2.302-3.7 2.302a4.23 4.23 0 0 1-1.86-.426L1.143 12v-1.686C.436 9.644 0 8.726 0 7.714 0 5.663 1.79 4 4 4h.048zM1 7.786C1 6.244 2.343 5 4 5s3 1.247 3 2.786c0 1.538-1.343 2.785-3 2.785S1 9.328 1 7.786z" fill="#000" fill-rule="evenodd"/></symbol><symbol viewBox="0 0 14 14" id="compress" xmlns="http://www.w3.org/2000/svg"><title>compress</title><path d="M13 7H7V1l2 2 3-3 2 2-3 3 2 2zM1 7h6v6l-2-2-3 3-2-2 3-3-2-2z" fill="#000" fill-rule="evenodd"/></symbol><symbol viewBox="0 0 12 8" id="credit-card" xmlns="http://www.w3.org/2000/svg"><title>credit-card</title><path d="M1 1h10v1H1V1zm0 2h10v4H1V3zm4 2h2v1H5V5zM2 5h2v1H2V5zM1 0h10a1 1 0 0 1 1 1v6a1 1 0 0 1-1 1H1a1 1 0 0 1-1-1V1a1 1 0 0 1 1-1z" fill="#000" fill-rule="evenodd"/></symbol><symbol viewBox="0 0 14 14" id="crop" xmlns="http://www.w3.org/2000/svg"><title>crop</title><path d="M12 10h2v2h-2v2h-2v-2H3c-1 0-1-1-1-1V4H0V2h2V0h2v2h7l1-1 1 1-1 1v7zM4 4h5L4 9V4zm6 6H5l5-5v5z" fill="#000" fill-rule="evenodd"/></symbol><symbol viewBox="0 0 14 14" id="cry" xmlns="http://www.w3.org/2000/svg"><title>cry</title><path d="M7 13A6 6 0 1 0 7 1a6 6 0 0 0 0 12zm0 1A7 7 0 1 1 7 0a7 7 0 0 1 0 14zm2-3a2 2 0 1 0-4 0h1s0-1 1-1 1 1 1 1h1zm1-1s-1 .015-1-1c0-1.003 1-2 1-2s1 .985 1 2c0 1-1 1-1 1zM9 7a1 1 0 1 0 0-2 1 1 0 0 0 0 2zM5 7a1 1 0 1 0 0-2 1 1 0 0 0 0 2z" fill="#000" fill-rule="evenodd"/></symbol><symbol viewBox="0 0 10 14" id="cutlery" xmlns="http://www.w3.org/2000/svg"><title>cutlery</title><path d="M9.997 1L10 8v5s0 1-1.5 1S7 13 7 13V9H6s0-9 3-9c.997 0 .997 1 .997 1zM4 3V0h1v6s0 1-1 1v6s0 1-.996 1H2c-.91 0-1-1-1-1V7C0 7 0 6 0 6V0h1v3h1V0h1v3h1z" fill="#000" fill-rule="evenodd"/></symbol><symbol viewBox="0 0 14 6" id="delete-link" xmlns="http://www.w3.org/2000/svg"><title>delete-link</title><path d="M6 1H3a2 2 0 1 0 0 4h3v1H3a3 3 0 1 1 0-6h3v1zm2 4h3a2 2 0 1 0 0-4H8V0h3a3 3 0 0 1 0 6H8V5zm1-1H8V2h1a1 1 0 1 1 0 2zM5 4a1 1 0 1 1 0-2h1v2H5z" fill="#000" fill-rule="evenodd"/></symbol><symbol viewBox="0 0 14 12" id="desktop" xmlns="http://www.w3.org/2000/svg"><title>desktop</title><path d="M5.998 11v-.999H1S0 10 0 9V1c0-1 1-1 1-1h12s1 0 1 1v8c0 1.001-1 1.001-1 1.001H8V11h2s0 1-1 1H5c-1 0-1-1-1-1h1.998zM1 1v8h12V1H1z" fill="#000" fill-rule="evenodd"/></symbol><symbol viewBox="0 0 12 12" id="diamond" xmlns="http://www.w3.org/2000/svg"><title>diamond</title><path d="M8 1h.5l2 3H9L8 1zM4 1h-.5l-2 3H3l1-3zm2 11L0 4l3-4h6l3 4-6 8zM5 1h1.997L8 4H4l1-3zm0 4h1.997L6 10 5 5zM2 5h2l1 4-3-4zm8 0H8L7 9l3-4z" fill="#000" fill-rule="evenodd"/></symbol><symbol viewBox="0 0 12 12" id="difference" xmlns="http://www.w3.org/2000/svg"><title>difference</title><path d="M4 4H.997C.453 4 0 4.446 0 4.997v6.006c0 .544.446.997.997.997h6.006c.544 0 .997-.446.997-.997V8h3.003c.544 0 .997-.446.997-.997V.997C12 .453 11.554 0 11.003 0H4.997C4.453 0 4 .446 4 .997V4zM1 5h3v2.003C4 7.45 4.45 8 5 8h2v3H1V5zm10 2H8V4.997C8 4.45 7.45 4 7 4H5V1h6v6z" fill="#000" fill-rule="evenodd"/></symbol><symbol viewBox="0 0 12 12" id="disabled" xmlns="http://www.w3.org/2000/svg"><title>disabled</title><path d="M6 12A6 6 0 1 0 6 0a6 6 0 0 0 0 12zm-3-2a5 5 0 0 0 7-7l-7 7zM2 9a5 5 0 0 1 7-7L2 9z" fill="#000" fill-rule="evenodd"/></symbol><symbol viewBox="0 0 14 14" id="disappointed" xmlns="http://www.w3.org/2000/svg"><title>disappointed</title><path d="M7 13A6 6 0 1 0 7 1a6 6 0 0 0 0 12zm0 1A7 7 0 1 1 7 0a7 7 0 0 1 0 14zm0-5c-2.003 0-2.003 2-2.003 2H6s0-1 1-1 1 1 1 1h.997S9.003 9 7 9zm2.935-3.355a1 1 0 1 1-1.47-.49L8 5V4l3 1v1l-1.065-.355zm-4.4-.49a1 1 0 1 1-1.47.49L3 6V5l3-1v1l-.465.155z" fill="#000" fill-rule="evenodd"/></symbol><symbol viewBox="0 0 10 14" id="distribute-horizontally" xmlns="http://www.w3.org/2000/svg"><title>distribute-horizontally</title><path d="M9 0h1v14H9V0zM3 2h4v10H3V2zM0 0h1v14H0V0z" fill="#000" fill-rule="evenodd"/></symbol><symbol viewBox="0 0 14 10" id="distribute-vertically" xmlns="http://www.w3.org/2000/svg"><title>distribute-vertically</title><path d="M0 9h14v1H0V9zm2-6h10v4H2V3zM0 0h14v1H0V0z" fill="#000" fill-rule="evenodd"/></symbol><symbol viewBox="0 0 10 14" id="document" xmlns="http://www.w3.org/2000/svg"><title>document</title><path d="M1 12.993C1 13 9.005 13 9.005 13 8.997 13 9 4 9 4H6V1H.995C1.005 1 1 12.993 1 12.993zM0 1.007C0 .45.456 0 .995 0H7.5L10 2.5v10.493C10 13.55 9.544 14 9.005 14H.995A1 1 0 0 1 0 12.993V1.007zM2 10h6v1H2v-1zm0-2h6v1H2V8zm0-2h6v1H2V6zm5-5l2 2H7V1z" fill="#000" fill-rule="evenodd"/></symbol><symbol viewBox="0 0 10 12" id="download" xmlns="http://www.w3.org/2000/svg"><title>download</title><path d="M6 7l2-2 1 1-4 4-4-4 1-1 2 2V0h2v7zm-6 4h10v1H0v-1z" fill="#000" fill-rule="evenodd"/></symbol><symbol viewBox="0 0 10 6" id="drop-down" xmlns="http://www.w3.org/2000/svg"><title>drop-down</title><path d="M0 0l5 5 5-5z" fill="#000" fill-rule="evenodd"/></symbol><symbol viewBox="0 0 5 11" id="drop-left" xmlns="http://www.w3.org/2000/svg"><title>drop-left</title><path d="M5 0L0 5l5 5z" fill="#000" fill-rule="evenodd"/></symbol><symbol viewBox="0 0 5 11" id="drop-right" xmlns="http://www.w3.org/2000/svg"><title>drop-right</title><path d="M0 0v10l5-5z" fill="#000" fill-rule="evenodd"/></symbol><symbol viewBox="0 0 10 6" id="drop-up" xmlns="http://www.w3.org/2000/svg"><title>drop-up</title><path d="M5 0l5 5H0z" fill="#000" fill-rule="evenodd"/></symbol><symbol viewBox="0 0 12 12" id="edit" xmlns="http://www.w3.org/2000/svg"><title>edit</title><path d="M11 0v1.004H1V11h10v1H1c-1 0-1-1-1-1V1s0-1 1-1h10zm-1 2l1.997 2L8 8 6 6l4-4zM5 7l2 2H5V7z" fill="#000" fill-rule="nonzero"/></symbol><symbol viewBox="0 0 10 10" id="eject" xmlns="http://www.w3.org/2000/svg"><title>eject</title><path d="M5 0l5 6H0l5-6zM0 8h10v2H0V8z" fill="#000" fill-rule="evenodd"/></symbol><symbol viewBox="0 0 13 3" id="elipsis-h" xmlns="http://www.w3.org/2000/svg"><title>elipsis-h</title><path d="M11.5 3a1.5 1.5 0 1 1 0-3 1.5 1.5 0 0 1 0 3zm-5 0a1.5 1.5 0 1 1 0-3 1.5 1.5 0 0 1 0 3zm-5 0a1.5 1.5 0 1 1 0-3 1.5 1.5 0 0 1 0 3z" fill="#000" fill-rule="evenodd"/></symbol><symbol viewBox="0 0 3 13" id="elipsis-v" xmlns="http://www.w3.org/2000/svg"><title>elipsis-v</title><path d="M1.5 13a1.5 1.5 0 1 1 0-3 1.5 1.5 0 0 1 0 3zm0-5a1.5 1.5 0 1 1 0-3 1.5 1.5 0 0 1 0 3zm0-5a1.5 1.5 0 1 1 0-3 1.5 1.5 0 0 1 0 3z" fill="#000" fill-rule="evenodd"/></symbol><symbol viewBox="0 0 12 8" id="equalizer" xmlns="http://www.w3.org/2000/svg"><title>equalizer</title><path d="M7.085 1a1.5 1.5 0 0 1 2.83 0H12v1H9.915a1.5 1.5 0 0 1-2.83 0H0V1h7.085zm-5 5a1.5 1.5 0 0 1 2.83 0H12v1H4.915a1.5 1.5 0 0 1-2.83 0H0V6h2.085z" fill="#000" fill-rule="evenodd"/></symbol><symbol viewBox="0 0 10 14" id="eraser" xmlns="http://www.w3.org/2000/svg"><title>eraser</title><path d="M9 10v3c0 .552-.453 1-.997 1H1.997A.996.996 0 0 1 1 13v-3H.995C.445 10 0 9.544 0 9.005V.995C0 .445.456 0 .995 0h8.01c.55 0 .995.456.995.995v8.01c0 .55-.456.995-.995.995H9zm-7 0v3h6v-3H2z" fill="#000" fill-rule="evenodd"/></symbol><symbol viewBox="0 0 14 14" id="expand" xmlns="http://www.w3.org/2000/svg"><title>expand</title><path d="M8 0h6v6l-2-2-3 3-2-2 3-3-2-2zM6 14H0V8l2 2 3-3 2 2-3 3 2 2z" fill="#000" fill-rule="evenodd"/></symbol><symbol viewBox="0 0 12 14" id="export" xmlns="http://www.w3.org/2000/svg"><title>export</title><path d="M0 6.002C0 5.45.456 5 1.002 5H3v1.002H1.002V13H11V6.002H9V5h1.998C11.55 5 12 5.456 12 6.002v6.996C12 13.55 11.544 14 10.998 14H1.002A1.007 1.007 0 0 1 0 12.998V6.002zM5 11V3L4 4 3 3l3-3 3 3-1 1-1-1v8H5z" fill="#000" fill-rule="evenodd"/></symbol><symbol viewBox="0 0 14 12" id="eye" xmlns="http://www.w3.org/2000/svg"><title>eye</title><path d="M7 12c3.866 0 7-4 7-6s-3.134-6-7-6-7 4-7 6 3.134 6 7 6zm0-2a4 4 0 1 0 0-8 4 4 0 0 0 0 8zm0-2a2 2 0 1 0 0-4 2 2 0 0 0 0 4z" fill="#000" fill-rule="evenodd"/></symbol><symbol viewBox="0 0 14 14" id="facebook" xmlns="http://www.w3.org/2000/svg"><title>facebook</title><path d="M9.607 14V8.58h1.82l.273-2.113H9.607v-1.35c0-.611.17-1.028 1.047-1.028h1.12v-1.89a14.974 14.974 0 0 0-1.631-.083c-1.613 0-2.718.984-2.718 2.792v1.559H5.601v2.113h1.824V14H.773A.773.773 0 0 1 0 13.227V.773C0 .346.346 0 .773 0h12.454c.427 0 .773.346.773.773v12.454a.773.773 0 0 1-.773.773h-3.62z" fill="#000" fill-rule="evenodd"/></symbol><symbol viewBox="0 0 14 8" id="fast-backward" xmlns="http://www.w3.org/2000/svg"><title>fast-backward</title><path d="M14 0v8L8 4l6-4zM8 0v8L2 4l6-4zM0 0h2v8H0V0z" fill="#000" fill-rule="evenodd"/></symbol><symbol viewBox="0 0 14 8" id="fast-forward" xmlns="http://www.w3.org/2000/svg"><title>fast-forward</title><path d="M0 0l6 4-6 4V0zm6 0l6 4-6 4V0zm6 0h2v8h-2V0z" fill="#000" fill-rule="evenodd"/></symbol><symbol viewBox="0 0 10 12" id="feather" xmlns="http://www.w3.org/2000/svg"><title>feather</title><path d="M1 9.95C6.053 9.45 10 5.186 10 0 4.477 0 0 4.477 0 10v2s1 0 1-1V9.95z" fill="#000" fill-rule="evenodd"/></symbol><symbol viewBox="0 0 14 14" id="feed" xmlns="http://www.w3.org/2000/svg"><title>feed</title><path d="M14 14h-2.038C12 7.618 6.382 2 0 2.038V0c7.732 0 14 6.268 14 14zm-4 0H7.945C8 9.828 4.172 6 0 6.055V4c5.523 0 10 4.477 10 10zm-8 0a2 2 0 1 1 0-4 2 2 0 0 1 0 4z" fill="#000" fill-rule="evenodd"/></symbol><symbol viewBox="0 0 10 14" id="file" xmlns="http://www.w3.org/2000/svg"><title>file</title><path d="M1 12.993C1 13 9.005 13 9.005 13 8.997 13 9 4 9 4H6V1H.995C1.005 1 1 12.993 1 12.993zM0 1.007C0 .45.456 0 .995 0H7.5L10 2.5v10.493C10 13.55 9.544 14 9.005 14H.995A1 1 0 0 1 0 12.993V1.007zM7 1l2 2H7V1z" fill="#000" fill-rule="evenodd"/></symbol><symbol viewBox="0 0 10 14" id="file-audio" xmlns="http://www.w3.org/2000/svg"><title>file-audio</title><path d="M1 12.993C1 13 9.005 13 9.005 13 8.997 13 9 4 9 4H6V1H.995C1.005 1 1 12.993 1 12.993zM0 1.007C0 .45.456 0 .995 0H7.5L10 2.5v10.493C10 13.55 9.544 14 9.005 14H.995A1 1 0 0 1 0 12.993V1.007zM7 1l2 2H7V1zM4 7h3v2a1 1 0 1 0 1 1V7s0-1-.996-1H4C3 6 3 7 3 7v3a1 1 0 1 0 1 1V7z" fill="#000" fill-rule="evenodd"/></symbol><symbol viewBox="0 0 10 14" id="file-excel" xmlns="http://www.w3.org/2000/svg"><title>file-excel</title><path d="M1 12.993C1 13 9.005 13 9.005 13 8.997 13 9 4 9 4H6V1H.995C1.005 1 1 12.993 1 12.993zM0 1.007C0 .45.456 0 .995 0H7.5L10 2.5v10.493C10 13.55 9.544 14 9.005 14H.995A1 1 0 0 1 0 12.993V1.007zM7 1l2 2H7V1zM2 7h2l1 1.5L6 7h2L7 9l1 2H6L5 9.5 4 11H2l.99-2L2 7z" fill="#000" fill-rule="evenodd"/></symbol><symbol viewBox="0 0 10 14" id="file-image" xmlns="http://www.w3.org/2000/svg"><title>file-image</title><path d="M1 12.993C1 13 9.005 13 9.005 13 8.997 13 9 4 9 4H6V1H.995C1.005 1 1 12.993 1 12.993zM0 1.007C0 .45.456 0 .995 0H7.5L10 2.5v10.493C10 13.55 9.544 14 9.005 14H.995A1 1 0 0 1 0 12.993V1.007zM7 1l2 2H7V1zm-5 9l2-2 2 2 1-1 1 1v2H2v-2zm5-2a1 1 0 1 0 0-2 1 1 0 0 0 0 2z" fill="#000" fill-rule="evenodd"/></symbol><symbol viewBox="0 0 10 14" id="file-movie" xmlns="http://www.w3.org/2000/svg"><title>file-movie</title><path d="M0 1.007C0 .45.456 0 .995 0H7.5L10 2.5v10.493C10 13.55 9.544 14 9.005 14H.995A1 1 0 0 1 0 12.993V1.007zm1 11.986C1 13 9.005 13 9.005 13 8.997 13 9 4 9 4H6V1H.995C1.005 1 1 12.993 1 12.993zM2 8.5s0-.5.5-.5h3c.5 0 .5.5.5.5v2s0 .5-.5.5h-3c-.5 0-.5-.5-.5-.5v-2zM8 8v3L6 9.5 8 8zM7 1l2 2H7V1z" fill="#000" fill-rule="evenodd"/></symbol><symbol viewBox="0 0 10 14" id="file-powerpoint" xmlns="http://www.w3.org/2000/svg"><title>file-powerpoint</title><path d="M1 12.993C1 13 9.005 13 9.005 13 8.997 13 9 4 9 4H6V1H.995C1.005 1 1 12.993 1 12.993zM0 1.007C0 .45.456 0 .995 0H7.5L10 2.5v10.493C10 13.55 9.544 14 9.005 14H.995A1 1 0 0 1 0 12.993V1.007zM7 1l2 2H7V1zM4 8h1.5s.5 0 .5.5-.5.5-.5.5H4V8zm1.667-1H3v4h1v-1h1.667S7 10 7 8.5 5.667 7 5.667 7z" fill="#000" fill-rule="evenodd"/></symbol><symbol viewBox="0 0 10 14" id="file-word" xmlns="http://www.w3.org/2000/svg"><title>file-word</title><path d="M1 12.993C1 13 9.005 13 9.005 13 8.997 13 9 4 9 4H6V1H.995C1.005 1 1 12.993 1 12.993zM0 1.007C0 .45.456 0 .995 0H7.5L10 2.5v10.493C10 13.55 9.544 14 9.005 14H.995A1 1 0 0 1 0 12.993V1.007zM7 1l2 2H7V1zM2 7h1.5L4 9l.5-2h1L6 9l.5-2H8l-1 4H5.5L5 9l-.5 2H3L2 7z" fill="#000" fill-rule="evenodd"/></symbol><symbol viewBox="0 0 10 14" id="file-zip" xmlns="http://www.w3.org/2000/svg"><title>file-zip</title><path d="M0 1.007C0 .45.456 0 .995 0H7.5L10 2.5v10.493C10 13.55 9.544 14 9.005 14H.995A1 1 0 0 1 0 12.993V1.007zm1 11.986C1 13 9.005 13 9.005 13 8.997 13 9 4 9 4H6V1H.995C1.005 1 1 12.993 1 12.993zM7 1l2 2H7V1zM4 1h1v1H4V1zM3 2h1v1H3V2zm1 1h1v1H4V3zM3 4h1v1H3V4zm1 1h1v1H4V5zM3 6h1v1H3V6zm0 2l1-1 1 1v3H3V8z" fill="#000" fill-rule="evenodd"/></symbol><symbol viewBox="0 0 10 14" id="filter" xmlns="http://www.w3.org/2000/svg"><title>filter</title><path d="M6 14l-2-2V6L0 2V0h10v2L6 6v8z" fill="#000" fill-rule="evenodd"/></symbol><symbol viewBox="0 0 13 14" id="flag" xmlns="http://www.w3.org/2000/svg"><title>flag</title><path d="M1 2.915a1.5 1.5 0 1 1 1 0V14H1V2.915zM3 3h10v6H3V3z" fill="#000" fill-rule="evenodd"/></symbol><symbol viewBox="0 0 14 12" id="folder" xmlns="http://www.w3.org/2000/svg"><title>folder</title><path d="M1 12h12c1 0 1-1 1-1V3s0-1-1-1H7V1c0-1-1-1-1-1H3S2 0 2 1v1H1C0 2 0 3 0 3v8s0 1 1 1z" fill="#000" fill-rule="evenodd"/></symbol><symbol viewBox="0 0 14 12" id="folder-open" xmlns="http://www.w3.org/2000/svg"><title>folder-open</title><path d="M4 11h1V5h9v6c0 1.094-1 1-1 1H1s-1 0-1-1V3c0-1 1-1 1-1h1V1c0-1 1-1 1-1h3s1 0 1 1v1h5s1 0 1 1v1H4v7z" fill="#000" fill-rule="evenodd"/></symbol><symbol viewBox="0 0 10 14" id="fork" xmlns="http://www.w3.org/2000/svg"><title>fork</title><path d="M6.502 5.325a2 2 0 1 1 1.964.62C7.804 7.386 6.32 9 3 9v1.268a2 2 0 1 1-2 0V3.732a2 2 0 1 1 2 0V7c2.034 0 3.022-.845 3.502-1.675zM2 3a1 1 0 1 0 0-2 1 1 0 0 0 0 2zm0 10a1 1 0 1 0 0-2 1 1 0 0 0 0 2zm6-8a1 1 0 1 0 0-2 1 1 0 0 0 0 2z" fill="#000" fill-rule="evenodd"/></symbol><symbol viewBox="0 0 14 10" id="forward" xmlns="http://www.w3.org/2000/svg"><title>forward</title><path d="M0 0l7 5-7 5V0zm7 0l7 5-7 5V0z" fill="#000" fill-rule="evenodd"/></symbol><symbol viewBox="0 0 14 14" id="frowing" xmlns="http://www.w3.org/2000/svg"><title>frowing</title><path d="M7 13A6 6 0 1 0 7 1a6 6 0 0 0 0 12zm0 1A7 7 0 1 1 7 0a7 7 0 0 1 0 14zm0-5c-2.003 0-2.003 2-2.003 2H6s0-1 1-1 1 1 1 1h.997S9.003 9 7 9zm2-1a1 1 0 1 1 0-2 1 1 0 0 1 0 2zM5 8a1 1 0 1 1 0-2 1 1 0 0 1 0 2z" fill="#000" fill-rule="evenodd"/></symbol><symbol viewBox="0 0 14 6" id="gamepad" xmlns="http://www.w3.org/2000/svg"><title>gamepad</title><path d="M3 0h8a3 3 0 1 1-2.236 5H5.236A3 3 0 1 1 3 0zm8.5 4a.5.5 0 1 0 0-1 .5.5 0 0 0 0 1zm1-1a.5.5 0 1 0 0-1 .5.5 0 0 0 0 1zM10 3a1 1 0 1 0 0-2 1 1 0 0 0 0 2zM4 2V1H3v1H2v1h1v1h1V3h1V2H4z" fill="#000" fill-rule="evenodd"/></symbol><symbol viewBox="0 0 14 14" id="gear" xmlns="http://www.w3.org/2000/svg"><title>gear</title><path d="M9.757 11.172A4.972 4.972 0 0 1 8 11.9v1.6c0 .5-.495.5-.495.5H6.5S6 14 6 13.5v-1.6a4.972 4.972 0 0 1-1.757-.728L3.11 12.303c-.354.354-.704.004-.704.004l-.71-.71s-.354-.354 0-.708l1.131-1.132A4.972 4.972 0 0 1 2.1 8H.5C0 8 0 7.5 0 7.5v-1S0 6 .5 6h1.6c.13-.638.38-1.233.728-1.757L1.697 3.11c-.354-.354 0-.707 0-.707l.707-.707s.353-.354.707 0l1.132 1.131A4.972 4.972 0 0 1 6 2.1V.5c0-.5.5-.5.5-.5h1S8 0 8 .5v1.6c.638.13 1.233.38 1.757.728l1.132-1.131c.354-.354.707 0 .707 0l.707.707s.354.353 0 .707l-1.131 1.132c.347.524.598 1.119.728 1.757h1.6c.5 0 .5.488.5.488V7.5s0 .5-.5.5h-1.6a4.972 4.972 0 0 1-.728 1.757l1.131 1.132c.354.354.01.698.01.698l-.717.716s-.353.354-.707 0l-1.132-1.131zM7 10a3 3 0 1 0 0-6 3 3 0 0 0 0 6z" fill="#000" fill-rule="evenodd"/></symbol><symbol viewBox="0 0 10 10" id="gift" xmlns="http://www.w3.org/2000/svg"><title>gift</title><path d="M6 9H4V7H1v3h8V7H6v2zM0 6V4c0-.667.333-1 1-1h2.218l.062-.016A1.5 1.5 0 1 1 5 1.5a1.5 1.5 0 1 1 1.736 1.481L6.81 3H9c.667 0 1 .333 1 1v2H6V4H4v2H0zm6.5-4a.5.5 0 1 0-.5-.5V2h.5zm-3 0H4v-.5a.5.5 0 1 0-.5.5z" fill="#000" fill-rule="evenodd"/></symbol><symbol viewBox="0 0 14 14" id="git" xmlns="http://www.w3.org/2000/svg"><title>git</title><path d="M13.736 6.376L7.623.264a.902.902 0 0 0-1.275 0L5.08 1.534l1.61 1.61a1.07 1.07 0 0 1 1.356 1.365L9.597 6.06a1.073 1.073 0 1 1-.642.605L7.506 5.218v3.809a1.073 1.073 0 1 1-.882-.031V5.15a1.072 1.072 0 0 1-.582-1.407L4.455 2.158.264 6.348a.902.902 0 0 0 0 1.275l6.113 6.113a.902.902 0 0 0 1.275 0l6.084-6.084a.902.902 0 0 0 0-1.276" fill="#000" fill-rule="evenodd"/></symbol><symbol viewBox="0 0 14 14" id="github" xmlns="http://www.w3.org/2000/svg"><title>github</title><path d="M7 0C3.132 0 0 3.132 0 7a6.995 6.995 0 0 0 4.786 6.641c.35.062.482-.149.482-.332 0-.166-.01-.718-.01-1.304-1.758.324-2.213-.429-2.353-.823-.079-.2-.42-.822-.717-.988-.246-.132-.596-.455-.01-.464.552-.009.946.508 1.077.717.63 1.06 1.636.762 2.039.578.061-.455.245-.761.446-.936-1.558-.175-3.185-.779-3.185-3.457 0-.76.271-1.39.717-1.88-.07-.176-.314-.893.07-1.856 0 0 .587-.183 1.925.718a6.495 6.495 0 0 1 1.75-.236c.595 0 1.19.078 1.75.236 1.34-.91 1.926-.718 1.926-.718.385.963.14 1.68.07 1.855.446.49.717 1.111.717 1.881 0 2.687-1.636 3.282-3.194 3.457.254.218.473.638.473 1.295 0 .936-.009 1.688-.009 1.925 0 .184.131.402.481.332A7.011 7.011 0 0 0 14 7c0-3.868-3.133-7-7-7z" fill="#000" fill-rule="evenodd"/></symbol><symbol viewBox="0 0 14 12" id="github-alt" xmlns="http://www.w3.org/2000/svg"><title>github-alt</title><path d="M12.863 2.922c.113-.28.48-1.391-.114-2.896 0 0-.919-.29-3.01 1.137C8.864.918 7.927.883 7 .883c-.928 0-1.864.035-2.739.28C2.17-.272 1.251.026 1.251.026c-.595 1.505-.227 2.616-.113 2.896C.427 3.683 0 4.663 0 5.853c0 4.506 2.914 5.521 6.982 5.521 4.07 0 7.018-1.015 7.018-5.52 0-1.19-.429-2.17-1.137-2.932zM7 10.517c-2.888 0-5.232-.131-5.232-2.931 0-.665.332-1.295.892-1.812.936-.857 2.537-.402 4.34-.402 1.811 0 3.395-.455 4.34.402.569.517.893 1.138.893 1.812 0 2.79-2.346 2.93-5.233 2.93zM4.804 6.133c-.578 0-1.05.7-1.05 1.558 0 .857.472 1.566 1.05 1.566.577 0 1.05-.7 1.05-1.566 0-.867-.473-1.558-1.05-1.558zm4.392 0c-.577 0-1.05.691-1.05 1.558 0 .866.473 1.566 1.05 1.566.578 0 1.05-.7 1.05-1.566 0-.867-.463-1.558-1.05-1.558z" fill="#000" fill-rule="evenodd"/></symbol><symbol viewBox="0 0 14 14" id="globe" xmlns="http://www.w3.org/2000/svg"><title>globe</title><path d="M0 7a7 7 0 1 1 14 0A7 7 0 0 1 0 7zm1.252-1.552c-.243.507.152.785.498.957.346.172 1.404-1.174 1.404-1.174l1.221.894s.178 1.483.515 1.75c.337.267 1.017.267 1.017.267l1.28.589s-.283.57-.187.894c.096.324.577.856.577.856S6.643 12.495 7 13.125h.875c.369 0 2.713-2.922 2.625-3.5-.088-.578-2.923-1.038-2.923-1.038s-.922-.365-1.277-.731c-.175-.15 0-.473 0-.473s.413.17.708 0S8.244 6.26 8.244 6.26s.198.298.506-.135-.35-1.392-.875-1.383c-.59.01-.867.887-.867.887l-.944-.567s.965-.276.944-.687c-.02-.411-.599-1.047-1.023-.875-.425.172-.078.698-.078.698-.657.177-1.368 0-1.368 0s-.658-.37-1.26-.302c-.603.067-.437.443-.654.39-.258-.063-.153-.786-.441-.786-.289 0-.69 1.44-.932 1.948zm6.57-2.098c.845 0 1.38.3 1.69 0 .31-.3 1.195-1.007.572-1.502-.624-.496-1.745-.85-2.203-.85-.458 0-2.593-.124-2.593.701-.341.577 1.69 1.651 2.534 1.651z" fill="#000" fill-rule="evenodd"/></symbol><symbol viewBox="0 0 14 14" id="google" xmlns="http://www.w3.org/2000/svg"><title>google</title><path d="M6.993 8.33V5.726h6.552c.098.441.175.854.175 1.435C13.72 11.158 11.039 14 7 14c-3.864 0-7-3.136-7-7s3.136-7 7-7c1.89 0 3.472.693 4.683 1.827L9.695 3.759C9.191 3.283 8.309 2.723 7 2.723c-2.317 0-4.207 1.925-4.207 4.284S4.683 11.291 7 11.291c2.681 0 3.668-1.855 3.85-2.954H6.993V8.33z" fill="#000" fill-rule="nonzero"/></symbol><symbol viewBox="0 0 14 9" id="google-plus" xmlns="http://www.w3.org/2000/svg"><title>google-plus</title><path d="M4.455 3.818H8.66c.038.223.07.446.07.738 0 2.546-1.706 4.353-4.276 4.353A4.451 4.451 0 0 1 0 4.455 4.451 4.451 0 0 1 4.455 0a4.27 4.27 0 0 1 2.984 1.165L6.23 2.329c-.33-.318-.91-.687-1.775-.687-1.521 0-2.762 1.26-2.762 2.813 0 1.552 1.24 2.812 2.762 2.812 1.762 0 2.424-1.266 2.526-1.922H4.455V3.818zm9.545 0v1.273h-1.273v1.273h-1.272V5.09h-1.273V3.818h1.273V2.545h1.272v1.273H14z" fill="#000" fill-rule="evenodd"/></symbol><symbol viewBox="0 0 14 14" id="hash" xmlns="http://www.w3.org/2000/svg"><title>hash</title><path d="M7.64 11.375H5.027l-.262 1.522c-.125.725-.793 1.21-1.505 1.082-.706-.127-1.178-.812-1.052-1.544l.182-1.06H1.306A1.306 1.306 0 0 1 0 10.062C0 9.338.58 8.75 1.306 8.75h1.537l.527-3.063H2.181A1.306 1.306 0 0 1 .875 4.375c0-.725.58-1.313 1.306-1.313h1.642l.337-1.959c.125-.725.794-1.21 1.505-1.082.706.127 1.178.813 1.052 1.544L6.46 3.063h2.614l.337-1.96c.125-.725.794-1.21 1.505-1.082.706.127 1.178.813 1.052 1.544l-.258 1.498h.985c.721 0 1.306.582 1.306 1.312 0 .725-.58 1.313-1.306 1.313h-1.437L10.73 8.75h1.089c.721 0 1.306.583 1.306 1.313 0 .724-.58 1.312-1.306 1.312h-1.542l-.262 1.522c-.125.725-.793 1.21-1.505 1.082-.706-.127-1.178-.812-1.052-1.544l.182-1.06zm.453-2.625H5.48l.527-3.063H8.62L8.093 8.75z" fill="#000" fill-rule="evenodd"/></symbol><symbol viewBox="0 0 14 14" id="headphone" xmlns="http://www.w3.org/2000/svg"><title>headphone</title><path d="M7 0c4.9 0 5.798 6 5.963 8.202C14 8.71 14 10 14 10v2.004S14 14 11.997 14c0 0-.997 0-.997-.972V9c0-.853.742-.978.946-.997C11.756 5.86 10.896 1 7 1 3.103 1 2.243 5.859 2.054 8.003 2.258 8.022 3 8.147 3 9v4.028C3 14 2.003 14 2.003 14 0 14 0 12.004 0 12.004V10s0-1.29 1.037-1.798C1.202 6 2.101 0 7 0z" fill="#000" fill-rule="evenodd"/></symbol><symbol viewBox="0 0 12 10" id="heart" xmlns="http://www.w3.org/2000/svg"><title>heart</title><path d="M6 10s4.873-2.487 5.847-5.97C12.822.548 8.924-1.942 6 2.04 3.076-1.94-.822.548.153 4.03 1.127 7.513 6 10 6 10z" fill="#000" fill-rule="evenodd"/></symbol><symbol viewBox="0 0 12 10" id="heart-o" xmlns="http://www.w3.org/2000/svg"><title>heart-o</title><path d="M6 10s4.873-2.487 5.847-5.97C12.822.548 8.924-1.942 6 2.04 3.076-1.94-.822.548.153 4.03 1.127 7.513 6 10 6 10zm-.014-1.52s3.76-2.122 4.373-4.465c.612-2.344-1.382-4.01-4.373-.022-2.99-3.988-5.1-2.322-4.372.022.729 2.343 4.372 4.466 4.372 4.466z" fill="#000" fill-rule="evenodd"/></symbol><symbol viewBox="0 0 14 14" id="home" xmlns="http://www.w3.org/2000/svg"><title>home</title><path d="M7 0l7 7v1h-2v5s0 1-1 1H8v-4H6v4H3.004C2 14 2 13 2 13V8H0V7l7-7z" fill="#000" fill-rule="evenodd"/></symbol><symbol viewBox="0 0 12 14" id="import" xmlns="http://www.w3.org/2000/svg"><title>import</title><path d="M5 0h2v9l1-1 1 1-3 3-3-3 1-1 1 1V0zM0 6.002C0 5.45.456 5 1.002 5H3v1.002H1.002V13H11V6.002H9V5h1.998C11.55 5 12 5.456 12 6.002v6.996C12 13.55 11.544 14 10.998 14H1.002A1.007 1.007 0 0 1 0 12.998V6.002z" fill="#000" fill-rule="nonzero"/></symbol><symbol viewBox="0 0 14 14" id="info" xmlns="http://www.w3.org/2000/svg"><title>info</title><path d="M7 5a1 1 0 1 0 0-2 1 1 0 0 0 0 2zm0 9A7 7 0 1 0 7 0a7 7 0 0 0 0 14zm-.5-3h1c.5 0 .5-.5.5-.5v-4S8 6 7.5 6h-1c-.5 0-.5.5-.5.5v4s0 .5.5.5z" fill="#000" fill-rule="evenodd"/></symbol><symbol viewBox="0 0 14 6" id="insert-link" xmlns="http://www.w3.org/2000/svg"><title>insert-link</title><path d="M6 1H3a2 2 0 1 0 0 4h3v1H3a3 3 0 1 1 0-6h3v1zm2 4h3a2 2 0 1 0 0-4H8V0h3a3 3 0 0 1 0 6H8V5zM5 2h4c1 0 1 1 1 1s0 1-1 1H5C4 4 4 3 4 3s0-1 1-1z" fill="#000" fill-rule="evenodd"/></symbol><symbol viewBox="0 0 14 14" id="instagram" xmlns="http://www.w3.org/2000/svg"><title>instagram</title><path d="M7 0C5.099 0 4.86.008 4.114.042c-.745.034-1.254.152-1.7.326-.46.178-.85.418-1.24.807-.388.389-.628.78-.807 1.24-.173.445-.29.954-.325 1.699C.008 4.86 0 5.099 0 7c0 1.901.008 2.14.042 2.886.034.745.152 1.254.325 1.7.18.46.419.85.808 1.24.389.388.78.628 1.24.807.445.173.954.29 1.699.325.747.034.985.042 2.886.042 1.901 0 2.14-.008 2.886-.042.745-.034 1.254-.152 1.7-.325.46-.18.85-.419 1.24-.808.388-.389.628-.78.807-1.24.173-.445.29-.954.325-1.699C13.992 9.14 14 8.901 14 7c0-1.901-.008-2.14-.042-2.886-.034-.745-.152-1.254-.325-1.7a3.431 3.431 0 0 0-.808-1.24 3.43 3.43 0 0 0-1.24-.806C11.14.194 10.631.076 9.886.042 9.14.008 8.901 0 7 0m0 1.261c1.87 0 2.09.007 2.829.041.682.031 1.053.145 1.3.241.326.127.56.279.804.524.245.245.397.478.524.805.096.246.21.617.24 1.3.035.738.042.959.042 2.828 0 1.87-.007 2.09-.041 2.829-.031.682-.145 1.053-.241 1.3a2.17 2.17 0 0 1-.524.804 2.169 2.169 0 0 1-.805.524c-.246.096-.617.21-1.3.24-.737.035-.959.042-2.828.042-1.87 0-2.09-.007-2.829-.041-.682-.031-1.053-.145-1.3-.241a2.168 2.168 0 0 1-.804-.524 2.169 2.169 0 0 1-.524-.805c-.096-.246-.21-.617-.24-1.3C1.267 9.09 1.26 8.87 1.26 7c0-1.87.007-2.09.041-2.829.031-.682.145-1.053.241-1.3.127-.326.279-.56.524-.804.245-.245.478-.397.805-.524.246-.096.617-.21 1.3-.241.738-.034.959-.04 2.828-.04m0 8.071a2.333 2.333 0 1 1 0-4.666 2.333 2.333 0 0 1 0 4.666m0-5.928a3.595 3.595 0 1 0 0 7.19 3.595 3.595 0 0 0 0-7.19m4.577-.142a.84.84 0 1 1-1.68 0 .84.84 0 0 1 1.68 0" fill="#000" fill-rule="evenodd"/></symbol><symbol viewBox="0 0 12 12" id="intersect" xmlns="http://www.w3.org/2000/svg"><title>intersect</title><path d="M4 4H.997C.453 4 0 4.446 0 4.997v6.006c0 .544.446.997.997.997h6.006c.544 0 .997-.446.997-.997V8h3.003c.544 0 .997-.446.997-.997V.997C12 .453 11.554 0 11.003 0H4.997C4.453 0 4 .446 4 .997V4zm0 0h3c.45 0 1 .45 1 .997V8H4.997C4.45 8 4 7.45 4 7V4z" fill="#000" fill-rule="evenodd"/></symbol><symbol viewBox="0 0 8 14" id="italic" xmlns="http://www.w3.org/2000/svg"><title>italic</title><path d="M4 2H2.5S2 2 2 1.5v-1c0-.5.5-.5.5-.5h5S8 0 8 .5v1c0 .5-.5.5-.5.5H6L4 12h1.5s.5 0 .5.5v1c0 .5-.5.5-.5.5h-5s-.5 0-.5-.5v-1c0-.5.5-.5.5-.5H2L4 2z" fill="#000" fill-rule="evenodd"/></symbol><symbol viewBox="0 0 14 14" id="key" xmlns="http://www.w3.org/2000/svg"><title>key</title><path d="M8.5 8H6.498v2.002L5.5 11h-2v2l-.997 1H1.5L0 12.499v-.997l7.113-7.115a3.5 3.5 0 1 1 2.5 2.5L8.5 8zM11 4a1 1 0 1 0 0-2 1 1 0 0 0 0 2z" fill="#000" fill-rule="evenodd"/></symbol><symbol viewBox="0 0 14 7" id="keyboard" xmlns="http://www.w3.org/2000/svg"><title>keyboard</title><path d="M14 6s0 1-1 1H1C0 7 0 6 0 6V1s0-1 1-1h12c1 0 1 1 1 1v5zM1 1v1h2V1H1zm3 0v1h1V1H4zm2 0v1h1V1H6zm2 0v1h1V1H8zm2 0v1h1V1h-1zm2 0v1h1V1h-1zm-1 2v3h2V3h-2zM1 3v1h1V3H1zm2 0v1h1V3H3zm2 0v1h1V3H5zm2 0v1h1V3H7zm2 0v1h1V3H9zM1 5v1h1V5H1zm2 0v1h1V5H3zm2 0v1h1V5H5zm2 0v1h1V5H7zm2 0v1h1V5H9z" fill="#000" fill-rule="evenodd"/></symbol><symbol viewBox="0 0 14 11" id="kitchen-cooker" xmlns="http://www.w3.org/2000/svg"><title>kitchen-cooker</title><path d="M11 10H3a1 1 0 0 1-2 0c-.553-.004-1-.458-1-.995V.995A1 1 0 0 1 1.007 0h11.986C13.55 0 14 .456 14 .995v8.01A1 1 0 0 1 13 10a1 1 0 1 1-2 0zM1 9.005C1 8.995 12.993 9 12.993 9 13 9 13 .995 13 .995 13 1.005 1.007 1 1.007 1 1 1 1 9.005 1 9.005zM2 4h10v4H2V4zm4 1h2v1H6V5zm3.5-2a.5.5 0 1 0 0-1 .5.5 0 0 0 0 1zm-2 0a.5.5 0 1 0 0-1 .5.5 0 0 0 0 1zm4 0a.5.5 0 1 0 0-1 .5.5 0 0 0 0 1zM2 2h3v1H2V2z" fill="#000" fill-rule="evenodd"/></symbol><symbol viewBox="0 0 14 10" id="laptop" xmlns="http://www.w3.org/2000/svg"><title>laptop</title><path d="M0 9h14s0 1-1 1H1c-1 0-1-1-1-1zm13-1.966C13 8 12 8 12 8H2S1 8 1 7V1c0-1 1-1 1-1h10s1 0 1 1v6.034zM2 1v6h10V1H2z" fill="#000" fill-rule="evenodd"/></symbol><symbol viewBox="0 0 12 14" id="layer" xmlns="http://www.w3.org/2000/svg"><title>layer</title><path d="M11 8l-5 4-5-4-1 1 6 5 6-5-1-1zM6 0L0 5l6 5 6-5-6-5z" fill="#000" fill-rule="evenodd"/></symbol><symbol viewBox="0 0 14 10" id="layout" xmlns="http://www.w3.org/2000/svg"><title>layout</title><path d="M0 0h9v10H0V0zm10 0h4v3h-4V0zm0 4h4v6h-4V4z" fill="#000" fill-rule="evenodd"/></symbol><symbol viewBox="0 0 12 10" id="line-chart" xmlns="http://www.w3.org/2000/svg"><title>line-chart</title><path d="M7 4L6 3 4 5a1 1 0 1 1-1-1l2-2a1 1 0 1 1 2 0l1 1 2-2a1 1 0 1 1 1 1L9 4a1 1 0 1 1-2 0zM0 2h1v7h11v1H0V2z" fill="#000" fill-rule="evenodd"/></symbol><symbol viewBox="0 0 16 9" id="link" xmlns="http://www.w3.org/2000/svg"><title>link</title><path d="M4 5.01V6c-1-.013-4-.002-4-3 0-3 3-3 3-3h5s3 0 3 3-3 3-3 3v-.99s1.994 0 2-2.01c.006-2.012-2-2-2-2l-5 .013S1 1 1 2.997C1 4.994 3 5.01 4 5.01zm8-1.02V3c1 .013 4 .002 4 3 0 3-3 3-3 3H8S5 9 5 6s3-3 3-3v.99S6.006 3.99 6 6c-.006 2.012 2 2 2 2l5-.013S15 8 15 6.003c0-1.997-2-2.013-3-2.013z" fill="#000" fill-rule="nonzero"/></symbol><symbol viewBox="0 0 10 10" id="link-external" xmlns="http://www.w3.org/2000/svg"><title>link-external</title><path d="M0 9V3c0-1 1-1 1-1h3v1H1v6h6V6h1v3c0 1-1 1-1 1H1s-1 0-1-1zm9-7L5 6 4 5l4-4H5V0h5v5H9V2z" fill="#000" fill-rule="evenodd"/></symbol><symbol viewBox="0 0 12 12" id="list-bullet" xmlns="http://www.w3.org/2000/svg"><title>list-bullet</title><path d="M4 0h8v2H4V0zm0 5h8v2H4V5zm0 5h8v2H4v-2zm-4 0h2v2H0v-2zm0-5h2v2H0V5zm0-5h2v2H0V0z" fill="#000" fill-rule="evenodd"/></symbol><symbol viewBox="0 0 12 14" id="list-order" xmlns="http://www.w3.org/2000/svg"><title>list-order</title><path d="M4 11h8v2H4v-2zm0-5h8v2H4V6zm0-5h8v2H4V1zm-2.5 9c.187 0 .356.026.506.077.15.052.279.123.386.214a.932.932 0 0 1 .33.719c0 .124-.014.234-.043.328a.755.755 0 0 1-.126.248.755.755 0 0 1-.202.179c-.08.048-.17.089-.27.121.242.074.424.187.543.339.12.151.18.342.18.57 0 .196-.038.368-.112.518-.075.15-.176.275-.303.377-.127.102-.275.18-.442.232a1.77 1.77 0 0 1-.531.078c-.204 0-.381-.023-.533-.068a1.171 1.171 0 0 1-.681-.525A2.154 2.154 0 0 1 0 12.963l.306-.121a.415.415 0 0 1 .16-.033.28.28 0 0 1 .13.03c.038.02.068.049.088.087a2.4 2.4 0 0 0 .11.186.692.692 0 0 0 .613.325.79.79 0 0 0 .309-.055.671.671 0 0 0 .22-.145.592.592 0 0 0 .175-.42c0-.094-.01-.179-.03-.255a.378.378 0 0 0-.13-.197.712.712 0 0 0-.281-.127 2.103 2.103 0 0 0-.492-.046v-.476c.17-.002.31-.017.423-.046a.733.733 0 0 0 .268-.12.409.409 0 0 0 .138-.186.694.694 0 0 0 .04-.238c0-.186-.053-.326-.157-.421-.105-.095-.248-.142-.43-.142-.164 0-.3.042-.409.126a.658.658 0 0 0-.227.323.293.293 0 0 1-.092.148.248.248 0 0 1-.154.044.601.601 0 0 1-.096-.008l-.364-.062c.028-.188.082-.352.162-.494a1.194 1.194 0 0 1 .717-.568A1.71 1.71 0 0 1 1.5 10zm.454-4.92c.155.055.287.13.396.23.11.098.196.216.257.355.061.138.092.293.092.462 0 .146-.022.281-.066.405a1.67 1.67 0 0 1-.175.356 2.4 2.4 0 0 1-.258.328c-.099.106-.202.214-.31.323l-.909.831h1.542c.075 0 .134.021.177.062a.213.213 0 0 1 .066.163V9H0v-.224a.385.385 0 0 1 .123-.28l1.224-1.203c.102-.102.193-.2.274-.293.081-.093.149-.185.204-.276a1.25 1.25 0 0 0 .125-.278c.03-.094.043-.193.043-.297a.691.691 0 0 0-.041-.25.49.49 0 0 0-.306-.293.738.738 0 0 0-.24-.037.651.651 0 0 0-.41.123.644.644 0 0 0-.224.331.274.274 0 0 1-.092.15.257.257 0 0 1-.156.045.574.574 0 0 1-.092-.009L.07 6.146c.028-.19.081-.356.161-.499a1.202 1.202 0 0 1 .713-.574c.155-.049.322-.073.5-.073.186 0 .356.027.51.08zM.314 3.49h.883V1.16c0-.09.003-.185.009-.284l-.627.48a.229.229 0 0 1-.08.042.304.304 0 0 1-.08.01.255.255 0 0 1-.11-.023.203.203 0 0 1-.074-.054L0 1.036 1.33 0h.612v3.489h.784V4H.314v-.511z" fill="#000" fill-rule="evenodd"/></symbol><symbol viewBox="0 0 14 14" id="list-task" xmlns="http://www.w3.org/2000/svg"><title>list-task</title><path d="M6 12h8v2H6v-2zm0-5h8v2H6V7zm4-5h4v2h-4V2zM.002 3.996L1 3.003 2.998 5 8 0l1 1-6 6L.002 3.996z" fill="#000" fill-rule="evenodd"/></symbol><symbol viewBox="0 0 8 14" id="location" xmlns="http://www.w3.org/2000/svg"><title>location</title><path d="M4 14S8 6.21 8 4a4 4 0 1 0-8 0c0 2.21 4 10 4 10zm0-8a2 2 0 1 0 0-4 2 2 0 0 0 0 4z" fill="#000" fill-rule="evenodd"/></symbol><symbol viewBox="0 0 10 14" id="lock" xmlns="http://www.w3.org/2000/svg"><title>lock</title><path d="M2 6V3s0-3 3-3 3 3 3 3v3h1c1 0 1 1 1 1v6s0 1-1 1H1c-1 0-1-1-1-1V7s0-1 1-1h1zm0 2v4h1V8H2zm2-5v3h2V3s0-1-1-1-1 1-1 1z" fill="#000" fill-rule="evenodd"/></symbol><symbol viewBox="0 0 12 12" id="login" xmlns="http://www.w3.org/2000/svg"><title>login</title><path d="M0 1.002C0 .45.456 0 1.002 0h9.996C11.55 0 12 .456 12 1.002v9.996C12 11.55 11.544 12 10.998 12H1.002A1.007 1.007 0 0 1 0 10.998V9h1.002v2L11 10.998V1.002H1.002V3H0V1.002zM0 5h6L4 3l1-1 4 4-4 4-1-1 2-2H0V5z" fill="#000" fill-rule="nonzero"/></symbol><symbol viewBox="0 0 12 12" id="logout" xmlns="http://www.w3.org/2000/svg"><title>logout</title><path d="M12 1.002V3h-1.002V1.002H1v9.996l9.998.002V9H12v1.998c0 .546-.449 1.002-1.002 1.002H1.002A1.007 1.007 0 0 1 0 10.998V1.002C0 .456.449 0 1.002 0h9.996C11.544 0 12 .449 12 1.002zM3 5h6L7 3l1-1 4 4-4 4-1-1 2-2H3V5z" fill="#000" fill-rule="nonzero"/></symbol><symbol viewBox="0 0 12 12" id="loop" xmlns="http://www.w3.org/2000/svg"><title>loop</title><path d="M2.71 8.29C3.318 9.103 4.36 10 6 10c3 0 4-3 4-3h2s-1 5-6 5c-2.355 0-3.823-1.11-4.717-2.283L0 11V7h4L2.71 8.29zm6.58-4.58C8.682 2.897 7.64 2 6 2 3 2 2 5 2 5H0s1-5 6-5c2.355 0 3.823 1.11 4.717 2.283L12 1v4H8l1.29-1.29z" fill="#000" fill-rule="evenodd"/></symbol><symbol viewBox="0 0 14 14" id="magic" xmlns="http://www.w3.org/2000/svg"><title>magic</title><path d="M1 3l2-2 11 11-2 2L1 3zm8.5-2l.5 1 1 .5-1 .496L9.5 4 9 3l-1-.5L9 2l.5-1zM7 0l.333.666L8 1l-.667.33L7 2l-.333-.667L6 1l.667-.333L7 0zm5 0l.333.666L13 1l-.667.33L12 2l-.333-.667L11 1l.667-.333L12 0zM1 6l.333.666L2 7l-.667.33L1 8l-.333-.667L0 7l.667-.333L1 6z" fill="#000" fill-rule="evenodd"/></symbol><symbol viewBox="0 0 14 10" id="mail" xmlns="http://www.w3.org/2000/svg"><title>mail</title><path d="M0 3l7 5 7-5v6c0 1-.985 1-.985 1H1s-1 0-1-1V3zm0-2c0-1 1-1 1-1h12s1 0 1 1L7 6 0 1z" fill="#000" fill-rule="evenodd"/></symbol><symbol viewBox="0 0 14 14" id="map" xmlns="http://www.w3.org/2000/svg"><title>map</title><path d="M2 9h2s0 3 3 3 3-3 3-3h2l2 5H0l2-5zm5 1S4 4.657 4 3a3 3 0 1 1 6 0c0 1.657-3 7-3 7zm0-6a1 1 0 1 0 0-2 1 1 0 0 0 0 2z" fill="#000" fill-rule="evenodd"/></symbol><symbol viewBox="0 0 12 12" id="mask" xmlns="http://www.w3.org/2000/svg"><title>mask</title><path d="M1 10.998c0-.003 9.998.002 9.998.002-.003 0 0-10-9.996-10C1 1 1 10.998 1 10.998zM0 1.002C0 .45.456 0 1.002 0h9.996C11.55 0 12 .456 12 1.002v9.996C12 11.55 11.544 12 10.998 12H1.002A1.007 1.007 0 0 1 0 10.998V1.002z" fill="#000" fill-rule="nonzero"/></symbol><symbol viewBox="0 0 10 14" id="medal" xmlns="http://www.w3.org/2000/svg"><title>medal</title><path d="M2 0h2v3H2V0zm4 0h2v3H6V0zM5 4a1 1 0 1 1 0-2 1 1 0 0 1 0 2zm0 10A5 5 0 1 1 5 4a5 5 0 0 1 0 10zm0-8l-2.121.879L2 9l.879 2.121L5 12l2.121-.879L8 9l-.879-2.121L5 6z" fill="#000" fill-rule="evenodd"/></symbol><symbol viewBox="0 0 12 12" id="megaphone" xmlns="http://www.w3.org/2000/svg"><title>megaphone</title><path d="M8 1L0 4v2l2 .75V12h2V7.5L8 9a1 1 0 1 0 2 0V7s2 0 2-2-2-2-2-2V1a1 1 0 1 0-2 0z" fill="#000" fill-rule="evenodd"/></symbol><symbol viewBox="0 0 14 14" id="mention" xmlns="http://www.w3.org/2000/svg"><title>mention</title><path d="M12.639 7c0-3.428-3.136-5.8-5.639-5.8S1.2 3.4 1.2 7c0 3.6 3 5.8 5.8 5.8s4-1.6 4-1.6 1.053.664 1.033.664C10.91 13.014 9.182 14 7 14A7 7 0 0 1 7 0c3.866 0 7 3.2 7 7 0 1.2-1.12 2.927-2.084 3.29-1.084.446-2.376.186-3.147-.546-.145-.138-.466-.588-.568-.766C7.69 9.722 7.4 10.2 6.4 10.2c-1.946 0-3-1.424-3-3.2 0-1.776 1.054-3.2 2.8-3.2 1.324 0 1.875 1.051 1.875 1.051.06-.27.256-.994.274-1.051H9.8c.008.01-.3.934-.348 1.267C9.038 7 9.022 8.362 9.6 8.892c.63.475 1.425.635 2.1.086.675-.533.939-1.38.939-1.978zM7.6 7c0-1.017-.652-1.8-1.4-1.8-.748 0-1.4.783-1.4 1.8s.652 1.8 1.4 1.8c.748 0 1.4-.783 1.4-1.8z" fill="#000" fill-rule="evenodd"/></symbol><symbol viewBox="0 0 14 14" id="messanger" xmlns="http://www.w3.org/2000/svg"><title>messanger</title><path d="M7.66 8.69L5.868 6.828 2.416 8.737 6.2 4.72l1.792 1.862 3.452-1.909L7.66 8.69zM6.93 0C3.103 0 0 2.901 0 6.48c0 2.036 1.004 3.853 2.575 5.04V14l2.364-1.31c.631.176 1.3.27 1.991.27 3.827 0 6.93-2.9 6.93-6.48C13.86 2.901 10.757 0 6.93 0z" fill="#000" fill-rule="evenodd"/></symbol><symbol viewBox="0 0 12 12" id="minus" xmlns="http://www.w3.org/2000/svg"><title>minus</title><path d="M0 5h12v2H0z" fill="#000" fill-rule="evenodd"/></symbol><symbol viewBox="0 0 8 14" id="mobile" xmlns="http://www.w3.org/2000/svg"><title>mobile</title><path d="M8 13c0 1-1 1-1 1H1s-1 0-1-1V1c0-1 1-1 1-1h6s1 0 1 1v12zm-7-1h6V2H1v10z" fill="#000" fill-rule="evenodd"/></symbol><symbol viewBox="0 0 14 8" id="money" xmlns="http://www.w3.org/2000/svg"><title>money</title><path d="M3 7h8c0-2 2-2 2-2V3s-2 0-2-2H3c0 2-2 2-2 2v2s2 0 2 2zM0 1s0-1 1-1h12c1 0 1 1 1 1v6s0 1-1 1H1C0 8 0 7 0 7V1zm8 5a2 2 0 1 0 0-4 2 2 0 0 0 0 4zM4 2h1v4H4V2zm4 3a1 1 0 1 0 0-2 1 1 0 0 0 0 2z" fill="#000" fill-rule="evenodd"/></symbol><symbol viewBox="0 0 12 12" id="moon" xmlns="http://www.w3.org/2000/svg"><title>moon</title><path d="M0 5.997a6.003 6.003 0 0 0 11.432 2.565A5.146 5.146 0 0 1 5.721 0 6.003 6.003 0 0 0 0 5.997z" fill="#000" fill-rule="evenodd"/></symbol><symbol viewBox="0 0 8 12" id="mouse" xmlns="http://www.w3.org/2000/svg"><title>mouse</title><path d="M4 0C.5 0 0 2.687 0 6s.5 6 4 6 4-2.687 4-6-.5-6-4-6zM3 4.253S3 5 4 5s1-.747 1-.747v-1.5S5 2 4 2s-1 .753-1 .753v1.5z" fill="#000" fill-rule="evenodd"/></symbol><symbol viewBox="0 0 12 14" id="music" xmlns="http://www.w3.org/2000/svg"><title>music</title><path d="M3 .999C3 .447 3.446 0 3.998 0h7.004c.551 0 .998.443.998.999V11a2 2 0 1 1-1-1.732V3H4v9a2 2 0 1 1-1-1.732V.999z" fill="#000" fill-rule="evenodd"/></symbol><symbol viewBox="0 0 14 14" id="open-mouth" xmlns="http://www.w3.org/2000/svg"><title>open-mouth</title><path d="M7 13A6 6 0 1 0 7 1a6 6 0 0 0 0 12zm0 1A7 7 0 1 1 7 0a7 7 0 0 1 0 14zm0-2a2 2 0 1 0 0-4 2 2 0 0 0 0 4zm2-6a1 1 0 1 0 0-2 1 1 0 0 0 0 2zM5 6a1 1 0 1 0 0-2 1 1 0 0 0 0 2z" fill="#000" fill-rule="evenodd"/></symbol><symbol viewBox="0 0 12 12" id="palette" xmlns="http://www.w3.org/2000/svg"><title>palette</title><path d="M4 9c0-2.003-3-2.002-3-2.002C.003 6.998 0 6 0 6a6 6 0 1 1 6 6c-3.31 0-4-2.004-3-2.004.45 0 1-.549 1-.996zm2-6a1 1 0 1 0 0-2 1 1 0 0 0 0 2zM3 4a1 1 0 1 0 0-2 1 1 0 0 0 0 2zm6 0a1 1 0 1 0 0-2 1 1 0 0 0 0 2zm1 3a1 1 0 1 0 0-2 1 1 0 0 0 0 2zm-1 3a1 1 0 1 0 0-2 1 1 0 0 0 0 2z" fill="#000" fill-rule="evenodd"/></symbol><symbol viewBox="0 0 12 12" id="paper-plane" xmlns="http://www.w3.org/2000/svg"><title>paper-plane</title><path d="M12 0L7 12l-2.044-2L4 11V9l6-7-7 6-3-3z" fill="#000" fill-rule="evenodd"/></symbol><symbol viewBox="0 0 9 10" id="pause" xmlns="http://www.w3.org/2000/svg"><title>pause</title><path d="M0 0h3v10H0V0zm6 0h3v10H6V0z" fill="#000" fill-rule="evenodd"/></symbol><symbol viewBox="0 0 12 12" id="pencil" xmlns="http://www.w3.org/2000/svg"><title>pencil</title><path d="M0 12h2l8-8-2-2L.009 9.979 0 12zm1-2l1.003-1L3 10l-1 1-1-1zm8-9l1-1 2 2-.996.998L9 1z" fill="#000" fill-rule="evenodd"/></symbol><symbol viewBox="0 0 12 14" id="phone" xmlns="http://www.w3.org/2000/svg"><title>phone</title><path d="M3.478.382l1.06 1.32c.212.264.636.792-.624 1.897-.756.663-.816 1.39 1.315 4.045 2.086 2.598 2.816 2.704 3.56 2.027 1.272-1.091 1.685-.577 1.897-.313l1.06 1.32c.212.264.636.792-.518 2.03-1.155 1.236-1.175 1.479-1.85 1.172-.677-.307-3.381-1.535-5.914-4.69C.91 6.01.221 3.014.05 2.265c-.172-.75.06-.728 1.427-1.7C2.842-.41 3.266.117 3.478.381" fill="#000" fill-rule="evenodd"/></symbol><symbol viewBox="0 0 14 10" id="picture" xmlns="http://www.w3.org/2000/svg"><title>picture</title><path d="M1 9c0-.01 11.993-.005 11.993-.005C13 8.995 13 1 13 1c0 .01-11.993.005-11.993.005C1 1.005 1 9 1 9zM0 1c0-1 1-1 1-1h12s1 0 1 1v8c0 1-1 1-1 1H1s-1 0-1-1V1zm4 4l2 2 4-4 2 2v3H2V7l2-2zM3 4a1 1 0 1 0 0-2 1 1 0 0 0 0 2z" fill="#000" fill-rule="nonzero"/></symbol><symbol viewBox="0 0 14 14" id="picture-square" xmlns="http://www.w3.org/2000/svg"><title>picture-square</title><path d="M1 13c0-.015 11.993-.007 11.993-.007C13 12.993 13 1 13 1c0 .015-11.993.007-11.993.007C1 1.007 1 13 1 13zM0 1c0-1 1-1 1-1h12s1 0 1 1v12c0 1-1 1-1 1H1s-1 0-1-1V1zm4 7l2 2 4-4 2 2v4H2v-2l2-2zm.5-2a1.5 1.5 0 1 0 0-3 1.5 1.5 0 0 0 0 3z" fill="#000" fill-rule="nonzero"/></symbol><symbol viewBox="0 0 12 12" id="pie-chart" xmlns="http://www.w3.org/2000/svg"><title>pie-chart</title><path d="M5 2v5h5a5 5 0 1 1-5-5zm1-2a6 6 0 0 1 6 6H6V0z" fill="#000" fill-rule="evenodd"/></symbol><symbol viewBox="0 0 14 14" id="pinterest" xmlns="http://www.w3.org/2000/svg"><title>pinterest</title><path d="M7 0a7 7 0 0 0-2.551 13.518c-.061-.554-.117-1.403.024-2.008.127-.546.82-3.48.82-3.48s-.208-.419-.208-1.038c0-.974.564-1.7 1.266-1.7.597 0 .886.448.886.985 0 .6-.382 1.499-.58 2.331-.165.697.35 1.265 1.037 1.265 1.244 0 2.2-1.312 2.2-3.205 0-1.676-1.204-2.848-2.924-2.848-1.991 0-3.16 1.494-3.16 3.038 0 .601.231 1.246.52 1.597a.21.21 0 0 1 .05.2l-.196.795c-.03.127-.1.155-.233.093-.875-.407-1.421-1.685-1.421-2.712 0-2.208 1.604-4.235 4.625-4.235 2.428 0 4.315 1.73 4.315 4.042 0 2.413-1.52 4.354-3.632 4.354-.71 0-1.376-.368-1.605-.804l-.436 1.664c-.158.608-.584 1.37-.87 1.836A7 7 0 1 0 7 0" fill="#000" fill-rule="evenodd"/></symbol><symbol viewBox="0 0 14 14" id="pizza" xmlns="http://www.w3.org/2000/svg"><title>pizza</title><path d="M7 14A7 7 0 1 0 7 0a7 7 0 0 0 0 14zm0-1A6 6 0 1 0 7 1a6 6 0 0 0 0 12zM3 8a1 1 0 1 0 0-2 1 1 0 0 0 0 2zm3 0h1v1L6 8zm4 1v1H9l1-1zM4 4h1L4 5V4zm4 3h1v1H8V7zM4 9h1v1H4V9zm1-3h1v1H5V6zm4-2h1v1H9V4zM7 5l1 1H7V5zm4 3a1 1 0 1 0 0-2 1 1 0 0 0 0 2zm-4 4a1 1 0 1 0 0-2 1 1 0 0 0 0 2zm0-8a1 1 0 1 0 0-2 1 1 0 0 0 0 2z" fill="#000" fill-rule="evenodd"/></symbol><symbol viewBox="0 0 10 10" id="play" xmlns="http://www.w3.org/2000/svg"><title>play</title><path d="M0 0v10l10-5z" fill="#000" fill-rule="evenodd"/></symbol><symbol viewBox="0 0 8 14" id="plug" xmlns="http://www.w3.org/2000/svg"><title>plug</title><path d="M3 4V.99A1 1 0 0 0 2 0c-.556 0-1 .444-1 .99V4H0v3.5a3.507 3.507 0 0 0 3 3.463V14h2v-3.036A3.497 3.497 0 0 0 8 7.5V4H7V.99A1 1 0 0 0 6 0c-.556 0-1 .444-1 .99V4H3z" fill="#000" fill-rule="evenodd"/></symbol><symbol viewBox="0 0 12 12" id="plus" xmlns="http://www.w3.org/2000/svg"><title>plus</title><path d="M7 5V0H5v5H0v2h5v5h2V7h5V5z" fill="#000" fill-rule="evenodd"/></symbol><symbol viewBox="0 0 14 13" id="pocket" xmlns="http://www.w3.org/2000/svg"><title>pocket</title><path d="M13.931.836A1.274 1.274 0 0 0 12.738 0H1.269A1.276 1.276 0 0 0 0 1.27v4.225l.048.84c.203 1.91 1.195 3.58 2.73 4.744l.083.063.018.012a6.928 6.928 0 0 0 2.737 1.21 7.072 7.072 0 0 0 2.68.02l.154-.03a.183.183 0 0 0 .045-.017 6.935 6.935 0 0 0 2.627-1.183l.018-.013c.028-.02.056-.04.083-.062 1.534-1.165 2.526-2.835 2.729-4.745l.048-.84V1.27c0-.146-.018-.291-.069-.434zm-2.964 4.401L7.674 8.396a.96.96 0 0 1-1.329 0L3.051 5.237a.96.96 0 1 1 1.33-1.385l2.628 2.52 2.63-2.52a.96.96 0 0 1 1.328 1.385z" fill="#000" fill-rule="nonzero"/></symbol><symbol viewBox="0 0 14 12" id="pot" xmlns="http://www.w3.org/2000/svg"><title>pot</title><path d="M.996 5H13s1 0 1 .995S13 7 13 7h-1v4s0 1-1 1H2.998C2 12 2 11 2 11V7H.996S0 7 0 6s.996-1 .996-1zM4 2h1s0-2 2-2 2 2 2 2h1c2 0 2 2 2 2H2s0-2 2-2zm3-1c1 0 1 1 1 1H6s0-1 1-1z" fill="#000" fill-rule="evenodd"/></symbol><symbol viewBox="0 0 14 14" id="print" xmlns="http://www.w3.org/2000/svg"><title>print</title><path d="M0 8s0-1 1-1h1V5h1V1s0-1 .996-1H10c1 0 1 1 1 1v4h1v2h1c1 0 1 1 1 1v5h-3s0 1-1 1H3.996C3 14 3 13 3 13H0V8zm4 2h6v3H4v-3zm4-2h2v1H8V8zM4 1h6v6H4V1z" fill="#000" fill-rule="evenodd"/></symbol><symbol viewBox="0 0 14 14" id="prototype" xmlns="http://www.w3.org/2000/svg"><title>prototype</title><path d="M6 3v4.238L4.61 8.492a1.5 1.5 0 1 0 .358.7L6 8.25V13c0 1-1 1-1 1H1S.007 14 0 13C.006 13 0 3 0 3c0-1 1-1 1-1h4s1 0 1 1zm2 8c.004 0 .003-4.336.003-4.336L9.39 5.509a1.5 1.5 0 1 0-.358-.701l-1.029.856L8.001 1c0-1 1-1 1-1h4S14 0 14 1v10c0 1-1 1-1 1H9s-.993 0-1-1z" fill="#000" fill-rule="evenodd"/></symbol><symbol viewBox="0 0 14 14" id="question" xmlns="http://www.w3.org/2000/svg"><title>question</title><path d="M7 14A7 7 0 1 1 7 0a7 7 0 0 1 0 14zm-1-2.5s0 .5.5.5h1c.5 0 .5-.5.5-.5v-1s0-.5-.5-.5h-1c-.5 0-.5.5-.5.5v1zm0-2.94c0 .44.5.437.5.437h1s.549.003.549-.438c0-1.311 1.386-2.276 1.8-3.057.449-.878.155-3.502-2.84-3.502C5 2 4 3.009 4 4.5c0 0 0 .5.5.5h1c.5 0 .5-.5.5-.5s0-1 1-1c1.049 0 1 1 1 1.5 0 .74-.5 1.221-1 1.473 0 0-1 .446-1 2.086z" fill="#000" fill-rule="evenodd"/></symbol><symbol viewBox="0 0 12 12" id="quote-left" xmlns="http://www.w3.org/2000/svg"><title>quote-left</title><path d="M2.5 7A2.5 2.5 0 1 1 0 9.5C0 6 4 0 4 0l1 1S3.092 4.208 2.32 7.006C2.378 7.002 2.44 7 2.5 7zM12 1s-1.908 3.208-2.68 6.006A2.5 2.5 0 1 1 7 9.5C7 6 11 0 11 0l1 1z" fill="#000" fill-rule="evenodd"/></symbol><symbol viewBox="0 0 12 12" id="quote-right" xmlns="http://www.w3.org/2000/svg"><title>quote-right</title><path d="M2.68 4.994A2.5 2.5 0 1 1 5 2.5C5 6 1 12 1 12l-1-1s1.908-3.208 2.68-6.006zm7 0A2.5 2.5 0 1 1 12 2.5C12 6 8 12 8 12l-1-1s1.908-3.208 2.68-6.006z" fill="#000" fill-rule="evenodd"/></symbol><symbol viewBox="0 0 14 14" id="rage" xmlns="http://www.w3.org/2000/svg"><title>rage</title><path d="M7 13A6 6 0 1 0 7 1a6 6 0 0 0 0 12zm0 1A7 7 0 1 1 7 0a7 7 0 0 1 0 14zm0-6c-2.003 0-2.003 2-2.003 2H6s0-1 1-1 1 1 1 1h.997S9.003 8 7 8zm2-1a1 1 0 0 1-1-1c0-.002 2-1.003 2-1.003V6a1 1 0 0 1-1 1zM5 7a1 1 0 0 1-1-1V5l2 1a1 1 0 0 1-1 1z" fill="#000" fill-rule="evenodd"/></symbol><symbol viewBox="0 0 12 10" id="random" xmlns="http://www.w3.org/2000/svg"><title>random</title><path d="M9 3L7 5l2 2h1V6l2 2-2 2V9H8L6 7 4 9H0V7h3l2-2-2-2H0V1h4l2 2 2-2h2V0l2 2-2 2s.025-.951 0-1c-.025-.049-1 0-1 0z" fill="#000" fill-rule="evenodd"/></symbol><symbol viewBox="0 0 12 12" id="reload" xmlns="http://www.w3.org/2000/svg"><title>reload</title><path d="M8.838 3.162C8.17 2.527 7.204 2 6 2 3.544 2 2 4 2 6c0 1.83 1.41 4 4 4s3.493-2.11 3.55-2.1c.027-.01 1.797.898 1.775.898C10.826 9.595 9.31 12 6 12S0 9.314 0 6a6 6 0 0 1 6-6c1.677 0 3.167.757 4.23 1.77L12 0v5H7l1.838-1.838z" fill="#000" fill-rule="evenodd"/></symbol><symbol viewBox="0 0 12 12" id="remove-cart" xmlns="http://www.w3.org/2000/svg"><title>remove-cart</title><path d="M3 1h.5a.5.5 0 0 0 0-1h-3a.5.5 0 1 0 0 1H2v8c0 .667.333 1 1 1h7.5c.325-.014.491-.173.5-.5.009-.327-.158-.5-.5-.5H3V8h8a1 1 0 0 0 1-1V2h-1v5H3V1zm2 1.333v1.334h4V2.333H5zM4 12a1 1 0 1 0 0-2 1 1 0 0 0 0 2zm5 0a1 1 0 1 0 0-2 1 1 0 0 0 0 2z" fill="#000" fill-rule="evenodd"/></symbol><symbol viewBox="0 0 14 14" id="rocket" xmlns="http://www.w3.org/2000/svg"><title>rocket</title><path d="M8.922 1.016S10.953.006 12.984 0c0 0 .508 0 .762.254s.254.762.254.762c0 2.032-1.016 4.063-1.016 4.063C12.594 5.86 11.366 7.834 10 9v3l-3 2v-3l-2 1-3-3 1-2H0l2-3h3c1.165-1.366 3.142-2.594 3.922-2.984zM2 10s-1 1 0 2 2 0 2 0 0 2-2 2-2 0-2-2 2-2 2-2zm8-5a1 1 0 1 0 0-2 1 1 0 0 0 0 2z" fill="#000" fill-rule="evenodd"/></symbol><symbol viewBox="0 0 14 14" id="scale" xmlns="http://www.w3.org/2000/svg"><title>scale</title><path d="M9.478 9.977a3.999 3.999 0 0 1-3.647 2.02 3.001 3.001 0 1 1-3.827-3.828 3.999 3.999 0 0 1 2.019-3.647 5 5 0 1 1 5.455 5.455zM3 13a2 2 0 1 0 0-4 2 2 0 0 0 0 4zm0-5a3 3 0 1 1 3 3 3 3 0 0 0-3-3zm6.899.899A4.002 4.002 0 0 0 9 1C7.1 1 5.51 2.325 5.101 4.101a4 4 0 0 1 4.797 4.797z" fill="#000" fill-rule="evenodd"/></symbol><symbol viewBox="0 0 14 14" id="search" xmlns="http://www.w3.org/2000/svg"><title>search</title><path d="M8.857 9.857L13 14l1-1-4.143-4.143a5.5 5.5 0 1 0-1 1zM5.5 9.5a4 4 0 1 0 0-8 4 4 0 0 0 0 8z" fill="#000" fill-rule="evenodd"/></symbol><symbol viewBox="0 0 14 14" id="search-minus" xmlns="http://www.w3.org/2000/svg"><title>search-minus</title><path d="M8.857 9.857L13 14l1-1-4.143-4.143a5.5 5.5 0 1 0-1 1zM5.5 9.5a4 4 0 1 0 0-8 4 4 0 0 0 0 8zM8 5v1H3V5h5z" fill="#000" fill-rule="evenodd"/></symbol><symbol viewBox="0 0 14 14" id="search-plus" xmlns="http://www.w3.org/2000/svg"><title>search-plus</title><path d="M8.857 9.857L13 14l1-1-4.143-4.143a5.5 5.5 0 1 0-1 1zM5.5 9.5a4 4 0 1 0 0-8 4 4 0 0 0 0 8zM5 3h1v2h2v1H6v2H5V6H3V5h2V3z" fill="#000" fill-rule="evenodd"/></symbol><symbol viewBox="0 0 12 12" id="share" xmlns="http://www.w3.org/2000/svg"><title>share</title><path d="M3.958 6.41a2.009 2.009 0 0 0 0-.822l4.771-2.044a2 2 0 1 0-.687-1.134L3.271 4.455a2 2 0 1 0 0 3.09L8.042 9.59a2 2 0 1 0 .687-1.134L3.958 6.41z" fill="#000" fill-rule="evenodd"/></symbol><symbol viewBox="0 0 10 14" id="shield" xmlns="http://www.w3.org/2000/svg"><title>shield</title><path d="M0 0h10v10l-5 4-5-4V0zm5 1h4.005v8.5L5 12.5V1z" fill="#000" fill-rule="evenodd"/></symbol><symbol viewBox="0 0 8 12" id="shopping-bag" xmlns="http://www.w3.org/2000/svg"><title>shopping-bag</title><path d="M2 2V1a1 1 0 0 1 1-1h2a1 1 0 0 1 1 1v1h1a1 1 0 0 1 1 1v8a1 1 0 0 1-1 1H1a1 1 0 0 1-1-1V3a1 1 0 0 1 1-1h1zM1 3v8h6V3H6v1.5c0 .333-.167.5-.5.5-.333 0-.5-.167-.5-.5V3H3v1.5c0 .335-.167.502-.5.5-.333-.002-.5-.169-.5-.5V3H1zm2-2v1h2V1H3z" fill="#000" fill-rule="nonzero"/></symbol><symbol viewBox="0 0 14 14" id="sitemap" xmlns="http://www.w3.org/2000/svg"><title>sitemap</title><path d="M11.5 7v3H11c-1 0-1 1-1 1v2s0 1 1 1h2c1 0 1-1 1-1v-2s0-1-1-1h-.5V7c0-1-1-1-1-1h-4V4H8c1 0 1-1 1-1V1s-.09-1-1-1H6C5 0 5 1 5 1v2s0 1 1 1h.5v2h-4s-1 0-1 1v3H1c-1 0-1 1-1 1v2s0 1 1 1h2c1 0 1-1 1-1v-2c0-.034 0-1-1-1h-.5V7h4v3H6c-1 0-1 1-1 1v2s0 1 1 1h2c1 0 1-1 1-1v-2s0-1-1-1h-.5V7h4z" fill="#000" fill-rule="evenodd"/></symbol><symbol viewBox="0 0 14 14" id="smile" xmlns="http://www.w3.org/2000/svg"><title>smile</title><path d="M5 6a1 1 0 1 0 0-2 1 1 0 0 0 0 2zm5 2a3 3 0 1 1-6 0h6zM9 6a1 1 0 1 0 0-2 1 1 0 0 0 0 2zm-2 7A6 6 0 1 0 7 1a6 6 0 0 0 0 12zm0 1A7 7 0 1 1 7 0a7 7 0 0 1 0 14z" fill="#000" fill-rule="evenodd"/></symbol><symbol viewBox="0 0 14 14" id="smile-alt" xmlns="http://www.w3.org/2000/svg"><title>smile-alt</title><path d="M5 6a1 1 0 1 0 0-2 1 1 0 0 0 0 2zm5 2a3 3 0 1 1-6 0h1s0 2 2 2 2-2 2-2h1zM9 6a1 1 0 1 0 0-2 1 1 0 0 0 0 2zm-2 7A6 6 0 1 0 7 1a6 6 0 0 0 0 12zm0 1A7 7 0 1 1 7 0a7 7 0 0 1 0 14z" fill="#000" fill-rule="evenodd"/></symbol><symbol viewBox="0 0 14 14" id="smile-heart" xmlns="http://www.w3.org/2000/svg"><title>smile-heart</title><path d="M3.929 7.714a.786.786 0 1 0 0-1.571.786.786 0 0 0 0 1.571zm3.928 1.572a2.357 2.357 0 0 1-4.714 0h4.714zm-.786-1.572a.786.786 0 1 0 0-1.571.786.786 0 0 0 0 1.571zm-1.571 5.5a4.714 4.714 0 1 0 0-9.428 4.714 4.714 0 0 0 0 9.428zm0 .786a5.5 5.5 0 1 1 0-11 5.5 5.5 0 0 1 0 11zM11 5S8.564 3.756 8.076 2.015C7.59.274 9.538-.97 11 1.02c1.462-1.991 3.411-.746 2.924.995C13.436 3.756 11 5 11 5z" fill="#000" fill-rule="evenodd"/></symbol><symbol viewBox="0 0 14 14" id="smile-plus" xmlns="http://www.w3.org/2000/svg"><title>smile-plus</title><path d="M3.929 7.714a.786.786 0 1 0 0-1.571.786.786 0 0 0 0 1.571zm3.928 1.572a2.357 2.357 0 0 1-4.714 0h4.714zm-.786-1.572a.786.786 0 1 0 0-1.571.786.786 0 0 0 0 1.571zm-1.571 5.5a4.714 4.714 0 1 0 0-9.428 4.714 4.714 0 0 0 0 9.428zm0 .786a5.5 5.5 0 1 1 0-11 5.5 5.5 0 0 1 0 11zm6.833-12.333h.834a.833.833 0 1 1 0 1.666h-.834v.834a.833.833 0 1 1-1.666 0v-.834h-.834a.833.833 0 1 1 0-1.666h.834V.833a.833.833 0 1 1 1.666 0v.834z" fill="#000" fill-rule="evenodd"/></symbol><symbol viewBox="0 0 8 14" id="speaker" xmlns="http://www.w3.org/2000/svg"><title>speaker</title><path d="M0 1s0-1 1-1h6c1 0 1 1 1 1v12s0 1-1 1H1c-1 0-1-1-1-1V1zm4 7a3 3 0 1 0 0-6 3 3 0 0 0 0 6zm0-1a2 2 0 1 0 0-4 2 2 0 0 0 0 4zm0 5a1 1 0 1 0 0-2 1 1 0 0 0 0 2z" fill="#000" fill-rule="evenodd"/></symbol><symbol viewBox="0 0 15 14" id="star" xmlns="http://www.w3.org/2000/svg"><title>star</title><path d="M7.5 11.609L2.865 14l.885-5.065L0 5.348l5.182-.74L7.5 0l2.318 4.609L15 5.348l-3.75 3.587.885 5.065z" fill="#000" fill-rule="evenodd"/></symbol><symbol viewBox="0 0 15 14" id="star-o" xmlns="http://www.w3.org/2000/svg"><title>star-o</title><path d="M7.5 11.609L2.865 14l.885-5.065L0 5.348l5.182-.74L7.5 0l2.318 4.609L15 5.348l-3.75 3.587.885 5.065L7.5 11.609zm0-1.117L4.1 12.2l.65-3.618L2 6.02l3.8-.528L7.5 2.2l1.7 3.292 3.8.528-2.75 2.562.65 3.618-3.4-1.708z" fill="#000" fill-rule="evenodd"/></symbol><symbol viewBox="0 0 12 12" id="step-backward" xmlns="http://www.w3.org/2000/svg"><title>step-backward</title><path d="M5 2v6H3l3 4 3-4H7V2h5V0H0v2h5zM0 6h4V4H0v2zm8 0h4V4H8v2z" fill="#000" fill-rule="evenodd"/></symbol><symbol viewBox="0 0 12 12" id="step-forward" xmlns="http://www.w3.org/2000/svg"><title>step-forward</title><path d="M5 10V4H3l3-4 3 4H7v6h5v2H0v-2h5zM0 6h4v2H0V6zm8 0h4v2H8V6z" fill="#000" fill-rule="evenodd"/></symbol><symbol viewBox="0 0 10 10" id="stop" xmlns="http://www.w3.org/2000/svg"><title>stop</title><path d="M0 0h10v10H0z" fill="#000" fill-rule="evenodd"/></symbol><symbol viewBox="0 0 12 12" id="subtract" xmlns="http://www.w3.org/2000/svg"><title>subtract</title><path d="M4 4H.997C.453 4 0 4.446 0 4.997v6.006c0 .544.446.997.997.997h6.006c.544 0 .997-.446.997-.997V8h3.003c.544 0 .997-.446.997-.997V.997C12 .453 11.554 0 11.003 0H4.997C4.453 0 4 .446 4 .997V4zM1 5h6v6H1V5z" fill="#000" fill-rule="evenodd"/></symbol><symbol viewBox="0 0 14 14" id="sunny-o" xmlns="http://www.w3.org/2000/svg"><title>sunny-o</title><path d="M8 11.9L7 14l-1-2.1a4.972 4.972 0 0 1-1.757-.728l-2.193.778.778-2.193A4.972 4.972 0 0 1 2.1 8L0 7l2.1-1c.13-.638.38-1.233.728-1.757L2.05 2.05l2.193.778A4.972 4.972 0 0 1 6 2.1L7 0l1 2.1c.638.13 1.233.38 1.757.728l2.193-.778-.778 2.193c.347.524.598 1.119.728 1.757L14 7l-2.1 1a4.972 4.972 0 0 1-.728 1.757l.778 2.193-2.193-.778A4.972 4.972 0 0 1 8 11.9zM7 11a4 4 0 1 0 0-8 4 4 0 0 0 0 8z" fill="#000" fill-rule="evenodd"/></symbol><symbol viewBox="0 0 14 10" id="sunrise" xmlns="http://www.w3.org/2000/svg"><title>sunrise</title><path d="M2 7h10v1H2V7zm1 2h8v1H3V9zm-.94-4H0v1h14V5h-2.78.78A5 5 0 1 0 2 5h.06zM3 5a4 4 0 1 1 8 0H3z" fill="#000" fill-rule="evenodd"/></symbol><symbol viewBox="0 0 12 12" id="sync" xmlns="http://www.w3.org/2000/svg"><title>sync</title><path d="M8.29 9.29C9.103 8.682 10 7.64 10 6c0-3-3-4-3-4V0s5 1 5 6c0 2.355-1.11 3.823-2.283 4.717L11 12H7V8l1.29 1.29zM3.71 2.71C2.897 3.318 2 4.36 2 6c0 3 3 4 3 4v2s-5-1-5-6c0-2.355 1.11-3.823 2.283-4.717L1 0h4v4L3.71 2.71z" fill="#000" fill-rule="evenodd"/></symbol><symbol viewBox="0 0 14 10" id="table" xmlns="http://www.w3.org/2000/svg"><title>table</title><path d="M0 .995A1 1 0 0 1 1.007 0h11.986C13.55 0 14 .456 14 .995v8.01a1 1 0 0 1-1.007.995H1.007A1.008 1.008 0 0 1 0 9.005V.995zM1 9c0-.01 11.993-.005 11.993-.005.007 0 .007-8 .007-8C13 1.005 1.007 1 1.007 1 1 1 1 9 1 9zm1-7h3v2H2V2zm0 3h3v1H2V5zm0 2h3v1H2V7zm4-5h6v2H6V2zm0 3h6v1H6V5zm0 2h6v1H6V7z" fill="#000" fill-rule="evenodd"/></symbol><symbol viewBox="0 0 10 14" id="tablet" xmlns="http://www.w3.org/2000/svg"><title>tablet</title><path d="M10 12.995c0 1.005-1 1-1 1L1 14s-1 0-1-1V1c0-1 1-1 1-1h8s1 0 1 1v11.995zM1 12h8V2H1v10z" fill="#000" fill-rule="evenodd"/></symbol><symbol viewBox="0 0 14 14" id="tag" xmlns="http://www.w3.org/2000/svg"><title>tag</title><path d="M9 0h5v5l-9 9-5-5 9-9zm1.707 4.707a1 1 0 1 0-1.414-1.414 1 1 0 0 0 1.414 1.414z" fill="#000" fill-rule="evenodd"/></symbol><symbol viewBox="0 0 12 12" id="target" xmlns="http://www.w3.org/2000/svg"><title>target</title><path d="M7 1.1A5.006 5.006 0 0 1 10.9 5H12v2h-1.1A5.006 5.006 0 0 1 7 10.9V12H5v-1.1A5.006 5.006 0 0 1 1.1 7H0V5h1.1A5.006 5.006 0 0 1 5 1.1V0h2v1.1zM6 10a4 4 0 1 0 0-8 4 4 0 0 0 0 8zm0-2a2 2 0 1 0 0-4 2 2 0 0 0 0 4z" fill="#000" fill-rule="evenodd"/></symbol><symbol viewBox="0 0 14 10" id="terminal" xmlns="http://www.w3.org/2000/svg"><title>terminal</title><path d="M0 9V1c0-1 1-1 1-1h12s1 0 1 1v8c0 1-1 1-1 1H1s-1 0-1-1zm2-7l1-1 3 3-3 3-1-1 2-2-2-2zm3 5h5v1H5V7z" fill="#000" fill-rule="evenodd"/></symbol><symbol viewBox="0 0 12 10" id="text-align-center" xmlns="http://www.w3.org/2000/svg"><title>text-align-center</title><path d="M2 9h8v1H2V9zM0 6h12v1H0V6zm2-3h8v1H2V3zM0 0h12v1H0V0z" fill="#000" fill-rule="evenodd"/></symbol><symbol viewBox="0 0 12 10" id="text-align-justify" xmlns="http://www.w3.org/2000/svg"><title>text-align-justify</title><path d="M0 9h12v1H0V9zm0-3h12v1H0V6zm0-3h12v1H0V3zm0-3h12v1H0V0z" fill="#000" fill-rule="evenodd"/></symbol><symbol viewBox="0 0 12 10" id="text-align-left" xmlns="http://www.w3.org/2000/svg"><title>text-align-left</title><path d="M0 9h8v1H0V9zm0-3h12v1H0V6zm0-3h8v1H0V3zm0-3h12v1H0V0z" fill="#000" fill-rule="evenodd"/></symbol><symbol viewBox="0 0 12 10" id="text-align-right" xmlns="http://www.w3.org/2000/svg"><title>text-align-right</title><path d="M4 9h8v1H4V9zM0 6h12v1H0V6zm4-3h8v1H4V3zM0 0h12v1H0V0z" fill="#000" fill-rule="evenodd"/></symbol><symbol viewBox="0 0 16 10" id="text-size" xmlns="http://www.w3.org/2000/svg"><title>text-size</title><path d="M9.411 8.82L5.903 0H3.977L0 10h1.463a.625.625 0 0 0 .403-.131.655.655 0 0 0 .22-.29l.757-2.041h4.194l.756 2.04a.642.642 0 0 0 .63.422H9.88v-.002h.108a.468.468 0 0 0 .445-.301l.54-1.458h2.996l.54 1.458a.459.459 0 0 0 .45.301H16l-2.84-7.143h-1.376L9.41 8.821zm1.908-1.52h2.305s-1.108-3.047-1.155-3.215c-.047.168-1.15 3.216-1.15 3.216zM3.326 6.225h3.228S5.002 1.957 4.937 1.722c-.066.235-1.611 4.502-1.611 4.502z" fill="#000" fill-rule="evenodd"/></symbol><symbol viewBox="0 0 14 8" id="ticket" xmlns="http://www.w3.org/2000/svg"><title>ticket</title><path d="M13.995 6S13 6 13 4s.995-2 .995-2V0H0v2s1 0 1 2-1 2-1 2v2h13.995V6zM2 7h10V1H2v6zm1-1h8V2H3v4z" fill="#000" fill-rule="evenodd"/></symbol><symbol viewBox="0 0 14 9" id="tiled" xmlns="http://www.w3.org/2000/svg"><title>tiled</title><path d="M10 5h4v4h-4V5zM5 5h4v4H5V5zM0 5h4v4H0V5zm10-5h4v4h-4V0zM5 0h4v4H5V0zM0 0h4v4H0V0z" fill="#000" fill-rule="evenodd"/></symbol><symbol viewBox="0 0 14 10" id="timeline" xmlns="http://www.w3.org/2000/svg"><title>timeline</title><path d="M5 7h7v1H5V7zM1 9.005C1 8.995 12.993 9 12.993 9 13 9 13 .995 13 .995 13 1.005 1.007 1 1.007 1 1 1 1 9.005 1 9.005zM5 5h7v1H5V5zm0-3h7v2H5V2zM2 2h2v2H2V2zM0 .995A1 1 0 0 1 1.007 0h11.986C13.55 0 14 .456 14 .995v8.01a1 1 0 0 1-1.007.995H1.007A1.008 1.008 0 0 1 0 9.005V.995z" fill="#000" fill-rule="evenodd"/></symbol><symbol viewBox="0 0 14 14" id="tired" xmlns="http://www.w3.org/2000/svg"><title>tired</title><path d="M7 13A6 6 0 1 0 7 1a6 6 0 0 0 0 12zm0 1A7 7 0 1 1 7 0a7 7 0 0 1 0 14zm0-2a2 2 0 1 0 0-4 2 2 0 0 0 0 4zM3 4.5l.5-.5 1 1 1-1 .5.5-1 1 1 1-.5.5-1-1-1 1-.5-.5 1-1-1-1zm5 0l.5-.5 1 1 1-1 .5.5-1 1 1 1-.5.5-1-1-1 1-.5-.5 1-1-1-1z" fill="#000" fill-rule="evenodd"/></symbol><symbol viewBox="0 0 12 14" id="trash" xmlns="http://www.w3.org/2000/svg"><title>trash</title><path d="M0 4V3s0-1 1.086-1H4V1s0-1 1-1h2c1 0 1 1 1 1v1h3c1 0 1 1 1 1l-.01 1S12 5 11 5v8s0 1-1 1H2c-1.09 0-1-1-1-1l.086-8C0 5 0 4 0 4zm1-1h10v1H1V3zm1 2h2.002v7H5V5H7v7h1V5h2v8H2V5z" fill="#000" fill-rule="evenodd"/></symbol><symbol viewBox="0 0 10 14" id="trophy" xmlns="http://www.w3.org/2000/svg"><title>trophy</title><path d="M2 1V0h6v1h2v1s0 2-2 2v1s0 2-2 2v3h1c1 0 1 1 1 1H2s0-1 1-1h1V7C2 7 2 5 2 5V4C0 4 0 2 0 2V1h2zm6 1h1s0 1-1 1V2zM2 2v1C1 3 1 2 1 2h1zM0 12h10v2H0v-2z" fill="#000" fill-rule="evenodd"/></symbol><symbol viewBox="0 0 10 8" id="truck" xmlns="http://www.w3.org/2000/svg"><title>truck</title><path d="M8.915 7a1.5 1.5 0 0 1-2.83 0h-2.17a1.5 1.5 0 0 1-2.83 0H.5a.5.5 0 0 1-.5-.5v-6A.5.5 0 0 1 .5 0h5a.5.5 0 0 1 .5.5V1h1.793a.5.5 0 0 1 .353.146l1.708 1.708a.5.5 0 0 1 .146.353V6.5a.5.5 0 0 1-.5.5h-.585zM2.5 7.5a1 1 0 1 0 0-2 1 1 0 0 0 0 2zm5 0a1 1 0 1 0 0-2 1 1 0 0 0 0 2zM7 2v2h2V3L8 2H7z" fill="#000" fill-rule="evenodd"/></symbol><symbol viewBox="0 0 14 12" id="twitter" xmlns="http://www.w3.org/2000/svg"><title>twitter</title><path d="M4.396 11.38c5.281 0 8.171-4.38 8.171-8.171 0-.123 0-.246-.005-.37a5.85 5.85 0 0 0 1.433-1.49 5.82 5.82 0 0 1-1.652.454A2.89 2.89 0 0 0 13.61.213c-.554.33-1.17.565-1.826.694A2.866 2.866 0 0 0 9.69 0a2.875 2.875 0 0 0-2.8 3.528A8.155 8.155 0 0 1 .968.526a2.88 2.88 0 0 0 .89 3.836A2.905 2.905 0 0 1 .56 4.005v.04c0 1.388.991 2.553 2.302 2.816a2.8 2.8 0 0 1-.756.101c-.185 0-.364-.017-.538-.05a2.872 2.872 0 0 0 2.683 1.994A5.76 5.76 0 0 1 0 10.098a8.169 8.169 0 0 0 4.396 1.282" fill="#000" fill-rule="nonzero"/></symbol><symbol viewBox="0 0 14 14" id="umbrella" xmlns="http://www.w3.org/2000/svg"><title>umbrella</title><path d="M9.286 7.909A2.544 2.544 0 0 1 11.572 6.5c.53 0 1.021.16 1.428.432-.483-2.647-2.73-4.69-5.5-4.912V1.5c0-.33-.167-.497-.5-.5-.333-.003-.5.164-.5.5v.52C3.73 2.24 1.483 4.285 1 6.932A2.557 2.557 0 0 1 2.428 6.5c1.005 0 1.874.575 2.286 1.409A2.539 2.539 0 0 1 6.5 6.549V11a1 1 0 0 1-2 0 .5.5 0 1 0-1 0 2 2 0 1 0 4 0V6.548A2.539 2.539 0 0 1 9.286 7.91z" fill="#000" fill-rule="evenodd"/></symbol><symbol viewBox="0 0 10 14" id="underline" xmlns="http://www.w3.org/2000/svg"><title>underline</title><path d="M0 0l2 .005L1.997 6c0 1.712 1.496 3 2.998 3C6.497 9 8 7.763 8 6V0h2v6c0 3-2.5 5-5 5S0 9 0 6V0zm0 12h10v2H0v-2z" fill="#000" fill-rule="evenodd"/></symbol><symbol viewBox="0 0 12 12" id="union" xmlns="http://www.w3.org/2000/svg"><title>union</title><path d="M4 4H.997C.453 4 0 4.446 0 4.997v6.006c0 .544.446.997.997.997h6.006c.544 0 .997-.446.997-.997V8h3.003c.544 0 .997-.446.997-.997V.997C12 .453 11.554 0 11.003 0H4.997C4.453 0 4 .446 4 .997V4zm3 3h4V1H5v4H1v6h6V7z" fill="#000" fill-rule="evenodd"/></symbol><symbol viewBox="0 0 10 14" id="unlock" xmlns="http://www.w3.org/2000/svg"><title>unlock</title><path d="M2 6V3s0-3 3-3 3 3 3 3v1H6V3s.111-1-1-1C4 2 4 3 4 3v3h5c1 0 1 1 1 1v6s0 1-1 1H1c-1 0-1-1-1-1V7s0-1 1-1h1zm0 2v4h1V8H2z" fill="#000" fill-rule="evenodd"/></symbol><symbol viewBox="0 0 10 12" id="upload" xmlns="http://www.w3.org/2000/svg"><title>upload</title><path d="M2 7L1 6l4-4 4 4-1 1-2-2v7H4V5L2 7zM0 0h10v1H0V0z" fill="#000" fill-rule="evenodd"/></symbol><symbol viewBox="0 0 8 14" id="usb" xmlns="http://www.w3.org/2000/svg"><title>usb</title><path d="M0 5v8c0 1 1 1 1 1h6s1 0 1-1V5c0-1-1-1-1-1V1c0-1-1-1-1-1H2S1 0 1 1v3S0 4 0 5zm5 1h1v5H5V6zM2 1h4v3H2V1z" fill="#000" fill-rule="evenodd"/></symbol><symbol viewBox="0 0 12 12" id="user" xmlns="http://www.w3.org/2000/svg"><title>user</title><path d="M6 6a3 3 0 1 1 0-6 3 3 0 0 1 0 6zm0 2c3 0 6 1.79 6 3v.997L.002 12 0 11c.002-1.215 3-3 6-3z" fill="#000" fill-rule="evenodd"/></symbol><symbol viewBox="0 0 14 12" id="user-minus" xmlns="http://www.w3.org/2000/svg"><title>user-minus</title><path d="M10 5.5h4v1h-4v-1zM6 8c3 0 6 1.79 6 3v.997L.002 12 0 11c.002-1.215 3-3 6-3zm0-2a3 3 0 1 1 0-6 3 3 0 0 1 0 6z" fill="#000" fill-rule="evenodd"/></symbol><symbol viewBox="0 0 14 12" id="user-plus" xmlns="http://www.w3.org/2000/svg"><title>user-plus</title><path d="M12.5 5.5H14v1h-1.5V8h-1V6.5H10v-1h1.5V4h1v1.5zM6 6a3 3 0 1 1 0-6 3 3 0 0 1 0 6zm0 2c3 0 6 1.79 6 3v.997L.002 12 0 11c.002-1.215 3-3 6-3z" fill="#000" fill-rule="evenodd"/></symbol><symbol viewBox="0 0 14 10" id="users" xmlns="http://www.w3.org/2000/svg"><title>users</title><path d="M7.31 7.998L.003 8 0 7.333c.002-.81 2-2 4-2s4 1.194 4 2v.365a5.958 5.958 0 0 1 2-.365c2 0 4 1.194 4 2v.665L6.002 10 6 9.333c0-.415.528-.931 1.31-1.335zM4 4a2 2 0 1 1 0-4 2 2 0 0 1 0 4zm6 2a2 2 0 1 1 0-4 2 2 0 0 1 0 4z" fill="#000" fill-rule="evenodd"/></symbol><symbol viewBox="0 0 14 14" id="vector" xmlns="http://www.w3.org/2000/svg"><title>vector</title><path d="M12.5 3.998V10H14v4h-4v-1.5H4.002V14H0v-4h1.5V3.998H0V0h4.002L4 1.5h6V0h4v3.998h-1.5zm-10 0V10h1.502L4 11.5h6V10h1.5V3.998H10V2.5H4.002v1.498H2.5zM11 11v2h2v-2h-2zM1 11v2h2v-2H1zm10-9.997V3h2V1.003h-2zm-10 0V3h2V1.003H1z" fill="#000" fill-rule="evenodd"/></symbol><symbol viewBox="0 0 14 10" id="video" xmlns="http://www.w3.org/2000/svg"><title>video</title><path d="M9 .998A.997.997 0 0 0 8.002 0H.998A.997.997 0 0 0 0 .998v8.004c0 .552.447.998.998.998h7.004A.997.997 0 0 0 9 9.002V7.187l4.129 2.323c.485.273.871.043.871-.508V.998c0-.552-.39-.779-.871-.508L9 2.812V.998z" fill="#000" fill-rule="evenodd"/></symbol><symbol viewBox="0 0 12 8" id="wallet" xmlns="http://www.w3.org/2000/svg"><title>wallet</title><path d="M11 2V1a1 1 0 0 0-1-1H1a1 1 0 0 0-1 1v6a1 1 0 0 0 1 1h9a1 1 0 0 0 1-1V6a1 1 0 0 0 1-1V3a1 1 0 0 0-1-1zM9 5a1 1 0 1 0 0-2 1 1 0 0 0 0 2z" fill="#000" fill-rule="evenodd"/></symbol><symbol viewBox="0 0 14 14" id="warning" xmlns="http://www.w3.org/2000/svg"><title>warning</title><path d="M7 14A7 7 0 1 1 7 0a7 7 0 0 1 0 14zM6 2.5v6s0 .5.502.5H7.5c.518 0 .5-.5.5-.5v-6S8 2 7.5 2h-.998C6 2 6 2.5 6 2.5zm0 9s0 .5.5.5h1c.5 0 .5-.5.5-.5v-1s0-.5-.5-.5h-1c-.5 0-.5.5-.5.5v1z" fill="#000" fill-rule="evenodd"/></symbol><symbol viewBox="0 0 8 14" id="watch" xmlns="http://www.w3.org/2000/svg"><title>watch</title><path d="M4.5 6.5V5h-1v2.002s0 .498.5.498h2v-1H4.5zM4 10a3 3 0 1 0 0-6 3 3 0 0 0 0 6zm2-6.465V1s0-1-1-1H3C2 0 2 1 2 1v2.535A3.998 3.998 0 0 0 0 7c0 1.48.804 2.773 2 3.465V13s0 1 1 1h2c1 0 1-1 1-1v-2.535A3.998 3.998 0 0 0 8 7c0-1.48-.804-2.773-2-3.465z" fill="#000" fill-rule="evenodd"/></symbol><symbol viewBox="0 0 8 14" id="watch-alt" xmlns="http://www.w3.org/2000/svg"><title>watch-alt</title><path d="M1 11s-1 0-1-1V4c0-1 1-1 1-1h1V1.004C2 0 3 0 3 0h2s1 .004 1 1.004V3h1s1 0 1 1v6c0 1-1 1-1 1H6v2c0 1-1 1-1 1H3s-1 0-1-1v-2H1zm0-7v6h6V4H1z" fill="#000" fill-rule="evenodd"/></symbol><symbol viewBox="0 0 8 16" id="wine-glass" xmlns="http://www.w3.org/2000/svg"><title>wine-glass</title><path d="M3 9.93C0 9.475 0 7 0 7V0h8v7s0 2.476-3 2.93V15h2.5v1h-7v-1H3V9.93zM1 1v2h6V1H1z" fill="#000" fill-rule="evenodd"/></symbol><symbol viewBox="0 0 14 14" id="wordpress" xmlns="http://www.w3.org/2000/svg"><title>wordpress</title><path d="M7 0C3.14 0 0 3.14 0 7s3.14 7 7 7 7-3.14 7-7-3.14-7-7-7m0 13.679A6.687 6.687 0 0 1 .32 6.999 6.686 6.686 0 0 1 7 .322 6.687 6.687 0 0 1 13.679 7a6.687 6.687 0 0 1-6.68 6.679M.996 6.999a6.005 6.005 0 0 0 3.385 5.405L1.515 4.556A5.981 5.981 0 0 0 .995 7m10.059-.303c0-.742-.267-1.256-.496-1.656-.304-.495-.59-.914-.59-1.409 0-.552.42-1.065 1.009-1.065.027 0 .052.003.078.004A5.983 5.983 0 0 0 7 .995 5.998 5.998 0 0 0 1.983 3.7c.14.005.273.008.386.008.628 0 1.6-.077 1.6-.077.324-.019.362.457.039.495 0 0-.325.038-.687.057l2.186 6.505 1.315-3.941-.936-2.564c-.323-.019-.63-.057-.63-.057-.323-.019-.285-.514.038-.495 0 0 .992.077 1.582.077.628 0 1.6-.077 1.6-.077.324-.019.362.457.039.495 0 0-.326.038-.688.057l2.17 6.455.6-2c.259-.832.457-1.428.457-1.942m-3.949.828L5.303 12.76a5.998 5.998 0 0 0 3.691-.095.554.554 0 0 1-.043-.083L7.105 7.525zm5.164-3.406c.026.191.04.396.04.617 0 .61-.114 1.294-.456 2.151l-1.834 5.303a6.001 6.001 0 0 0 2.25-8.071" fill="#000" fill-rule="evenodd"/></symbol><symbol viewBox="0 0 14 14" id="wordpress-alt" xmlns="http://www.w3.org/2000/svg"><title>wordpress-alt</title><path d="M12.523 3.98c.49.897.77 1.926.77 3.02a6.29 6.29 0 0 1-3.129 5.44l1.922-5.558c.36-.898.479-1.616.479-2.254 0-.232-.015-.447-.042-.648zm-4.656.069c.38-.02.72-.06.72-.06.34-.04.3-.538-.04-.518 0 0-1.019.08-1.677.08-.618 0-1.658-.08-1.658-.08-.339-.02-.379.498-.04.518 0 0 .322.04.66.06l.981 2.687-1.377 4.13L3.144 4.05c.38-.02.72-.06.72-.06.339-.04.299-.538-.04-.518 0 0-1.02.08-1.677.08-.118 0-.258-.003-.405-.008A6.286 6.286 0 0 1 7 .706a6.27 6.27 0 0 1 4.25 1.653c-.027-.002-.054-.005-.082-.005-.618 0-1.057.538-1.057 1.117 0 .518.3.957.619 1.476.239.419.519.957.519 1.735 0 .539-.208 1.164-.48 2.035l-.627 2.097L7.867 4.05zM7 13.294c-.618 0-1.214-.09-1.778-.257L7.11 7.55l1.935 5.3c.013.031.028.06.045.087a6.28 6.28 0 0 1-2.09.357zM.706 7c0-.913.196-1.779.545-2.562l3.003 8.226A6.294 6.294 0 0 1 .706 7zM7 0C3.14 0 0 3.14 0 7s3.14 7 7 7 7-3.14 7-7-3.14-7-7-7z" fill="#000" fill-rule="evenodd"/></symbol><symbol viewBox="0 0 12 12" id="wrench" xmlns="http://www.w3.org/2000/svg"><title>wrench</title><path d="M5.871 3.871L12 10l-2 2-6.129-6.129A3 3 0 0 1 .128 2.128L2 4l2-2L2.132.128a3 3 0 0 1 3.74 3.744zM9.5 10a.5.5 0 1 0 0-1 .5.5 0 0 0 0 1z" fill="#000" fill-rule="evenodd"/></symbol><symbol viewBox="0 0 14 10" id="youtube" xmlns="http://www.w3.org/2000/svg"><title>youtube</title><path d="M5.555 6.74l-.001-3.934 3.783 1.973-3.782 1.96zm8.305-4.616s-.137-.965-.556-1.39C12.77.178 12.174.175 11.9.143 9.94 0 7.003 0 7.003 0h-.006S4.058 0 2.099.142C1.825.174 1.23.177.696.735c-.42.424-.556 1.39-.556 1.39S0 3.256 0 4.39v1.062c0 1.133.14 2.266.14 2.266s.137.965.556 1.39c.533.557 1.232.54 1.544.598 1.12.107 4.76.14 4.76.14s2.942-.004 4.9-.145c.275-.033.871-.036 1.404-.593.42-.425.556-1.39.556-1.39S14 6.585 14 5.452V4.39c0-1.133-.14-2.266-.14-2.266z" fill="#000" fill-rule="evenodd"/></symbol></svg>