<?xml version="1.0" encoding="UTF-8"?>
<svg width="24px" height="24px" viewBox="0 0 24 24" version="1.1" xmlns="http://www.w3.org/2000/svg" xmlns:xlink="http://www.w3.org/1999/xlink">
    <!-- Generator: sketchtool 52.2 (67145) - http://www.bohemiancoding.com/sketch -->
    <title>commenting</title>
    <desc>Created with sketchtool.</desc>
    <g id="web-app" stroke="none" stroke-width="1" fill="none" fill-rule="evenodd">
        <g id="commenting" fill="#000000" fill-rule="nonzero">
            <path d="M5,21 L5,16.843038 C3.74920013,15.3831855 3,13.5242246 3,11.5 C3,6.80557963 7.02943725,3 12,3 C16.9705627,3 21,6.80557963 21,11.5 C21,16.1944204 16.9705627,20 12,20 C10.2641033,20 8.64299134,19.535851 7.26820965,18.7317903 L5,21 Z M12,18 C15.8659932,18 19,15.0898509 19,11.5 C19,7.91014913 15.8659932,5 12,5 C8.13400675,5 5,7.91014913 5,11.5 C5,15.0898509 8.13400675,18 12,18 Z M9.5,13 C8.67157288,13 8,12.3284271 8,11.5 C8,10.6715729 8.67157288,10 9.5,10 C10.3284271,10 11,10.6715729 11,11.5 C11,12.3284271 10.3284271,13 9.5,13 Z M14.5,13 C13.6715729,13 13,12.3284271 13,11.5 C13,10.6715729 13.6715729,10 14.5,10 C15.3284271,10 16,10.6715729 16,11.5 C16,12.3284271 15.3284271,13 14.5,13 Z" id="Shape"></path>
        </g>
    </g>
</svg>