<?xml version="1.0" encoding="UTF-8"?>
<svg width="24px" height="24px" viewBox="0 0 24 24" version="1.1" xmlns="http://www.w3.org/2000/svg" xmlns:xlink="http://www.w3.org/1999/xlink">
    <!-- Generator: sketchtool 52.2 (67145) - http://www.bohemiancoding.com/sketch -->
    <title>list-bullet</title>
    <desc>Created with sketchtool.</desc>
    <g id="text-edit" stroke="none" stroke-width="1" fill="none" fill-rule="evenodd">
        <g id="list-bullet" fill="#000000">
            <path d="M10,4 L20,4 C20.5522847,4 21,4.44771525 21,5 C21,5.55228475 20.5522847,6 20,6 L10,6 C9.44771525,6 9,5.55228475 9,5 C9,4.44771525 9.44771525,4 10,4 Z M10,11 L20,11 C20.5522847,11 21,11.4477153 21,12 C21,12.5522847 20.5522847,13 20,13 L10,13 C9.44771525,13 9,12.5522847 9,12 C9,11.4477153 9.44771525,11 10,11 Z M10,18 L20,18 C20.5522847,18 21,18.4477153 21,19 C21,19.5522847 20.5522847,20 20,20 L10,20 C9.44771525,20 9,19.5522847 9,19 C9,18.4477153 9.44771525,18 10,18 Z M5,7 C3.8954305,7 3,6.1045695 3,5 C3,3.8954305 3.8954305,3 5,3 C6.1045695,3 7,3.8954305 7,5 C7,6.1045695 6.1045695,7 5,7 Z M5,14 C3.8954305,14 3,13.1045695 3,12 C3,10.8954305 3.8954305,10 5,10 C6.1045695,10 7,10.8954305 7,12 C7,13.1045695 6.1045695,14 5,14 Z M5,21 C3.8954305,21 3,20.1045695 3,19 C3,17.8954305 3.8954305,17 5,17 C6.1045695,17 7,17.8954305 7,19 C7,20.1045695 6.1045695,21 5,21 Z" id="Shape"></path>
        </g>
    </g>
</svg>