<?xml version="1.0" encoding="UTF-8"?>
<svg width="24px" height="24px" viewBox="0 0 24 24" version="1.1" xmlns="http://www.w3.org/2000/svg" xmlns:xlink="http://www.w3.org/1999/xlink">
    <!-- Generator: sketchtool 52.1 (67048) - http://www.bohemiancoding.com/sketch -->
    <title>align-right</title>
    <desc>Created with sketchtool.</desc>
    <g id="production" stroke="none" stroke-width="1" fill="none" fill-rule="evenodd">
        <g id="align-right" fill="#000000">
            <path d="M17,21 C17,21.5522847 16.5522847,22 16,22 C15.4477153,22 15,21.5522847 15,21 L15,3 C15,2.44771525 15.4477153,2 16,2 C16.5522847,2 17,2.44771525 17,3 L17,21 Z M11,5 C12.1045695,5 13,5.8954305 13,7 C13,8.1045695 12.1045695,9 11,9 L5,9 C3.8954305,9 3,8.1045695 3,7 C3,5.8954305 3.8954305,5 5,5 L11,5 Z M11,12 C12.1045695,12 13,12.8954305 13,14 C13,15.1045695 12.1045695,16 11,16 L7,16 C5.8954305,16 5,15.1045695 5,14 C5,12.8954305 5.8954305,12 7,12 L11,12 Z" id="Shape"></path>
        </g>
    </g>
</svg>