<?xml version="1.0" encoding="UTF-8"?>
<svg width="10px" height="10px" viewBox="0 0 10 10" version="1.1" xmlns="http://www.w3.org/2000/svg" xmlns:xlink="http://www.w3.org/1999/xlink">
    <defs></defs>
    <g id="web-app" stroke="none" stroke-width="1" fill="none" fill-rule="evenodd">
        <g id="app-menu" fill="#000000">
            <path d="M8,8 L10,8 L10,10 L8,10 L8,8 Z M4,8 L6,8 L6,10 L4,10 L4,8 Z M0,8 L2,8 L2,10 L0,10 L0,8 Z M8,4 L10,4 L10,6 L8,6 L8,4 Z M4,4 L6,4 L6,6 L4,6 L4,4 Z M0,4 L2,4 L2,6 L0,6 L0,4 Z M8,0 L10,0 L10,2 L8,2 L8,0 Z M4,0 L6,0 L6,2 L4,2 L4,0 Z M0,0 L2,0 L2,2 L0,2 L0,0 Z" id="Shape"></path>
        </g>
    </g>
</svg>