<?xml version="1.0" encoding="UTF-8"?>
<svg width="14px" height="14px" viewBox="0 0 14 14" version="1.1" xmlns="http://www.w3.org/2000/svg" xmlns:xlink="http://www.w3.org/1999/xlink">
    <!-- Generator: sketchtool 45.2 (43514) - http://www.bohemiancoding.com/sketch -->
    <title>artboard</title>
    <desc>Created with sketchtool.</desc>
    <defs></defs>
    <g id="production" stroke="none" stroke-width="1" fill="none" fill-rule="evenodd">
        <g id="artboard" fill="#000000">
            <path d="M3,3 L11,3 L11,11 L3,11 L3,3 Z M10,12 L11,12 L11,14 L10,14 L10,12 Z M0,3 L2,3 L2,4 L0,4 L0,3 Z M0,10 L2,10 L2,11 L0,11 L0,10 Z M12,3 L14,3 L14,4 L12,4 L12,3 Z M12,10 L14,10 L14,11 L12,11 L12,10 Z M3,12 L4,12 L4,14 L3,14 L3,12 Z M10,0 L11,0 L11,2 L10,2 L10,0 Z M3,0 L4,0 L4,2 L3,2 L3,0 Z" id="Shape"></path>
        </g>
    </g>
</svg>