<?xml version="1.0" encoding="UTF-8"?>
<svg width="16px" height="11px" viewBox="0 0 16 11" version="1.1" xmlns="http://www.w3.org/2000/svg" xmlns:xlink="http://www.w3.org/1999/xlink">
    <defs></defs>
    <g id="devices" stroke="none" stroke-width="1" fill="none" fill-rule="evenodd">
        <g id="browser" fill="#000000">
            <path d="M0,1 C0,0 1,0 1,0 L15,0 C15,0 16,0 16,1.00280032 L16,10 C16,11 15,11 15,11 L1,11 C1,11 3.58061258e-18,11 0,10 C3.58061259e-18,10.0112867 0,1.05067945 0,1 Z M1,3 L1,10 L15,10 L15,3 L1,3 Z M5,1 L5,2 L15,2 L15,1 L5,1 Z M1,1 L1,2 L2,2 L2,1 L1,1 Z M3,1 L3,2 L4,2 L4,1 L3,1 Z" id="Shape"></path>
        </g>
    </g>
</svg>