<?xml version="1.0" encoding="UTF-8"?>
<svg width="15px" height="12px" viewBox="0 0 15 12" version="1.1" xmlns="http://www.w3.org/2000/svg" xmlns:xlink="http://www.w3.org/1999/xlink">
    <defs></defs>
    <g id="devices" stroke="none" stroke-width="1" fill="none" fill-rule="evenodd">
        <g id="camera" fill="#000000">
            <path d="M13,0.99999994 C15,0.99999994 15,2.94132055 15,3 L15,10 C15,10 15,12 13,12 C13,12 2,12 2,12 C1.00467438e-13,12 0,10 0,10 C0,10 6.08092388e-14,2.96425462 0,2.96425462 C-5.81653588e-14,2.96425462 0,1 2,1 L8,1 C8,1 8,-0.00202196836 9,-0.00202196836 L11,-0.00202196836 C11,-0.00202196836 12,-0.00202196836 12,0.99999994 C12,0.99999994 13,0.99999994 13,0.99999994 Z M11,2 L11,3 L13,3 L13,2 L11,2 Z M7.5,10 C9.43299662,10 11,8.43299662 11,6.5 C11,4.56700338 9.43299662,3 7.5,3 C5.56700338,3 4,4.56700338 4,6.5 C4,8.43299662 5.56700338,10 7.5,10 Z M7.5,9 C6.11928813,9 5,7.88071187 5,6.5 C5,5.11928813 6.11928813,4 7.5,4 C8.88071187,4 10,5.11928813 10,6.5 C10,7.88071187 8.88071187,9 7.5,9 Z" id="Shape"></path>
        </g>
    </g>
</svg>