<?xml version="1.0" encoding="UTF-8"?>
<svg width="14px" height="14px" viewBox="0 0 14 14" version="1.1" xmlns="http://www.w3.org/2000/svg" xmlns:xlink="http://www.w3.org/1999/xlink">
    <!-- Generator: sketchtool 48.2 (47327) - http://www.bohemiancoding.com/sketch -->
    <title>check-circle-o</title>
    <desc>Created with sketchtool.</desc>
    <defs></defs>
    <g id="web-app" stroke="none" stroke-width="1" fill="none" fill-rule="evenodd">
        <g id="check-circle-o" fill="#000000">
            <path d="M7,14 C10.8659932,14 14,10.8659932 14,7 C14,3.13400675 10.8659932,0 7,0 C3.13400675,0 0,3.13400675 0,7 C0,10.8659932 3.13400675,14 7,14 Z M7,13 C10.3137085,13 13,10.3137085 13,7 C13,3.6862915 10.3137085,1 7,1 C3.6862915,1 1,3.6862915 1,7 C1,10.3137085 3.6862915,13 7,13 Z M4,6 L3,7 L6,10 L11,5 L10,4 L6,8 L4,6 Z" id="Combined-Shape"></path>
        </g>
    </g>
</svg>