<?xml version="1.0" encoding="UTF-8"?>
<svg width="14px" height="14px" viewBox="0 0 14 14" version="1.1" xmlns="http://www.w3.org/2000/svg" xmlns:xlink="http://www.w3.org/1999/xlink">
    <defs></defs>
    <g id="web-app" stroke="none" stroke-width="1" fill="none" fill-rule="evenodd">
        <g id="comment-o" fill="#000000">
            <path d="M2,11.0490554 C0.762812978,9.87669951 0,8.271069 0,6.5 C0,2.91014913 3.13400675,0 7,0 C10.8659932,0 14,2.91014913 14,6.5 C14,10.0898509 10.8659932,13 7,13 C5.82461097,13 4.71688384,12.7309975 3.74432397,12.255676 L2,14 L2,11.0490554 L2,11.0490554 Z M7,12 C10.3137085,12 13,9.53756612 13,6.5 C13,3.46243388 10.3137085,1 7,1 C3.6862915,1 1,3.46243388 1,6.5 C1,9.53756612 3.6862915,12 7,12 Z" id="Shape"></path>
        </g>
    </g>
</svg>