<?xml version="1.0" encoding="UTF-8"?>
<svg width="14px" height="14px" viewBox="0 0 14 14" version="1.1" xmlns="http://www.w3.org/2000/svg" xmlns:xlink="http://www.w3.org/1999/xlink">
    <!-- Generator: sketchtool 47.1 (45422) - http://www.bohemiancoding.com/sketch -->
    <title>commenting</title>
    <desc>Created with sketchtool.</desc>
    <defs></defs>
    <g id="web-app" stroke="none" stroke-width="1" fill="none" fill-rule="evenodd">
        <g id="commenting" fill="#000000">
            <path d="M2,11.0490554 C0.762812978,9.87669951 0,8.271069 0,6.5 C0,2.91014913 3.13400675,0 7,0 C10.8659932,0 14,2.91014913 14,6.5 C14,10.0898509 10.8659932,13 7,13 C5.82461097,13 4.71688384,12.7309975 3.74432397,12.255676 L2,14 L2,11.0490554 L2,11.0490554 Z M4,7.5 C4.55228475,7.5 5,7.05228475 5,6.5 C5,5.94771525 4.55228475,5.5 4,5.5 C3.44771525,5.5 3,5.94771525 3,6.5 C3,7.05228475 3.44771525,7.5 4,7.5 Z M7,7.5 C7.55228475,7.5 8,7.05228475 8,6.5 C8,5.94771525 7.55228475,5.5 7,5.5 C6.44771525,5.5 6,5.94771525 6,6.5 C6,7.05228475 6.44771525,7.5 7,7.5 Z M10,7.5 C10.5522847,7.5 11,7.05228475 11,6.5 C11,5.94771525 10.5522847,5.5 10,5.5 C9.44771525,5.5 9,5.94771525 9,6.5 C9,7.05228475 9.44771525,7.5 10,7.5 Z" id="Shape"></path>
        </g>
    </g>
</svg>