<?xml version="1.0" encoding="UTF-8"?>
<svg width="14px" height="14px" viewBox="0 0 14 14" version="1.1" xmlns="http://www.w3.org/2000/svg" xmlns:xlink="http://www.w3.org/1999/xlink">
    <defs></defs>
    <g id="production" stroke="none" stroke-width="1" fill="none" fill-rule="evenodd">
        <g id="crop" fill="#000000">
            <path d="M12,10 L14,10 L14,12 L12,12 L12,14 L10,14 L10,12 L3,12 C2,12 2,11 2,11 L2,4 L0,4 L0,2 L2,2 L2,0 L4,0 L4,2 L11,2 L12,1 L13,2 L12,3 L12,10 Z M4,4 L9,4 L4,9 L4,4 Z M10,10 L5,10 L10,5 L10,10 Z" id="Shape"></path>
        </g>
    </g>
</svg>