<?xml version="1.0" encoding="UTF-8"?>
<svg width="16px" height="13px" viewBox="0 0 16 13" version="1.1" xmlns="http://www.w3.org/2000/svg" xmlns:xlink="http://www.w3.org/1999/xlink">
    <defs></defs>
    <g id="shape" stroke="none" stroke-width="1" fill="none" fill-rule="evenodd">
        <g id="diamond" fill="#000000">
            <path d="M9,12.5702479 C8,13.5371901 7,12.5702479 7,12.5702479 L0,5 L3,0 L13,0 L16,5 C16,5 9,12.5702479 9,12.5702479 Z M4,5 L2,5 L7.00134025,11 L4,5 Z M11,5 L5,5 L8,11 L11,5 Z M12,5 L9,11 L14,5 L12,5 Z M10,1 L12,4 L13.997719,4 L12,1 L10,1 Z M9,1 L7,1 L5,4 L11,4 L9,1 Z M6,1 L4,1 L2,4 L4,4 L6,1 Z" id="Shape"></path>
        </g>
    </g>
</svg>