<?xml version="1.0" encoding="UTF-8"?>
<svg width="12px" height="8px" viewBox="0 0 12 8" version="1.1" xmlns="http://www.w3.org/2000/svg" xmlns:xlink="http://www.w3.org/1999/xlink">
    <!-- Generator: sketchtool 49.2 (51160) - http://www.bohemiancoding.com/sketch -->
    <title>equalizer</title>
    <desc>Created with sketchtool.</desc>
    <defs></defs>
    <g id="devices" stroke="none" stroke-width="1" fill="none" fill-rule="evenodd">
        <g id="equalizer" fill="#000000">
            <path d="M7.08535285,1 C7.29127106,0.417403814 7.84689059,0 8.5,0 C9.15310941,0 9.70872894,0.417403814 9.91464715,1 L12,1 L12,2 L9.91464715,2 C9.70872894,2.58259619 9.15310941,3 8.5,3 C7.84689059,3 7.29127106,2.58259619 7.08535285,2 L0,2 L0,1 L7.08535285,1 Z M2.08535285,6 C2.29127106,5.41740381 2.84689059,5 3.5,5 C4.15310941,5 4.70872894,5.41740381 4.91464715,6 L12,6 L12,7 L4.91464715,7 C4.70872894,7.58259619 4.15310941,8 3.5,8 C2.84689059,8 2.29127106,7.58259619 2.08535285,7 L0,7 L0,6 L2.08535285,6 Z" id="Shape"></path>
        </g>
    </g>
</svg>