<?xml version="1.0" encoding="UTF-8"?>
<svg width="24px" height="24px" viewBox="0 0 24 24" version="1.1" xmlns="http://www.w3.org/2000/svg" xmlns:xlink="http://www.w3.org/1999/xlink">
    <!-- Generator: sketchtool 52.2 (67145) - http://www.bohemiancoding.com/sketch -->
    <title>equalizer</title>
    <desc>Created with sketchtool.</desc>
    <g id="devices" stroke="none" stroke-width="1" fill="none" fill-rule="evenodd">
        <g id="equalizer" fill="#000000">
            <path d="M13.1707057,7 C13.5825421,5.83480763 14.6937812,5 16,5 C17.3062188,5 18.4174579,5.83480763 18.8292943,7 L21,7 C21.5522847,7 22,7.44771525 22,8 C22,8.55228475 21.5522847,9 21,9 L18.8292943,9 C18.4174579,10.1651924 17.3062188,11 16,11 C14.6937812,11 13.5825421,10.1651924 13.1707057,9 L3,9 C2.44771525,9 2,8.55228475 2,8 C2,7.44771525 2.44771525,7 3,7 L13.1707057,7 Z M5.17070571,15 C5.58254212,13.8348076 6.69378117,13 8,13 C9.30621883,13 10.4174579,13.8348076 10.8292943,15 L21,15 C21.5522847,15 22,15.4477153 22,16 C22,16.5522847 21.5522847,17 21,17 L10.8292943,17 C10.4174579,18.1651924 9.30621883,19 8,19 C6.69378117,19 5.58254212,18.1651924 5.17070571,17 L3,17 C2.44771525,17 2,16.5522847 2,16 C2,15.4477153 2.44771525,15 3,15 L5.17070571,15 Z M16,9 C16.5522847,9 17,8.55228475 17,8 C17,7.44771525 16.5522847,7 16,7 C15.4477153,7 15,7.44771525 15,8 C15,8.55228475 15.4477153,9 16,9 Z M8,17 C8.55228475,17 9,16.5522847 9,16 C9,15.4477153 8.55228475,15 8,15 C7.44771525,15 7,15.4477153 7,16 C7,16.5522847 7.44771525,17 8,17 Z" id="Shape"></path>
        </g>
    </g>
</svg>