<?xml version="1.0" encoding="UTF-8"?>
<svg width="14px" height="12px" viewBox="0 0 14 12" version="1.1" xmlns="http://www.w3.org/2000/svg" xmlns:xlink="http://www.w3.org/1999/xlink">
    <!-- Generator: sketchtool 48.2 (47327) - http://www.bohemiancoding.com/sketch -->
    <title>eye</title>
    <desc>Created with sketchtool.</desc>
    <defs></defs>
    <g id="web-app" stroke="none" stroke-width="1" fill="none" fill-rule="evenodd">
        <g id="eye" fill="#000000">
            <path d="M7,12 C10.8659932,12 14,8 14,6 C14,4 10.8659932,0 7,0 C3.13400675,0 0,4 0,6 C1.4287546e-16,8 3.13400675,12 7,12 Z M7,10 C9.209139,10 11,8.209139 11,6 C11,3.790861 9.209139,2 7,2 C4.790861,2 3,3.790861 3,6 C3,8.209139 4.790861,10 7,10 Z M7,8 C8.1045695,8 9,7.1045695 9,6 C9,4.8954305 8.1045695,4 7,4 C5.8954305,4 5,4.8954305 5,6 C5,7.1045695 5.8954305,8 7,8 Z" id="Shape"></path>
        </g>
    </g>
</svg>