<?xml version="1.0" encoding="UTF-8"?>
<svg width="14px" height="14px" viewBox="0 0 14 14" version="1.1" xmlns="http://www.w3.org/2000/svg" xmlns:xlink="http://www.w3.org/1999/xlink">
    <!-- Generator: sketchtool 48.2 (47327) - http://www.bohemiancoding.com/sketch -->
    <title>feed</title>
    <desc>Created with sketchtool.</desc>
    <defs></defs>
    <g id="web-app" stroke="none" stroke-width="1" fill="none" fill-rule="evenodd">
        <g id="feed" fill="#000000">
            <path d="M14,14 C14,14 11.9621104,14 11.9621104,14 C12,7.61759391 6.38240609,2 0,2.03788963 L0,0 C7.7319865,0 14,6.2680135 14,14 Z M10,14 C10,14 7.94507122,14 7.94507122,14 C8,9.82838339 4.17161661,6 2.84217094e-14,6.05492878 L2.84217094e-14,4 C5.5228475,4 10,8.4771525 10,14 Z M2,14 C0.8954305,14 0,13.1045695 0,12 C0,10.8954305 0.8954305,10 2,10 C3.1045695,10 4,10.8954305 4,12 C4,13.1045695 3.1045695,14 2,14 Z" id="Shape"></path>
        </g>
    </g>
</svg>