<?xml version="1.0" encoding="UTF-8"?>
<svg width="24px" height="24px" viewBox="0 0 24 24" version="1.1" xmlns="http://www.w3.org/2000/svg" xmlns:xlink="http://www.w3.org/1999/xlink">
    <!-- Generator: sketchtool 52.2 (67145) - http://www.bohemiancoding.com/sketch -->
    <title>file-audio</title>
    <desc>Created with sketchtool.</desc>
    <g id="file-types" stroke="none" stroke-width="1" fill="none" fill-rule="evenodd">
        <g id="file-audio" fill="#000000">
            <path d="M6,2 L16,2 L20,6 L20,20 C20,21.1045695 19.1045695,22 18,22 L6,22 C4.8954305,22 4,21.1045695 4,20 L4,4 C4,2.8954305 4.8954305,2 6,2 Z M15.1715729,4 L6,4 L6,20 L18,20 L18,6.82842712 L15.1715729,6.82842712 L15.1715729,4 Z M15,14.0853529 L15,11 L11,11 L11,16.5 C11,17.3284271 10.3284271,18 9.5,18 C8.67157288,18 8,17.3284271 8,16.5 C8,15.6715729 8.67157288,15 9.5,15 C9.67531771,15 9.84361054,15.0300771 10,15.0853529 L10,10 C10,9.44771525 10.4477153,9 11,9 L15,9 C15.5522847,9 16,9.44771525 16,10 L16,15.5 C16,16.3284271 15.3284271,17 14.5,17 C13.6715729,17 13,16.3284271 13,15.5 C13,14.6715729 13.6715729,14 14.5,14 C14.6753177,14 14.8436105,14.0300771 15,14.0853529 Z" id="Shape"></path>
        </g>
    </g>
</svg>