<?xml version="1.0" encoding="UTF-8"?>
<svg width="15px" height="16px" viewBox="0 0 15 16" version="1.1" xmlns="http://www.w3.org/2000/svg" xmlns:xlink="http://www.w3.org/1999/xlink">
    <defs></defs>
    <g id="event" stroke="none" stroke-width="1" fill="none" fill-rule="evenodd">
        <g id="flag" fill="#000000">
            <path d="M2,2.91464715 L2,2.91464715 L2,16 L1,16 L1,2.91464715 C0.417403814,2.70872894 0,2.15310941 0,1.5 C0,0.671572875 0.671572875,0 1.5,0 C2.32842712,0 3,0.671572875 3,1.5 C3,2.15310941 2.58259619,2.70872894 2,2.91464715 Z M3,8.00000005 L3,3 C3,1.99627704 7,1 9,3 C10.5408926,4.5408926 15,1 15,3.00000013 C15,3.00000013 15,8.00000001 15,9 C15,9.99999999 10.589605,10.589605 9,9 C7.5314336,7.5314336 3,10 3,8.00000005 Z" id="Shape"></path>
        </g>
    </g>
</svg>