<?xml version="1.0" encoding="UTF-8"?>
<svg width="14px" height="12px" viewBox="0 0 14 12" version="1.1" xmlns="http://www.w3.org/2000/svg" xmlns:xlink="http://www.w3.org/1999/xlink">
    <defs></defs>
    <g id="web-app" stroke="none" stroke-width="1" fill="none" fill-rule="evenodd">
        <g id="folder-open" fill="#000000">
            <path d="M1,12 L13,12 L14,5 L5,5 L4,9 L4,4 L13,4 L13,3 C13,2 12,2 12,2 L7,2 L7,1 C7,0 6,0 6,0 L3,0 C3,0 2,0 2,1 C2.00067687,1.01840769 2,2 2,2 L1,2 C1,2 0,2 0,3 L0,11 C0,12 1,12 1,12 Z" id="Shape"></path>
        </g>
    </g>
</svg>