<?xml version="1.0" encoding="UTF-8"?>
<svg width="24px" height="24px" viewBox="0 0 24 24" version="1.1" xmlns="http://www.w3.org/2000/svg" xmlns:xlink="http://www.w3.org/1999/xlink">
    <!-- Generator: sketchtool 52.2 (67145) - http://www.bohemiancoding.com/sketch -->
    <title>frying-pan</title>
    <desc>Created with sketchtool.</desc>
    <g id="food" stroke="none" stroke-width="1" fill="none" fill-rule="evenodd">
        <g id="frying-pan" fill="#000000" fill-rule="nonzero">
            <path d="M13,18.2675644 C13.5978014,18.6133738 14,19.2597176 14,20 C14,21.1045695 13.1045695,22 12,22 C10.8954305,22 10,21.1045695 10,20 C10,19.2597176 10.4021986,18.6133738 11,18.2675644 L11,15.9291111 C7.60770586,15.4438815 5,12.5264719 5,9 C5,5.13400675 8.13400675,2 12,2 C15.8659932,2 19,5.13400675 19,9 C19,12.5264719 16.3922941,15.4438815 13,15.9291111 L13,18.2675644 Z M12,14 C14.7614237,14 17,11.7614237 17,9 C17,6.23857625 14.7614237,4 12,4 C9.23857625,4 7,6.23857625 7,9 C7,11.7614237 9.23857625,14 12,14 Z" id="Shape"></path>
        </g>
    </g>
</svg>