<?xml version="1.0" encoding="UTF-8"?>
<svg width="16px" height="7px" viewBox="0 0 16 7" version="1.1" xmlns="http://www.w3.org/2000/svg" xmlns:xlink="http://www.w3.org/1999/xlink">
    <defs></defs>
    <g id="devices" stroke="none" stroke-width="1" fill="none" fill-rule="evenodd">
        <g id="gamepad" fill="#000000">
            <path d="M3.5,7 C1.56700338,7 0,5.43299662 0,3.5 C0,1.73676405 1.30385293,0.27805926 3,0.0354444293 L13,0.0354444293 C14.6961471,0.27805926 16,1.73676405 16,3.5 C16,5.43299662 14.4329966,7 12.5,7 C11.5463475,7 10.6817772,6.61859351 10.0505086,6 L5.94949137,6 C5.31822282,6.61859351 4.45365254,7 3.5,7 Z M11,3 C11.5522847,3 12,2.55228475 12,2 C12,1.44771525 11.5522847,1 11,1 C10.4477153,1 10,1.44771525 10,2 C10,2.55228475 10.4477153,3 11,3 Z M13,5 C13.5522847,5 14,4.55228475 14,4 C14,3.44771525 13.5522847,3 13,3 C12.4477153,3 12,3.44771525 12,4 C12,4.55228475 12.4477153,5 13,5 Z M4.66666667,2.33333333 L4.66666667,1 L3.33333333,1 L3.33333333,2.33333333 L2,2.33333333 L2,3.66666667 L3.33333333,3.66666667 L3.33333333,5 L4.66666667,5 L4.66666667,3.66666667 L6,3.66666667 L6,2.33333333 L4.66666667,2.33333333 L4.66666667,2.33333333 Z" id="Shape"></path>
        </g>
    </g>
</svg>