<?xml version="1.0" encoding="UTF-8"?>
<svg width="24px" height="24px" viewBox="0 0 24 24" version="1.1" xmlns="http://www.w3.org/2000/svg" xmlns:xlink="http://www.w3.org/1999/xlink">
    <!-- Generator: sketchtool 52.1 (67048) - http://www.bohemiancoding.com/sketch -->
    <title>gift</title>
    <desc>Created with sketchtool.</desc>
    <g id="e-commerce" stroke="none" stroke-width="1" fill="none" fill-rule="evenodd">
        <g id="gift" fill="#000000">
            <path d="M19,12 L19,20 C19,21.1045695 18.1045695,22 17,22 L7,22 C5.8954305,22 5,21.1045695 5,20 L5,12 C3.8954305,12 3,11.1045695 3,10 L3,8 C3,6.8954305 3.8954305,6 5,6 L6.17070571,6 C6.06015422,5.68722107 6,5.35063542 6,5 C6,3.34314575 7.34314575,2 9,2 C10.6568542,2 12,3.34314575 12,5 C12,3.34314575 13.3431458,2 15,2 C16.6568542,2 18,3.34314575 18,5 C18,5.35063542 17.9398458,5.68722107 17.8292943,6 L19,6 C20.1045695,6 21,6.8954305 21,8 L21,10 C21,11.1045695 20.1045695,12 19,12 Z M11,8 L5,8 L5,10 L11,10 L11,8 Z M13,8 L13,10 L19,10 L19,8 L13,8 Z M7,12 L7,20 L17,20 L17,12 L7,12 Z M9,6 C9,6 9.33333333,6 10,6 C10,5.33333333 10,5 10,5 C10,4.44771525 9.55228475,4 9,4 C8.44771525,4 8,4.44771525 8,5 C8,5.55228475 8.44771525,6 9,6 Z M15,6 C15.5522847,6 16,5.55228475 16,5 C16,4.44771525 15.5522847,4 15,4 C14.4477153,4 14,4.44771525 14,5 C14,5 14,5.33333333 14,6 C14.6666667,6 15,6 15,6 Z" id="Shape"></path>
        </g>
    </g>
</svg>