<?xml version="1.0" encoding="UTF-8"?>
<svg width="24px" height="24px" viewBox="0 0 24 24" version="1.1" xmlns="http://www.w3.org/2000/svg" xmlns:xlink="http://www.w3.org/1999/xlink">
    <!-- Generator: sketchtool 50.2 (55047) - http://www.bohemiancoding.com/sketch -->
    <title>github</title>
    <desc>Created with sketchtool.</desc>
    <defs></defs>
    <g id="brand" stroke="none" stroke-width="1" fill="none" fill-rule="evenodd">
        <g id="github" fill="#000000">
            <path d="M12,2 C6.475,2 2,6.475 2,12 C2,16.425 4.8625,20.1625 8.8375,21.4875 C9.3375,21.575 9.525,21.275 9.525,21.0125 C9.525,20.775 9.5125,19.9875 9.5125,19.15 C7,19.6125 6.35,18.5375 6.15,17.975 C6.0375,17.6875 5.55,16.8 5.125,16.5625 C4.775,16.375 4.275,15.9125 5.1125,15.9 C5.9,15.8875 6.4625,16.625 6.65,16.925 C7.55,18.4375 8.9875,18.0125 9.5625,17.75 C9.65,17.1 9.9125,16.6625 10.2,16.4125 C7.975,16.1625 5.65,15.3 5.65,11.475 C5.65,10.3875 6.0375,9.4875 6.675,8.7875 C6.575,8.5375 6.225,7.5125 6.775,6.1375 C6.775,6.1375 7.6125,5.875 9.525,7.1625 C10.325,6.9375 11.175,6.825 12.025,6.825 C12.875,6.825 13.725,6.9375 14.525,7.1625 C16.4375,5.8625 17.275,6.1375 17.275,6.1375 C17.825,7.5125 17.475,8.5375 17.375,8.7875 C18.0125,9.4875 18.4,10.375 18.4,11.475 C18.4,15.3125 16.0625,16.1625 13.8375,16.4125 C14.2,16.725 14.5125,17.325 14.5125,18.2625 C14.5125,19.6 14.5,20.675 14.5,21.0125 C14.5,21.275 14.6875,21.5875 15.1875,21.4875 C19.1375,20.1625 22,16.4125 22,12 C22,6.475 17.525,2 12,2 L12,2 Z" id="Shape"></path>
        </g>
    </g>
</svg>