<?xml version="1.0" encoding="UTF-8"?>
<svg width="14px" height="6px" viewBox="0 0 14 6" version="1.1" xmlns="http://www.w3.org/2000/svg" xmlns:xlink="http://www.w3.org/1999/xlink">
    <!-- Generator: sketchtool 46.2 (44496) - http://www.bohemiancoding.com/sketch -->
    <title>insert-link</title>
    <desc>Created with sketchtool.</desc>
    <defs></defs>
    <g id="text-edit" stroke="none" stroke-width="1" fill="none" fill-rule="evenodd">
        <g id="insert-link" fill="#000000">
            <path d="M11,0 C12.6568542,0 14,1.34314575 14,3 C14,4.65685425 12.6568542,6 11,6 L8,6 L8,0 L11,0 Z M11,5 C12.1045695,5 13,4.1045695 13,3 C13,1.8954305 12.1045695,1 11,1 L8,1 L8,5 L11,5 Z M3,0 L6,0 L6,6 L3,6 C1.34314575,6 -1.70530257e-13,4.65685425 -1.70530257e-13,3 C-1.70530257e-13,1.34314575 1.34314575,0 3,0 Z M3,5 L6,5 L6,1 L3,1 C1.8954305,1 1,1.8954305 1,3 C1,4.1045695 1.8954305,5 3,5 Z M5,2 L9,2 C10,2 10,3 10,3 C10,3 10,4 9,4 L5,4 C4,4 4,3 4,3 C4,3 4,2 5,2 Z" id="Shape"></path>
        </g>
    </g>
</svg>