<?xml version="1.0" encoding="UTF-8"?>
<svg width="16px" height="9px" viewBox="0 0 16 9" version="1.1" xmlns="http://www.w3.org/2000/svg" xmlns:xlink="http://www.w3.org/1999/xlink">
    <defs></defs>
    <g id="devices" stroke="none" stroke-width="1" fill="none" fill-rule="evenodd">
        <g id="keyboard" fill="#000000">
            <path d="M16,7.99525023 C16,7.99525023 16,9 14.8571429,9 L1.14285714,9 C6.48961649e-14,9 0,7.99525023 0,7.99525023 C0,7.99525023 6.03961325e-14,1.09586835 0,1 C-6.03961325e-14,1.09586835 0,0 1.14285714,0 C1.10305892,0 14.8214438,0 14.8571429,0 C16,0 16,1 16,1 L16,7.99525023 Z M1,1 L1,2 L3,2 L3,1 L1,1 Z M4,1 L4,2 L5,2 L5,1 L4,1 Z M6,1 L6,2 L7,2 L7,1 L6,1 Z M8,1 L8,2 L9,2 L9,1 L8,1 Z M10,1 L10,2 L11,2 L11,1 L10,1 Z M12,1 L12,2 L13,2 L13,1 L12,1 Z M14,1 L14,2 L15,2 L15,1 L14,1 Z M1,3 L1,4 L2,4 L2,3 L1,3 Z M3,3 L3,4 L4,4 L4,3 L3,3 Z M5,3 L5,4 L6,4 L6,3 L5,3 Z M7,3 L7,4 L8,4 L8,3 L7,3 Z M9,3 L9,4 L10,4 L10,3 L9,3 Z M11,3 L11,4 L12,4 L12,3 L11,3 Z M13,3 L13,6 L15,6 L15,3 L13,3 Z M1,7 L1,8 L2,8 L2,7 L1,7 Z M3,7 L3,8 L4,8 L4,7 L3,7 Z M5,7 L5,8 L9,8 L9,7 L5,7 Z M12,7 L12,8 L13,8 L13,7 L12,7 Z M10,7 L10,8 L11,8 L11,7 L10,7 Z M14,7 L14,8 L15,8 L15,7 L14,7 Z M1,5 L1,6 L2,6 L2,5 L1,5 Z M3,5 L3,6 L4,6 L4,5 L3,5 Z M5,5 L5,6 L6,6 L6,5 L5,5 Z M7,5 L7,6 L8,6 L8,5 L7,5 Z M9,5 L9,6 L10,6 L10,5 L9,5 Z M11,5 L11,6 L12,6 L12,5 L11,5 Z" id="Shape"></path>
        </g>
    </g>
</svg>