<?xml version="1.0" encoding="UTF-8"?>
<svg width="12px" height="12px" viewBox="0 0 12 12" version="1.1" xmlns="http://www.w3.org/2000/svg" xmlns:xlink="http://www.w3.org/1999/xlink">
    <!-- Generator: sketchtool 47.1 (45422) - http://www.bohemiancoding.com/sketch -->
    <title>list-bullet</title>
    <desc>Created with sketchtool.</desc>
    <defs></defs>
    <g id="text-edit" stroke="none" stroke-width="1" fill="none" fill-rule="evenodd">
        <g id="list-bullet" fill="#000000">
            <path d="M4,0 L12,0 L12,2 L4,2 L4,0 Z M4,5 L12,5 L12,7 L4,7 L4,5 Z M4,10 L12,10 L12,12 L4,12 L4,10 Z M0,10 L2,10 L2,12 L0,12 L0,10 Z M0,5 L2,5 L2,7 L0,7 L0,5 Z M0,0 L2,0 L2,2 L0,2 L0,0 Z" id="Shape"></path>
        </g>
    </g>
</svg>