<?xml version="1.0" encoding="UTF-8"?>
<svg width="12px" height="12px" viewBox="0 0 12 12" version="1.1" xmlns="http://www.w3.org/2000/svg" xmlns:xlink="http://www.w3.org/1999/xlink">
    <!-- Generator: sketchtool 45.2 (43514) - http://www.bohemiancoding.com/sketch -->
    <title>login</title>
    <desc>Created with sketchtool.</desc>
    <defs></defs>
    <g id="web-app" stroke="none" stroke-width="1" fill="none" fill-rule="evenodd">
        <g id="login" fill-rule="nonzero" fill="#000000">
            <path d="M7.32747196e-15,1.00247329 C7.32747196e-15,0.448822582 0.455760956,0 1.00247329,0 L10.9975267,0 C11.5511774,0 12,0.455760956 12,1.00247329 L12,10.9975267 C12,11.5511774 11.544239,12 10.9975267,12 L1.00247329,12 C0.448822582,12 7.32747196e-15,11.544239 7.32747196e-15,10.9975267 L7.32747196e-15,9 L1.00247329,9 L1.00247329,11 L11,10.9975267 L11,1.00247329 L1.00247329,1.00247329 L1.00247329,3 L7.32747196e-15,3 L7.32747196e-15,1.00247329 Z M2.22044605e-16,5 L6,5 L4,3 L5,2 L9,6 L5,10 L4,9 L6,7 L2.22044605e-16,7 L2.22044605e-16,5 Z" id="Shape"></path>
        </g>
    </g>
</svg>