<?xml version="1.0" encoding="UTF-8"?>
<svg width="24px" height="24px" viewBox="0 0 24 24" version="1.1" xmlns="http://www.w3.org/2000/svg" xmlns:xlink="http://www.w3.org/1999/xlink">
    <!-- Generator: sketchtool 52.1 (67048) - http://www.bohemiancoding.com/sketch -->
    <title>logout</title>
    <desc>Created with sketchtool.</desc>
    <g id="web-app" stroke="none" stroke-width="1" fill="none" fill-rule="evenodd">
        <g id="logout" fill="#000000">
            <path d="M3,5 C3,3.9000001 3.9000001,3 5,3 C5,3 7.66666667,3 13,3 L13,5 L5,5 L5,19 L13,19 L13,21 C7.66666667,21 5,21 5,21 C3.9000001,21 3,20.1000004 3,19 C3,9.6236114 3,5 3,5 Z M17.1757866,11 L14.6402527,8.46446609 L16.0544662,7.05025253 L21.0042137,12 L16.0544662,16.9497475 L14.6402527,15.5355339 L17.1757866,13 L10.5900002,13 L10.5900002,11 L17.1757866,11 Z" id="Shape"></path>
        </g>
    </g>
</svg>