<?xml version="1.0" encoding="UTF-8"?>
<svg width="12px" height="12px" viewBox="0 0 12 12" version="1.1" xmlns="http://www.w3.org/2000/svg" xmlns:xlink="http://www.w3.org/1999/xlink">
    <defs></defs>
    <g id="media-player" stroke="none" stroke-width="1" fill="none" fill-rule="evenodd">
        <g id="loop" fill="#000000">
            <path d="M2.70956666,8.29043345 C3.31753833,9.10333701 4.35988159,10 6.00000017,10 C9.00000017,10 10.0000002,7 10.0000002,7 L12.0000002,7 C12.0000002,7 11.0000002,12 6.00000017,12 C3.64466338,12 2.17694441,10.8904777 1.28324743,9.71675262 L0,11 L1.70652186e-07,7 L4.00000017,7 L2.70956666,8.29043345 L2.70956666,8.29043345 Z M9.29043351,3.70956655 C8.68246184,2.89666299 7.64011858,2 6,2 C3,2 2,5 2,5 L-1.08770486e-31,5 C-1.08770486e-31,5 1,-2.79776202e-14 6,-2.79776202e-14 C8.35533679,-2.88657986e-14 9.82305576,1.10952228 10.7167527,2.28324738 L12.0000002,1 L12,5 L8,5 L9.29043351,3.70956655 L9.29043351,3.70956655 Z" id="Shape"></path>
        </g>
    </g>
</svg>