<?xml version="1.0" encoding="UTF-8"?>
<svg width="8px" height="12px" viewBox="0 0 8 12" version="1.1" xmlns="http://www.w3.org/2000/svg" xmlns:xlink="http://www.w3.org/1999/xlink">
    <!-- Generator: sketchtool 45.2 (43514) - http://www.bohemiancoding.com/sketch -->
    <title>mouse</title>
    <desc>Created with sketchtool.</desc>
    <defs></defs>
    <g id="devices" stroke="none" stroke-width="1" fill="none" fill-rule="evenodd">
        <g id="mouse" fill="#000000">
            <path d="M4,0 C0.5,0 0,2.6865 0,6 C0,9.3135 0.5,12 4,12 C7.5,12 8,9.3135 8,6 C8,2.6865 7.5,0 4,0 L4,0 Z M3,4.253 C3,4.253 3,5 4,5 C5,5 5,4.253 5,4.253 L5,2.753 C5,2.753 5,2 4,2 C3,2 3,2.753 3,2.753 L3,4.253 Z" id="Shape"></path>
        </g>
    </g>
</svg>