<?xml version="1.0" encoding="UTF-8"?>
<svg width="14px" height="10px" viewBox="0 0 14 10" version="1.1" xmlns="http://www.w3.org/2000/svg" xmlns:xlink="http://www.w3.org/1999/xlink">
    <defs></defs>
    <g id="production" stroke="none" stroke-width="1" fill="none" fill-rule="evenodd">
        <g id="palette" fill="#000000">
            <path d="M7.05370251,10.5029586 C3.21736834,10.5029586 0,8.11059256 0,5.94245866 C0,3.52585646 2.02580279,6.09832103 4.10627775,4.45511277 C5.44431359,3.39830045 2.14648679,2.52201023 2.54799603,1.31286983 C2.54799609,0.623724656 4.37623277,4.90310445e-09 7.05370251,0 C11.3752161,-7.91375316e-09 14,2.35116738 14,5.25147932 C14,8.15179127 10.8900367,10.5029586 7.05370251,10.5029586 Z M7.43959571,3.50098622 C8.16467369,3.50098622 8.75246554,3.10912499 8.75246554,2.62573966 C8.75246554,2.14235434 8.16467369,1.75049311 7.43959571,1.75049311 C6.71451772,1.75049311 6.12672588,2.14235434 6.12672588,2.62573966 C6.12672588,3.10912499 6.71451772,3.50098622 7.43959571,3.50098622 Z M10.0653354,5.25147932 C10.7904134,5.25147932 11.3782052,4.85961809 11.3782052,4.37623277 C11.3782052,3.89284745 10.7904134,3.50098622 10.0653354,3.50098622 C9.34025738,3.50098622 8.75246554,3.89284745 8.75246554,4.37623277 C8.75246554,4.85961809 9.34025738,5.25147932 10.0653354,5.25147932 Z" id="Shape"></path>
        </g>
    </g>
</svg>