<?xml version="1.0" encoding="UTF-8"?>
<svg width="24px" height="24px" viewBox="0 0 24 24" version="1.1" xmlns="http://www.w3.org/2000/svg" xmlns:xlink="http://www.w3.org/1999/xlink">
    <!-- Generator: sketchtool 52.1 (67048) - http://www.bohemiancoding.com/sketch -->
    <title>palette</title>
    <desc>Created with sketchtool.</desc>
    <g id="production" stroke="none" stroke-width="1" fill="none" fill-rule="evenodd">
        <g id="palette" fill="#000000">
            <path d="M10.5251349,21.8919978 C10.8281061,21.3286908 11,20.6844194 11,20 C11,17.790861 9.209139,16 7,16 C5.66438135,16 4.48165439,16.6546071 3.7551502,17.6604904 C2.64803764,16.0509927 2,14.101175 2,12 C2,6.4771525 6.4771525,2 12,2 C17.5228475,2 22,6.4771525 22,12 C22,17.5228475 17.5228475,22 12,22 C11.4989161,22 11.0064401,21.963145 10.5251349,21.8919978 Z M9,9 C10.1045695,9 11,8.1045695 11,7 C11,5.8954305 10.1045695,5 9,5 C7.8954305,5 7,5.8954305 7,7 C7,8.1045695 7.8954305,9 9,9 Z M15,9 C16.1045695,9 17,8.1045695 17,7 C17,5.8954305 16.1045695,5 15,5 C13.8954305,5 13,5.8954305 13,7 C13,8.1045695 13.8954305,9 15,9 Z M18,14 C19.1045695,14 20,13.1045695 20,12 C20,10.8954305 19.1045695,10 18,10 C16.8954305,10 16,10.8954305 16,12 C16,13.1045695 16.8954305,14 18,14 Z M6,14 C7.1045695,14 8,13.1045695 8,12 C8,10.8954305 7.1045695,10 6,10 C4.8954305,10 4,10.8954305 4,12 C4,13.1045695 4.8954305,14 6,14 Z M15,19 C16.1045695,19 17,18.1045695 17,17 C17,15.8954305 16.1045695,15 15,15 C13.8954305,15 13,15.8954305 13,17 C13,18.1045695 13.8954305,19 15,19 Z" id="Shape"></path>
        </g>
    </g>
</svg>