<?xml version="1.0" encoding="UTF-8"?>
<svg width="12px" height="12px" viewBox="0 0 12 12" version="1.1" xmlns="http://www.w3.org/2000/svg" xmlns:xlink="http://www.w3.org/1999/xlink">
    <!-- Generator: sketchtool 47.1 (45422) - http://www.bohemiancoding.com/sketch -->
    <title>palette</title>
    <desc>Created with sketchtool.</desc>
    <defs></defs>
    <g id="production" stroke="none" stroke-width="1" fill="none" fill-rule="evenodd">
        <g id="palette" fill="#000000">
            <path d="M4,9 C4,6.9970528 1,6.99844225 1,6.99844225 C0.00273432835,6.99844225 5.66768854e-14,6 5.66768854e-14,6 C5.66768854e-14,2.6862915 2.6862915,0 6,0 C9.3137085,0 12,2.6862915 12,6 C12,9.3137085 9.3137085,12 6,12 C2.69000006,12 2,9.99631833 3,9.99631833 C3.45000005,9.99631833 4,9.44705261 4,9 Z M6,3 C6.55228475,3 7,2.55228475 7,2 C7,1.44771525 6.55228475,1 6,1 C5.44771525,1 5,1.44771525 5,2 C5,2.55228475 5.44771525,3 6,3 Z M3,4 C3.55228475,4 4,3.55228475 4,3 C4,2.44771525 3.55228475,2 3,2 C2.44771525,2 2,2.44771525 2,3 C2,3.55228475 2.44771525,4 3,4 Z M9,4 C9.55228475,4 10,3.55228475 10,3 C10,2.44771525 9.55228475,2 9,2 C8.44771525,2 8,2.44771525 8,3 C8,3.55228475 8.44771525,4 9,4 Z M10,7 C10.5522847,7 11,6.55228475 11,6 C11,5.44771525 10.5522847,5 10,5 C9.44771525,5 9,5.44771525 9,6 C9,6.55228475 9.44771525,7 10,7 Z M9,10 C9.55228475,10 10,9.55228475 10,9 C10,8.44771525 9.55228475,8 9,8 C8.44771525,8 8,8.44771525 8,9 C8,9.55228475 8.44771525,10 9,10 Z" id="Shape"></path>
        </g>
    </g>
</svg>