<?xml version="1.0" encoding="UTF-8"?>
<svg width="15px" height="16px" viewBox="0 0 15 16" version="1.1" xmlns="http://www.w3.org/2000/svg" xmlns:xlink="http://www.w3.org/1999/xlink">
    <defs></defs>
    <g id="food" stroke="none" stroke-width="1" fill="none" fill-rule="evenodd">
        <g id="pizza" fill="#000000">
            <path d="M7.5,16 C11.6421356,16 15,12.6421356 15,8.5 C15,4.35786438 11.6495972,1 7.4000001,1 L7.4000001,8.5 L0.999670642,4.76287052 C0.368168311,5.78318936 0,7.13623983 0,8.5 C0,12.6421356 3.35786438,16 7.5,16 Z M7.49255442,15 C3.95428359,15 0.995279629,12.4498854 0.995279629,8.41418171 C0.995279629,7 1.2727661,6.56781006 1.5,6.00115967 C1.50000002,6.00115967 7.00341781,9.00427246 7.00341781,9.00427246 C7.00341781,9.00427246 7.99999984,9.5 8,8.5 C8,8.5 7.99999984,2 8,2 C11.3017495,2.16341322 13.9952796,5.11859337 13.9952796,8.4141815 C13.9952796,11.8150274 11.0308252,15 7.49255442,15 Z M4,12 L4,13 L5,13 L5,12 L4,12 Z M11,8 C11.5522847,8 12,7.55228475 12,7 C12,6.44771525 11.5522847,6 11,6 C10.4477153,6 10,6.44771525 10,7 C10,7.55228475 10.4477153,8 11,8 Z M9,4 L9,5 L10,5 L10,4 L9,4 Z M11,11 C11.5522847,11 12,10.5522847 12,10 C12,9.44771525 11.5522847,9 11,9 C10.4477153,9 10,9.44771525 10,10 C10,10.5522847 10.4477153,11 11,11 Z M8,14 C8.55228475,14 9,13.5522847 9,13 C9,12.4477153 8.55228475,12 8,12 C7.44771525,12 7,12.4477153 7,13 C7,13.5522847 7.44771525,14 8,14 Z M8,10.0512821 L8,11.0512821 L9,11.0512821 L9,10.0512821 L8,10.0512821 Z M5,11 C5.55228475,11 6,10.5522847 6,10 C6,9.44771525 5.55228475,9 5,9 C4.44771525,9 4,9.44771525 4,10 C4,10.5522847 4.44771525,11 5,11 Z M2,8 L2,9 L3,9 L3,8 L2,8 Z M6.35897436,0 L6.35897436,6.15366553 L1.02564103,3.07683276 C1.02564103,3.07683276 1.90756969,1.61606733 3.27977292,0.824434855 C4.65197616,0.0328023786 6.35897436,0 6.35897436,0 Z" id="Shape"></path>
        </g>
    </g>
</svg>