<?xml version="1.0" encoding="UTF-8"?>
<svg width="8px" height="14px" viewBox="0 0 8 14" version="1.1" xmlns="http://www.w3.org/2000/svg" xmlns:xlink="http://www.w3.org/1999/xlink">
    <!-- Generator: sketchtool 47.1 (45422) - http://www.bohemiancoding.com/sketch -->
    <title>plug</title>
    <desc>Created with sketchtool.</desc>
    <defs></defs>
    <g id="devices" stroke="none" stroke-width="1" fill="none" fill-rule="evenodd">
        <g id="plug" fill="#000000">
            <path d="M3,4 L3,0.990777969 C3,0.45097518 2.55228475,0 2,0 C1.44386482,0 1,0.443586406 1,0.990777969 L1,4 L0,4 L0,7.5 C0,9.25701098 1.30325945,10.7169288 3,10.9633711 L3,14 L5,14 L5,10.9637612 C6.70356873,10.7187737 8,9.26132204 8,7.5 L8,4 L7,4 L7,0.990777969 C7,0.45097518 6.55228475,0 6,0 C5.44386482,0 5,0.443586406 5,0.990777969 L5,4 L3,4 Z" id="Shape"></path>
        </g>
    </g>
</svg>