<?xml version="1.0" encoding="UTF-8"?>
<svg width="14px" height="14px" viewBox="0 0 14 14" version="1.1" xmlns="http://www.w3.org/2000/svg" xmlns:xlink="http://www.w3.org/1999/xlink">
    <defs></defs>
    <g id="production" stroke="none" stroke-width="1" fill="none" fill-rule="evenodd">
        <g id="prototype" fill="#000000">
            <path d="M14,11 C14,12 13.0001314,12 13.0001314,12 L9.00065719,12 C9.00065719,12 8.00707299,12 8.00078863,11 C8.00707299,11 8.00078863,1 8.00078863,1 C8.00078863,0 9.00065719,0 9.00065719,0 L13.0001314,0 C13.0001314,0 14,-3.33066907e-16 14,1 L14,11 Z M8.00333421,6.66388816 L8.00333421,6.66388816 L9.38952291,5.50873091 C9.66392044,5.81076469 10.0598179,6.00039437 10.5,6.00039437 C11.3284271,6.00039437 12,5.32873321 12,4.50019718 C12,3.67166116 11.3284271,3 10.5,3 C9.67157288,3 9,3.67166116 9,4.50019718 C9,4.6054447 9.01083663,4.70816086 9.03145483,4.80729047 L8.00303526,5.66448676 C8.0031489,5.99760899 8.00325042,6.33272625 8.00333421,6.66388816 Z M5.99921137,13 C5.99921137,14 4.99934281,14 4.99934281,14 L0.999868562,14 C0.999868562,14 0.00628436447,14 0,13 C0.00628436447,13 3.55271368e-15,3 0,3 C0,2 0.999868562,2 0.999868562,2 L4.99934281,2 C4.99934281,2 5.99921137,2 5.99921137,3 L5.99921137,13 Z M5.99921137,7.33469067 L4.61076079,8.49197581 C4.33635247,8.18976042 3.94033378,8 3.5,8 C2.67157288,8 2,8.67166116 2,9.50019718 C2,10.3287332 2.67157288,11.0003944 3.5,11.0003944 C4.32842712,11.0003944 5,10.3287332 5,9.50019718 C5,9.39488184 4.9891494,9.29210112 4.96850529,9.19291225 L5.99921137,8.33399052 L5.99921137,7.33469067 Z" id="Shape"></path>
        </g>
    </g>
</svg>