<?xml version="1.0" encoding="UTF-8"?>
<svg width="15px" height="12px" viewBox="0 0 15 12" version="1.1" xmlns="http://www.w3.org/2000/svg" xmlns:xlink="http://www.w3.org/1999/xlink">
    <defs></defs>
    <g id="text-edit" stroke="none" stroke-width="1" fill="none" fill-rule="evenodd">
        <g id="quote-right" fill="#000000">
            <path d="M3.5,7 C1.56700338,7 0,5.43299662 0,3.5 C0,1.56700338 1.56700338,0 3.5,0 C5.43299662,0 7,1.56700338 7,3.5 C7.01000023,3.63349717 7,3.96817911 7,4 C7,7 2.99501866,11.9999996 2.99501866,11.9999996 C2.99501866,11.9999996 2,10.9999996 2,11 C2.5,10.3972339 3.50059842,8.80934751 4.5,6.90262413 C4.06044717,7.03356324 3.91231929,7 3.5,7 Z M11.5,7 C9.56700338,7 8,5.43299662 8,3.5 C8,1.56700338 9.56700338,0 11.5,0 C13.4329966,0 15,1.56700338 15,3.5 C15.0100002,3.63349717 15,3.96817911 15,4 C15,7 10.9950187,11.9999996 10.9950187,11.9999996 C10.9950187,11.9999996 10,10.9999996 10,11 C10.5,10.3972339 11.5005984,8.80934751 12.5,6.90262413 C12.0604472,7.03356324 11.9123193,7 11.5,7 Z" id="Shape"></path>
        </g>
    </g>
</svg>