<?xml version="1.0" encoding="UTF-8"?>
<svg width="24px" height="24px" viewBox="0 0 24 24" version="1.1" xmlns="http://www.w3.org/2000/svg" xmlns:xlink="http://www.w3.org/1999/xlink">
    <!-- Generator: sketchtool 50.2 (55047) - http://www.bohemiancoding.com/sketch -->
    <title>rage</title>
    <desc>Created with sketchtool.</desc>
    <defs></defs>
    <g id="people" stroke="none" stroke-width="1" fill="none" fill-rule="evenodd">
        <g id="rage" fill="#000000">
            <path d="M12,20 C16.418278,20 20,16.418278 20,12 C20,7.581722 16.418278,4 12,4 C7.581722,4 4,7.581722 4,12 C4,16.418278 7.581722,20 12,20 Z M12,22 C6.4771525,22 2,17.5228475 2,12 C2,6.4771525 6.4771525,2 12,2 C17.5228475,2 22,6.4771525 22,12 C22,17.5228475 17.5228475,22 12,22 Z M16,17 C16,14.790861 14.209139,13 12,13 C9.790861,13 8,14.790861 8,17 L9.33333333,17 C9.33333333,17 9.75578467,14.3333333 12,14.3333333 C14.2442153,14.3333333 14.6611201,17 14.6611201,17 L16,17 Z M14.5,11 C15.3284271,11 16,10.3284271 16,9.5 L16,8 C15.1715729,8 13,8.67157288 13,9.5 C13,10.3284271 13.6715729,11 14.5,11 Z M9.5,11 C10.3284271,11 11,10.3284271 11,9.5 C11,8.67157288 8.82842712,8 8,8 C8,8 8,8.67157288 8,9.5 C8,10.3284271 8.67157288,11 9.5,11 Z" id="Shape"></path>
        </g>
    </g>
</svg>