<?xml version="1.0" encoding="UTF-8"?>
<svg width="12px" height="12px" viewBox="0 0 12 12" version="1.1" xmlns="http://www.w3.org/2000/svg" xmlns:xlink="http://www.w3.org/1999/xlink">
    <defs></defs>
    <g id="web-app" stroke="none" stroke-width="1" fill="none" fill-rule="evenodd">
        <g id="reload" fill="#000000">
            <path d="M8.83809166,3.16190834 C8.16928164,2.52737728 7.20411823,2 6,2 C3.54418945,2 2,4 2,6 C2,7.82910156 3.41046143,10 6,10 C8.58953857,10 9.49316406,7.89021444 9.55000019,7.89999962 C9.57676506,7.89021444 11.3467073,8.79759216 11.3254404,8.79759216 C10.8264771,9.59454346 9.31000042,12 6,12 C2.68999958,12 0,9.3137085 0,6 C0,2.6862915 2.6862915,0 6,0 C7.67721157,0 9.16730686,0.75706645 10.2300313,1.7699687 L12,0 L11.9999999,4.99999989 L7,5 L8.83809166,3.16190834 L8.83809166,3.16190834 Z" id="Shape"></path>
        </g>
    </g>
</svg>