<?xml version="1.0" encoding="UTF-8"?>
<svg width="24px" height="24px" viewBox="0 0 24 24" version="1.1" xmlns="http://www.w3.org/2000/svg" xmlns:xlink="http://www.w3.org/1999/xlink">
    <!-- Generator: sketchtool 50.2 (55047) - http://www.bohemiancoding.com/sketch -->
    <title>remove-cart</title>
    <desc>Created with sketchtool.</desc>
    <defs></defs>
    <g id="e-commerce" stroke="none" stroke-width="1" fill="none" fill-rule="evenodd">
        <g id="remove-cart" fill="#000000">
            <path d="M8,16 L16,16 C16.5522847,16 17,16.4477153 17,17 C17,17.5522847 16.5522847,18 16,18 L7,18 C6.44771525,18 6,17.5522847 6,17 L6,4 L5,4 C4.44771525,4 4,3.55228475 4,3 C4,2.44771525 4.44771525,2 5,2 L7,2 C7.55228475,2 8,2.44771525 8,3 L8,5.00121803 L8,7 L8,12 L16.7752792,12 L18,7 L18,5.00121803 C19.1449055,5.00121803 20,5.8954305 20,7 C20,7.14592469 19.9834464,7.29141112 19.9506349,7.43386092 L18.7989489,12.4338609 C18.5881731,13.348936 17.7469078,14 16.7752792,14 L8.07303481,14 C8.04858873,14 8.02424149,13.9995918 8,13.998782 L8,16 Z M7.5,22 C6.67157288,22 6,21.3284271 6,20.5 C6,19.6715729 6.67157288,19 7.5,19 C8.32842712,19 9,19.6715729 9,20.5 C9,21.3284271 8.32842712,22 7.5,22 Z M16.5,22 C15.6715729,22 15,21.3284271 15,20.5 C15,19.6715729 15.6715729,19 16.5,19 C17.3284271,19 18,19.6715729 18,20.5 C18,21.3284271 17.3284271,22 16.5,22 Z M15,5 C15.5522847,5 16,5.44771525 16,6 C16,6.55228475 15.5522847,7 15,7 L11,7 C10.4477153,7 10,6.55228475 10,6 C10,5.44771525 10.4477153,5 11,5 L15,5 Z" id="Shape"></path>
        </g>
    </g>
</svg>