<?xml version="1.0" encoding="UTF-8"?>
<svg width="24px" height="24px" viewBox="0 0 24 24" version="1.1" xmlns="http://www.w3.org/2000/svg" xmlns:xlink="http://www.w3.org/1999/xlink">
    <!-- Generator: sketchtool 50.2 (55047) - http://www.bohemiancoding.com/sketch -->
    <title>rocket</title>
    <desc>Created with sketchtool.</desc>
    <defs></defs>
    <g id="web-app" stroke="none" stroke-width="1" fill="none" fill-rule="evenodd">
        <g id="rocket" fill="#000000">
            <path d="M14,22 L10,22 C9.1990612,22 8.39812241,20.8773698 7.72563476,19.2743652 L5,22 L4,21 L4,17 L6.38253907,14.6174609 C6.13983851,13.3251377 6,12.05769 6,11 C6,7 9,2 12,2 C15,2 18,7 18,11 C18,12.05769 17.8601615,13.3251377 17.6174609,14.6174609 L20,17 L20,21 L19,22 L16.2743652,19.2743652 C15.6018776,20.8773698 14.8009388,22 14,22 Z M12,20 L10.3847368,20 C10.3330967,19.9357793 10.2725561,19.8525446 10.2064712,19.7512144 C9.85926517,19.2188319 9.4868257,18.3859218 9.1473666,17.3675445 C8.45523888,15.2911613 8,12.7548304 8,11 C8,7.80172355 10.4439651,4 12,4 C13.5560349,4 16,7.80172355 16,11 C16,12.7548304 15.5447611,15.2911613 14.8526334,17.3675445 C14.5131743,18.3859218 14.1407348,19.2188319 13.7935288,19.7512144 C13.7274439,19.8525446 13.6669033,19.9357793 13.6152632,20 L12,20 Z M12,12 C13.1045695,12 14,11.1045695 14,10 C14,8.8954305 13.1045695,8 12,8 C10.8954305,8 10,8.8954305 10,10 C10,11.1045695 10.8954305,12 12,12 Z" id="Shape"></path>
        </g>
    </g>
</svg>