<?xml version="1.0" encoding="UTF-8"?>
<svg width="14px" height="14px" viewBox="0 0 14 14" version="1.1" xmlns="http://www.w3.org/2000/svg" xmlns:xlink="http://www.w3.org/1999/xlink">
    <defs></defs>
    <g id="web-app" stroke="none" stroke-width="1" fill="none" fill-rule="evenodd">
        <g id="rocket" fill="#000000">
            <path d="M8.92182614,1.01583993 C8.92182614,1.01583993 10.9530957,0.00604065882 12.9843652,1.89857019e-11 C12.9843652,-2.97095681e-13 13.4921826,1.826304e-09 13.7460913,0.253959983 C14,0.507919964 14,1.01583993 14,1.01583993 C14,3.0475198 12.9843652,5.07919966 12.9843652,5.07919966 C12.5947074,5.85867269 11.3662611,7.83423704 10,9 L10,12 L7,14 L7,11 L5,12 L2,9 L3,7 L-2.22044605e-16,7 L2,4 L5,4 C6.16486844,2.63430329 8.14201578,1.40582388 8.92182614,1.01583993 Z M2,10 C2,10 1.00000001,10.9999998 2,12 C2.99999999,13.0000001 4,12 4,12 C4,12 4,14 2,14.0000001 C1.19837612e-15,14.0000001 -9.95799302e-17,13.9999999 -2.22044605e-16,12 C-9.95799329e-17,10 2,10 2,10 Z M10,5 C10.5522847,5 11,4.55228475 11,4 C11,3.44771525 10.5522847,3 10,3 C9.44771525,3 9,3.44771525 9,4 C9,4.55228475 9.44771525,5 10,5 Z" id="Shape"></path>
        </g>
    </g>
</svg>