<?xml version="1.0" encoding="UTF-8"?>
<svg width="14px" height="14px" viewBox="0 0 14 14" version="1.1" xmlns="http://www.w3.org/2000/svg" xmlns:xlink="http://www.w3.org/1999/xlink">
    <defs></defs>
    <g id="web-app" stroke="none" stroke-width="1" fill="none" fill-rule="evenodd">
        <g id="rocket" fill="#000000">
            <path d="M5.79156674,4 C6.95643519,2.63430329 8.14201578,1.40582388 8.92182614,1.01583993 C8.92182614,1.01583993 10.9530957,0.00604065882 12.9843652,1.89857019e-11 C12.9843652,-2.97095681e-13 13.4921826,1.826304e-09 13.7460913,0.253959983 C14,0.507919964 14,1.01583993 14,1.01583993 C14,3.0475198 12.9843652,5.07919966 12.9843652,5.07919966 C12.5947074,5.85867269 11.3662611,7.04459636 10,8.21035932 L10,11.6330379 C10,11.9134553 9.82132053,12.2640906 9.58286285,12.4286574 L7.41713715,13.9232891 C7.18675866,14.0822802 7,13.9847572 7,13.7115547 L7,10.6110247 C5.98478922,11.3826128 5.25459214,11.9038758 5.25459214,11.9038758 C5.03627117,12.0619416 4.69547225,12.0262313 4.50976839,11.8404899 L2.16190141,9.49214866 C1.96886758,9.29907584 1.93958504,8.96594684 2.1060901,8.73680659 C2.1060901,8.73680659 2.6242659,8.01061603 3.39195803,7 L0.295384196,7 C0.0199712896,7 -0.0839041089,6.82132053 0.0754296511,6.58286285 L1.52253431,4.41713715 C1.67646968,4.18675866 2.02700151,4 2.29939788,4 L5.79156674,4 L5.79156674,4 Z M2,10 C2,10 1.00000001,10.9999998 2,12 C2.99999999,13.0000001 4,12 4,12 C4,12 4,14 2,14.0000001 C1.19837612e-15,14.0000001 -9.95799302e-17,13.9999999 -2.22044605e-16,12 C-9.95799329e-17,10 2,10 2,10 Z M10,5 C10.5522847,5 11,4.55228475 11,4 C11,3.44771525 10.5522847,3 10,3 C9.44771525,3 9,3.44771525 9,4 C9,4.55228475 9.44771525,5 10,5 Z" id="Shape"></path>
        </g>
    </g>
</svg>