<?xml version="1.0" encoding="UTF-8"?>
<svg width="24px" height="24px" viewBox="0 0 24 24" version="1.1" xmlns="http://www.w3.org/2000/svg" xmlns:xlink="http://www.w3.org/1999/xlink">
    <!-- Generator: sketchtool 52.1 (67048) - http://www.bohemiancoding.com/sketch -->
    <title>scale</title>
    <desc>Created with sketchtool.</desc>
    <g id="production" stroke="none" stroke-width="1" fill="none" fill-rule="evenodd">
        <g id="scale" fill="#000000">
            <path d="M10.8743804,17.9984528 C10.430876,19.724465 8.86439657,21 7,21 C4.790861,21 3,19.209139 3,17 C3,15.1356034 4.27553501,13.569124 6.00154723,13.1256196 C6.00051776,13.0838713 6,13.0419961 6,13 C6,10.9383628 7.24775766,9.16815511 9.02929279,8.40335698 C9.32877181,5.36975445 11.887643,3 15,3 C18.3137085,3 21,5.6862915 21,9 C21,12.112357 18.6302456,14.6712282 15.596643,14.9707072 C14.8318449,16.7522423 13.0616372,18 11,18 C10.9580039,18 10.9161287,17.9994822 10.8743804,17.9984528 Z M11.1256196,8.00154723 C13.7872469,8.06718064 15.9328194,10.2127531 15.9984528,12.8743804 C17.724465,12.430876 19,10.8643966 19,9 C19,6.790861 17.209139,5 15,5 C13.1356034,5 11.569124,6.27553501 11.1256196,8.00154723 Z M10.8733054,15.9973731 C10.9153196,15.9991186 10.9575569,16 11,16 C12.6568542,16 14,14.6568542 14,13 C14,11.3431458 12.6568542,10 11,10 C9.34314575,10 8,11.3431458 8,13 C8,13.0424431 8.00088139,13.0846804 8.00262687,13.1266946 C9.40611039,13.4889488 10.5110512,14.5938896 10.8733054,15.9973731 Z M7,19 C8.1045695,19 9,18.1045695 9,17 C9,15.8954305 8.1045695,15 7,15 C5.8954305,15 5,15.8954305 5,17 C5,18.1045695 5.8954305,19 7,19 Z" id="Shape"></path>
        </g>
    </g>
</svg>