<?xml version="1.0" encoding="UTF-8"?>
<svg width="14px" height="14px" viewBox="0 0 14 14" version="1.1" xmlns="http://www.w3.org/2000/svg" xmlns:xlink="http://www.w3.org/1999/xlink">
    <defs></defs>
    <g id="web-app" stroke="none" stroke-width="1" fill="none" fill-rule="evenodd">
        <g id="search-plus" fill="#000000">
            <path d="M5.61133603,11.2226721 C2.51228072,11.2226721 0,8.71039135 0,5.61133603 C0,2.51228072 2.51228072,4.4408921e-16 5.61133603,4.4408921e-16 C8.71039135,4.4408921e-16 11.2226721,2.51228072 11.2226721,5.61133603 C11.2226721,6.90081195 10.7877254,8.08870065 10.0565386,9.03629566 L13.7732794,12.7530364 C13.7732794,12.7530364 14.2834008,13.2631579 13.7732794,13.7732794 C13.2631579,14.2834008 12.7530364,13.7732794 12.7530364,13.7732794 L9.03629566,10.0565386 C8.08870065,10.7877254 6.90081195,11.2226721 5.61133603,11.2226721 Z M5.61133603,9.69230769 C7.86519444,9.69230769 9.69230769,7.86519444 9.69230769,5.61133603 C9.69230769,3.35747762 7.86519444,1.53036437 5.61133603,1.53036437 C3.35747762,1.53036437 1.53036437,3.35747762 1.53036437,5.61133603 C1.53036437,7.86519444 3.35747762,9.69230769 5.61133603,9.69230769 Z M3,5 L3,6 L5,6 L5,8 L6,8 L6,6 L8,6 L8,5 L6,5 L6,3 L5,3 L5,5 L3,5 Z" id="Shape"></path>
        </g>
    </g>
</svg>