<?xml version="1.0" encoding="UTF-8"?>
<svg width="12px" height="12px" viewBox="0 0 12 12" version="1.1" xmlns="http://www.w3.org/2000/svg" xmlns:xlink="http://www.w3.org/1999/xlink">
    <!-- Generator: sketchtool 48.1 (47250) - http://www.bohemiancoding.com/sketch -->
    <title>share</title>
    <desc>Created with sketchtool.</desc>
    <defs></defs>
    <g id="web-app" stroke="none" stroke-width="1" fill="none" fill-rule="evenodd">
        <g id="share" fill="#000000">
            <path d="M3.95783201,6.41049943 C3.9854712,6.27800529 4,6.14069934 4,6 C4,5.8587089 3.98534873,5.72083979 3.95748257,5.58782906 L8.72904487,3.54431198 C9.07458367,3.82901534 9.51732403,4 10,4 C11.1045695,4 12,3.1045695 12,2 C12,0.8954305 11.1045695,0 10,0 C8.8954305,0 8,0.8954305 8,2 C8,2.14069934 8.0145288,2.27800529 8.04216799,2.41049943 L3.27064925,4.45543604 C2.92515506,4.17088377 2.48253355,4 2,4 C0.8954305,4 0,4.8954305 0,6 C0,7.1045695 0.8954305,8 2,8 C2.48253355,8 2.92515506,7.82911623 3.27064925,7.54456396 L8.04216799,9.58950057 C8.0145288,9.72199471 8,9.85930066 8,10 C8,11.1045695 8.8954305,12 10,12 C11.1045695,12 12,11.1045695 12,10 C12,8.8954305 11.1045695,8 10,8 C9.51746645,8 9.07484494,8.17088377 8.72935075,8.45543604 L3.95783201,6.41049943 L3.95783201,6.41049943 Z" id="Shape"></path>
        </g>
    </g>
</svg>