<?xml version="1.0" encoding="UTF-8"?>
<svg width="24px" height="24px" viewBox="0 0 24 24" version="1.1" xmlns="http://www.w3.org/2000/svg" xmlns:xlink="http://www.w3.org/1999/xlink">
    <!-- Generator: sketchtool 50.2 (55047) - http://www.bohemiancoding.com/sketch -->
    <title>smile-heart</title>
    <desc>Created with sketchtool.</desc>
    <defs></defs>
    <g id="people" stroke="none" stroke-width="1" fill="none" fill-rule="evenodd">
        <g id="smile-heart" fill="#000000">
            <path d="M10,22 C5.581722,22 2,18.418278 2,14 C2,9.581722 5.581722,6 10,6 C14.418278,6 18,9.581722 18,14 C18,18.418278 14.418278,22 10,22 Z M10,20 C13.3137085,20 16,17.3137085 16,14 C16,10.6862915 13.3137085,8 10,8 C6.6862915,8 4,10.6862915 4,14 C4,17.3137085 6.6862915,20 10,20 Z M13,15 C13,16.6568542 11.6568542,18 10,18 C8.34314575,18 7,16.6568542 7,15 L13,15 Z M8,13 C8.55228475,13 9,12.5522847 9,12 C9,11.4477153 8.55228475,11 8,11 C7.44771525,11 7,11.4477153 7,12 C7,12.5522847 7.44771525,13 8,13 Z M12,13 C11.4477153,13 11,12.5522847 11,12 C11,11.4477153 11.4477153,11 12,11 C12.5522847,11 13,11.4477153 13,12 C13,12.5522847 12.5522847,13 12,13 Z M18.625,8 C17.7980697,7.8203108 15.25,6.41000009 15.25,3.875 C15.25,2.83946609 16.0894661,2 17.125,2 C17.7383496,2 18.2829142,2.29450366 18.625,2.7498172 C18.9670858,2.29450366 19.5116504,2 20.125,2 C21.1605339,2 22,2.83946609 22,3.875 C22,6.41000009 19.4519303,7.8203108 18.625,8 Z" id="Shape"></path>
        </g>
    </g>
</svg>