<?xml version="1.0" encoding="UTF-8"?>
<svg width="24px" height="24px" viewBox="0 0 24 24" version="1.1" xmlns="http://www.w3.org/2000/svg" xmlns:xlink="http://www.w3.org/1999/xlink">
    <!-- Generator: sketchtool 50.2 (55047) - http://www.bohemiancoding.com/sketch -->
    <title>smile-plus</title>
    <desc>Created with sketchtool.</desc>
    <defs></defs>
    <g id="people" stroke="none" stroke-width="1" fill="none" fill-rule="evenodd">
        <g id="smile-plus" fill="#000000">
            <path d="M10,22 C5.581722,22 2,18.418278 2,14 C2,9.581722 5.581722,6 10,6 C14.418278,6 18,9.581722 18,14 C18,18.418278 14.418278,22 10,22 Z M10,20 C13.3137085,20 16,17.3137085 16,14 C16,10.6862915 13.3137085,8 10,8 C6.6862915,8 4,10.6862915 4,14 C4,17.3137085 6.6862915,20 10,20 Z M13,15 C13,16.6568542 11.6568542,18 10,18 C8.34314575,18 7,16.6568542 7,15 L13,15 Z M8,13 C8.55228475,13 9,12.5522847 9,12 C9,11.4477153 8.55228475,11 8,11 C7.44771525,11 7,11.4477153 7,12 C7,12.5522847 7.44771525,13 8,13 Z M12,13 C12.5522847,13 13,12.5522847 13,12 C13,11.4477153 12.5522847,11 12,11 C11.4477153,11 11,11.4477153 11,12 C11,12.5522847 11.4477153,13 12,13 Z M20,4 L21,4 C21.5522847,4 22,4.44771525 22,5 C22,5.55228475 21.5522847,6 21,6 L20,6 L20,7 C20,7.55228475 19.5522847,8 19,8 C18.4477153,8 18,7.55228475 18,7 L18,6 L17,6 C16.4477153,6 16,5.55228475 16,5 C16,4.44771525 16.4477153,4 17,4 L18,4 L18,3 C18,2.44771525 18.4477153,2 19,2 C19.5522847,2 20,2.44771525 20,3 L20,4 Z" id="Shape"></path>
        </g>
    </g>
</svg>