<?xml version="1.0" encoding="UTF-8" standalone="no"?><svg xmlns="http://www.w3.org/2000/svg" xmlns:xlink="http://www.w3.org/1999/xlink"><symbol viewBox="0 0 12 16" id="align-bottom"><path d="M2 11h3V1H2v10zm5 0h3V5H7v6zm-7 4h12v-2H0v2z" fill="#000" fill-rule="evenodd"/></symbol><symbol viewBox="0 0 12 16" id="align-center"><path d="M1.997 8v3H5v4h2v-4h3.003V8H7V6h4.998V3H7V1H5v2H.002v3H5v2H1.997z" fill="#000" fill-rule="evenodd"/></symbol><symbol viewBox="0 0 12 16" id="align-left"><path d="M4 3h8v3H4V3zm0 5h6v3H4V8zM0 1h2v14H0V1z" fill="#000" fill-rule="evenodd"/></symbol><symbol viewBox="0 0 12 16" id="align-right"><path d="M8 3H0v3h8V3zm0 5H1.996v3H8V8zm4-7h-2v14h2V1z" fill="#000" fill-rule="evenodd"/></symbol><symbol viewBox="0 0 12 16" id="align-top"><path d="M7 5h3v10H7V5zM2 5h3v6H2V5zM0 1h12v2H0V1z" fill="#000" fill-rule="evenodd"/></symbol><symbol viewBox="0 0 12 16" id="align-vertically"><path d="M5 1H2v6H0v2h2v6h3V9h2v4h3V9h2V7h-2V3H7v4H5V1z" fill="#000" fill-rule="evenodd"/></symbol><symbol viewBox="0 0 14 16" id="angry"><path d="M7 14A6 6 0 1 0 7 2a6 6 0 0 0 0 12zm0 1A7 7 0 1 1 7 1a7 7 0 0 1 0 14zm0-5c-2.003 0-2.003 2-2.003 2H6s0-1 1-1 1 1 1 1h.997S9.003 10 7 10zm2.8-3.6A1 1 0 1 1 8 7V6l3-1v1l-1.2.4zm-5.6 0A1 1 0 1 0 6 7V6L3 5v1l1.2.4z" fill="#000" fill-rule="evenodd"/></symbol><symbol viewBox="0 0 10 16" id="app-menu"><path d="M8 11h2v2H8v-2zm-4 0h2v2H4v-2zm-4 0h2v2H0v-2zm8-4h2v2H8V7zM4 7h2v2H4V7zM0 7h2v2H0V7zm8-4h2v2H8V3zM4 3h2v2H4V3zM0 3h2v2H0V3z" fill="#000" fill-rule="evenodd"/></symbol><symbol viewBox="0 0 10 16" id="arrow-down"><path d="M9 5L5 8.999 1 5 0 6l5 5 5-5z" fill="#000" fill-rule="evenodd"/></symbol><symbol viewBox="0 0 6 16" id="arrow-left"><path d="M5 3L0 7.999 5 13l1-1-4-4.001L6 4z" fill="#000" fill-rule="evenodd"/></symbol><symbol viewBox="0 0 6 16" id="arrow-right"><path d="M1 3L0 4l3.999 3.998L0 12l1 1 5-5.002z" fill="#000" fill-rule="evenodd"/></symbol><symbol viewBox="0 0 10 16" id="arrow-up"><path d="M5 5l-5 5 1 1 4-4 4 4 1-1z" fill="#000" fill-rule="evenodd"/></symbol><symbol viewBox="0 0 16 16" id="artboard"><path d="M3 3h10v10H3V3zm9 11h1v2h-1v-2zM0 3h2v1H0V3zm0 9h2v1H0v-1zm14-9h2v1h-2V3zm0 9h2v1h-2v-1zM3 14h1v2H3v-2zm9-14h1v2h-1V0zM3 0h1v2H3V0z" fill="#000" fill-rule="evenodd"/></symbol><symbol viewBox="0 0 8 16" id="audio-player"><path d="M0 2s0-1 1-1h6c1 0 1 1 1 1v12s0 1-1 1H1c-1 0-1-1-1-1V2zm4 12a3 3 0 1 0 0-6 3 3 0 0 0 0 6zm0-1a2 2 0 1 0 0-4 2 2 0 0 0 0 4zM1 2h6v5H1V2z" fill="#000" fill-rule="evenodd"/></symbol><symbol viewBox="0 0 14 16" id="backward"><path d="M7 3v10L0 8l7-5zm7 0v10L7 8l7-5z" fill="#000" fill-rule="evenodd"/></symbol><symbol viewBox="0 0 14 16" id="bar"><path d="M1 11h12s1 0 1 1-1 1-1 1H1s-1 0-1-1 1-1 1-1zm0-4h12s1 0 1 1-1 1-1 1H1S0 9 0 8s1-1 1-1zm0-4h12s1 0 1 1-1 1-1 1H1S0 5 0 4s1-1 1-1z" fill="#000" fill-rule="evenodd"/></symbol><symbol viewBox="0 0 16 16" id="bar-chart"><path d="M0 6h1v8h15v1H0V6zm3-3h2v9H3V3zm3-2h2v11H6V1zm3 3h2v8H9V4zm3 2h2v6h-2V6z" fill="#000" fill-rule="evenodd"/></symbol><symbol viewBox="0 0 13 16" id="beer"><path d="M.996 14S0 14 0 15s1 1 1 1h9s1 0 1-1-.996-1-.996-1L10 13h1c2 0 2-2.003 2-2.003V8s0-2-2-2h-1v-.5A2.5 2.5 0 0 0 8.5 1 2.496 2.496 0 0 0 5.174.38a2 2 0 0 0-2.916.636A2 2 0 0 0 1 4.733L.996 14zM3 7h1v6H3V7zm2 0h1v6H5V7zm2 0h1v6H7V7zM2.886 3.819S3.25 5 4.5 5s2-1 2-1 .5 1 2 1A1.5 1.5 0 0 0 10 3.5C10 2.672 9.25 2 8 2c0 0-.5-1-1.5-1s-1.367.586-1.367.586S4.75 1 4 1C3 1 2.7 2 2.7 2S1 1.586 1 3c0 1.6 1.886.819 1.886.819z" fill="#000" fill-rule="evenodd"/></symbol><symbol viewBox="0 0 14 16" id="bell"><path d="M5 14h4s.313 2-2 2-2-2-2-2zM4.5 2c-.828 0-1.294 2.37-.97 2.644L2.286 9H2a2 2 0 1 0 0 4h10a2 2 0 1 0 0-4h-.286L10.47 4.644C10.794 4.37 10.328 2 9.5 2h-.616C8.701 1.127 8.226 0 7 0S5.3 1.127 5.116 2H4.5z" fill="#000" fill-rule="evenodd"/></symbol><symbol viewBox="0 0 16 16" id="birthday-cake"><path d="M16 13.001c-1.02 0-1-1.001-2-1.001s-1 1.001-2 1.001S11 12 10 12s-1 1-2 1.001C7 13 7 12 6 12s-1 1.001-2 1.001S3 12 2 12s-.978 1.001-2 1.001V14c0 2 2 2 2 2h12s2 0 2-2v-.999zM7 7V4.5c0-.5.5-.5.5-.5h1s.5 0 .5.5V7h2V4.5c0-.5.5-.5.5-.5h1s.5 0 .5.5V7c3 0 3 3 3 3v1c-1 0-1-1-2-1s-1 1-2 1-1-1-2-1-1 1-2 1-1-1-2-1-1 1-2 1-1-1-2-1-1 1-2 1v-1s0-3 3-3V4.5c0-.5.5-.5.5-.5h1s.5 0 .5.5V7h2zm5-4c.552 0 1-.672 1-1.5S12.552 0 12 0c0 .997-.5 1-1 1.5 0 .828.448 1.5 1 1.5zM8 3c.552 0 1-.672 1-1.5S8.552 0 8 0c0 .997-.5 1-1 1.5C7 2.328 7.448 3 8 3zM4 3c.552 0 1-.672 1-1.5S4.552 0 4 0c0 .997-.5 1-1 1.5C3 2.328 3.448 3 4 3z" fill="#000" fill-rule="evenodd"/></symbol><symbol viewBox="0 0 10 16" id="bold"><path d="M1 15s-1 0-1-1V2c0-1 .957-1 .957-1h3.698c.883 0 1.637.087 2.262.261.625.175 1.138.423 1.54.746.4.323.694.713.88 1.171.187.459.28.975.28 1.55 0 .329-.046.643-.14.944-.093.3-.237.58-.433.842a3.3 3.3 0 0 1-.746.711c-.302.213-.661.394-1.078.543C9.073 8.2 10 9.239 10 10.885c0 .594-.109 1.143-.326 1.646a3.62 3.62 0 0 1-.952 1.302c-.417.365-.93.65-1.54.857-.609.207-1.305.31-2.089.31H1zm1.51-6.138v4.105h2.546c.466 0 .857-.058 1.17-.174.315-.117.567-.272.756-.465.19-.194.327-.42.41-.678.085-.258.127-.532.127-.823a2.26 2.26 0 0 0-.14-.818 1.532 1.532 0 0 0-.439-.62 2.022 2.022 0 0 0-.765-.392 4.086 4.086 0 0 0-1.128-.135H2.509zm0-1.801h2.005c.852 0 1.499-.162 1.94-.484.442-.323.663-.836.663-1.54 0-.729-.2-1.249-.597-1.558-.398-.31-1.02-.465-1.866-.465H2.509V7.06z" fill="#000" fill-rule="evenodd"/></symbol><symbol viewBox="0 0 16 16" id="book"><path d="M15 13c1 0 1-1.002 1-1.002V3s0-1-1-1H9L8 3 7 2H1C0 2 0 3 0 3v8.998S0 13 1 13c0 0 4.089-.004 6 0 0 0 0 .75 1 .75S9 13 9 13c1.588-.006 6 0 6 0zM9 4l1-1h5v9H9V4zM1 3h5l1 1v8H1V3zm9 6h4v1h-4V9zm0-2h4v1h-4V7zm0-2h4v1h-4V5zM2 9h4v1H2V9zm0-2h4v1H2V7zm0-2h4v1H2V5z" fill="#000" fill-rule="evenodd"/></symbol><symbol viewBox="0 0 8 16" id="bookmark"><path d="M0 1s0-1 1-1h6c1 0 1 1 1 1v15l-4-3-4 3V1zm5 1h1v2H5V2zm0 3h1v2H5V5z" fill="#000" fill-rule="evenodd"/></symbol><symbol viewBox="0 0 16 16" id="browser"><path d="M0 3c0-1 1-1 1-1h14s1 0 1 1.003V12c0 1-1 1-1 1H1s-1 0-1-1V3zm1 2h14v7H1V5zm4-2h10v1H5V3zM1 3h1v1H1V3zm2 0h1v1H3V3z" fill="#000" fill-rule="evenodd"/></symbol><symbol viewBox="0 0 12 16" id="brush"><path d="M5.252 6.892s2.964-4.157 4.91-6.553c.505-.882 2.252.137 1.748 1.02C10.833 4.262 8.747 8.93 8.747 8.93s-.504.883-1.378.373L5.621 8.284c-.873-.51-.369-1.392-.369-1.392m-3.476 8.665c1.659.968 4.032.287 5.007-1.42.976-1.707.536-3.587-.865-4.403-.812-.474-2.176-.667-3.035.076-.6.51-.818 1.431-.705 2.146.34 1.684-.175 2.298-.91 2.25-.238.018-.433-.11-1.268-.433.261.622.582 1.088 1.776 1.784" fill="#000" fill-rule="evenodd"/></symbol><symbol viewBox="0 0 14 16" id="bug"><path d="M5 2.44C3 3.48 3 6 3 6h8s0-2.52-2-3.56V0H8v2.094A5.06 5.06 0 0 0 7 2a5.06 5.06 0 0 0-1 .094V0H5v2.44zm6.153 10.477C10.562 14.107 9.339 15 7 15c-2.341 0-3.564-.895-4.154-2.086l-2.504.91L0 12.886l2.513-.915a5.903 5.903 0 0 1-.138-.97H0v-1h2.378c.018-.28.049-.553.086-.813L0 8.29l.342-.94 2.312.842C2.822 7.474 3 7 3 7h8s.177.473.345 1.188l2.314-.842.342.94-2.466.897c.038.261.069.536.087.817H14v1h-2.375a5.9 5.9 0 0 1-.139.974l2.504.911-.342.94-2.495-.908z" fill="#000" fill-rule="evenodd"/></symbol><symbol viewBox="0 0 11 16" id="building"><path d="M0 15V1.001C0 0 1 0 1 0h9s1 0 1 1v14c0 1-1 1-1 1H1s-1 0-1-1zm4-3h3v3H4v-3zm-2-2h1v1H2v-1zm6 0h1v1H8v-1zM2 8h1v1H2V8zm2 0h1v1H4V8zm2 0h1v1H6V8zm2 0h1v1H8V8zM2 6h1v1H2V6zm2 0h1v1H4V6zm2 0h1v1H6V6zm2 0h1v1H8V6zM2 4h1v1H2V4zm2 0h1v1H4V4zm2 0h1v1H6V4zm2 0h1v1H8V4zM2 2h1v1H2V2zm2 0h1v1H4V2zm2 0h1v1H6V2zm2 0h1v1H8V2z" fill="#000" fill-rule="evenodd"/></symbol><symbol viewBox="0 0 15 16" id="calendar"><path d="M15 3v11s0 1-1 1H1c-1 0-1-1-1-1V3s0-1 1-1h2V1s0-1 .998-1H5c1 0 1 1 1 1v1h3V1s0-1 1-1h1c1 0 1 1 1 1v1h2c1 0 1 1 1 1zM1 4h13v10H1V4zm4 7h2v2H5v-2zm3 0h2v2H8v-2zm-6 0h2v2H2v-2zm6-3h2v2H8V8zm3 0h2v2h-2V8zM5 8h2v2H5V8zM2 8h2v2H2V8zm6-3h2v2H8V5zm3 0h2v2h-2V5zM5 5h2v2H5V5zm5-4h1v2h-1V1zM4 1h1v2H4V1z" fill="#000" fill-rule="evenodd"/></symbol><symbol viewBox="0 0 15 16" id="camera"><path d="M13 3h-1c0-1.002-1-1.002-1-1.002H9C8 1.998 8 3 8 3H2C0 3 0 4.964 0 4.964V12s0 2 2 2h11c2 0 2-2 2-2V5c0-.059 0-2-2-2zm-2 1h2v1h-2V4zm-3.5 8a3.5 3.5 0 1 0 0-7 3.5 3.5 0 0 0 0 7zm0-1a2.5 2.5 0 1 0 0-5 2.5 2.5 0 0 0 0 5z" fill="#000" fill-rule="evenodd"/></symbol><symbol viewBox="0 0 8 16" id="check"><path d="M1 7L0 8l3 3 5-5-1-1-4 4z" fill="#000" fill-rule="evenodd"/></symbol><symbol viewBox="0 0 14 16" id="check-circle"><path d="M7 15A7 7 0 1 0 7 1a7 7 0 0 0 0 14zM4 7L3 8l3 3 5-5-1-1-4 4-2-2z" fill="#000" fill-rule="evenodd"/></symbol><symbol viewBox="0 0 14 16" id="check-circle-o"><path d="M7 15A7 7 0 1 0 7 1a7 7 0 0 0 0 14zm0-1A6 6 0 1 0 7 2a6 6 0 0 0 0 12zM4 7L3 8l3 3 5-5-1-1-4 4-2-2z" fill="#000" fill-rule="evenodd"/></symbol><symbol viewBox="0 0 14 16" id="check-verified"><path d="M0 8a2 2 0 0 1 1.298-1.873c.097-.296.217-.581.357-.855a2 2 0 0 1 2.618-2.618c.273-.14.558-.259.854-.356a2 2 0 0 1 3.746 0c.296.097.581.217.855.357a2 2 0 0 1 2.618 2.618c.14.273.259.558.356.854a2 2 0 0 1 0 3.746 5.963 5.963 0 0 1-.357.855 2 2 0 0 1-2.618 2.618c-.273.14-.558.259-.854.356a2 2 0 0 1-3.746 0 5.963 5.963 0 0 1-.855-.357 2 2 0 0 1-2.618-2.618 5.963 5.963 0 0 1-.356-.854A2 2 0 0 1 0 8zm4-1L3 8l3 3 5-5-1-1-4 4-2-2z" fill="#000" fill-rule="evenodd"/></symbol><symbol viewBox="0 0 14 16" id="clock"><path d="M7 15A7 7 0 1 0 7 1a7 7 0 0 0 0 14zm6-7A6 6 0 1 0 1 8a6 6 0 0 0 12 0zM6.933 9.6h2.8s.934 0 .934-.933c0-.934-.934-.934-.934-.934H7.867v-2.8S7.867 4 6.933 4C6 4 6 4.933 6 4.933v3.734s0 .933.933.933z" fill="#000" fill-rule="evenodd"/></symbol><symbol viewBox="0 0 10 16" id="close"><path d="M6.343 8l3.358-3.358s.672-.672 0-1.343c-.671-.672-1.343 0-1.343 0L5 6.657 1.642 3.299s-.672-.672-1.343 0c-.672.671 0 1.343 0 1.343L3.657 8 .299 11.358s-.672.672 0 1.343c.671.672 1.343 0 1.343 0L5 9.343l3.358 3.358s.672.672 1.343 0c.672-.671 0-1.343 0-1.343L6.343 8z" fill="#000" fill-rule="evenodd"/></symbol><symbol viewBox="0 0 16 16" id="cloud"><path d="M13 13a3 3 0 1 0-.172-5.995A3 3 0 0 0 7.106 5.21 3.001 3.001 0 0 0 3.17 7.005 3 3 0 1 0 3 13h10z" fill="#000" fill-rule="evenodd"/></symbol><symbol viewBox="0 0 12 16" id="cocktail"><path d="M5 9L0 4V2.5S0 2 .5 2h11c.5 0 .5.5.5.5V4L7 9v5h2.5s.5 0 .5.5-.5.5-.5.5h-7s-.5 0-.5-.5.497-.5.5-.5H5V9zM3 5L1 3h10L9 5H3z" fill="#000" fill-rule="evenodd"/></symbol><symbol viewBox="0 0 14 16" id="code"><path d="M5 10.966L4 12 0 8l4-4 1 1-3 3 3 2.966zM9 11l1 1 4-4-4-4-1 1 3 3-3 3z" fill="#000" fill-rule="evenodd"/></symbol><symbol viewBox="0 0 14 16" id="coffee"><path d="M11 4s0-1-1-1H3C2 3 2 4 2 4v3.994C2 9.114 2.894 10 3.997 10h5.006c1.1 0 1.994-.895 1.997-2h1s1 0 1-1.5S12 5 12 5h-1V4zM0 11.5c0-.5.5-.5.5-.5h13s.5 0 .5.5-.5.5-.5.5H.5s-.5 0-.5-.5z" fill="#000" fill-rule="evenodd"/></symbol><symbol viewBox="0 0 14 16" id="columns"><path d="M10 3h4v9h-4V3zM5 3h4v9H5V3zM0 3h4v9H0V3z" fill="#000" fill-rule="evenodd"/></symbol><symbol viewBox="0 0 16 16" id="comment"><path d="M3 11.684C1.171 10.584 0 8.894 0 7c0-3.314 3.582-6 8-6s8 2.686 8 6-3.582 6-8 6c-.512 0-1.012-.036-1.497-.105l-2.506 1.5C3 15 3 14 3 14v-2.316z" fill="#000" fill-rule="evenodd"/></symbol><symbol viewBox="0 0 16 16" id="commenting"><path d="M3 11.684C1.171 10.584 0 8.894 0 7c0-3.314 3.582-6 8-6s8 2.686 8 6-3.582 6-8 6c-.512 0-1.012-.036-1.497-.105l-2.506 1.5C3 15 3 14 3 14v-2.316zM5 8a1 1 0 1 0 0-2 1 1 0 0 0 0 2zm3 0a1 1 0 1 0 0-2 1 1 0 0 0 0 2zm3 0a1 1 0 1 0 0-2 1 1 0 0 0 0 2z" fill="#000" fill-rule="evenodd"/></symbol><symbol viewBox="0 0 16 16" id="comments"><path d="M4.027 6.071C4.315 3.787 6.879 2 10 2c3.314 0 6 2.015 6 4.5 0 1.421-.878 2.688-2.25 3.513v1.737s0 .75-.747.296l-1.88-1.125a7.99 7.99 0 0 1-1.405.074C9.033 12.455 7.179 13.5 5 13.5c-.32 0-.632-.023-.936-.066l-1.566.937c-.623.379-.623-.246-.623-.246v-1.447C.732 11.99 0 10.934 0 9.75c0-1.821 1.731-3.34 4.027-3.679zm-1.152 6.04V13l.98-.605.35.05c.26.036.525.055.795.055 2.261 0 4-1.304 4-2.75S7.261 7 5 7 1 8.304 1 9.75c0 .775.496 1.533 1.39 2.07l.485.292z" fill="#000" fill-rule="evenodd"/></symbol><symbol viewBox="0 0 14 16" id="compress"><path d="M13 8H7V2l2 2 3-3 2 2-3 3 2 2zM1 8h6v6l-2-2-3 3-2-2 3-3-2-2z" fill="#000" fill-rule="evenodd"/></symbol><symbol viewBox="0 0 14 16" id="crop"><path d="M12 11h2v2h-2v2h-2v-2H3c-1 0-1-1-1-1V5H0V3h2V1h2v2h7l1-1 1 1-1 1v7zM4 5h5l-5 5V5zm6 6H5l5-5v5z" fill="#000" fill-rule="evenodd"/></symbol><symbol viewBox="0 0 14 16" id="cry"><path d="M7 14A6 6 0 1 0 7 2a6 6 0 0 0 0 12zm0 1A7 7 0 1 1 7 1a7 7 0 0 1 0 14zm2-3a2 2 0 1 0-4 0h1s0-1 1-1 1 1 1 1h1zm1-1s-1 .015-1-1c0-1.003 1-2 1-2s1 .985 1 2c0 1-1 1-1 1zM9 8a1 1 0 1 0 0-2 1 1 0 0 0 0 2zM5 8a1 1 0 1 0 0-2 1 1 0 0 0 0 2z" fill="#000" fill-rule="evenodd"/></symbol><symbol viewBox="0 0 10 16" id="cutlery"><path d="M9.997 2s0-1-.997-1c-3 0-3 9-3 9h1v4s0 1 1.5 1 1.5-1 1.5-1V9l-.003-7zM4 4H3V1H2v3H1V1H0v6s0 1 1 1v6s.09 1 1 1h1.004C4 15 4 14 4 14V8c1 0 1-1 1-1V1H4v3z" fill="#000" fill-rule="evenodd"/></symbol><symbol viewBox="0 0 14 16" id="delete-link"><path d="M11 5a3 3 0 0 1 0 6H8V5h3zm0 5a2 2 0 1 0 0-4H8v4h3zM3 5a3 3 0 1 0 0 6h3V5H3zm0 5a2 2 0 1 1 0-4h3v4H3zm6-1a1 1 0 1 0 0-2H8v2h1zM5 9a1 1 0 1 1 0-2h1v2H5z" fill="#000" fill-rule="evenodd"/></symbol><symbol viewBox="0 0 14 16" id="desktop"><path d="M5.998 13H4s0 1 1 1h4c1 0 1-1 1-1H8v-.999h5s1 0 1-1.001V3c0-1-1-1-1-1H1S0 2 0 3v8c0 1 1 1.001 1 1.001h4.998V13zM1 3h12v8H1V3z" fill="#000" fill-rule="evenodd"/></symbol><symbol viewBox="0 0 16 16" id="diamond"><path d="M9 14.57c-1 .967-2 0-2 0L0 7l3-5h10l3 5-7 7.57zM4 7H2l5.001 6L4 7zm7 0H5l3 6 3-6zm1 0h2l-5 6 3-6zm-2-4h2l1.998 3H12l-2-3zM9 3H7L5 6h6L9 3zM6 3H4L2 6h2l2-3z" fill="#000" fill-rule="evenodd"/></symbol><symbol viewBox="0 0 12 16" id="difference"><path d="M4 6H.997C.453 6 0 6.446 0 6.997v6.006c0 .544.446.997.997.997h6.006c.544 0 .997-.446.997-.997V10h3.003c.544 0 .997-.446.997-.997V2.997c0-.544-.446-.997-.997-.997H4.997C4.453 2 4 2.446 4 2.997V6zM1 7h3v3h3v3H1V7zm10 2H8V6H5V3h6v6z" fill="#000" fill-rule="evenodd"/></symbol><symbol viewBox="0 0 16 16" id="disabled"><defs><path d="M2.343 2.342A7.981 7.981 0 0 0 0 7.942v.115a7.977 7.977 0 0 0 2.343 5.599 7.977 7.977 0 0 0 5.599 2.343h.115a7.981 7.981 0 0 0 5.6-2.343 7.974 7.974 0 0 0 2.342-5.6v-.113a7.976 7.976 0 0 0-2.342-5.601A7.981 7.981 0 0 0 7.999 0a7.975 7.975 0 0 0-5.656 2.342zm1.415 1.414c2.134-2.136 5.443-2.37 7.777-.706L3.05 11.535c-1.664-2.333-1.429-5.642.708-7.779zm.706 9.193l8.485-8.485c1.664 2.334 1.43 5.643-.706 7.777a6.116 6.116 0 0 1-4.332 1.801 5.925 5.925 0 0 1-3.447-1.093z" id="bza"/></defs><use fill="#000" xlink:href="#bza" fill-rule="evenodd"/></symbol><symbol viewBox="0 0 14 16" id="disappointed"><path d="M7 14A6 6 0 1 0 7 2a6 6 0 0 0 0 12zm0 1A7 7 0 1 1 7 1a7 7 0 0 1 0 14zm0-5c-2.003 0-2.003 2-2.003 2H6s0-1 1-1 1 1 1 1h.997S9.003 10 7 10zm2.935-3.355a1 1 0 1 1-1.47-.49L8 6V5l3 1v1l-1.065-.355zm-4.4-.49a1 1 0 1 1-1.47.49L3 7V6l3-1v1l-.465.155z" fill="#000" fill-rule="evenodd"/></symbol><symbol viewBox="0 0 10 16" id="distribute-horizontally"><path d="M9 1h1v14H9V1zM3 3h4v10H3V3zM0 1h1v14H0V1z" fill="#000" fill-rule="evenodd"/></symbol><symbol viewBox="0 0 14 16" id="distribute-vertically"><path d="M0 12h14v1H0v-1zm2-6h10v4H2V6zM0 3h14v1H0V3z" fill="#000" fill-rule="evenodd"/></symbol><symbol viewBox="0 0 10 16" id="document"><path d="M1 13.993C1 14 9.005 14 9.005 14 8.997 14 9 5 9 5H6V2H.995C1.005 2 1 13.993 1 13.993zM0 2.007C0 1.45.456 1 .995 1H7.5L10 3.5v10.493C10 14.55 9.544 15 9.005 15H.995A1 1 0 0 1 0 13.993V2.007zM2 11h6v1H2v-1zm0-2h6v1H2V9zm0-2h6v1H2V7zm5-5l2 2H7V2z" fill="#000" fill-rule="evenodd"/></symbol><symbol viewBox="0 0 14 16" id="download"><path d="M9 6V0H5v6H2l5 6 5-6H9zm-9 7h14v2H0v-2z" fill="#000" fill-rule="evenodd"/></symbol><symbol viewBox="0 0 10 16" id="drop-down"><path d="M0 5l5 5 5-5z" fill="#000" fill-rule="evenodd"/></symbol><symbol viewBox="0 0 5 16" id="drop-left"><path d="M5 3L0 8l5 5z" fill="#000" fill-rule="evenodd"/></symbol><symbol viewBox="0 0 5 16" id="drop-right"><path d="M0 3v10l5-5z" fill="#000" fill-rule="evenodd"/></symbol><symbol viewBox="0 0 10 16" id="drop-up"><path d="M5 5l5 5H0z" fill="#000" fill-rule="evenodd"/></symbol><symbol viewBox="0 0 12 16" id="edit"><path d="M11 2v1.004H1V13h10v1H1c-1 0-1-1-1-1V3s0-1 1-1h10zm-1 2l1.997 2L8 10 6 8l4-4zM5 9l2 2H5V9z" fill="#000" fill-rule="evenodd"/></symbol><symbol viewBox="0 0 10 16" id="eject"><path d="M5 2L0 9h10L5 2zm-5 9h10v2H0v-2z" fill="#000" fill-rule="evenodd"/></symbol><symbol viewBox="0 0 13 16" id="elipsis-h"><path d="M11.5 9a1.5 1.5 0 1 0 0-3 1.5 1.5 0 0 0 0 3zm-5 0a1.5 1.5 0 1 0 0-3 1.5 1.5 0 0 0 0 3zm-5 0a1.5 1.5 0 1 0 0-3 1.5 1.5 0 0 0 0 3z" fill="#000" fill-rule="evenodd"/></symbol><symbol viewBox="0 0 3 16" id="elipsis-v"><path d="M1.5 14a1.5 1.5 0 1 0 0-3 1.5 1.5 0 0 0 0 3zm0-5a1.5 1.5 0 1 0 0-3 1.5 1.5 0 0 0 0 3zm0-5a1.5 1.5 0 1 0 0-3 1.5 1.5 0 0 0 0 3z" fill="#000" fill-rule="evenodd"/></symbol><symbol viewBox="0 0 14 16" id="equalizer"><path d="M1.002 10H3s1 0 1 1c0 1.001-1 1-1 1H1.002S0 12 0 11s1.002-1 1.002-1zm5-5H8s1 0 1 1c0 1.001-1 1-1 1H6.002S5 7 5 6s1.002-1 1.002-1zm5 3H13s1 0 1 1c0 1.001-1 1-1 1h-1.998S10 10 10 9s1.002-1 1.002-1zM11 11h2v4h-2v-4zm0-10h2v6h-2V1zM6 8h2v7H6V8zm0-7h2v3H6V1zM1 13h2v2H1v-2zM1 1h2v8H1V1z" fill="#000" fill-rule="evenodd"/></symbol><symbol viewBox="0 0 10 16" id="eraser"><path d="M9 11h.005c.54 0 .995-.446.995-.995v-8.01C10 1.455 9.554 1 9.005 1H.995C.455 1 0 1.446 0 1.995v8.01c0 .54.446.995.995.995H1v3c0 .556.446 1 .997 1h6.006c.544 0 .997-.448.997-1v-3zm-7 0h6v3H2v-3z" fill="#000" fill-rule="evenodd"/></symbol><symbol viewBox="0 0 14 16" id="expand"><path d="M8 1h6v6l-2-2-3 3-2-2 3-3-2-2zM6 15H0V9l2 2 3-3 2 2-3 3 2 2z" fill="#000" fill-rule="evenodd"/></symbol><symbol viewBox="0 0 10 16" id="export"><path d="M0 7h3v1H1v7h8V8H7V7h3v9H0V7zm6 5H4V4L3 5 2 4l3-3 3 3-1 1-1-1v8z" fill="#000" fill-rule="evenodd"/></symbol><symbol viewBox="0 0 16 16" id="eye"><path d="M0 8s2.222-6 8-6c5.778 0 8 6 8 6s-2.222 6-8 6c-5.778 0-8-6-8-6zm8 4a4 4 0 1 1 0-8 4 4 0 0 1 0 8zm0-2a2 2 0 1 1 0-4 2 2 0 0 1 0 4z" fill="#000" fill-rule="evenodd"/></symbol><symbol viewBox="0 0 16 16" id="fast-backward"><path d="M16 3v10L9 8l7-5zM9 3v10L2 8l7-5zM0 3h2v10H0V3z" fill="#000" fill-rule="evenodd"/></symbol><symbol viewBox="0 0 16 16" id="fast-forward"><path d="M0 3v10l7-5-7-5zm7 0v10l7-5-7-5zm7 0h2v10h-2V3z" fill="#000" fill-rule="evenodd"/></symbol><symbol viewBox="0 0 16 16" id="feather"><path d="M1 16l2-4c0-3 1-5 3-5-.07 0 .961-7 9-7 0 1-2 8-6 8-.009 0 0 4-4 4l-3 4H1z" fill="#000" fill-rule="evenodd"/></symbol><symbol viewBox="0 0 13 16" id="feed"><path d="M2 11a2 2 0 1 1 0 4 2 2 0 0 1 0-4zm5 4c0-7-7-7-7-7V6s9 0 9 9H7zm4 0C11 4 0 4 0 4V2s13 0 13 13h-2z" fill="#000" fill-rule="evenodd"/></symbol><symbol viewBox="0 0 10 16" id="file"><path d="M1 13.993C1 14 9.005 14 9.005 14 8.997 14 9 5 9 5H6V2H.995C1.005 2 1 13.993 1 13.993zM0 2.007C0 1.45.456 1 .995 1H7.5L10 3.5v10.493C10 14.55 9.544 15 9.005 15H.995A1 1 0 0 1 0 13.993V2.007zM7 2l2 2H7V2z" fill="#000" fill-rule="evenodd"/></symbol><symbol viewBox="0 0 10 16" id="file-audio"><path d="M1 13.993C1 14 9.005 14 9.005 14 8.997 14 9 5 9 5H6V2H.995C1.005 2 1 13.993 1 13.993zM0 2.007C0 1.45.456 1 .995 1H7.5L10 3.5v10.493C10 14.55 9.544 15 9.005 15H.995A1 1 0 0 1 0 13.993V2.007zM7 2l2 2H7V2zM4 8h3v2a1 1 0 1 0 1 1V8s0-1-.996-1H4C3 7 3 8 3 8v3a1 1 0 1 0 1 1V8z" fill="#000" fill-rule="evenodd"/></symbol><symbol viewBox="0 0 10 16" id="file-excel"><path d="M1 13.993C1 14 9.005 14 9.005 14 8.997 14 9 5 9 5H6V2H.995C1.005 2 1 13.993 1 13.993zM0 2.007C0 1.45.456 1 .995 1H7.5L10 3.5v10.493C10 14.55 9.544 15 9.005 15H.995A1 1 0 0 1 0 13.993V2.007zM7 2l2 2H7V2zM2 8h2l1 1.5L6 8h2l-1 2 1 2H6l-1-1.5L4 12H2l.99-2L2 8z" fill="#000" fill-rule="evenodd"/></symbol><symbol viewBox="0 0 10 16" id="file-image"><path d="M1 13.993C1 14 9.005 14 9.005 14 8.997 14 9 5 9 5H6V2H.995C1.005 2 1 13.993 1 13.993zM0 2.007C0 1.45.456 1 .995 1H7.5L10 3.5v10.493C10 14.55 9.544 15 9.005 15H.995A1 1 0 0 1 0 13.993V2.007zM7 2l2 2H7V2zm-5 9l2-2 2 2 1-1 1 1v2H2v-2zm5-2a1 1 0 1 0 0-2 1 1 0 0 0 0 2z" fill="#000" fill-rule="evenodd"/></symbol><symbol viewBox="0 0 10 16" id="file-movie"><path d="M0 2.007C0 1.45.456 1 .995 1H7.5L10 3.5v10.493C10 14.55 9.544 15 9.005 15H.995A1 1 0 0 1 0 13.993V2.007zm1 11.986C1 14 9.005 14 9.005 14 8.997 14 9 5 9 5H6V2H.995C1.005 2 1 13.993 1 13.993zM2 9.5s0-.5.5-.5h3c.5 0 .5.5.5.5v2s0 .5-.5.5h-3c-.5 0-.5-.5-.5-.5v-2zM8 9v3l-2-1.5L8 9zM7 2l2 2H7V2z" fill="#000" fill-rule="evenodd"/></symbol><symbol viewBox="0 0 10 16" id="file-powerpoint"><path d="M1 13.993C1 14 9.005 14 9.005 14 8.997 14 9 5 9 5H6V2H.995C1.005 2 1 13.993 1 13.993zM0 2.007C0 1.45.456 1 .995 1H7.5L10 3.5v10.493C10 14.55 9.544 15 9.005 15H.995A1 1 0 0 1 0 13.993V2.007zM7 2l2 2H7V2zM4 9h1.5s.5 0 .5.5-.5.5-.5.5H4V9zm1.667-1H3v4h1v-1h1.667S7 11 7 9.5 5.667 8 5.667 8z" fill="#000" fill-rule="evenodd"/></symbol><symbol viewBox="0 0 10 16" id="file-word"><path d="M1 13.993C1 14 9.005 14 9.005 14 8.997 14 9 5 9 5H6V2H.995C1.005 2 1 13.993 1 13.993zM0 2.007C0 1.45.456 1 .995 1H7.5L10 3.5v10.493C10 14.55 9.544 15 9.005 15H.995A1 1 0 0 1 0 13.993V2.007zM7 2l2 2H7V2zM2 8h1.5l.5 2 .5-2h1l.5 2 .5-2H8l-1 4H5.5L5 10l-.5 2H3L2 8z" fill="#000" fill-rule="evenodd"/></symbol><symbol viewBox="0 0 10 16" id="file-zip"><path d="M0 2.007C0 1.45.456 1 .995 1H7.5L10 3.5v10.493C10 14.55 9.544 15 9.005 15H.995A1 1 0 0 1 0 13.993V2.007zm1 11.986C1 14 9.005 14 9.005 14 8.997 14 9 5 9 5H6V2H.995C1.005 2 1 13.993 1 13.993zM7 2l2 2H7V2zM4 2h1v1H4V2zM3 3h1v1H3V3zm1 1h1v1H4V4zM3 5h1v1H3V5zm1 1h1v1H4V6zM3 7h1v1H3V7zm0 2l1-1 1 1v3H3V9z" fill="#000" fill-rule="evenodd"/></symbol><symbol viewBox="0 0 10 16" id="filter"><path d="M6 16l-2-2V9L0 5V3s0-1 1-1h8c1 0 1 1 1 1v2L6 9v7z" fill="#000" fill-rule="evenodd"/></symbol><symbol viewBox="0 0 15 16" id="flag"><path d="M2 2.915a1.5 1.5 0 1 0-1 0V16h1V2.915zM3 8c0 2 4.531-.469 6 1 1.59 1.59 6 1 6 0V3c0-2-4.46 1.54-6 0-2-2-6-1.004-6 0v5z" fill="#000" fill-rule="evenodd"/></symbol><symbol viewBox="0 0 14 16" id="folder"><path d="M1 14h12c1 0 1-1 1-1V5s0-1-1-1H7V3c0-1-1-1-1-1H3S2 2 2 3v1H1C0 4 0 5 0 5v8s0 1 1 1z" fill="#000" fill-rule="evenodd"/></symbol><symbol viewBox="0 0 16 16" id="folder-open"><path d="M1 14h14l1-7H5l-1 4V6h10V5c0-1-1-1-1-1H7V3c0-1-1-1-1-1H3S2 2 2 3v1H1S0 4 0 5v8c0 1 1 1 1 1z" fill="#000" fill-rule="evenodd"/></symbol><symbol viewBox="0 0 10 16" id="fork"><path d="M3 10v2.268a2 2 0 1 1-2 0V3.732a2 2 0 1 1 2 0V8c1 0 3-1.72 3-2a2 2 0 1 1 1.103 1.788S5 10 3 10zM2 3a1 1 0 1 0 0-2 1 1 0 0 0 0 2zm0 12a1 1 0 1 0 0-2 1 1 0 0 0 0 2zm6-8a1 1 0 1 0 0-2 1 1 0 0 0 0 2z" fill="#000" fill-rule="evenodd"/></symbol><symbol viewBox="0 0 14 16" id="forward"><path d="M0 3v10l7-5-7-5zm7 0v10l7-5-7-5z" fill="#000" fill-rule="evenodd"/></symbol><symbol viewBox="0 0 14 16" id="frowing"><path d="M7 14A6 6 0 1 0 7 2a6 6 0 0 0 0 12zm0 1A7 7 0 1 1 7 1a7 7 0 0 1 0 14zm0-5c-2.003 0-2.003 2-2.003 2H6s0-1 1-1 1 1 1 1h.997S9.003 10 7 10zm2-1a1 1 0 1 0 0-2 1 1 0 0 0 0 2zM5 9a1 1 0 1 0 0-2 1 1 0 0 0 0 2z" fill="#000" fill-rule="evenodd"/></symbol><symbol viewBox="0 0 16 16" id="gamepad"><path d="M3.5 11A3.5 3.5 0 0 1 3 4.035h10A3.5 3.5 0 1 1 10.05 10h-4.1c-.632.619-1.496 1-2.45 1zM11 7a1 1 0 1 0 0-2 1 1 0 0 0 0 2zm2 2a1 1 0 1 0 0-2 1 1 0 0 0 0 2zM4.667 6.333V5H3.333v1.333H2v1.334h1.333V9h1.334V7.667H6V6.333H4.667z" fill="#000" fill-rule="evenodd"/></symbol><symbol viewBox="0 0 14 16" id="gear"><path d="M9.757 12.172A4.972 4.972 0 0 1 8 12.9v1.6c0 .5-.495.5-.495.5H6.5S6 15 6 14.5v-1.6a4.972 4.972 0 0 1-1.757-.728L3.11 13.303c-.354.354-.704.004-.704.004l-.71-.71s-.354-.354 0-.708l1.131-1.132A4.972 4.972 0 0 1 2.1 9H.5C0 9 0 8.5 0 8.5v-1S0 7 .5 7h1.6c.13-.638.38-1.233.728-1.757L1.697 4.11c-.354-.354 0-.707 0-.707l.707-.707s.353-.354.707 0l1.132 1.131A4.972 4.972 0 0 1 6 3.1V1.5c0-.5.5-.5.5-.5h1s.5 0 .5.5v1.6c.638.13 1.233.38 1.757.728l1.132-1.131c.354-.354.707 0 .707 0l.707.707s.354.353 0 .707l-1.131 1.132c.347.524.598 1.119.728 1.757h1.6c.5 0 .5.488.5.488V8.5s0 .5-.5.5h-1.6a4.972 4.972 0 0 1-.728 1.757l1.131 1.132c.354.354.01.698.01.698l-.717.716s-.353.354-.707 0l-1.132-1.131zM7 11a3 3 0 1 0 0-6 3 3 0 0 0 0 6z" fill="#000" fill-rule="evenodd"/></symbol><symbol viewBox="0 0 16 16" id="globe"><path d="M0 8a8 8 0 1 1 16 0A8 8 0 0 1 0 8zm1.43-1.774C1.709 5.646 2.167 4 2.497 4c.33 0 .21.827.504.898.248.06.058-.368.747-.445.688-.077 1.44.345 1.44.345S6 5 6.751 4.798c0 0-.397-.601.089-.798.485-.197 1.145.53 1.17 1 .023.47-1.08.786-1.08.786l1.08.647S8.324 5.43 9 5.419c.6-.01 1.352 1.086 1 1.581-.352.495-.578.154-.578.154S8.347 8.243 8.009 8.437c-.337.195-.809 0-.809 0s-.2.37 0 .541c.406.418 1.459.835 1.459.835S11.899 10.34 12 11c.101.66-2.578 4-3 4H8c-.408-.72.659-3.022.659-3.022S8.11 11.37 8 11c-.11-.37.213-1.022.213-1.022l-1.462-.672s-.777 0-1.162-.306C5.203 8.694 5 7 5 7L3.605 5.978S2.395 7.516 2 7.32c-.395-.196-.847-.514-.57-1.094zm7.51-2.397c-.966 0-3.287-1.227-2.896-1.887C6.044 1 8.379 1.064 8.94 1c.56-.065 1.93.438 2.91.943.6.943-.626 1.544-.98 1.887-.353.342-.965 0-1.93 0z" fill="#000" fill-rule="evenodd"/></symbol><symbol viewBox="0 0 14 16" id="hash"><path d="M7.64 12.375H5.027l-.262 1.522c-.125.725-.793 1.21-1.505 1.082-.706-.127-1.178-.812-1.052-1.544l.182-1.06H1.306A1.306 1.306 0 0 1 0 11.062c0-.724.58-1.312 1.306-1.312h1.537l.527-3.063H2.181A1.306 1.306 0 0 1 .875 5.375c0-.725.58-1.313 1.306-1.313h1.642l.337-1.959c.125-.725.794-1.21 1.505-1.082.706.127 1.178.813 1.052 1.544L6.46 4.063h2.614l.337-1.96c.125-.725.794-1.21 1.505-1.082.706.127 1.178.813 1.052 1.544l-.258 1.498h.985c.721 0 1.306.582 1.306 1.312 0 .725-.58 1.313-1.306 1.313h-1.437L10.73 9.75h1.089c.721 0 1.306.583 1.306 1.313 0 .724-.58 1.312-1.306 1.312h-1.542l-.262 1.522c-.125.725-.793 1.21-1.505 1.082-.706-.127-1.178-.812-1.052-1.544l.182-1.06zm.453-2.625H5.48l.527-3.063H8.62L8.093 9.75z" fill="#000" fill-rule="evenodd"/></symbol><symbol viewBox="0 0 14 16" id="headphone"><path d="M1.037 9.202C1.202 7 2.101 1 7 1c4.9 0 5.798 6 5.963 8.202C14 9.71 14 11 14 11v2.004S14 15 11.997 15c0 0-.997 0-.997-.972V10c0-.853.742-.978.946-.997C11.756 6.86 10.896 2 7 2 3.103 2 2.243 6.859 2.054 9.003c.204.019.946.144.946.997v4.028C3 15 2.003 15 2.003 15 0 15 0 13.004 0 13.004V11s0-1.29 1.037-1.798z" fill="#000" fill-rule="evenodd"/></symbol><symbol viewBox="0 0 12 16" id="heart"><path d="M6 13s4.873-2.487 5.847-5.97C12.822 3.548 8.924 1.058 6 5.04 3.076 1.06-.822 3.548.153 7.03 1.127 10.513 6 13 6 13z" fill="#000" fill-rule="evenodd"/></symbol><symbol viewBox="0 0 12 16" id="heart-o"><path d="M6 13s4.873-2.487 5.847-5.97C12.822 3.548 8.924 1.058 6 5.04 3.076 1.06-.822 3.548.153 7.03 1.127 10.513 6 13 6 13zm-.014-1.52s3.76-2.122 4.373-4.465c.612-2.344-1.382-4.01-4.373-.022-2.99-3.988-5.1-2.322-4.372.022.729 2.343 4.372 4.466 4.372 4.466z" fill="#000" fill-rule="evenodd"/></symbol><symbol viewBox="0 0 16 16" id="home"><path d="M8 1l8 7v1h-2l-1 6H3L2 9H0V8l8-7zM7 11h2v4H7v-4z" fill="#000" fill-rule="evenodd"/></symbol><symbol viewBox="0 0 10 16" id="import"><path d="M0 5h3v1H1v7h8V6H7V5h3v9H0V5zm6-4H4v8L3 8 2 9l3 3 3-3-1-1-1 1V1z" fill="#000" fill-rule="evenodd"/></symbol><symbol viewBox="0 0 14 16" id="info"><path d="M7 15A7 7 0 1 0 7 1a7 7 0 0 0 0 14zm-1.5-3h3c.5 0 .5-.5.5-.5v-1s0-.5-.5-.5H8V7.5S8 7 7.5 7h-1c-.5 0-.5.5-.5.5V10h-.5c-.5 0-.5.5-.5.5v1s0 .5.5.5zM6 5.5v-1s0-.5.503-.5H7.5c.5 0 .5.5.5.5v1s0 .5-.5.5h-.998C6 6 6 5.5 6 5.5z" fill="#000" fill-rule="evenodd"/></symbol><symbol viewBox="0 0 14 16" id="insert-link"><path d="M11 5a3 3 0 0 1 0 6H8V5h3zm0 5a2 2 0 1 0 0-4H8v4h3zM3 5a3 3 0 1 0 0 6h3V5H3zm0 5a2 2 0 1 1 0-4h3v4H3zm2-3h4c1 0 1 1 1 1s0 1-1 1H5C4 9 4 8 4 8s0-1 1-1z" fill="#000" fill-rule="evenodd"/></symbol><symbol viewBox="0 0 12 16" id="intersect"><path d="M4 6H.997C.453 6 0 6.446 0 6.997v6.006c0 .544.446.997.997.997h6.006c.544 0 .997-.446.997-.997V10h3.003c.544 0 .997-.446.997-.997V2.997c0-.544-.446-.997-.997-.997H4.997C4.453 2 4 2.446 4 2.997V6zm0 0h4v4H4V6z" fill="#000" fill-rule="evenodd"/></symbol><symbol viewBox="0 0 8 16" id="italic"><path d="M4 3H2.5S2 3 2 2.5v-1c0-.5.5-.5.5-.5h5s.5 0 .5.5v1c0 .5-.5.5-.5.5H6L4 13h1.5s.5 0 .5.5v1c0 .5-.5.5-.5.5h-5s-.5 0-.5-.5v-1c0-.5.5-.5.5-.5H2L4 3z" fill="#000" fill-rule="evenodd"/></symbol><symbol viewBox="0 0 16 16" id="key"><path d="M8.101 4.898a4 4 0 1 1 3 3.001l-2.103 2.103H7V12l-1.004 1.004H4V15l-1 .999H1L0 15v-1.996l8.101-8.106zM13 4a1 1 0 1 0 0-2 1 1 0 0 0 0 2z" fill="#000" fill-rule="evenodd"/></symbol><symbol viewBox="0 0 16 16" id="keyboard"><path d="M16 10.995S16 12 14.857 12H1.143C0 12 0 10.995 0 10.995V4c0 .096 0-1 1.143-1h13.714C16 3 16 4 16 4v6.995zM1 4h2v1H1V4zm3 0h1v1H4V4zm2 0h1v1H6V4zm2 0h1v1H8V4zm2 0h1v1h-1V4zm2 0h1v1h-1V4zm2 0h1v1h-1V4zM1 6h1v1H1V6zm2 0h1v1H3V6zm2 0h1v1H5V6zm2 0h1v1H7V6zm2 0h1v1H9V6zm2 0h1v1h-1V6zm2 0h2v3h-2V6zM1 10h1v1H1v-1zm2 0h1v1H3v-1zm2 0h4v1H5v-1zm7 0h1v1h-1v-1zm-2 0h1v1h-1v-1zm4 0h1v1h-1v-1zM1 8h1v1H1V8zm2 0h1v1H3V8zm2 0h1v1H5V8zm2 0h1v1H7V8zm2 0h1v1H9V8zm2 0h1v1h-1V8z" fill="#000" fill-rule="evenodd"/></symbol><symbol viewBox="0 0 14 16" id="kitchen-cooker"><path d="M11 13H3a1 1 0 0 1-2 0c-.553-.004-1-.458-1-.995v-8.01A1 1 0 0 1 1.007 3h11.986C13.55 3 14 3.456 14 3.995v8.01A1 1 0 0 1 13 13a1 1 0 1 1-2 0zm-10-.995C1 11.995 12.993 12 12.993 12 13 12 13 3.995 13 3.995 13 4.005 1.007 4 1.007 4 1 4 1 12.005 1 12.005zM2 7h10v4H2V7zm4 1h2v1H6V8zm3.5-2a.5.5 0 1 0 0-1 .5.5 0 0 0 0 1zm-2 0a.5.5 0 1 0 0-1 .5.5 0 0 0 0 1zm4 0a.5.5 0 1 0 0-1 .5.5 0 0 0 0 1zM2 5h3v1H2V5z" fill="#000" fill-rule="evenodd"/></symbol><symbol viewBox="0 0 16 16" id="laptop"><path d="M0 12h16s0 1-1 1H1c-1 0-1-1-1-1zm14-1.966V3c0-1-1-1-1-1H3S2 2 2 3v7c0 1 1 1 1 1h10s1 0 1-.966zM3 3h10v7H3V3z" fill="#000" fill-rule="evenodd"/></symbol><symbol viewBox="0 0 12 16" id="layer"><path d="M11 9l-5 4-5-4-1 1 6 5 6-5-1-1zM6 1L0 6l6 5 6-5-6-5z" fill="#000" fill-rule="evenodd"/></symbol><symbol viewBox="0 0 14 16" id="layout"><path d="M0 3h9v9H0V3zm10 0h4v4h-4V3zm0 5h4v4h-4V8z" fill="#000" fill-rule="evenodd"/></symbol><symbol viewBox="0 0 16 16" id="line-chart"><path d="M0 6h1v8h15v1H0V6zm12 3.5a1.5 1.5 0 1 1-2.982-.236L7.142 7.856a1.494 1.494 0 0 1-.857.129L4.86 9.865a1.5 1.5 0 1 1-1.124-.847l1.408-1.876a1.5 1.5 0 1 1 2.838-.405l1.876 1.407c.195-.092.412-.144.642-.144l1.8-3.6a1.5 1.5 0 1 1 1.2.6l-1.8 3.6c.188.25.3.562.3.9z" fill="#000" fill-rule="evenodd"/></symbol><symbol viewBox="0 0 16 16" id="link"><path d="M4 9.01c-1 0-3-.016-3-2.013C1 5 3 5.013 3 5.013L8 5s2.006-.012 2 2c-.006 2.01-2 2.01-2 2.01V10s3 0 3-3-3-3-3-3H3S0 4 0 7c0 2.998 3 2.987 4 3v-.99zm8-1.02c1 0 3 .016 3 2.013 0 1.997-2 1.984-2 1.984L8 12s-2.006.012-2-2c.006-2.01 2-2.01 2-2.01V7s-3 0-3 3 3 3 3 3h5s3 0 3-3c0-2.998-3-2.987-4-3v.99z" fill="#000" fill-rule="evenodd"/></symbol><symbol viewBox="0 0 10 16" id="link-external"><path d="M0 12V6c0-1 1-1 1-1h3v1H1v6h6V9h1v3c0 1-1 1-1 1H1s-1 0-1-1zm9-7v3h1V4c0-1-1-1-1-1H5v1h3L4 8l1 1 4-4z" fill="#000" fill-rule="evenodd"/></symbol><symbol viewBox="0 0 12 16" id="list-bullet"><path d="M4 2h8v2H4V2zm0 5h8v2H4V7zm0 5h8v2H4v-2zm-4 0h2v2H0v-2zm0-5h2v2H0V7zm0-5h2v2H0V2z" fill="#000" fill-rule="evenodd"/></symbol><symbol viewBox="0 0 13 16" id="list-order"><path d="M4 12h9v2H4v-2zm0-5h9v2H4V7zm0-5h9v2H4V2zm-2.5 9c.187 0 .356.026.506.077.15.052.279.123.386.214a.932.932 0 0 1 .33.719c0 .124-.014.234-.043.328a.755.755 0 0 1-.126.248.755.755 0 0 1-.202.179c-.08.048-.17.089-.27.121.242.074.424.187.543.339.12.151.18.342.18.57 0 .196-.038.368-.112.518-.075.15-.176.275-.303.377-.127.102-.275.18-.442.232a1.77 1.77 0 0 1-.531.078c-.204 0-.381-.023-.533-.068a1.171 1.171 0 0 1-.681-.525A2.154 2.154 0 0 1 0 13.963l.306-.121a.415.415 0 0 1 .16-.033.28.28 0 0 1 .13.03c.038.02.068.049.088.087a2.4 2.4 0 0 0 .11.186.692.692 0 0 0 .613.325.79.79 0 0 0 .309-.055.671.671 0 0 0 .22-.145.592.592 0 0 0 .175-.42c0-.094-.01-.179-.03-.255a.378.378 0 0 0-.13-.197.712.712 0 0 0-.281-.127 2.103 2.103 0 0 0-.492-.046v-.476c.17-.002.31-.017.423-.046a.733.733 0 0 0 .268-.12.409.409 0 0 0 .138-.186.694.694 0 0 0 .04-.238c0-.186-.053-.326-.157-.421-.105-.095-.248-.142-.43-.142-.164 0-.3.042-.409.126a.658.658 0 0 0-.227.323.293.293 0 0 1-.092.148.248.248 0 0 1-.154.044.601.601 0 0 1-.096-.008l-.364-.062c.028-.188.082-.352.162-.494a1.194 1.194 0 0 1 .717-.568A1.71 1.71 0 0 1 1.5 11zm.454-4.92c.155.055.287.13.396.23.11.098.196.216.257.355.061.138.092.293.092.462 0 .146-.022.281-.066.405a1.67 1.67 0 0 1-.175.356 2.4 2.4 0 0 1-.258.328c-.099.106-.202.214-.31.323l-.909.831h1.542c.075 0 .134.021.177.062a.213.213 0 0 1 .066.163V10H0v-.224a.385.385 0 0 1 .123-.28l1.224-1.203c.102-.102.193-.2.274-.293.081-.093.149-.185.204-.276a1.25 1.25 0 0 0 .125-.278c.03-.094.043-.193.043-.297a.691.691 0 0 0-.041-.25.49.49 0 0 0-.306-.293.738.738 0 0 0-.24-.037.651.651 0 0 0-.41.123.644.644 0 0 0-.224.331.274.274 0 0 1-.092.15.257.257 0 0 1-.156.045.574.574 0 0 1-.092-.009L.07 7.146c.028-.19.081-.356.161-.499a1.202 1.202 0 0 1 .713-.574c.155-.049.322-.073.5-.073.186 0 .356.027.51.08zM.314 4.49h.883V2.16c0-.09.003-.185.009-.284l-.627.48a.229.229 0 0 1-.08.042.304.304 0 0 1-.08.01.255.255 0 0 1-.11-.023.203.203 0 0 1-.074-.054L0 2.036 1.33 1h.612v3.489h.784V5H.314v-.511z" fill="#000" fill-rule="evenodd"/></symbol><symbol viewBox="0 0 15 16" id="list-task"><path d="M7 12h8v2H7v-2zm0-5h8v2H7V7zm3-5h5v2h-5V2zM.002 3.996L1 3.003 2.998 5 8 0l1 1-6 6L.002 3.996z" fill="#000" fill-rule="evenodd"/></symbol><symbol viewBox="0 0 12 16" id="location"><path d="M6 16c1 0 6-7.234 6-10 0-3.472-2.686-6-6-6S0 2.528 0 6c0 2.766 5 10 6 10zm0-7a3 3 0 1 0 0-6 3 3 0 0 0 0 6z" fill="#000" fill-rule="evenodd"/></symbol><symbol viewBox="0 0 12 16" id="lock"><path d="M1.002 7C.456 7 0 7.446 0 7.997v6.006c0 .544.449.997 1.002.997h9.996c.546 0 1.002-.446 1.002-.997V7.997C12 7.453 11.551 7 10.998 7H9.994L10 5c-.006-4-3-4-4-4S2 1 2 5c.006 0 .006 2 .006 2H1.002zM2 9h1v4H2V9zm2-4c0-2 1.5-2 2-2s2 0 2 2v2H4V5z" fill="#000" fill-rule="evenodd"/></symbol><symbol viewBox="0 0 12 16" id="login"><path d="M0 6v4l3 .006V12l4-3.997L3 4v2.006L0 6zm1-3.001h10v9.995L1 13v1l10-.006c0 .026 1 0 1-1V2.999C12 2 11 2 11 2H1v.999z" fill="#000" fill-rule="evenodd"/></symbol><symbol viewBox="0 0 12 16" id="logout"><path d="M5 6v4h3v2l4-4.003L8 4v2H5zm6 7H1V3.005h10v-1H1c0-.026-1 0-1 1V13c0 1 1 1 1 1h10v-1z" fill="#000" fill-rule="evenodd"/></symbol><symbol viewBox="0 0 12 16" id="loop"><path d="M2.71 10.29C3.318 11.103 4.36 12 6 12c3 0 4-3 4-3h2s-1 5-6 5c-2.355 0-3.823-1.11-4.717-2.283L0 13V9h4l-1.29 1.29zm6.58-4.58C8.682 4.897 7.64 4 6 4 3 4 2 7 2 7H0s1-5 6-5c2.355 0 3.823 1.11 4.717 2.283L12 3v4H8l1.29-1.29z" fill="#000" fill-rule="evenodd"/></symbol><symbol viewBox="0 0 14 16" id="magic"><path d="M1 4l2-2 11 11-2 2L1 4zm1 0l1-1 4 4-1 1-4-4zm7.5-2L9 3l-1 .5L9 4l.5 1 .5-1.004 1-.496-1-.5-.5-1zM7 1l-.333.667L6 2l.667.333L7 3l.333-.67L8 2l-.667-.334L7 1zm5 0l-.333.667L11 2l.667.333L12 3l.333-.67L13 2l-.667-.334L12 1zM1 7l-.333.667L0 8l.667.333L1 9l.333-.67L2 8l-.667-.334L1 7z" fill="#000" fill-rule="evenodd"/></symbol><symbol viewBox="0 0 14 16" id="mail"><path d="M0 6l7 5 7-5v6c0 1-.985 1-.985 1H1s-1 0-1-1V6zm0-2c0-1 1-1 1-1h12s1 0 1 1L7 9 0 4z" fill="#000" fill-rule="evenodd"/></symbol><symbol viewBox="0 0 16 16" id="map"><path d="M3 10h2s0 3 3 3 3-3 3-3h2l3 5H0l3-5zm5 2s3-5.343 3-7a3 3 0 1 0-6 0c0 1.657 3 7 3 7zm0-6a1 1 0 1 0 0-2 1 1 0 0 0 0 2z" fill="#000" fill-rule="evenodd"/></symbol><symbol viewBox="0 0 12 16" id="mask"><path d="M1 12.998c0-.003 9.998.002 9.998.002-.003 0 0-10-9.996-10C1 3 1 12.998 1 12.998zM0 3.002C0 2.45.456 2 1.002 2h9.996C11.55 2 12 2.456 12 3.002v9.996C12 13.55 11.544 14 10.998 14H1.002A1.007 1.007 0 0 1 0 12.998V3.002z" fill="#000" fill-rule="evenodd"/></symbol><symbol viewBox="0 0 10 16" id="medal"><path d="M8 0h1L7 3.002H6L8 0zM3 0h1l1 1.5L6 0h1.002L5.5 2.251l.5.751H5l-.5-.751L3 0zM1 0h1.002l2 3h-1L1 0zm2 4h4v1H3V4zm2 12A5 5 0 1 0 5 6a5 5 0 0 0 0 10zm0-8l2.121.879L8 11l-.879 2.121L5 14l-2.121-.879L2 11l.879-2.121L5 8z" fill="#000" fill-rule="evenodd"/></symbol><symbol viewBox="0 0 14 16" id="megaphone"><path d="M6.247 15H3.25v-4.232C1.892 10.6.94 10.47.94 10.47s-.421.109-.79-1.412c-.367-1.52.054-1.629.054-1.629s8.174-6.021 9.65-6.4c.211-.054 2.584-.433 3.793 4.563 1.21 4.996-1.058 5.809-1.269 5.863-.795.204-4.054-.098-6.891-.42-.062-.006.76 3.966.76 3.966zm5.268-4.768c1.059-.264 1.495-2.167.976-4.25-.52-2.085-1.799-3.56-2.857-3.296-1.059.264-1.496 2.167-.976 4.25.52 2.085 1.799 3.56 2.857 3.296zM10.222 8.2c.717-.179 1.131-.992.926-1.817-.206-.824-.954-1.348-1.67-1.169-.717.179.027 3.165.744 2.986z" fill="#000" fill-rule="evenodd"/></symbol><symbol viewBox="0 0 16 16" id="mention"><path d="M14.444 8c0-3.917-3.583-6.629-6.444-6.629-2.861 0-6.629 2.515-6.629 6.629 0 4.114 3.429 6.629 6.629 6.629 3.2 0 4.571-1.829 4.571-1.829s1.203.759 1.18.759C12.468 14.873 10.493 16 8 16A8 8 0 1 1 8 0c4.418 0 8 3.657 8 8 0 1.371-1.28 3.345-2.382 3.76-1.238.51-2.715.213-3.596-.624-.166-.158-.532-.672-.649-.876-.586.85-.916 1.397-2.059 1.397-2.224 0-3.428-1.628-3.428-3.657 0-2.03 1.204-3.657 3.2-3.657 1.513 0 2.142 1.201 2.142 1.201.068-.309.293-1.136.314-1.201H11.2c.01.011-.343 1.068-.398 1.448-.473 2.209-.492 3.766.17 4.371.72.543 1.628.726 2.398.098.772-.608 1.074-1.576 1.074-2.26zM8.686 8c0-1.162-.745-2.057-1.6-2.057-.856 0-1.6.895-1.6 2.057s.744 2.057 1.6 2.057c.855 0 1.6-.895 1.6-2.057z" fill="#000" fill-rule="evenodd"/></symbol><symbol viewBox="0 0 10 16" id="minus"><path d="M0 7h10v2H0z" fill="#000" fill-rule="evenodd"/></symbol><symbol viewBox="0 0 8 16" id="mobile"><path d="M8 1v13c0 1-1 1-1 1H1s-1 0-1-1V1c0-1 1-1 1-1h6s1 0 1 1zM1 13h6V2H1v11z" fill="#000" fill-rule="evenodd"/></symbol><symbol viewBox="0 0 14 16" id="money"><path d="M3 11h8c0-2 2-2 2-2V7s-2 0-2-2H3c0 2-2 2-2 2v2s2 0 2 2zM0 5s0-1 1-1h12c1 0 1 1 1 1v6s0 1-1 1H1c-1 0-1-1-1-1V5zm8 5a2 2 0 1 0 0-4 2 2 0 0 0 0 4zM4 6h1v4H4V6zm4 3a1 1 0 1 0 0-2 1 1 0 0 0 0 2z" fill="#000" fill-rule="evenodd"/></symbol><symbol viewBox="0 0 10 16" id="mouse"><path d="M5 0C.625 0 0 3.582 0 8s.625 8 5 8 5-3.582 5-8-.625-8-5-8zM4 6s0 1 1 1 1-1 1-1V3s0-1.004-1-1.004S4 3 4 3v3z" fill="#000" fill-rule="evenodd"/></symbol><symbol viewBox="0 0 12 16" id="music"><path d="M3 1.999C3 1.447 3.446 1 3.998 1h7.004c.551 0 .998.443.998.999V12a2 2 0 1 1-1-1.732V4H4v9a2 2 0 1 1-1-1.732V1.999z" fill="#000" fill-rule="evenodd"/></symbol><symbol viewBox="0 0 14 16" id="open-mouth"><path d="M7 14A6 6 0 1 0 7 2a6 6 0 0 0 0 12zm0 1A7 7 0 1 1 7 1a7 7 0 0 1 0 14zm0-2a2 2 0 1 0 0-4 2 2 0 0 0 0 4zm2-6a1 1 0 1 0 0-2 1 1 0 0 0 0 2zM5 7a1 1 0 1 0 0-2 1 1 0 0 0 0 2z" fill="#000" fill-rule="evenodd"/></symbol><symbol viewBox="0 0 16 16" id="palette"><path d="M8.06 14c4.382 0 7.935-2.686 7.935-6S12.997 2 8.06 2C5 2 2.911 2.713 2.911 3.5c-.459 1.381 3.31 2.383 1.78 3.59C2.316 8.968 0 6.028 0 8.79 0 11.266 3.676 14 8.06 14zm.44-8c.828 0 1.5-.448 1.5-1s-.672-1-1.5-1S7 4.448 7 5s.672 1 1.5 1zm3 2c.828 0 1.5-.448 1.5-1s-.672-1-1.5-1-1.5.448-1.5 1 .672 1 1.5 1z" fill="#000" fill-rule="evenodd"/></symbol><symbol viewBox="0 0 12 16" id="paper-plane"><path d="M4.72 10.672L9.975 3.71l-6.387 6.36L.39 8.352c-.515-.277-.52-.731-.02-1.02L11.17 1.125c.502-.288.87-.058.826.513l-.89 11.398c-.044.571-.495.811-1.007.536l-2.876-1.573-1.907 1.906c-.596.34-.596-.333-.596-.333v-2.9z" fill="#000" fill-rule="evenodd"/></symbol><symbol viewBox="0 0 9 16" id="pause"><path d="M0 3h3v10H0V3zm6 0h3v10H6V3z" fill="#000" fill-rule="evenodd"/></symbol><symbol viewBox="0 0 16 16" id="pencil"><path d="M8.982 3L13 7l-7.5 7.5L4 16H0v-4.009L1.997 10l6.985-7zM9 5L5 9l1 1 4-4-1-1zm-6 7H2l-1 1v1h1v1h1l1-1v-1l-1-1zm7-10s1.037-1 1-1c1-1 2 0 2 0l2 2s1 1 0 2c.023.023-1 1-1 1l-4-4z" fill="#000" fill-rule="evenodd"/></symbol><symbol viewBox="0 0 14 16" id="phone"><path d="M4.058.437l1.237 1.508c.247.302.742.905-.729 2.168-.882.758-.952 1.59 1.534 4.623 2.434 2.969 3.286 3.09 4.155 2.317 1.483-1.247 1.965-.66 2.212-.358l1.237 1.508c.247.302.742.906-.605 2.32-1.347 1.413-1.37 1.69-2.159 1.34-.789-.351-3.944-1.755-6.899-5.36C1.061 6.868.258 3.444.058 2.588c-.201-.856.07-.831 1.664-1.944C3.316-.469 3.81.135 4.058.437" fill="#000" fill-rule="evenodd"/></symbol><symbol viewBox="0 0 14 16" id="picture"><path d="M1 12.005C1 11.995 12.993 12 12.993 12 13 12 13 3.995 13 3.995 13 4.005 1.007 4 1.007 4 1 4 1 12.005 1 12.005zm-1-8.01A1 1 0 0 1 1.007 3h11.986C13.55 3 14 3.456 14 3.995v8.01a1 1 0 0 1-1.007.995H1.007A1.008 1.008 0 0 1 0 12.005v-8.01zM4 8l2 2 4-4 2 2v3H2v-1l2-2zM3 7a1 1 0 1 0 0-2 1 1 0 0 0 0 2z" fill="#000" fill-rule="evenodd"/></symbol><symbol viewBox="0 0 16 16" id="pie-chart"><path d="M7 16a7 7 0 0 0 7-7H7V2a7 7 0 1 0 0 14zm1-8V1a7 7 0 0 1 7 7H8z" fill="#000" fill-rule="evenodd"/></symbol><symbol viewBox="0 0 15 16" id="pizza"><path d="M7.5 16A7.5 7.5 0 0 0 15 8.5C15 4.358 11.65 1 7.4 1v7.5L1 4.763C.368 5.783 0 7.136 0 8.5A7.5 7.5 0 0 0 7.5 16zm-.007-1c3.538 0 6.502-3.185 6.502-6.586C13.995 5.12 11.302 2.164 8 2v6.5c0 1-.997.504-.997.504L1.5 6.001C1.273 6.568.995 7 .995 8.414.995 12.45 3.955 15 7.493 15zM4 12h1v1H4v-1zm7-4a1 1 0 1 0 0-2 1 1 0 0 0 0 2zM9 4h1v1H9V4zm2 7a1 1 0 1 0 0-2 1 1 0 0 0 0 2zm-3 3a1 1 0 1 0 0-2 1 1 0 0 0 0 2zm0-3.949h1v1H8v-1zM5 11a1 1 0 1 0 0-2 1 1 0 0 0 0 2zM2 8h1v1H2V8zm4.359-8v6.154L1.026 3.077S1.908 1.617 3.28.824C4.652.033 6.359 0 6.359 0z" fill="#000" fill-rule="evenodd"/></symbol><symbol viewBox="0 0 10 16" id="play"><path d="M0 3v10l10-5z" fill="#000" fill-rule="evenodd"/></symbol><symbol viewBox="0 0 8 16" id="plug"><path d="M5 6H3V1.99A1 1 0 0 0 2 1c-.556 0-1 .444-1 .99V6H0v3.5a3.507 3.507 0 0 0 3 3.463V16h2v-3.036A3.497 3.497 0 0 0 8 9.5V6H7V1.99A1 1 0 0 0 6 1c-.556 0-1 .444-1 .99V6z" fill="#000" fill-rule="evenodd"/></symbol><symbol viewBox="0 0 10 16" id="plus"><path d="M6 7V3H4v4H0v2h4v4h2V9h4V7z" fill="#000" fill-rule="evenodd"/></symbol><symbol viewBox="0 0 14 16" id="pot"><path d="M.996 7H13s1 0 1 .995S13 9 13 9h-1v4s0 1-1 1H2.998C2 14 2 13 2 13V9H.996S0 9 0 8s.996-1 .996-1zM4 4C2 4 2 6 2 6h10s0-2-2-2H9s0-2-2-2-2 2-2 2H4zm3-1c1 0 1 1 1 1H6s0-1 1-1z" fill="#000" fill-rule="evenodd"/></symbol><symbol viewBox="0 0 14 16" id="print"><path d="M0 9s0-1 1-1h1V6h1V2s0-1 .996-1H10c1 0 1 1 1 1v4h1v2h1c1 0 1 1 1 1v6h-3s0 1-1 1H3.996C3 16 3 15 3 15H0V9zm4 3h6v3H4v-3zm4-3h2v1H8V9zM4 2h6v6H4V2z" fill="#000" fill-rule="evenodd"/></symbol><symbol viewBox="0 0 16 16" id="prototype"><path d="M9.004 6.914L9.002 1c0-1 1-1 1-1h5s1 0 1 1v10c0 1-1 1-1 1h-5s-.994 0-1-1c.002 0 .003-1.356.003-3.07l2.36-1.357c.276.33.682.538 1.135.538.828 0 1.5-.696 1.5-1.555C14 4.696 13.328 4 12.5 4S11 4.696 11 5.556c0 .069.004.137.013.204L9.004 6.914zM7 9.083V14c0 1-1 1-1 1H1s-.994 0-1-1C.006 14 0 4 0 4c0-1 1-1 1-1h5s1 0 1 1v4.067l-2.366 1.36A1.475 1.475 0 0 0 3.5 8.889c-.828 0-1.5.696-1.5 1.555C2 11.304 2.672 12 3.5 12S5 11.304 5 10.444c0-.069-.004-.137-.013-.204L7 9.083z" fill="#000" fill-rule="evenodd"/></symbol><symbol viewBox="0 0 14 16" id="question"><path d="M7 15A7 7 0 1 0 7 1a7 7 0 0 0 0 14zm-1-2.5v-1s0-.5.5-.5h1c.5 0 .5.5.5.5v1s0 .5-.5.5h-1c-.5 0-.5-.5-.5-.5zm0-2.94c0 .44.5.437.5.437h1s.549.003.549-.438c0-1.311 1.386-2.276 1.8-3.057.449-.878.155-3.502-2.84-3.502C5 3 4 4.009 4 5.5c0 0 0 .5.5.5h1c.5 0 .5-.5.5-.5s0-1 1-1c1.049 0 1 1 1 1.5 0 .74-.5 1.221-1 1.473 0 0-1 .446-1 2.086z" fill="#000" fill-rule="evenodd"/></symbol><symbol viewBox="0 0 15 16" id="quote-left"><path d="M11.504 7a3.5 3.5 0 1 1-3.5 3.5c-.01-.133 0-.468 0-.5 0-3 4.005-8 4.005-8l.995 1c-.5.603-1.5 2.191-2.5 4.097.44-.131.588-.097 1-.097m-8 0a3.5 3.5 0 1 1-3.5 3.5c-.01-.133 0-.468 0-.5 0-3 4.005-8 4.005-8l.995 1c-.5.603-1.5 2.191-2.5 4.097.44-.131.588-.097 1-.097" fill="#000" fill-rule="evenodd"/></symbol><symbol viewBox="0 0 15 16" id="quote-right"><path d="M3.5 9A3.5 3.5 0 1 1 7 5.5c.01.133 0 .468 0 .5 0 3-4.005 8-4.005 8L2 13c.5-.603 1.5-2.19 2.5-4.097-.44.13-.588.097-1 .097zm8 0A3.5 3.5 0 1 1 15 5.5c.01.133 0 .468 0 .5 0 3-4.005 8-4.005 8L10 13c.5-.603 1.5-2.19 2.5-4.097-.44.13-.588.097-1 .097z" fill="#000" fill-rule="evenodd"/></symbol><symbol viewBox="0 0 14 16" id="rage"><path d="M7 14A6 6 0 1 0 7 2a6 6 0 0 0 0 12zm0 1A7 7 0 1 1 7 1a7 7 0 0 1 0 14zm0-6c-2.003 0-2.003 2-2.003 2H6s0-1 1-1 1 1 1 1h.997S9.003 9 7 9zm2-1a1 1 0 0 0 1-1V5.997S8 6.998 8 7a1 1 0 0 0 1 1zM5 8a1 1 0 0 0 1-1L4 6v1a1 1 0 0 0 1 1z" fill="#000" fill-rule="evenodd"/></symbol><symbol viewBox="0 0 16 16" id="random"><path d="M12 5h-1L8.75 8 11 11h1V9l4 3-4 3v-2h-2L7.5 9.667 5 13H0v-2h4l2.25-3L4 5H0V3h5l2.5 3.333L10 3h2V1l4 3-4 3V5z" fill="#000" fill-rule="evenodd"/></symbol><symbol viewBox="0 0 12 16" id="reload"><path d="M8.838 5.162C8.17 4.527 7.204 4 6 4 3.544 4 2 6 2 8c0 1.83 1.41 4 4 4s3.493-2.11 3.55-2.1c.027-.01 1.797.898 1.775.898C10.826 11.595 9.31 14 6 14s-6-2.686-6-6a6 6 0 0 1 6-6c1.677 0 3.167.757 4.23 1.77L12 2v5H7l1.838-1.838z" fill="#000" fill-rule="evenodd"/></symbol><symbol viewBox="0 0 14 16" id="rocket"><path d="M5.792 5c1.164-1.366 2.35-2.594 3.13-2.984 0 0 2.031-1.01 4.062-1.016 0 0 .508 0 .762.254s.254.762.254.762c0 2.032-1.016 4.063-1.016 4.063-.39.78-1.618 1.966-2.984 3.131v3.423c0 .28-.179.631-.417.796l-2.166 1.494c-.23.16-.417.062-.417-.211V11.61c-1.015.772-1.745 1.293-1.745 1.293a.604.604 0 0 1-.745-.064l-2.348-2.348a.597.597 0 0 1-.056-.755S2.624 9.01 3.392 8H.295c-.275 0-.379-.179-.22-.417l1.448-2.166A1.05 1.05 0 0 1 2.299 5h3.493zM2 11s-1 1 0 2 2 0 2 0 0 2-2 2-2 0-2-2 2-2 2-2zm8-5a1 1 0 1 0 0-2 1 1 0 0 0 0 2z" fill="#000" fill-rule="evenodd"/></symbol><symbol viewBox="0 0 14 16" id="scale"><path d="M9.478 10.977a3.999 3.999 0 0 1-3.647 2.02 3.001 3.001 0 1 1-3.827-3.828 3.999 3.999 0 0 1 2.019-3.647 5 5 0 1 1 5.455 5.455zM3 14a2 2 0 1 0 0-4 2 2 0 0 0 0 4zm0-5a3 3 0 1 1 3 3 3 3 0 0 0-3-3zm6.899.899A4.002 4.002 0 0 0 9 2C7.1 2 5.51 3.325 5.101 5.101a4 4 0 0 1 4.797 4.797z" fill="#000" fill-rule="evenodd"/></symbol><symbol viewBox="0 0 14 16" id="search"><path d="M8.857 10.857a5.5 5.5 0 1 1 1-1L14 14l-1 1-4.143-4.143zM5.5 11a4.5 4.5 0 1 0 0-9 4.5 4.5 0 0 0 0 9z" fill="#000" fill-rule="evenodd"/></symbol><symbol viewBox="0 0 14 16" id="search-minus"><path d="M8.857 10.857a5.5 5.5 0 1 1 1-1L14 14l-1 1-4.143-4.143zM5.5 11a4.5 4.5 0 1 0 0-9 4.5 4.5 0 0 0 0 9zM3 6v1h5V6H3z" fill="#000" fill-rule="evenodd"/></symbol><symbol viewBox="0 0 14 16" id="search-plus"><path d="M8.857 10.857a5.5 5.5 0 1 1 1-1L14 14l-1 1-4.143-4.143zM5.5 11a4.5 4.5 0 1 0 0-9 4.5 4.5 0 0 0 0 9zM3 6v1h2v2h1V7h2V6H6V4H5v2H3z" fill="#000" fill-rule="evenodd"/></symbol><symbol viewBox="0 0 12 16" id="share"><path d="M3.958 8.41a2.009 2.009 0 0 0 0-.822l4.771-2.044a2 2 0 1 0-.687-1.134L3.271 6.455a2 2 0 1 0 0 3.09l4.771 2.045a2 2 0 1 0 .687-1.134L3.958 8.41z" fill="#000" fill-rule="evenodd"/></symbol><symbol viewBox="0 0 10 16" id="shield"><path d="M0 3s0-1 1-1h8c1 0 1 1 1 1v8l-5 4-5-4V3zm5 0h4.005v7.5L5 13.5V3z" fill="#000" fill-rule="evenodd"/></symbol><symbol viewBox="0 0 17 16" id="sitemap"><path d="M2 8s.007-1 1-1h5.005V5H7S6 5 6 4V1c0-1 1-1 1-1l3 .001s1 0 1 .999v3c0 1-1 1-1 1H9v2h5c1 0 1 1 1 1v2h1s1 0 1 1v3c0 1-1 1-1 1h-3s-1 0-1-1v-3c0-1 1-1 1-1h1V8H9v2h1s1 0 1 1v3c0 1-1 1-1 1H7s-1 0-1-1v-3c0-1 1-1 1-1h1.005V8H3v2h1s1 0 1 1l-.004 3c0 1-.996 1-.996 1H1s-1 0-1-1v-3c0-1 1-1 1-1h1V8z" fill="#000" fill-rule="evenodd"/></symbol><symbol viewBox="0 0 14 16" id="smile"><path d="M5 7a1 1 0 1 0 0-2 1 1 0 0 0 0 2zm5 2a3 3 0 0 1-6 0h6zM9 7a1 1 0 1 0 0-2 1 1 0 0 0 0 2zm-2 7A6 6 0 1 0 7 2a6 6 0 0 0 0 12zm0 1A7 7 0 1 1 7 1a7 7 0 0 1 0 14z" fill="#000" fill-rule="evenodd"/></symbol><symbol viewBox="0 0 14 16" id="smile-alt"><path d="M5 7a1 1 0 1 0 0-2 1 1 0 0 0 0 2zm5 2a3 3 0 0 1-6 0h1s0 2 2 2 2-2 2-2h1zM9 7a1 1 0 1 0 0-2 1 1 0 0 0 0 2zm-2 7A6 6 0 1 0 7 2a6 6 0 0 0 0 12zm0 1A7 7 0 1 1 7 1a7 7 0 0 1 0 14z" fill="#000" fill-rule="evenodd"/></symbol><symbol viewBox="0 0 8 16" id="speaker"><path d="M0 2s0-1 1-1h6c1 0 1 1 1 1v12s0 1-1 1H1c-1 0-1-1-1-1V2zm4 7a3 3 0 1 0 0-6 3 3 0 0 0 0 6zm0-1a2 2 0 1 0 0-4 2 2 0 0 0 0 4zm0 5a1 1 0 1 0 0-2 1 1 0 0 0 0 2z" fill="#000" fill-rule="evenodd"/></symbol><symbol viewBox="0 0 15 16" id="star"><path d="M7.5 12.609L2.865 15l.885-5.065L0 6.348l5.182-.74L7.5 1l2.318 4.609L15 6.348l-3.75 3.587.885 5.065z" fill="#000" fill-rule="evenodd"/></symbol><symbol viewBox="0 0 15 16" id="star-o"><path d="M7.5 12.609L2.865 15l.885-5.065L0 6.348l5.182-.74L7.5 1l2.318 4.609L15 6.348l-3.75 3.587.885 5.065L7.5 12.609zm0-1.117L4.1 13.2l.65-3.618L2 7.02l3.8-.528L7.5 3.2l1.7 3.292 3.8.528-2.75 2.562.65 3.618-3.4-1.708z" fill="#000" fill-rule="evenodd"/></symbol><symbol viewBox="0 0 10 16" id="stop"><path d="M0 3h10v10H0z" fill="#000" fill-rule="evenodd"/></symbol><symbol viewBox="0 0 12 16" id="subtract"><path d="M4 6H.997C.453 6 0 6.446 0 6.997v6.006c0 .544.446.997.997.997h6.006c.544 0 .997-.446.997-.997V10h3.003c.544 0 .997-.446.997-.997V2.997c0-.544-.446-.997-.997-.997H4.997C4.453 2 4 2.446 4 2.997V6zM1 7h6v6H1V7z" fill="#000" fill-rule="evenodd"/></symbol><symbol viewBox="0 0 12 16" id="sync"><path d="M8.29 11.29C9.103 10.682 10 9.64 10 8c0-3-3-4-3-4V2s5 1 5 6c0 2.355-1.11 3.823-2.283 4.717L11 14H7v-4l1.29 1.29zM3.71 4.71C2.897 5.318 2 6.36 2 8c0 3 3 4 3 4v2s-5-1-5-6c0-2.355 1.11-3.823 2.283-4.717L1 2h4v4L3.71 4.71z" fill="#000" fill-rule="evenodd"/></symbol><symbol viewBox="0 0 14 16" id="table"><path d="M0 3.995A1 1 0 0 1 1.007 3h11.986C13.55 3 14 3.456 14 3.995v8.01a1 1 0 0 1-1.007.995H1.007A1.008 1.008 0 0 1 0 12.005v-8.01zM1 12c0-.01 11.993-.005 11.993-.005.007 0 .007-8 .007-8C13 4.005 1.007 4 1.007 4 1 4 1 12 1 12zm1-7h3v2H2V5zm0 3h3v1H2V8zm0 2h3v1H2v-1zm4-5h6v2H6V5zm0 3h6v1H6V8zm0 2h6v1H6v-1z" fill="#000" fill-rule="evenodd"/></symbol><symbol viewBox="0 0 12 16" id="tablet"><path d="M12 1v13.995C12 16 11 16 11 16H1s-1 0-1-1V1c0-1 1-1 1-1h10s1 0 1 1zM1 14h10V2H1v12z" fill="#000" fill-rule="evenodd"/></symbol><symbol viewBox="0 0 16 16" id="tag"><path d="M10 0h5s1 0 1 1v5L6 16l-6-6L10 0zm-.414 6.414a2 2 0 1 0 2.828-2.827 2 2 0 0 0-2.828 2.827z" fill="#000" fill-rule="evenodd"/></symbol><symbol viewBox="0 0 14 16" id="terminal"><path d="M0 12V4c0-1 1-1 1-1h12s1 0 1 1v8c0 1-1 1-1 1H1s-1 0-1-1zm2-7l1-1 3 3-3 3-1-1 2-2-2-2zm3 5h5v1H5v-1z" fill="#000" fill-rule="evenodd"/></symbol><symbol viewBox="0 0 14 16" id="text-align-center"><path d="M3 13h8v2H3v-2zM0 9h14v2H0V9zm3-4h8v2H3V5zM0 1h14v2H0V1z" fill="#000" fill-rule="evenodd"/></symbol><symbol viewBox="0 0 14 16" id="text-align-left"><path d="M0 13h8v2H0v-2zm0-4h14v2H0V9zm0-4h8v2H0V5zm0-4h14v2H0V1z" fill="#000" fill-rule="evenodd"/></symbol><symbol viewBox="0 0 14 16" id="text-align-right"><path d="M6 13h8v2H6v-2zM0 9h14v2H0V9zm6-4h8v2H6V5zM0 1h14v2H0V1z" fill="#000" fill-rule="evenodd"/></symbol><symbol viewBox="0 0 16 16" id="text-size"><path d="M9.411 11.82L5.903 3H3.977L0 13h1.463a.625.625 0 0 0 .403-.131.655.655 0 0 0 .22-.29l.757-2.041h4.194l.756 2.04a.642.642 0 0 0 .63.422H9.88v-.002h.108a.468.468 0 0 0 .445-.301l.54-1.458h2.996l.54 1.458a.459.459 0 0 0 .45.301H16l-2.84-7.143h-1.376L9.41 11.821zm1.908-1.52h2.305s-1.108-3.047-1.155-3.215c-.047.168-1.15 3.216-1.15 3.216zM3.326 9.225h3.228S5.002 4.957 4.937 4.722c-.066.235-1.611 4.502-1.611 4.502z" fill="#000" fill-rule="evenodd"/></symbol><symbol viewBox="0 0 15 16" id="ticket"><path d="M14.995 10S13 10 13 8s1.995-2 1.995-2V4H0v2s2 0 2 2-2 2-2 2v2h14.995v-2zM3 11h9V5H3v6zm1-1h7V6H4v4z" fill="#000" fill-rule="evenodd"/></symbol><symbol viewBox="0 0 14 16" id="tiled"><path d="M10 8h4v4h-4V8zM5 8h4v4H5V8zM0 8h4v4H0V8zm10-5h4v4h-4V3zM5 3h4v4H5V3zM0 3h4v4H0V3z" fill="#000" fill-rule="evenodd"/></symbol><symbol viewBox="0 0 14 16" id="timeline"><path d="M5 10h7v1H5v-1zm-4 2.005C1 11.995 12.993 12 12.993 12 13 12 13 3.995 13 3.995 13 4.005 1.007 4 1.007 4 1 4 1 12.005 1 12.005zM5 8h7v1H5V8zm0-3h7v2H5V5zM2 5h2v2H2V5zM0 3.995A1 1 0 0 1 1.007 3h11.986C13.55 3 14 3.456 14 3.995v8.01a1 1 0 0 1-1.007.995H1.007A1.008 1.008 0 0 1 0 12.005v-8.01z" fill="#000" fill-rule="evenodd"/></symbol><symbol viewBox="0 0 14 16" id="tired"><path d="M7 14A6 6 0 1 0 7 2a6 6 0 0 0 0 12zm0 1A7 7 0 1 1 7 1a7 7 0 0 1 0 14zm0-2a2 2 0 1 0 0-4 2 2 0 0 0 0 4zM3 5.5l.5-.5 1 1 1-1 .5.5-1 1 1 1-.5.5-1-1-1 1-.5-.5 1-1-1-1zm5 0l.5-.5 1 1 1-1 .5.5-1 1 1 1-.5.5-1-1-1 1-.5-.5 1-1-1-1z" fill="#000" fill-rule="evenodd"/></symbol><symbol viewBox="0 0 11 16" id="trash"><path d="M1 14V5.497S1 5 1.5 5c.5 0 .5.5.5.5V14h7V5.5s0-.5.5-.5.5.5.5.5V14s0 1-1 1H2c-1 0-1-1-1-1zm2-1.5v-7s0-.5.5-.5.5.5.5.5v7s0 .5-.5.5-.5-.5-.5-.5zm2 0v-7s0-.5.5-.5.5.5.5.5v7s0 .5-.5.5-.5-.5-.5-.5zm2 0v-7s0-.5.5-.5.5.5.5.5v7s0 .5-.5.5-.5-.5-.5-.5zM7 2V.999A.996.996 0 0 0 6.001 0H4.999A.996.996 0 0 0 4 .999V2H.996A.997.997 0 0 0 0 3c0 .556.446 1 .996 1h9.008c.551 0 .996-.448.996-1 0-.556-.446-1-.996-1H7zM5 1h1v1H5V1z" fill="#000" fill-rule="evenodd"/></symbol><symbol viewBox="0 0 14 16" id="trophy"><path d="M6 9C3 9 3 6 3 6H2S0 6 0 3.5 2 1 2 1h1c0-1 1-1 1-1h6s1 0 1 1h1s2 0 2 2.5S12 6 12 6h-1s0 2.997-3 3v2s2 0 2 2H4c0-2 2-2 2-2V9zm-2 5h6c2 0 2 2 2 2H2s0-2 2-2zM1 3.5C1 2 2 2 2 2h1v3H2S1 5 1 3.5zM11 2h1s1 0 1 1.5S12 5 12 5h-1V2z" fill="#000" fill-rule="evenodd"/></symbol><symbol viewBox="0 0 10 16" id="underline"><path d="M0 1l2 .005L1.997 7c0 1.712 1.496 3 2.998 3C6.497 10 8 8.763 8 7V1h2v6c0 3-2.5 5-5 5s-5-2-5-5V1zm0 12h10v2H0v-2z" fill="#000" fill-rule="evenodd"/></symbol><symbol viewBox="0 0 12 16" id="union"><path d="M4 6H.997C.453 6 0 6.446 0 6.997v6.006c0 .544.446.997.997.997h6.006c.544 0 .997-.446.997-.997V10h3.003c.544 0 .997-.446.997-.997V2.997c0-.544-.446-.997-.997-.997H4.997C4.453 2 4 2.446 4 2.997V6zm3 3h4V3H5v4H1v6h6V9z" fill="#000" fill-rule="evenodd"/></symbol><symbol viewBox="0 0 12 16" id="unlock"><path d="M1.002 7C.456 7 0 7.446 0 7.997v6.006c0 .544.449.997 1.002.997h9.996c.546 0 1.002-.446 1.002-.997V7.997C12 7.453 11.551 7 10.998 7H4V5s-.25-2 2-2 2 2 2 2h2c-.006-4-3-4-4-4S2 1 2 5c.006 0 .006 2 .006 2H1.002zM2 9h1v4H2V9z" fill="#000" fill-rule="evenodd"/></symbol><symbol viewBox="0 0 14 16" id="upload"><path d="M5 9v6h4V9h3L7 3 2 9h3zM0 0h14v2H0V0z" fill="#000" fill-rule="evenodd"/></symbol><symbol viewBox="0 0 8 16" id="usb"><path d="M0 6v9c0 1 1 1 1 1h6s1 0 1-1V6c0-1-1-1-1-1V1c0-1-1-1-1-1H2S1 0 1 1v4S0 5 0 6zm5 0h1v5H5V6zM2 1h4v4H2V1z" fill="#000" fill-rule="evenodd"/></symbol><symbol viewBox="0 0 12 16" id="user"><path d="M6 8a3 3 0 1 0 0-6 3 3 0 0 0 0 6zm-2.998 7H12c0-3.75-2-6-6-6s-6 2.25-6 6h3.002z" fill="#000" fill-rule="evenodd"/></symbol><symbol viewBox="0 0 15 16" id="user-minus"><path d="M6 7a3 3 0 1 0 0-6 3 3 0 0 0 0 6zm-2.998 7H12c0-3.75-2-6-6-6s-6 2.25-6 6h3.002zM10 6v1h5V6h-5z" fill="#000" fill-rule="evenodd"/></symbol><symbol viewBox="0 0 15 16" id="user-plus"><path d="M6 7a3 3 0 1 0 0-6 3 3 0 0 0 0 6zm-2.998 7H12c0-3.75-2-6-6-6s-6 2.25-6 6h3.002zM13 6V4h-1v2h-2v1h2v2h1V7h2V6h-2z" fill="#000" fill-rule="evenodd"/></symbol><symbol viewBox="0 0 14 16" id="users"><path d="M6.375 11H2 0c0-2.5 1.333-4 4-4 2.067 0 3.333.901 3.798 2.471C8.387 9.163 9.12 9 10 9c2.667 0 4 1.5 4 4H8.001 6c0-.765.125-1.437.375-2zM10 8a2 2 0 1 0 0-4 2 2 0 0 0 0 4zM4 6a2 2 0 1 0 0-4 2 2 0 0 0 0 4z" fill="#000" fill-rule="evenodd"/></symbol><symbol viewBox="0 0 16 16" id="vector"><path d="M14 4v8h2v4h-4v-2H4v2H0v-4h2V4H0V0h4v2h8V0h4v4h-2zM3 4v8h1v1h8v-1h1V4h-1V3H4v1H3zm10 9h2v2h-2v-2zM1 13h2v2H1v-2zM13 1h2v2h-2V1zM1 1h2v2H1V1z" fill="#000" fill-rule="evenodd"/></symbol><symbol viewBox="0 0 14 16" id="video"><path d="M9 5.813V3.998A.997.997 0 0 0 8.002 3H.998A.997.997 0 0 0 0 3.998v7.004c0 .552.447.998.998.998h7.004A.997.997 0 0 0 9 11.002V9.187l4.129 2.323c.485.273.871.043.871-.508V3.998c0-.552-.39-.779-.871-.508L9 5.812z" fill="#000" fill-rule="evenodd"/></symbol><symbol viewBox="0 0 14 16" id="warning"><path d="M7 15A7 7 0 1 0 7 1a7 7 0 0 0 0 14zM6 3.5s0-.5.502-.5H7.5c.5 0 .5.5.5.5v6s.018.5-.5.5h-.998C6 10 6 9.5 6 9.5v-6zm0 9v-1s0-.5.5-.5h1c.5 0 .5.5.5.5v1s0 .5-.5.5h-1c-.5 0-.5-.5-.5-.5z" fill="#000" fill-rule="evenodd"/></symbol><symbol viewBox="0 0 8 16" id="watch"><path d="M6 4.535V2s0-1-1-1H3C2 1 2 2 2 2v2.535A3.998 3.998 0 0 0 0 8c0 1.48.804 2.773 2 3.465V14s0 1 1 1h2c1 0 1-1 1-1v-2.535A3.998 3.998 0 0 0 8 8c0-1.48-.804-2.773-2-3.465zm-2 6.132a2.667 2.667 0 1 0 0-5.334 2.667 2.667 0 0 0 0 5.334z" fill="#000" fill-rule="evenodd"/></symbol><symbol viewBox="0 0 8 16" id="watch-alt"><path d="M1 12s-1 0-1-1V5c0-1 1-1 1-1h1V2.004C2 1 3 1 3 1h2s1 .004 1 1.004V4h1s1 0 1 1v6c0 1-1 1-1 1H6v2c0 1-1 1-1 1H3s-1 0-1-1v-2H1zm0-7h6v6H1V5z" fill="#000" fill-rule="evenodd"/></symbol><symbol viewBox="0 0 8 16" id="wine-glass"><path d="M3 9.93C0 9.475 0 7 0 7V1c0-1 1-1 1-1h6s1 0 1 1v6s0 2.476-3 2.93V15h1.5s.5 0 .5.5-.5.5-.5.5h-5s-.497 0-.497-.5.497-.5.497-.5H3V9.93zM1 1h6v2H1V1z" fill="#000" fill-rule="evenodd"/></symbol><symbol viewBox="0 0 12 16" id="wrench"><path d="M7.672 2.056A4.11 4.11 0 0 0 3.998.001l1.808 3.132-1.154 1.915-2.227.037-1.814-3.13a4.112 4.112 0 0 0 4.1 6.224l4.255 7.37s.433.75 1.182.316l1.125-.649c.749-.432.316-1.182.316-1.182l-4.255-7.37a4.112 4.112 0 0 0 .338-4.608m2.39 12.36a.65.65 0 1 0-.65-1.124.65.65 0 0 0 .65 1.125" fill="#000" fill-rule="evenodd"/></symbol></svg>