<?xml version="1.0" encoding="UTF-8"?><svg xmlns="http://www.w3.org/2000/svg" xmlns:xlink="http://www.w3.org/1999/xlink"><symbol viewBox="0 0 12 14" id="align-bottom"><path d="M2 10h3V0H2v10zm5 0h3V4H7v6zm-7 4h12v-2H0v2z" fill="#000" fill-rule="evenodd"/></symbol><symbol viewBox="0 0 12 14" id="align-center"><path d="M1.997 7v3H5v4h2v-4h3.003V7H7V5h4.998V2H7V0H5v2H.002v3H5v2H1.997z" fill="#000" fill-rule="evenodd"/></symbol><symbol viewBox="0 0 12 14" id="align-left"><path d="M4 2h8v3H4V2zm0 5h6v3H4V7zM0 0h2v14H0V0z" fill="#000" fill-rule="evenodd"/></symbol><symbol viewBox="0 0 12 13" id="align-right"><path d="M8 2H0v3h8V2zm0 5H1.996v3H8V7zm4-7h-2v14h2V0z" fill="#000" fill-rule="evenodd"/></symbol><symbol viewBox="0 0 12 14" id="align-top"><path d="M7 4h3v10H7V4zM2 4h3v6H2V4zM0 0h12v2H0V0z" fill="#000" fill-rule="evenodd"/></symbol><symbol viewBox="0 0 12 14" id="align-vertically"><path d="M5 0H2v6H0v2h2v6h3V8h2v4h3V8h2V6h-2V2H7v4H5V0z" fill="#000" fill-rule="evenodd"/></symbol><symbol viewBox="0 0 14 14" id="angry"><path d="M7 13A6 6 0 1 0 7 1a6 6 0 0 0 0 12zm0 1A7 7 0 1 1 7 0a7 7 0 0 1 0 14zm0-5c-2.003 0-2.003 2-2.003 2H6s0-1 1-1 1 1 1 1h.997S9.003 9 7 9zm2.8-3.6A1 1 0 1 1 8 6V5l3-1v1l-1.2.4zm-5.6 0A1 1 0 1 0 6 6V5L3 4v1l1.2.4z" fill="#000" fill-rule="evenodd"/></symbol><symbol viewBox="0 0 10 10" id="app-menu"><path d="M8 8h2v2H8V8zM4 8h2v2H4V8zM0 8h2v2H0V8zm8-4h2v2H8V4zM4 4h2v2H4V4zM0 4h2v2H0V4zm8-4h2v2H8V0zM4 0h2v2H4V0zM0 0h2v2H0V0z" fill="#000" fill-rule="evenodd"/></symbol><symbol viewBox="0 0 10 7" id="arrow-down"><path d="M9 0L5 3.999 1 0 0 1l5 5 5-5z" fill="#000" fill-rule="evenodd"/></symbol><symbol viewBox="0 0 6 11" id="arrow-left"><path d="M5 0L0 4.999 5 10l1-1-4-4.001L6 1z" fill="#000" fill-rule="evenodd"/></symbol><symbol viewBox="0 0 6 11" id="arrow-right"><path d="M1 0L0 1l3.999 3.998L0 9l1 1 5-5.002z" fill="#000" fill-rule="evenodd"/></symbol><symbol viewBox="0 0 10 7" id="arrow-up"><path d="M5 0L0 5l1 1 4-4 4 4 1-1z" fill="#000" fill-rule="evenodd"/></symbol><symbol viewBox="0 0 14 14" id="artboard"><path d="M3 3h8v8H3V3zm7 9h1v2h-1v-2zM0 3h2v1H0V3zm0 7h2v1H0v-1zm12-7h2v1h-2V3zm0 7h2v1h-2v-1zm-9 2h1v2H3v-2zm7-12h1v2h-1V0zM3 0h1v2H3V0z" fill="#000" fill-rule="evenodd"/></symbol><symbol viewBox="0 0 8 14" id="audio-player"><path d="M0 1s0-1 1-1h6c1 0 1 1 1 1v12s0 1-1 1H1c-1 0-1-1-1-1V1zm4 12a3 3 0 1 0 0-6 3 3 0 0 0 0 6zm0-1a2 2 0 1 1 0-4 2 2 0 0 1 0 4zM1 1h6v5H1V1z" fill="#000" fill-rule="evenodd"/></symbol><symbol viewBox="0 0 14 10" id="backward"><path d="M7 0v10L0 5l7-5zm7 0v10L7 5l7-5z" fill="#000" fill-rule="evenodd"/></symbol><symbol viewBox="0 0 12 12" id="bar"><path d="M1 10h10s1 0 1 1-1 1-1 1H1s-1 0-1-1 1-1 1-1zm0-5h10s1 0 1 1-1 1-1 1H1S0 7 0 6s1-1 1-1zm0-5h10s1 0 1 1-1 1-1 1H1S0 2 0 1s1-1 1-1z" fill="#000" fill-rule="evenodd"/></symbol><symbol viewBox="0 0 16 16" id="bar-chart"><path d="M0 6h1v8h15v1H0V6zm3-3h2v9H3V3zm3-2h2v11H6V1zm3 3h2v8H9V4zm3 2h2v6h-2V6z" fill="#000" fill-rule="evenodd"/></symbol><symbol viewBox="0 0 13 16" id="beer"><path d="M.996 14L1 4.732a2 2 0 0 1 1.258-3.715A2 2 0 0 1 5.174.38 2.496 2.496 0 0 1 8.5 1 2.5 2.5 0 0 1 10 5.5V6h1c2 0 2 2 2 2v2.997S13 13 11 13h-1l.004 1S11 14 11 15s-1 1-1 1H1s-1 0-1-1 .996-1 .996-1zM3 7v6h1V7H3zm2 0v6h1V7H5zm2 0v6h1V7H7zM2.886 3.819S3.25 5 4.5 5s2-1 2-1 .5 1 2 1A1.5 1.5 0 0 0 10 3.5C10 2.672 9.25 2 8 2c0 0-.5-1-1.5-1s-1.367.586-1.367.586S4.75 1 4 1C3 1 2.7 2 2.7 2S1 1.586 1 3c0 1.6 1.886.819 1.886.819z" fill="#000" fill-rule="evenodd"/></symbol><symbol viewBox="0 0 12 14" id="bell"><path d="M0 11a1 1 0 0 0 1 1h3a2 2 0 1 0 4 0h3a1 1 0 0 0 0-2s0-5.768-3.06-7.508a2 2 0 1 0-3.878 0C.999 4.232.999 10 .999 10a1 1 0 0 0-1 1z" fill="#000" fill-rule="evenodd"/></symbol><symbol viewBox="0 0 16 16" id="birthday-cake"><path d="M16 13.001V14c0 2-2 2-2 2H2s-2 0-2-2v-.999C1.022 13.001 1 12 2 12s1 1.001 2 1.001S5 12 6 12s1 1 2 1.001C9 13 9 12 10 12s1 1.001 2 1.001S13 12 14 12s.98 1.001 2 1.001zM7 7V4.5c0-.5.5-.5.5-.5h1s.5 0 .5.5V7h2V4.5c0-.5.5-.5.5-.5h1s.5 0 .5.5V7c3 0 3 3 3 3v1c-1 0-1-1-2-1s-1 1-2 1-1-1-2-1-1 1-2 1-1-1-2-1-1 1-2 1-1-1-2-1-1 1-2 1v-1s0-3 3-3V4.5c0-.5.5-.5.5-.5h1s.5 0 .5.5V7h2zm5-4c-.552 0-1-.672-1-1.5.5-.5 1-.503 1-1.5.552 0 1 .672 1 1.5S12.552 3 12 3zM8 3c-.552 0-1-.672-1-1.5C7.5 1 8 .997 8 0c.552 0 1 .672 1 1.5S8.552 3 8 3zM4 3c-.552 0-1-.672-1-1.5C3.5 1 4 .997 4 0c.552 0 1 .672 1 1.5S4.552 3 4 3z" fill="#000" fill-rule="evenodd"/></symbol><symbol viewBox="0 0 10 14" id="bold"><path d="M1 14s-1 0-1-1V1c0-1 .957-1 .957-1h3.698c.883 0 1.637.087 2.262.261.625.175 1.138.423 1.54.746.4.323.694.713.88 1.171.187.459.28.975.28 1.55 0 .329-.046.643-.14.944-.093.3-.237.58-.433.842a3.3 3.3 0 0 1-.746.711c-.302.213-.661.394-1.078.543C9.073 7.2 10 8.239 10 9.885c0 .594-.109 1.143-.326 1.646a3.62 3.62 0 0 1-.952 1.302c-.417.365-.93.65-1.54.857-.609.207-1.305.31-2.089.31H1zm1.51-6.138v4.105h2.546c.466 0 .857-.058 1.17-.174.315-.117.567-.272.756-.465.19-.194.327-.42.41-.678.085-.258.127-.532.127-.823a2.26 2.26 0 0 0-.14-.818 1.532 1.532 0 0 0-.439-.62 2.022 2.022 0 0 0-.765-.392 4.086 4.086 0 0 0-1.128-.135H2.509zm0-1.801h2.005c.852 0 1.499-.162 1.94-.484.442-.323.663-.836.663-1.54 0-.729-.2-1.249-.597-1.558-.398-.31-1.02-.465-1.866-.465H2.509V6.06z" fill="#000" fill-rule="evenodd"/></symbol><symbol viewBox="0 0 14 10" id="book"><path d="M13 9c1 0 1-1 1-1V1s0-1-1-1H8L7 1 6 0H1C0 0 0 1 0 1v7s0 1 1 1h5c0 .483.5 1 1 1s1-.517 1-1h5zM9 2h3v1H9V2zm0 2h3v1H9V4zm0 2h3v1H9V6zM2 2h3v1H2V2zm0 2h3v1H2V4zm0 2h3v1H2V6zM1 1h4l1 1v6H1V1zm7 1l1-1h4v6.99H8V2z" fill="#000" fill-rule="evenodd"/></symbol><symbol viewBox="0 0 8 14" id="bookmark"><path d="M0 1s0-1 1-1h6c1 0 1 1 1 1v13l-4-3-4 3V1zm5 1h1v2H5V2zm0 3h1v2H5V5z" fill="#000" fill-rule="evenodd"/></symbol><symbol viewBox="0 0 16 11" id="browser"><path d="M0 1c0-1 1-1 1-1h14s1 0 1 1.003V10c0 1-1 1-1 1H1s-1 0-1-1V1zm1 2v7h14V3H1zm4-2v1h10V1H5zM1 1v1h1V1H1zm2 0v1h1V1H3z" fill="#000" fill-rule="evenodd"/></symbol><symbol viewBox="0 0 12 16" id="brush"><path d="M5.252 6.892s2.964-4.157 4.91-6.553c.505-.882 2.252.137 1.748 1.02C10.833 4.262 8.747 8.93 8.747 8.93s-.504.883-1.378.373L5.621 8.284c-.873-.51-.369-1.392-.369-1.392m-3.476 8.665c1.659.968 4.032.287 5.007-1.42.976-1.707.536-3.587-.865-4.403-.812-.474-2.176-.667-3.035.076-.6.51-.818 1.431-.705 2.146.34 1.684-.175 2.298-.91 2.25-.238.018-.433-.11-1.268-.433.261.622.582 1.088 1.776 1.784" fill="#000" fill-rule="evenodd"/></symbol><symbol viewBox="0 0 14 14" id="bug"><path d="M5 2.278C3 3.248 3 5.6 3 5.6h8s0-2.352-2-3.322V0H8v1.955a5.41 5.41 0 0 0-1-.088 5.41 5.41 0 0 0-1 .088V0H5v2.278zm6.153 9.777C10.562 13.166 9.339 14 7 14c-2.341 0-3.564-.835-4.154-1.947l-2.504.85L0 12.026l2.513-.854a5.166 5.166 0 0 1-.138-.905H0v-.934h2.378c.018-.261.049-.516.086-.759L0 7.737l.342-.877 2.312.785C2.822 6.975 3 6.533 3 6.533h8s.177.441.345 1.11l2.314-.787.342.877-2.466.838c.038.244.069.5.087.762H14v.934h-2.375c-.02.305-.064.611-.139.908l2.504.851-.342.877-2.495-.848z" fill="#000" fill-rule="evenodd"/></symbol><symbol viewBox="0 0 11 16" id="building"><path d="M0 15V1.001C0 0 1 0 1 0h9s1 0 1 1v14c0 1-1 1-1 1H1s-1 0-1-1zm4-3v3h3v-3H4zm-2-2v1h1v-1H2zm6 0v1h1v-1H8zM2 8v1h1V8H2zm2 0v1h1V8H4zm2 0v1h1V8H6zm2 0v1h1V8H8zM2 6v1h1V6H2zm2 0v1h1V6H4zm2 0v1h1V6H6zm2 0v1h1V6H8zM2 4v1h1V4H2zm2 0v1h1V4H4zm2 0v1h1V4H6zm2 0v1h1V4H8zM2 2v1h1V2H2zm2 0v1h1V2H4zm2 0v1h1V2H6zm2 0v1h1V2H8z" fill="#000" fill-rule="evenodd"/></symbol><symbol viewBox="0 0 14 14" id="calendar"><path d="M14 3v10s0 1-1 1H1c-1 0-1-1-1-1V3s0-1 1-1h2V1s.069-1 1-1h1c.933 0 1 1 1 1v1h2V1s0-1 1-1h.998C11 0 11 1 11 1v1h2c1 0 1 1 1 1zM1 4h12v9H1V4zm2 2v2h2V6H3zm3 0v2h2V6H6zm3 0v2h2V6H9zM3 9v2h2V9H3zm3 0v2h2V9H6zm3 0v2h2V9H9zm0-8h1v2H9V1zM4 1h1v2H4V1z" fill="#000" fill-rule="evenodd"/></symbol><symbol viewBox="0 0 15 12" id="camera"><path d="M13 1c2 0 2 1.941 2 2v7s0 2-2 2H2c-2 0-2-2-2-2V2.964S0 1 2 1h6S8-.002 9-.002h2s1 0 1 1.002h1zm-2 1v1h2V2h-2zm-3.5 8a3.5 3.5 0 1 0 0-7 3.5 3.5 0 0 0 0 7zm0-1a2.5 2.5 0 1 1 0-5 2.5 2.5 0 0 1 0 5z" fill="#000" fill-rule="evenodd"/></symbol><symbol viewBox="0 0 8 6" id="check"><path d="M1 2L0 3l3 3 5-5-1-1-4 4z" fill="#000" fill-rule="evenodd"/></symbol><symbol viewBox="0 0 14 14" id="check-circle"><path d="M7 14A7 7 0 1 1 7 0a7 7 0 0 1 0 14zM4 6L3 7l3 3 5-5-1-1-4 4-2-2z" fill="#000" fill-rule="evenodd"/></symbol><symbol viewBox="0 0 14 14" id="check-circle-o"><path d="M7 14A7 7 0 1 0 7 0a7 7 0 0 0 0 14zm0-1A6 6 0 1 0 7 1a6 6 0 0 0 0 12zM4 6L3 7l3 3 5-5-1-1-4 4-2-2z" fill="#000" fill-rule="evenodd"/></symbol><symbol viewBox="0 0 14 14" id="check-verified"><path d="M0 7a2 2 0 0 1 1.298-1.873c.097-.296.217-.581.357-.855a2 2 0 0 1 2.618-2.618c.273-.14.558-.259.854-.356a2 2 0 0 1 3.746 0c.296.097.581.217.855.357a2 2 0 0 1 2.618 2.618c.14.273.259.558.356.854a2 2 0 0 1 0 3.746 5.963 5.963 0 0 1-.357.855 2 2 0 0 1-2.618 2.618c-.273.14-.558.259-.854.356a2 2 0 0 1-3.746 0 5.963 5.963 0 0 1-.855-.357 2 2 0 0 1-2.618-2.618 5.963 5.963 0 0 1-.356-.854A2 2 0 0 1 0 7zm4-1L3 7l3 3 5-5-1-1-4 4-2-2z" fill="#000" fill-rule="evenodd"/></symbol><symbol viewBox="0 0 14 14" id="clock"><path d="M7 14A7 7 0 1 0 7 0a7 7 0 0 0 0 14zm6-7A6 6 0 1 1 1 7a6 6 0 0 1 12 0zM6.933 8.6h2.8s.934 0 .934-.933c0-.934-.934-.934-.934-.934H7.867v-2.8S7.867 3 6.933 3C6 3 6 3.933 6 3.933v3.734s0 .933.933.933z" fill="#000" fill-rule="evenodd"/></symbol><symbol viewBox="0 0 10 10" id="close"><path d="M6.343 5l3.358-3.358s.672-.672 0-1.343c-.671-.672-1.343 0-1.343 0L5 3.657 1.642.299S.97-.373.299.299c-.672.671 0 1.343 0 1.343L3.657 5 .299 8.358s-.672.672 0 1.343c.671.672 1.343 0 1.343 0L5 6.343l3.358 3.358s.672.672 1.343 0c.672-.671 0-1.343 0-1.343L6.343 5z" fill="#000" fill-rule="evenodd"/></symbol><symbol viewBox="0 0 14 10" id="cloud"><path d="M11 10H2.5A2.5 2.5 0 0 1 2 5.05V5a3 3 0 0 1 4.105-2.79 3.001 3.001 0 1 1 5.685 1.895A3.001 3.001 0 0 1 11 10z" fill="#000" fill-rule="evenodd"/></symbol><symbol viewBox="0 0 12 13" id="cocktail"><path d="M5 7L0 2V.5S0 0 .5 0h11c.5 0 .5.5.5.5V2L7 7v5h2.5s.5 0 .5.5-.5.5-.5.5h-7s-.5 0-.5-.5.497-.5.5-.5H5V7zM3 3h6l2-2H1l2 2z" fill="#000" fill-rule="evenodd"/></symbol><symbol viewBox="0 0 14 8" id="code"><path d="M5 6.966L4 8 0 4l4-4 1 1-3 3 3 2.966zM9 7l3-3-3-3 1-1 4 4-4 4-1-1z" fill="#000" fill-rule="evenodd"/></symbol><symbol viewBox="0 0 14 9" id="coffee"><path d="M11 1v1h1s1 0 1 1.5S12 5 12 5h-1a2.003 2.003 0 0 1-1.997 2H3.997A1.994 1.994 0 0 1 2 4.994V1s0-1 1-1h7c1 0 1 1 1 1zM0 8.5C0 8 .5 8 .5 8h13s.5 0 .5.5-.5.5-.5.5H.5S0 9 0 8.5z" fill="#000" fill-rule="evenodd"/></symbol><symbol viewBox="0 0 14 9" id="columns"><path d="M10 0h4v9h-4V0zM5 0h4v9H5V0zM0 0h4v9H0V0z" fill="#000" fill-rule="evenodd"/></symbol><symbol viewBox="0 0 14 14" id="comment"><path d="M2 11.05C.763 9.876 0 8.27 0 6.5 0 2.91 3.134 0 7 0s7 2.91 7 6.5S10.866 13 7 13a7.403 7.403 0 0 1-3.256-.744L2 14v-2.95z" fill="#000" fill-rule="evenodd"/></symbol><symbol viewBox="0 0 14 14" id="comment-o"><path d="M2 11.05C.763 9.876 0 8.27 0 6.5 0 2.91 3.134 0 7 0s7 2.91 7 6.5S10.866 13 7 13a7.403 7.403 0 0 1-3.256-.744L2 14v-2.95zM7 12c3.314 0 6-2.462 6-5.5S10.314 1 7 1 1 3.462 1 6.5 3.686 12 7 12z" fill="#000" fill-rule="evenodd"/></symbol><symbol viewBox="0 0 14 14" id="commenting"><path d="M2 11.05C.763 9.876 0 8.27 0 6.5 0 2.91 3.134 0 7 0s7 2.91 7 6.5S10.866 13 7 13a7.403 7.403 0 0 1-3.256-.744L2 14v-2.95zM4 7.5a1 1 0 1 0 0-2 1 1 0 0 0 0 2zm3 0a1 1 0 1 0 0-2 1 1 0 0 0 0 2zm3 0a1 1 0 1 0 0-2 1 1 0 0 0 0 2z" fill="#000" fill-rule="evenodd"/></symbol><symbol viewBox="0 0 14 12" id="comments"><path d="M4.048 4C4.384 1.74 6.473 0 9 0c2.761 0 5 2.079 5 4.643 0 1.265-.545 2.412-1.429 3.25V10l-1.246-1.246a5.37 5.37 0 0 1-3.625.373c-.598 1.35-2.03 2.302-3.7 2.302a4.23 4.23 0 0 1-1.86-.426L1.143 12v-1.686C.436 9.644 0 8.726 0 7.714 0 5.663 1.79 4 4 4h.048zM1 7.786C1 6.244 2.343 5 4 5s3 1.247 3 2.786c0 1.538-1.343 2.785-3 2.785S1 9.328 1 7.786z" fill="#000" fill-rule="evenodd"/></symbol><symbol viewBox="0 0 14 14" id="compress"><path d="M13 7H7V1l2 2 3-3 2 2-3 3 2 2zM1 7h6v6l-2-2-3 3-2-2 3-3-2-2z" fill="#000" fill-rule="evenodd"/></symbol><symbol viewBox="0 0 14 14" id="crop"><path d="M12 10h2v2h-2v2h-2v-2H3c-1 0-1-1-1-1V4H0V2h2V0h2v2h7l1-1 1 1-1 1v7zM4 4h5L4 9V4zm6 6H5l5-5v5z" fill="#000" fill-rule="evenodd"/></symbol><symbol viewBox="0 0 14 14" id="cry"><path d="M7 13A6 6 0 1 0 7 1a6 6 0 0 0 0 12zm0 1A7 7 0 1 1 7 0a7 7 0 0 1 0 14zm2-3a2 2 0 1 0-4 0h1s0-1 1-1 1 1 1 1h1zm1-1s-1 .015-1-1c0-1.003 1-2 1-2s1 .985 1 2c0 1-1 1-1 1zM9 7a1 1 0 1 0 0-2 1 1 0 0 0 0 2zM5 7a1 1 0 1 0 0-2 1 1 0 0 0 0 2z" fill="#000" fill-rule="evenodd"/></symbol><symbol viewBox="0 0 10 14" id="cutlery"><path d="M9.997 1L10 8v5s0 1-1.5 1S7 13 7 13V9H6s0-9 3-9c.997 0 .997 1 .997 1zM4 3V0h1v6s0 1-1 1v6s0 1-.996 1H2c-.91 0-1-1-1-1V7C0 7 0 6 0 6V0h1v3h1V0h1v3h1z" fill="#000" fill-rule="evenodd"/></symbol><symbol viewBox="0 0 14 6" id="delete-link"><path d="M11 0a3 3 0 0 1 0 6H8V0h3zm0 5a2 2 0 1 0 0-4H8v4h3zM3 0h3v6H3a3 3 0 1 1 0-6zm0 5h3V1H3a2 2 0 1 0 0 4zm6-1a1 1 0 1 0 0-2H8v2h1zM5 4a1 1 0 1 1 0-2h1v2H5z" fill="#000" fill-rule="evenodd"/></symbol><symbol viewBox="0 0 14 12" id="desktop"><path d="M5.998 11v-.999H1S0 10 0 9V1c0-1 1-1 1-1h12s1 0 1 1v8c0 1.001-1 1.001-1 1.001H8V11h2s0 1-1 1H5c-1 0-1-1-1-1h1.998zM1 1v8h12V1H1z" fill="#000" fill-rule="evenodd"/></symbol><symbol viewBox="0 0 16 13" id="diamond"><path d="M9 12.57c-1 .967-2 0-2 0L0 5l3-5h10l3 5-7 7.57zM4 5H2l5.001 6L4 5zm7 0H5l3 6 3-6zm1 0l-3 6 5-6h-2zm-2-4l2 3h1.998L12 1h-2zM9 1H7L5 4h6L9 1zM6 1H4L2 4h2l2-3z" fill="#000" fill-rule="evenodd"/></symbol><symbol viewBox="0 0 12 12" id="difference"><path d="M4 4H.997C.453 4 0 4.446 0 4.997v6.006c0 .544.446.997.997.997h6.006c.544 0 .997-.446.997-.997V8h3.003c.544 0 .997-.446.997-.997V.997C12 .453 11.554 0 11.003 0H4.997C4.453 0 4 .446 4 .997V4zM1 5h3v2.003C4 7.45 4.45 8 5 8h2v3H1V5zm10 2H8V4.997C8 4.45 7.45 4 7 4H5V1h6v6z" fill="#000" fill-rule="evenodd"/></symbol><symbol viewBox="0 0 16 16" id="disabled"><defs><path d="M2.343 2.342A7.981 7.981 0 0 0 0 7.942v.115a7.977 7.977 0 0 0 2.343 5.599 7.977 7.977 0 0 0 5.599 2.343h.115a7.981 7.981 0 0 0 5.6-2.343 7.974 7.974 0 0 0 2.342-5.6v-.113a7.976 7.976 0 0 0-2.342-5.601A7.981 7.981 0 0 0 7.999 0a7.975 7.975 0 0 0-5.656 2.342zm1.415 1.414c2.134-2.136 5.443-2.37 7.777-.706L3.05 11.535c-1.664-2.333-1.429-5.642.708-7.779zm.706 9.193l8.485-8.485c1.664 2.334 1.43 5.643-.706 7.777a6.116 6.116 0 0 1-4.332 1.801 5.925 5.925 0 0 1-3.447-1.093z" id="caa"/></defs><use fill="#000" xlink:href="#caa" fill-rule="evenodd"/></symbol><symbol viewBox="0 0 14 14" id="disappointed"><path d="M7 13A6 6 0 1 0 7 1a6 6 0 0 0 0 12zm0 1A7 7 0 1 1 7 0a7 7 0 0 1 0 14zm0-5c-2.003 0-2.003 2-2.003 2H6s0-1 1-1 1 1 1 1h.997S9.003 9 7 9zm2.935-3.355a1 1 0 1 1-1.47-.49L8 5V4l3 1v1l-1.065-.355zm-4.4-.49a1 1 0 1 1-1.47.49L3 6V5l3-1v1l-.465.155z" fill="#000" fill-rule="evenodd"/></symbol><symbol viewBox="0 0 10 14" id="distribute-horizontally"><path d="M9 0h1v14H9V0zM3 2h4v10H3V2zM0 0h1v14H0V0z" fill="#000" fill-rule="evenodd"/></symbol><symbol viewBox="0 0 14 10" id="distribute-vertically"><path d="M0 9h14v1H0V9zm2-6h10v4H2V3zM0 0h14v1H0V0z" fill="#000" fill-rule="evenodd"/></symbol><symbol viewBox="0 0 10 14" id="document"><path d="M1 12.993C1 13 9.005 13 9.005 13 8.997 13 9 4 9 4H6V1H.995C1.005 1 1 12.993 1 12.993zM0 1.007C0 .45.456 0 .995 0H7.5L10 2.5v10.493C10 13.55 9.544 14 9.005 14H.995A1 1 0 0 1 0 12.993V1.007zM2 10h6v1H2v-1zm0-2h6v1H2V8zm0-2h6v1H2V6zm5-5l2 2H7V1z" fill="#000" fill-rule="evenodd"/></symbol><symbol viewBox="0 0 14 14" id="download"><path d="M9 6h3l-5 5-5-5h3V0h4v6zm-9 6h14v2H0v-2z" fill="#000" fill-rule="evenodd"/></symbol><symbol viewBox="0 0 10 6" id="drop-down"><path d="M0 0l5 5 5-5z" fill="#000" fill-rule="evenodd"/></symbol><symbol viewBox="0 0 5 11" id="drop-left"><path d="M5 0L0 5l5 5z" fill="#000" fill-rule="evenodd"/></symbol><symbol viewBox="0 0 5 11" id="drop-right"><path d="M0 0v10l5-5z" fill="#000" fill-rule="evenodd"/></symbol><symbol viewBox="0 0 10 6" id="drop-up"><path d="M5 0l5 5H0z" fill="#000" fill-rule="evenodd"/></symbol><symbol viewBox="0 0 12 12" id="edit"><path d="M11 0v1.004H1V11h10v1H1c-1 0-1-1-1-1V1s0-1 1-1h10zm-1 2l1.997 2L8 8 6 6l4-4zM5 7l2 2H5V7z" fill-rule="nonzero" fill="#000"/></symbol><symbol viewBox="0 0 10 11" id="eject"><path d="M5 0l5 7H0l5-7zM0 9h10v2H0V9z" fill="#000" fill-rule="evenodd"/></symbol><symbol viewBox="0 0 13 3" id="elipsis-h"><path d="M11.5 3a1.5 1.5 0 1 1 0-3 1.5 1.5 0 0 1 0 3zm-5 0a1.5 1.5 0 1 1 0-3 1.5 1.5 0 0 1 0 3zm-5 0a1.5 1.5 0 1 1 0-3 1.5 1.5 0 0 1 0 3z" fill="#000" fill-rule="evenodd"/></symbol><symbol viewBox="0 0 3 13" id="elipsis-v"><path d="M1.5 13a1.5 1.5 0 1 1 0-3 1.5 1.5 0 0 1 0 3zm0-5a1.5 1.5 0 1 1 0-3 1.5 1.5 0 0 1 0 3zm0-5a1.5 1.5 0 1 1 0-3 1.5 1.5 0 0 1 0 3z" fill="#000" fill-rule="evenodd"/></symbol><symbol viewBox="0 0 14 14" id="equalizer"><path d="M1.002 9H3s1 0 1 1c0 1.001-1 1-1 1H1.002S0 11 0 10s1.002-1 1.002-1zm5-5H8s1 0 1 1c0 1.001-1 1-1 1H6.002S5 6 5 5s1.002-1 1.002-1zm5 3H13s1 0 1 1c0 1.001-1 1-1 1h-1.998S10 9 10 8s1.002-1 1.002-1zM11 10h2v4h-2v-4zm0-10h2v6h-2V0zM6 7h2v7H6V7zm0-7h2v3H6V0zM1 12h2v2H1v-2zM1 0h2v8H1V0z" fill="#000" fill-rule="evenodd"/></symbol><symbol viewBox="0 0 10 14" id="eraser"><path d="M9 10v3c0 .552-.453 1-.997 1H1.997A.996.996 0 0 1 1 13v-3H.995C.445 10 0 9.544 0 9.005V.995C0 .445.456 0 .995 0h8.01c.55 0 .995.456.995.995v8.01c0 .55-.456.995-.995.995H9zm-7 0v3h6v-3H2z" fill="#000" fill-rule="evenodd"/></symbol><symbol viewBox="0 0 14 14" id="expand"><path d="M8 0h6v6l-2-2-3 3-2-2 3-3-2-2zM6 14H0V8l2 2 3-3 2 2-3 3 2 2z" fill="#000" fill-rule="evenodd"/></symbol><symbol viewBox="0 0 10 14" id="export"><path d="M0 5h3v1H1v7h8V6H7V5h3v9H0V5zm5.5 7h-1V3H3l2-3 2 3H5.5v9z" fill="#000" fill-rule="evenodd"/></symbol><symbol viewBox="0 0 14 12" id="eye"><path d="M7 12c3.866 0 7-4 7-6s-3.134-6-7-6-7 4-7 6 3.134 6 7 6zm0-2a4 4 0 1 0 0-8 4 4 0 0 0 0 8zm0-2a2 2 0 1 0 0-4 2 2 0 0 0 0 4z" fill="#000" fill-rule="evenodd"/></symbol><symbol viewBox="0 0 16 10" id="fast-backward"><path d="M16 0v10L9 5l7-5zM9 0v10L2 5l7-5zM0 0h2v10H0V0z" fill="#000" fill-rule="evenodd"/></symbol><symbol viewBox="0 0 16 10" id="fast-forward"><path d="M0 0l7 5-7 5V0zm7 0l7 5-7 5V0zm7 0h2v10h-2V0z" fill="#000" fill-rule="evenodd"/></symbol><symbol viewBox="0 0 12 14" id="feather"><path d="M0 14l1.714-3.5c0-2.625.857-4.375 2.572-4.375C4.226 6.125 5.109 0 12 0c0 .875-1.714 7-5.143 7-.007 0 0 3.5-3.428 3.5L.857 14H0z" fill="#000" fill-rule="evenodd"/></symbol><symbol viewBox="0 0 14 14" id="feed"><path d="M14 14h-2.038C12 7.618 6.382 2 0 2.038V0c7.732 0 14 6.268 14 14zm-4 0H7.945C8 9.828 4.172 6 0 6.055V4c5.523 0 10 4.477 10 10zm-8 0a2 2 0 1 1 0-4 2 2 0 0 1 0 4z" fill="#000" fill-rule="evenodd"/></symbol><symbol viewBox="0 0 10 14" id="file"><path d="M1 12.993C1 13 9.005 13 9.005 13 8.997 13 9 4 9 4H6V1H.995C1.005 1 1 12.993 1 12.993zM0 1.007C0 .45.456 0 .995 0H7.5L10 2.5v10.493C10 13.55 9.544 14 9.005 14H.995A1 1 0 0 1 0 12.993V1.007zM7 1l2 2H7V1z" fill="#000" fill-rule="evenodd"/></symbol><symbol viewBox="0 0 10 14" id="file-audio"><path d="M1 12.993C1 13 9.005 13 9.005 13 8.997 13 9 4 9 4H6V1H.995C1.005 1 1 12.993 1 12.993zM0 1.007C0 .45.456 0 .995 0H7.5L10 2.5v10.493C10 13.55 9.544 14 9.005 14H.995A1 1 0 0 1 0 12.993V1.007zM7 1l2 2H7V1zM4 7h3v2a1 1 0 1 0 1 1V7s0-1-.996-1H4C3 6 3 7 3 7v3a1 1 0 1 0 1 1V7z" fill="#000" fill-rule="evenodd"/></symbol><symbol viewBox="0 0 10 14" id="file-excel"><path d="M1 12.993C1 13 9.005 13 9.005 13 8.997 13 9 4 9 4H6V1H.995C1.005 1 1 12.993 1 12.993zM0 1.007C0 .45.456 0 .995 0H7.5L10 2.5v10.493C10 13.55 9.544 14 9.005 14H.995A1 1 0 0 1 0 12.993V1.007zM7 1l2 2H7V1zM2 7h2l1 1.5L6 7h2L7 9l1 2H6L5 9.5 4 11H2l.99-2L2 7z" fill="#000" fill-rule="evenodd"/></symbol><symbol viewBox="0 0 10 14" id="file-image"><path d="M1 12.993C1 13 9.005 13 9.005 13 8.997 13 9 4 9 4H6V1H.995C1.005 1 1 12.993 1 12.993zM0 1.007C0 .45.456 0 .995 0H7.5L10 2.5v10.493C10 13.55 9.544 14 9.005 14H.995A1 1 0 0 1 0 12.993V1.007zM7 1l2 2H7V1zm-5 9l2-2 2 2 1-1 1 1v2H2v-2zm5-2a1 1 0 1 0 0-2 1 1 0 0 0 0 2z" fill="#000" fill-rule="evenodd"/></symbol><symbol viewBox="0 0 10 14" id="file-movie"><path d="M0 1.007C0 .45.456 0 .995 0H7.5L10 2.5v10.493C10 13.55 9.544 14 9.005 14H.995A1 1 0 0 1 0 12.993V1.007zm1 11.986C1 13 9.005 13 9.005 13 8.997 13 9 4 9 4H6V1H.995C1.005 1 1 12.993 1 12.993zM2 8.5s0-.5.5-.5h3c.5 0 .5.5.5.5v2s0 .5-.5.5h-3c-.5 0-.5-.5-.5-.5v-2zM8 8v3L6 9.5 8 8zM7 1l2 2H7V1z" fill="#000" fill-rule="evenodd"/></symbol><symbol viewBox="0 0 10 14" id="file-powerpoint"><path d="M1 12.993C1 13 9.005 13 9.005 13 8.997 13 9 4 9 4H6V1H.995C1.005 1 1 12.993 1 12.993zM0 1.007C0 .45.456 0 .995 0H7.5L10 2.5v10.493C10 13.55 9.544 14 9.005 14H.995A1 1 0 0 1 0 12.993V1.007zM7 1l2 2H7V1zM4 8h1.5s.5 0 .5.5-.5.5-.5.5H4V8zm1.667-1H3v4h1v-1h1.667S7 10 7 8.5 5.667 7 5.667 7z" fill="#000" fill-rule="evenodd"/></symbol><symbol viewBox="0 0 10 14" id="file-word"><path d="M1 12.993C1 13 9.005 13 9.005 13 8.997 13 9 4 9 4H6V1H.995C1.005 1 1 12.993 1 12.993zM0 1.007C0 .45.456 0 .995 0H7.5L10 2.5v10.493C10 13.55 9.544 14 9.005 14H.995A1 1 0 0 1 0 12.993V1.007zM7 1l2 2H7V1zM2 7h1.5L4 9l.5-2h1L6 9l.5-2H8l-1 4H5.5L5 9l-.5 2H3L2 7z" fill="#000" fill-rule="evenodd"/></symbol><symbol viewBox="0 0 10 14" id="file-zip"><path d="M0 1.007C0 .45.456 0 .995 0H7.5L10 2.5v10.493C10 13.55 9.544 14 9.005 14H.995A1 1 0 0 1 0 12.993V1.007zm1 11.986C1 13 9.005 13 9.005 13 8.997 13 9 4 9 4H6V1H.995C1.005 1 1 12.993 1 12.993zM7 1l2 2H7V1zM4 1h1v1H4V1zM3 2h1v1H3V2zm1 1h1v1H4V3zM3 4h1v1H3V4zm1 1h1v1H4V5zM3 6h1v1H3V6zm0 2l1-1 1 1v3H3V8z" fill="#000" fill-rule="evenodd"/></symbol><symbol viewBox="0 0 10 14" id="filter"><path d="M6 14l-2-2V7L0 3V1s0-1 1-1h8c1 0 1 1 1 1v2L6 7v7z" fill="#000" fill-rule="evenodd"/></symbol><symbol viewBox="0 0 15 16" id="flag"><path d="M2 2.915V16H1V2.915a1.5 1.5 0 1 1 1 0zM3 8V3c0-1.004 4-2 6 0 1.54 1.54 6-2 6 0v6c0 1-4.41 1.59-6 0-1.469-1.469-6 1-6-1z" fill="#000" fill-rule="evenodd"/></symbol><symbol viewBox="0 0 14 12" id="folder"><path d="M1 12h12c1 0 1-1 1-1V3s0-1-1-1H7V1c0-1-1-1-1-1H3S2 0 2 1v1H1C0 2 0 3 0 3v8s0 1 1 1z" fill="#000" fill-rule="evenodd"/></symbol><symbol viewBox="0 0 14 12" id="folder-open"><path d="M1 12h12l1-7H5L4 9V4h9V3c0-1-1-1-1-1H7V1c0-1-1-1-1-1H3S2 0 2 1v1H1S0 2 0 3v8c0 1 1 1 1 1z" fill="#000" fill-rule="evenodd"/></symbol><symbol viewBox="0 0 10 14" id="fork"><path d="M6.502 5.325a2 2 0 1 1 1.964.62C7.804 7.386 6.32 9 3 9v1.268a2 2 0 1 1-2 0V3.732a2 2 0 1 1 2 0V7c2.034 0 3.022-.845 3.502-1.675zM2 3a1 1 0 1 0 0-2 1 1 0 0 0 0 2zm0 10a1 1 0 1 0 0-2 1 1 0 0 0 0 2zm6-8a1 1 0 1 0 0-2 1 1 0 0 0 0 2z" fill="#000" fill-rule="evenodd"/></symbol><symbol viewBox="0 0 14 10" id="forward"><path d="M0 0l7 5-7 5V0zm7 0l7 5-7 5V0z" fill="#000" fill-rule="evenodd"/></symbol><symbol viewBox="0 0 14 14" id="frowing"><path d="M7 13A6 6 0 1 0 7 1a6 6 0 0 0 0 12zm0 1A7 7 0 1 1 7 0a7 7 0 0 1 0 14zm0-5c-2.003 0-2.003 2-2.003 2H6s0-1 1-1 1 1 1 1h.997S9.003 9 7 9zm2-1a1 1 0 1 1 0-2 1 1 0 0 1 0 2zM5 8a1 1 0 1 1 0-2 1 1 0 0 1 0 2z" fill="#000" fill-rule="evenodd"/></symbol><symbol viewBox="0 0 16 7" id="gamepad"><path d="M3.5 7A3.5 3.5 0 0 1 3 .035h10A3.5 3.5 0 1 1 10.05 6h-4.1c-.632.619-1.496 1-2.45 1zM11 3a1 1 0 1 0 0-2 1 1 0 0 0 0 2zm2 2a1 1 0 1 0 0-2 1 1 0 0 0 0 2zM4.667 2.333V1H3.333v1.333H2v1.334h1.333V5h1.334V3.667H6V2.333H4.667z" fill="#000" fill-rule="evenodd"/></symbol><symbol viewBox="0 0 14 14" id="gear"><path d="M9.757 11.172A4.972 4.972 0 0 1 8 11.9v1.6c0 .5-.495.5-.495.5H6.5S6 14 6 13.5v-1.6a4.972 4.972 0 0 1-1.757-.728L3.11 12.303c-.354.354-.704.004-.704.004l-.71-.71s-.354-.354 0-.708l1.131-1.132A4.972 4.972 0 0 1 2.1 8H.5C0 8 0 7.5 0 7.5v-1S0 6 .5 6h1.6c.13-.638.38-1.233.728-1.757L1.697 3.11c-.354-.354 0-.707 0-.707l.707-.707s.353-.354.707 0l1.132 1.131A4.972 4.972 0 0 1 6 2.1V.5c0-.5.5-.5.5-.5h1S8 0 8 .5v1.6c.638.13 1.233.38 1.757.728l1.132-1.131c.354-.354.707 0 .707 0l.707.707s.354.353 0 .707l-1.131 1.132c.347.524.598 1.119.728 1.757h1.6c.5 0 .5.488.5.488V7.5s0 .5-.5.5h-1.6a4.972 4.972 0 0 1-.728 1.757l1.131 1.132c.354.354.01.698.01.698l-.717.716s-.353.354-.707 0l-1.132-1.131zM7 10a3 3 0 1 0 0-6 3 3 0 0 0 0 6z" fill="#000" fill-rule="evenodd"/></symbol><symbol viewBox="0 0 14 14" id="globe"><path d="M0 7a7 7 0 1 1 14 0A7 7 0 0 1 0 7zm1.252-1.552c-.243.507.152.785.498.957.346.172 1.404-1.174 1.404-1.174l1.221.894s.178 1.483.515 1.75c.337.267 1.017.267 1.017.267l1.28.589s-.283.57-.187.894c.096.324.577.856.577.856S6.643 12.495 7 13.125h.875c.369 0 2.713-2.922 2.625-3.5-.088-.578-2.923-1.038-2.923-1.038s-.922-.365-1.277-.731c-.175-.15 0-.473 0-.473s.413.17.708 0S8.244 6.26 8.244 6.26s.198.298.506-.135-.35-1.392-.875-1.383c-.59.01-.867.887-.867.887l-.944-.567s.965-.276.944-.687c-.02-.411-.599-1.047-1.023-.875-.425.172-.078.698-.078.698-.657.177-1.368 0-1.368 0s-.658-.37-1.26-.302c-.603.067-.437.443-.654.39-.258-.063-.153-.786-.441-.786-.289 0-.69 1.44-.932 1.948zm6.57-2.098c.845 0 1.38.3 1.69 0 .31-.3 1.195-1.007.572-1.502-.624-.496-1.745-.85-2.203-.85-.458 0-2.593-.124-2.593.701-.341.577 1.69 1.651 2.534 1.651z" fill="#000" fill-rule="evenodd"/></symbol><symbol viewBox="0 0 14 14" id="hash"><path d="M7.64 11.375H5.027l-.262 1.522c-.125.725-.793 1.21-1.505 1.082-.706-.127-1.178-.812-1.052-1.544l.182-1.06H1.306A1.306 1.306 0 0 1 0 10.062C0 9.338.58 8.75 1.306 8.75h1.537l.527-3.063H2.181A1.306 1.306 0 0 1 .875 4.375c0-.725.58-1.313 1.306-1.313h1.642l.337-1.959c.125-.725.794-1.21 1.505-1.082.706.127 1.178.813 1.052 1.544L6.46 3.063h2.614l.337-1.96c.125-.725.794-1.21 1.505-1.082.706.127 1.178.813 1.052 1.544l-.258 1.498h.985c.721 0 1.306.582 1.306 1.312 0 .725-.58 1.313-1.306 1.313h-1.437L10.73 8.75h1.089c.721 0 1.306.583 1.306 1.313 0 .724-.58 1.312-1.306 1.312h-1.542l-.262 1.522c-.125.725-.793 1.21-1.505 1.082-.706-.127-1.178-.812-1.052-1.544l.182-1.06zm.453-2.625H5.48l.527-3.063H8.62L8.093 8.75z" fill="#000" fill-rule="evenodd"/></symbol><symbol viewBox="0 0 14 14" id="headphone"><path d="M1.037 8.202C1.202 6 2.101 0 7 0c4.9 0 5.798 6 5.963 8.202C14 8.71 14 10 14 10v2.004S14 14 11.997 14c0 0-.997 0-.997-.972V9c0-.853.742-.978.946-.997C11.756 5.86 10.896 1 7 1 3.103 1 2.243 5.859 2.054 8.003 2.258 8.022 3 8.147 3 9v4.028C3 14 2.003 14 2.003 14 0 14 0 12.004 0 12.004V10s0-1.29 1.037-1.798z" fill="#000" fill-rule="evenodd"/></symbol><symbol viewBox="0 0 12 10" id="heart"><path d="M6 10s4.873-2.487 5.847-5.97C12.822.548 8.924-1.942 6 2.04 3.076-1.94-.822.548.153 4.03 1.127 7.513 6 10 6 10z" fill="#000" fill-rule="evenodd"/></symbol><symbol viewBox="0 0 12 10" id="heart-o"><path d="M6 10s4.873-2.487 5.847-5.97C12.822.548 8.924-1.942 6 2.04 3.076-1.94-.822.548.153 4.03 1.127 7.513 6 10 6 10zm-.014-1.52s3.76-2.122 4.373-4.465c.612-2.344-1.382-4.01-4.373-.022-2.99-3.988-5.1-2.322-4.372.022.729 2.343 4.372 4.466 4.372 4.466z" fill="#000" fill-rule="evenodd"/></symbol><symbol viewBox="0 0 14 14" id="home"><path d="M7 0l7 7v1h-2v5s0 1-1 1H8v-4H6v4H3.004C2 14 2 13 2 13V8H0V7l7-7z" fill="#000" fill-rule="evenodd"/></symbol><symbol viewBox="0 0 10 14" id="import"><path d="M0 5h3v1H1v7h8V6H7V5h3v9H0V5zm5.5-5v9H7l-2 3-2-3h1.5V0h1z" fill="#000" fill-rule="evenodd"/></symbol><symbol viewBox="0 0 14 14" id="info"><path d="M7 5a1 1 0 1 0 0-2 1 1 0 0 0 0 2zm0 9A7 7 0 1 0 7 0a7 7 0 0 0 0 14zm-.5-3h1c.5 0 .5-.5.5-.5v-4S8 6 7.5 6h-1c-.5 0-.5.5-.5.5v4s0 .5.5.5z" fill="#000" fill-rule="evenodd"/></symbol><symbol viewBox="0 0 14 6" id="insert-link"><path d="M11 0a3 3 0 0 1 0 6H8V0h3zm0 5a2 2 0 1 0 0-4H8v4h3zM3 0h3v6H3a3 3 0 1 1 0-6zm0 5h3V1H3a2 2 0 1 0 0 4zm2-3h4c1 0 1 1 1 1s0 1-1 1H5C4 4 4 3 4 3s0-1 1-1z" fill="#000" fill-rule="evenodd"/></symbol><symbol viewBox="0 0 12 12" id="intersect"><path d="M4 4H.997C.453 4 0 4.446 0 4.997v6.006c0 .544.446.997.997.997h6.006c.544 0 .997-.446.997-.997V8h3.003c.544 0 .997-.446.997-.997V.997C12 .453 11.554 0 11.003 0H4.997C4.453 0 4 .446 4 .997V4zm0 0h3c.45 0 1 .45 1 .997V8H4.997C4.45 8 4 7.45 4 7V4z" fill="#000" fill-rule="evenodd"/></symbol><symbol viewBox="0 0 8 14" id="italic"><path d="M4 2H2.5S2 2 2 1.5v-1c0-.5.5-.5.5-.5h5S8 0 8 .5v1c0 .5-.5.5-.5.5H6L4 12h1.5s.5 0 .5.5v1c0 .5-.5.5-.5.5h-5s-.5 0-.5-.5v-1c0-.5.5-.5.5-.5H2L4 2z" fill="#000" fill-rule="evenodd"/></symbol><symbol viewBox="0 0 14 14" id="key"><path d="M8.5 8H6.498v2.002L5.5 11h-2v2l-.997 1H1.5L0 12.499v-.997l7.113-7.115a3.5 3.5 0 1 1 2.5 2.5L8.5 8zM11 4a1 1 0 1 0 0-2 1 1 0 0 0 0 2z" fill="#000" fill-rule="evenodd"/></symbol><symbol viewBox="0 0 16 9" id="keyboard"><path d="M16 7.995S16 9 14.857 9H1.143C0 9 0 7.995 0 7.995V1c0 .096 0-1 1.143-1h13.714C16 0 16 1 16 1v6.995zM1 1v1h2V1H1zm3 0v1h1V1H4zm2 0v1h1V1H6zm2 0v1h1V1H8zm2 0v1h1V1h-1zm2 0v1h1V1h-1zm2 0v1h1V1h-1zM1 3v1h1V3H1zm2 0v1h1V3H3zm2 0v1h1V3H5zm2 0v1h1V3H7zm2 0v1h1V3H9zm2 0v1h1V3h-1zm2 0v3h2V3h-2zM1 7v1h1V7H1zm2 0v1h1V7H3zm2 0v1h4V7H5zm7 0v1h1V7h-1zm-2 0v1h1V7h-1zm4 0v1h1V7h-1zM1 5v1h1V5H1zm2 0v1h1V5H3zm2 0v1h1V5H5zm2 0v1h1V5H7zm2 0v1h1V5H9zm2 0v1h1V5h-1z" fill="#000" fill-rule="evenodd"/></symbol><symbol viewBox="0 0 14 11" id="kitchen-cooker"><path d="M11 10H3a1 1 0 0 1-2 0c-.553-.004-1-.458-1-.995V.995A1 1 0 0 1 1.007 0h11.986C13.55 0 14 .456 14 .995v8.01A1 1 0 0 1 13 10a1 1 0 1 1-2 0zM1 9.005C1 8.995 12.993 9 12.993 9 13 9 13 .995 13 .995 13 1.005 1.007 1 1.007 1 1 1 1 9.005 1 9.005zM2 4h10v4H2V4zm4 1h2v1H6V5zm3.5-2a.5.5 0 1 0 0-1 .5.5 0 0 0 0 1zm-2 0a.5.5 0 1 0 0-1 .5.5 0 0 0 0 1zm4 0a.5.5 0 1 0 0-1 .5.5 0 0 0 0 1zM2 2h3v1H2V2z" fill="#000" fill-rule="evenodd"/></symbol><symbol viewBox="0 0 16 11" id="laptop"><path d="M0 10h16s0 1-1 1H1c-1 0-1-1-1-1zm14-1.966C14 9 13 9 13 9H3S2 9 2 8V1c0-1 1-1 1-1h10s1 0 1 1v7.034zM3 1v7h10V1H3z" fill="#000" fill-rule="evenodd"/></symbol><symbol viewBox="0 0 12 14" id="layer"><path d="M11 8l-5 4-5-4-1 1 6 5 6-5-1-1zM6 0L0 5l6 5 6-5-6-5z" fill="#000" fill-rule="evenodd"/></symbol><symbol viewBox="0 0 14 10" id="layout"><path d="M0 0h9v10H0V0zm10 0h4v3h-4V0zm0 4h4v6h-4V4z" fill="#000" fill-rule="evenodd"/></symbol><symbol viewBox="0 0 16 16" id="line-chart"><path d="M0 6h1v8h15v1H0V6zm12 3.5a1.5 1.5 0 1 1-2.982-.236L7.142 7.856a1.494 1.494 0 0 1-.857.129L4.86 9.865a1.5 1.5 0 1 1-1.124-.847l1.408-1.876a1.5 1.5 0 1 1 2.838-.405l1.876 1.407c.195-.092.412-.144.642-.144l1.8-3.6a1.5 1.5 0 1 1 1.2.6l-1.8 3.6c.188.25.3.562.3.9z" fill="#000" fill-rule="evenodd"/></symbol><symbol viewBox="0 0 16 9" id="link"><path d="M4 5.01V6c-1-.013-4-.002-4-3 0-3 3-3 3-3h5s3 0 3 3-3 3-3 3v-.99s1.994 0 2-2.01c.006-2.012-2-2-2-2l-5 .013S1 1 1 2.997C1 4.994 3 5.01 4 5.01zm8-1.02V3c1 .013 4 .002 4 3 0 3-3 3-3 3H8S5 9 5 6s3-3 3-3v.99S6.006 3.99 6 6c-.006 2.012 2 2 2 2l5-.013S15 8 15 6.003c0-1.997-2-2.013-3-2.013z" fill-rule="nonzero" fill="#000"/></symbol><symbol viewBox="0 0 10 10" id="link-external"><path d="M0 9V3c0-1 1-1 1-1h3v1H1v6h6V6h1v3c0 1-1 1-1 1H1s-1 0-1-1zm9-7L5 6 4 5l4-4H5V0h4s1 0 1 1v4H9V2z" fill="#000" fill-rule="evenodd"/></symbol><symbol viewBox="0 0 12 12" id="list-bullet"><path d="M4 0h8v2H4V0zm0 5h8v2H4V5zm0 5h8v2H4v-2zm-4 0h2v2H0v-2zm0-5h2v2H0V5zm0-5h2v2H0V0z" fill="#000" fill-rule="evenodd"/></symbol><symbol viewBox="0 0 12 14" id="list-order"><path d="M4 11h8v2H4v-2zm0-5h8v2H4V6zm0-5h8v2H4V1zm-2.5 9c.187 0 .356.026.506.077.15.052.279.123.386.214a.932.932 0 0 1 .33.719c0 .124-.014.234-.043.328a.755.755 0 0 1-.126.248.755.755 0 0 1-.202.179c-.08.048-.17.089-.27.121.242.074.424.187.543.339.12.151.18.342.18.57 0 .196-.038.368-.112.518-.075.15-.176.275-.303.377-.127.102-.275.18-.442.232a1.77 1.77 0 0 1-.531.078c-.204 0-.381-.023-.533-.068a1.171 1.171 0 0 1-.681-.525A2.154 2.154 0 0 1 0 12.963l.306-.121a.415.415 0 0 1 .16-.033.28.28 0 0 1 .13.03c.038.02.068.049.088.087a2.4 2.4 0 0 0 .11.186.692.692 0 0 0 .613.325.79.79 0 0 0 .309-.055.671.671 0 0 0 .22-.145.592.592 0 0 0 .175-.42c0-.094-.01-.179-.03-.255a.378.378 0 0 0-.13-.197.712.712 0 0 0-.281-.127 2.103 2.103 0 0 0-.492-.046v-.476c.17-.002.31-.017.423-.046a.733.733 0 0 0 .268-.12.409.409 0 0 0 .138-.186.694.694 0 0 0 .04-.238c0-.186-.053-.326-.157-.421-.105-.095-.248-.142-.43-.142-.164 0-.3.042-.409.126a.658.658 0 0 0-.227.323.293.293 0 0 1-.092.148.248.248 0 0 1-.154.044.601.601 0 0 1-.096-.008l-.364-.062c.028-.188.082-.352.162-.494a1.194 1.194 0 0 1 .717-.568A1.71 1.71 0 0 1 1.5 10zm.454-4.92c.155.055.287.13.396.23.11.098.196.216.257.355.061.138.092.293.092.462 0 .146-.022.281-.066.405a1.67 1.67 0 0 1-.175.356 2.4 2.4 0 0 1-.258.328c-.099.106-.202.214-.31.323l-.909.831h1.542c.075 0 .134.021.177.062a.213.213 0 0 1 .066.163V9H0v-.224a.385.385 0 0 1 .123-.28l1.224-1.203c.102-.102.193-.2.274-.293.081-.093.149-.185.204-.276a1.25 1.25 0 0 0 .125-.278c.03-.094.043-.193.043-.297a.691.691 0 0 0-.041-.25.49.49 0 0 0-.306-.293.738.738 0 0 0-.24-.037.651.651 0 0 0-.41.123.644.644 0 0 0-.224.331.274.274 0 0 1-.092.15.257.257 0 0 1-.156.045.574.574 0 0 1-.092-.009L.07 6.146c.028-.19.081-.356.161-.499a1.202 1.202 0 0 1 .713-.574c.155-.049.322-.073.5-.073.186 0 .356.027.51.08zM.314 3.49h.883V1.16c0-.09.003-.185.009-.284l-.627.48a.229.229 0 0 1-.08.042.304.304 0 0 1-.08.01.255.255 0 0 1-.11-.023.203.203 0 0 1-.074-.054L0 1.036 1.33 0h.612v3.489h.784V4H.314v-.511z" fill="#000" fill-rule="evenodd"/></symbol><symbol viewBox="0 0 14 14" id="list-task"><path d="M6 12h8v2H6v-2zm0-5h8v2H6V7zm4-5h4v2h-4V2zM.002 3.996L1 3.003 2.998 5 8 0l1 1-6 6L.002 3.996z" fill="#000" fill-rule="evenodd"/></symbol><symbol viewBox="0 0 8 14" id="location"><path d="M4 14S8 6.21 8 4a4 4 0 1 0-8 0c0 2.21 4 10 4 10zm0-8a2 2 0 1 0 0-4 2 2 0 0 0 0 4z" fill="#000" fill-rule="evenodd"/></symbol><symbol viewBox="0 0 12 14" id="lock"><path d="M1.002 6h1.004s0-2-.006-2c0-4 3-4 4-4s3.994 0 4 4l-.006 2h1.004C11.55 6 12 6.453 12 6.997v6.006c0 .55-.456.997-1.002.997H1.002A1.004 1.004 0 0 1 0 13.003V6.997C0 6.447.456 6 1.002 6zM2 8v4h1V8H2zm2-4v2h4V4c0-2-1.5-2-2-2S4 2 4 4z" fill="#000" fill-rule="evenodd"/></symbol><symbol viewBox="0 0 12 12" id="login"><path d="M0 4v4l3 .006V10l4-3.997L3 2v2.006L0 4zM1 .999h10v9.995L1 11v1l10-.006c0 .026 1 0 1-1V.999C12 0 11 0 11 0H1v.999z" fill="#000" fill-rule="evenodd"/></symbol><symbol viewBox="0 0 12 12" id="logout"><path d="M5 4h3V2l4 3.997L8 10V8H5V4zm6 7v1H1s-1 0-1-1V1.005c0-1 1-1.026 1-1h10v1H1V11h10z" fill="#000" fill-rule="evenodd"/></symbol><symbol viewBox="0 0 12 12" id="loop"><path d="M2.71 8.29C3.318 9.103 4.36 10 6 10c3 0 4-3 4-3h2s-1 5-6 5c-2.355 0-3.823-1.11-4.717-2.283L0 11V7h4L2.71 8.29zm6.58-4.58C8.682 2.897 7.64 2 6 2 3 2 2 5 2 5H0s1-5 6-5c2.355 0 3.823 1.11 4.717 2.283L12 1v4H8l1.29-1.29z" fill="#000" fill-rule="evenodd"/></symbol><symbol viewBox="0 0 14 14" id="magic"><path d="M1 3l2-2 11 11-2 2L1 3zm1 0l1-1 4 4-1 1-4-4zm7.5-2l.5 1 1 .5-1 .496L9.5 4 9 3l-1-.5L9 2l.5-1zM7 0l.333.666L8 1l-.667.33L7 2l-.333-.667L6 1l.667-.333L7 0zm5 0l.333.666L13 1l-.667.33L12 2l-.333-.667L11 1l.667-.333L12 0zM1 6l.333.666L2 7l-.667.33L1 8l-.333-.667L0 7l.667-.333L1 6z" fill="#000" fill-rule="evenodd"/></symbol><symbol viewBox="0 0 14 10" id="mail"><path d="M0 3l7 5 7-5v6c0 1-.985 1-.985 1H1s-1 0-1-1V3zm0-2c0-1 1-1 1-1h12s1 0 1 1L7 6 0 1z" fill="#000" fill-rule="evenodd"/></symbol><symbol viewBox="0 0 14 14" id="map"><path d="M2 9h2s0 3 3 3 3-3 3-3h2l2 5H0l2-5zm5 1S4 4.657 4 3a3 3 0 1 1 6 0c0 1.657-3 7-3 7zm0-6a1 1 0 1 0 0-2 1 1 0 0 0 0 2z" fill="#000" fill-rule="evenodd"/></symbol><symbol viewBox="0 0 12 12" id="mask"><path d="M1 10.998c0-.003 9.998.002 9.998.002-.003 0 0-10-9.996-10C1 1 1 10.998 1 10.998zM0 1.002C0 .45.456 0 1.002 0h9.996C11.55 0 12 .456 12 1.002v9.996C12 11.55 11.544 12 10.998 12H1.002A1.007 1.007 0 0 1 0 10.998V1.002z" fill-rule="nonzero" fill="#000"/></symbol><symbol viewBox="0 0 10 16" id="medal"><path d="M8 0h1L7 3.002H6L8 0zM3 0h1l1 1.5L6 0h1.002L5.5 2.251l.5.751H5l-.5-.751L3 0zM1 0h1.002l2 3h-1L1 0zm2 4h4v1H3V4zm2 12A5 5 0 1 1 5 6a5 5 0 0 1 0 10zm0-8l-2.121.879L2 11l.879 2.121L5 14l2.121-.879L8 11l-.879-2.121L5 8z" fill="#000" fill-rule="evenodd"/></symbol><symbol viewBox="0 0 14 14" id="megaphone"><path d="M6.247 14H3.25V9.768C1.892 9.6.94 9.47.94 9.47S.52 9.578.15 8.057c-.367-1.52.054-1.629.054-1.629S8.378.407 9.854.028c.211-.054 2.584-.433 3.793 4.563 1.21 4.996-1.058 5.809-1.269 5.863-.795.204-4.054-.098-6.891-.42-.062-.006.76 3.966.76 3.966zm5.268-4.768c-1.058.264-2.337-1.211-2.857-3.295-.52-2.084-.083-3.987.976-4.251 1.058-.264 2.337 1.211 2.857 3.295.52 2.084.083 3.987-.976 4.251zM10.222 7.2c.717-.179 1.131-.992.926-1.817-.206-.824-.954-1.348-1.67-1.169-.717.179.027 3.165.744 2.986z" fill="#000" fill-rule="evenodd"/></symbol><symbol viewBox="0 0 14 14" id="mention"><path d="M12.639 7c0-3.428-3.136-5.8-5.639-5.8S1.2 3.4 1.2 7c0 3.6 3 5.8 5.8 5.8s4-1.6 4-1.6 1.053.664 1.033.664C10.91 13.014 9.182 14 7 14A7 7 0 0 1 7 0c3.866 0 7 3.2 7 7 0 1.2-1.12 2.927-2.084 3.29-1.084.446-2.376.186-3.147-.546-.145-.138-.466-.588-.568-.766C7.69 9.722 7.4 10.2 6.4 10.2c-1.946 0-3-1.424-3-3.2 0-1.776 1.054-3.2 2.8-3.2 1.324 0 1.875 1.051 1.875 1.051.06-.27.256-.994.274-1.051H9.8c.008.01-.3.934-.348 1.267C9.038 7 9.022 8.362 9.6 8.892c.63.475 1.425.635 2.1.086.675-.533.939-1.38.939-1.978zM7.6 7c0-1.017-.652-1.8-1.4-1.8-.748 0-1.4.783-1.4 1.8s.652 1.8 1.4 1.8c.748 0 1.4-.783 1.4-1.8z" fill="#000" fill-rule="evenodd"/></symbol><symbol viewBox="0 0 12 12" id="minus"><path d="M0 5h12v2H0z" fill="#000" fill-rule="evenodd"/></symbol><symbol viewBox="0 0 8 15" id="mobile"><path d="M8 1v13c0 1-1 1-1 1H1s-1 0-1-1V1c0-1 1-1 1-1h6s1 0 1 1zM1 13h6V2H1v11z" fill="#000" fill-rule="evenodd"/></symbol><symbol viewBox="0 0 14 8" id="money"><path d="M3 7h8c0-2 2-2 2-2V3s-2 0-2-2H3c0 2-2 2-2 2v2s2 0 2 2zM0 1s0-1 1-1h12c1 0 1 1 1 1v6s0 1-1 1H1C0 8 0 7 0 7V1zm8 5a2 2 0 1 0 0-4 2 2 0 0 0 0 4zM4 2h1v4H4V2zm4 3a1 1 0 1 0 0-2 1 1 0 0 0 0 2z" fill="#000" fill-rule="evenodd"/></symbol><symbol viewBox="0 0 10 16" id="mouse"><path d="M5 0C.625 0 0 3.582 0 8s.625 8 5 8 5-3.582 5-8-.625-8-5-8zM4 6s0 1 1 1 1-1 1-1V3s0-1.004-1-1.004S4 3 4 3v3z" fill="#000" fill-rule="evenodd"/></symbol><symbol viewBox="0 0 12 14" id="music"><path d="M3 .999C3 .447 3.446 0 3.998 0h7.004c.551 0 .998.443.998.999V11a2 2 0 1 1-1-1.732V3H4v9a2 2 0 1 1-1-1.732V.999z" fill="#000" fill-rule="evenodd"/></symbol><symbol viewBox="0 0 14 14" id="open-mouth"><path d="M7 13A6 6 0 1 0 7 1a6 6 0 0 0 0 12zm0 1A7 7 0 1 1 7 0a7 7 0 0 1 0 14zm0-2a2 2 0 1 0 0-4 2 2 0 0 0 0 4zm2-6a1 1 0 1 0 0-2 1 1 0 0 0 0 2zM5 6a1 1 0 1 0 0-2 1 1 0 0 0 0 2z" fill="#000" fill-rule="evenodd"/></symbol><symbol viewBox="0 0 14 10" id="palette"><path d="M7.054 10.503C3.217 10.503 0 8.111 0 5.943c0-2.417 2.026.155 4.106-1.488 1.338-1.057-1.96-1.933-1.558-3.142C2.548.623 4.376 0 7.054 0 11.375 0 14 2.351 14 5.251c0 2.9-3.11 5.252-6.946 5.252zm.386-7.002c.725 0 1.312-.392 1.312-.875 0-.484-.587-.876-1.312-.876-.725 0-1.313.392-1.313.876 0 .483.588.875 1.313.875zm2.625 1.75c.725 0 1.313-.391 1.313-.875 0-.483-.588-.875-1.313-.875s-1.313.392-1.313.875c0 .484.588.875 1.313.875z" fill="#000" fill-rule="evenodd"/></symbol><symbol viewBox="0 0 12 13" id="paper-plane"><path d="M4.72 9.672L9.975 2.71 3.588 9.07.39 7.352c-.515-.277-.52-.731-.02-1.02L11.17.125c.502-.288.87-.058.826.513l-.89 11.398c-.044.571-.495.811-1.007.536l-2.876-1.573-1.907 1.906c-.596.34-.596-.333-.596-.333v-2.9z" fill="#000" fill-rule="evenodd"/></symbol><symbol viewBox="0 0 9 10" id="pause"><path d="M0 0h3v10H0V0zm6 0h3v10H6V0z" fill="#000" fill-rule="evenodd"/></symbol><symbol viewBox="0 0 14 14" id="pencil"><path d="M8.142 2.216l3.642 3.626-6.798 6.798L3.626 14H0v-3.634l1.81-1.805 6.332-6.345zM8 4L4 8l1 1 4-4-1-1zm-5 6H2l-1 1 2 2 1-1v-1l-1-1zm6.065-8.69s.94-.907.906-.907c.907-.907 1.813 0 1.813 0l1.813 1.813s.907.906 0 1.813c.021.021-.906.906-.906.906L9.065 1.31z" fill="#000" fill-rule="evenodd"/></symbol><symbol viewBox="0 0 14 16" id="phone"><path d="M4.058.437l1.237 1.508c.247.302.742.905-.729 2.168-.882.758-.952 1.59 1.534 4.623 2.434 2.969 3.286 3.09 4.155 2.317 1.483-1.247 1.965-.66 2.212-.358l1.237 1.508c.247.302.742.906-.605 2.32-1.347 1.413-1.37 1.69-2.159 1.34-.789-.351-3.944-1.755-6.899-5.36C1.061 6.868.258 3.444.058 2.588c-.201-.856.07-.831 1.664-1.944C3.316-.469 3.81.135 4.058.437" fill="#000" fill-rule="evenodd"/></symbol><symbol viewBox="0 0 14 14" id="picture"><path d="M1 13c0-.015 11.993-.007 11.993-.007C13 12.993 13 1 13 1c0 .015-11.993.007-11.993.007C1 1.007 1 13 1 13zM0 1c0-1 1-1 1-1h12s1 0 1 1v12c0 1-1 1-1 1H1s-1 0-1-1V1zm4 7l2 2 4-4 2 2v4H2v-2l2-2zm.5-2a1.5 1.5 0 1 0 0-3 1.5 1.5 0 0 0 0 3z" fill-rule="nonzero" fill="#000"/></symbol><symbol viewBox="0 0 16 16" id="pie-chart"><path d="M7 16A7 7 0 0 1 7 2v7h7a7 7 0 0 1-7 7zm1-8V1a7 7 0 0 1 7 7H8z" fill="#000" fill-rule="evenodd"/></symbol><symbol viewBox="0 0 15 16" id="pizza"><path d="M7.5 16A7.5 7.5 0 0 0 15 8.5C15 4.358 11.65 1 7.4 1v7.5L1 4.763C.368 5.783 0 7.136 0 8.5A7.5 7.5 0 0 0 7.5 16zm-.007-1C3.954 15 .995 12.45.995 8.414c0-1.414.278-1.846.505-2.413l5.503 3.003S8 9.5 8 8.5V2c3.302.163 5.995 3.119 5.995 6.414 0 3.401-2.964 6.586-6.502 6.586zM4 12v1h1v-1H4zm7-4a1 1 0 1 0 0-2 1 1 0 0 0 0 2zM9 4v1h1V4H9zm2 7a1 1 0 1 0 0-2 1 1 0 0 0 0 2zm-3 3a1 1 0 1 0 0-2 1 1 0 0 0 0 2zm0-3.949v1h1v-1H8zM5 11a1 1 0 1 0 0-2 1 1 0 0 0 0 2zM2 8v1h1V8H2zm4.359-8v6.154L1.026 3.077S1.908 1.617 3.28.824C4.652.033 6.359 0 6.359 0z" fill="#000" fill-rule="evenodd"/></symbol><symbol viewBox="0 0 10 10" id="play"><path d="M0 0v10l10-5z" fill="#000" fill-rule="evenodd"/></symbol><symbol viewBox="0 0 8 14" id="plug"><path d="M5 5H3V.99A1 1 0 0 0 2 0c-.556 0-1 .444-1 .99V5H0v3.5a3.507 3.507 0 0 0 3 3.463V15h2v-3.036A3.497 3.497 0 0 0 8 8.5V5H7V.99A1 1 0 0 0 6 0c-.556 0-1 .444-1 .99V5z" fill="#000" fill-rule="evenodd"/></symbol><symbol viewBox="0 0 12 12" id="plus"><path d="M7 5V0H5v5H0v2h5v5h2V7h5V5z" fill="#000" fill-rule="evenodd"/></symbol><symbol viewBox="0 0 14 12" id="pot"><path d="M.996 5H13s1 0 1 .995S13 7 13 7h-1v4s0 1-1 1H2.998C2 12 2 11 2 11V7H.996S0 7 0 6s.996-1 .996-1zM4 2h1s0-2 2-2 2 2 2 2h1c2 0 2 2 2 2H2s0-2 2-2zm3-1c1 0 1 1 1 1H6s0-1 1-1z" fill="#000" fill-rule="evenodd"/></symbol><symbol viewBox="0 0 14 14" id="print"><path d="M0 8s0-1 1-1h1V5h1V1s0-1 .996-1H10c1 0 1 1 1 1v4h1v2h1c1 0 1 1 1 1v5h-3s0 1-1 1H3.996C3 14 3 13 3 13H0V8zm4 2h6v3H4v-3zm4-2h2v1H8V8zM4 1h6v6H4V1z" fill="#000" fill-rule="evenodd"/></symbol><symbol viewBox="0 0 14 14" id="prototype"><path d="M14 11c0 1-1 1-1 1H9s-.993 0-1-1c.007 0 0-10 0-10 0-1 1-1 1-1h4s1 0 1 1v10zM8.003 6.664L9.39 5.509a1.5 1.5 0 1 0-.358-.701l-1.029.856v1zM6 13c0 1-1 1-1 1H1S.007 14 0 13C.006 13 0 3 0 3c0-1 1-1 1-1h4s1 0 1 1v10zm0-5.665L4.611 8.492a1.5 1.5 0 1 0 .358.7l1.03-.858v-1z" fill="#000" fill-rule="evenodd"/></symbol><symbol viewBox="0 0 14 14" id="question"><path d="M7 14A7 7 0 1 1 7 0a7 7 0 0 1 0 14zm-1-2.5s0 .5.5.5h1c.5 0 .5-.5.5-.5v-1s0-.5-.5-.5h-1c-.5 0-.5.5-.5.5v1zm0-2.94c0 .44.5.437.5.437h1s.549.003.549-.438c0-1.311 1.386-2.276 1.8-3.057.449-.878.155-3.502-2.84-3.502C5 2 4 3.009 4 4.5c0 0 0 .5.5.5h1c.5 0 .5-.5.5-.5s0-1 1-1c1.049 0 1 1 1 1.5 0 .74-.5 1.221-1 1.473 0 0-1 .446-1 2.086z" fill="#000" fill-rule="evenodd"/></symbol><symbol viewBox="0 0 15 12" id="quote-left"><path d="M11.504 5a3.5 3.5 0 1 1-3.5 3.5c-.01-.133 0-.468 0-.5 0-3 4.005-8 4.005-8l.995 1c-.5.603-1.5 2.191-2.5 4.097.44-.131.588-.097 1-.097m-8 0a3.5 3.5 0 1 1-3.5 3.5c-.01-.133 0-.468 0-.5 0-3 4.005-8 4.005-8l.995 1c-.5.603-1.5 2.191-2.5 4.097.44-.131.588-.097 1-.097" fill="#000" fill-rule="evenodd"/></symbol><symbol viewBox="0 0 15 12" id="quote-right"><path d="M3.5 7A3.5 3.5 0 1 1 7 3.5c.01.133 0 .468 0 .5 0 3-4.005 8-4.005 8L2 11c.5-.603 1.5-2.19 2.5-4.097-.44.13-.588.097-1 .097zm8 0A3.5 3.5 0 1 1 15 3.5c.01.133 0 .468 0 .5 0 3-4.005 8-4.005 8L10 11c.5-.603 1.5-2.19 2.5-4.097-.44.13-.588.097-1 .097z" fill="#000" fill-rule="evenodd"/></symbol><symbol viewBox="0 0 14 14" id="rage"><path d="M7 13A6 6 0 1 0 7 1a6 6 0 0 0 0 12zm0 1A7 7 0 1 1 7 0a7 7 0 0 1 0 14zm0-6c-2.003 0-2.003 2-2.003 2H6s0-1 1-1 1 1 1 1h.997S9.003 8 7 8zm2-1a1 1 0 0 1-1-1c0-.002 2-1.003 2-1.003V6a1 1 0 0 1-1 1zM5 7a1 1 0 0 1-1-1V5l2 1a1 1 0 0 1-1 1z" fill="#000" fill-rule="evenodd"/></symbol><symbol viewBox="0 0 16 14" id="random"><path d="M12 4h-1L8.75 7 11 10h1V8l4 3-4 3v-2h-2L7.5 8.667 5 12H0v-2h4l2.25-3L4 4H0V2h5l2.5 3.333L10 2h2V0l4 3-4 3V4z" fill="#000" fill-rule="evenodd"/></symbol><symbol viewBox="0 0 12 12" id="reload"><path d="M8.838 3.162C8.17 2.527 7.204 2 6 2 3.544 2 2 4 2 6c0 1.83 1.41 4 4 4s3.493-2.11 3.55-2.1c.027-.01 1.797.898 1.775.898C10.826 9.595 9.31 12 6 12S0 9.314 0 6a6 6 0 0 1 6-6c1.677 0 3.167.757 4.23 1.77L12 0v5H7l1.838-1.838z" fill="#000" fill-rule="evenodd"/></symbol><symbol viewBox="0 0 14 14" id="rocket"><path d="M5.792 4c1.164-1.366 2.35-2.594 3.13-2.984 0 0 2.031-1.01 4.062-1.016 0 0 .508 0 .762.254s.254.762.254.762c0 2.032-1.016 4.063-1.016 4.063-.39.78-1.618 1.966-2.984 3.131v3.423c0 .28-.179.631-.417.796l-2.166 1.494c-.23.16-.417.062-.417-.211V10.61c-1.015.772-1.745 1.293-1.745 1.293a.604.604 0 0 1-.745-.064L2.162 9.492a.597.597 0 0 1-.056-.755S2.624 8.01 3.392 7H.295c-.275 0-.379-.179-.22-.417l1.448-2.166A1.05 1.05 0 0 1 2.299 4h3.493zM2 10s-1 1 0 2 2 0 2 0 0 2-2 2-2 0-2-2 2-2 2-2zm8-5a1 1 0 1 0 0-2 1 1 0 0 0 0 2z" fill="#000" fill-rule="evenodd"/></symbol><symbol viewBox="0 0 14 14" id="scale"><path d="M9.478 9.977a3.999 3.999 0 0 1-3.647 2.02 3.001 3.001 0 1 1-3.827-3.828 3.999 3.999 0 0 1 2.019-3.647 5 5 0 1 1 5.455 5.455zM3 13a2 2 0 1 0 0-4 2 2 0 0 0 0 4zm0-5a3 3 0 1 1 3 3 3 3 0 0 0-3-3zm6.899.899A4.002 4.002 0 0 0 9 1C7.1 1 5.51 2.325 5.101 4.101a4 4 0 0 1 4.797 4.797z" fill="#000" fill-rule="evenodd"/></symbol><symbol viewBox="0 0 14 14" id="search"><path d="M5.611 11.223a5.611 5.611 0 1 1 4.446-2.187l3.716 3.717s.51.51 0 1.02-1.02 0-1.02 0l-3.717-3.716a5.587 5.587 0 0 1-3.425 1.166zm0-1.53a4.081 4.081 0 1 0 0-8.163 4.081 4.081 0 0 0 0 8.162z" fill="#000" fill-rule="evenodd"/></symbol><symbol viewBox="0 0 14 14" id="search-minus"><path d="M5.611 11.223a5.611 5.611 0 1 1 4.446-2.187l3.716 3.717s.51.51 0 1.02-1.02 0-1.02 0l-3.717-3.716a5.587 5.587 0 0 1-3.425 1.166zm0-1.53a4.081 4.081 0 1 0 0-8.163 4.081 4.081 0 0 0 0 8.162zM3 5v1h5V5H3z" fill="#000" fill-rule="evenodd"/></symbol><symbol viewBox="0 0 14 14" id="search-plus"><path d="M5.611 11.223a5.611 5.611 0 1 1 4.446-2.187l3.716 3.717s.51.51 0 1.02-1.02 0-1.02 0l-3.717-3.716a5.587 5.587 0 0 1-3.425 1.166zm0-1.53a4.081 4.081 0 1 0 0-8.163 4.081 4.081 0 0 0 0 8.162zM3 5v1h2v2h1V6h2V5H6V3H5v2H3z" fill="#000" fill-rule="evenodd"/></symbol><symbol viewBox="0 0 12 12" id="share"><path d="M3.958 6.41a2.009 2.009 0 0 0 0-.822l4.771-2.044a2 2 0 1 0-.687-1.134L3.271 4.455a2 2 0 1 0 0 3.09L8.042 9.59a2 2 0 1 0 .687-1.134L3.958 6.41z" fill="#000" fill-rule="evenodd"/></symbol><symbol viewBox="0 0 10 14" id="shield"><path d="M0 1s0-1 1-1h8c1 0 1 1 1 1v9l-5 4-5-4V1zm5 0h4.005v8.5L5 12.5V1z" fill="#000" fill-rule="evenodd"/></symbol><symbol viewBox="0 0 14 14" id="sitemap"><path d="M11.5 7v3H11c-1 0-1 1-1 1v2s0 1 1 1h2c1 0 1-1 1-1v-2s0-1-1-1h-.5V7c0-1-1-1-1-1h-4V4H8c1 0 1-1 1-1V1s-.09-1-1-1H6C5 0 5 1 5 1v2s0 1 1 1h.5v2h-4s-1 0-1 1v3H1c-1 0-1 1-1 1v2s0 1 1 1h2c1 0 1-1 1-1v-2c0-.034 0-1-1-1h-.5V7h4v3H6c-1 0-1 1-1 1v2s0 1 1 1h2c1 0 1-1 1-1v-2s0-1-1-1h-.5V7h4z" fill="#000" fill-rule="evenodd"/></symbol><symbol viewBox="0 0 14 14" id="smile"><path d="M5 6a1 1 0 1 0 0-2 1 1 0 0 0 0 2zm5 2a3 3 0 1 1-6 0h6zM9 6a1 1 0 1 0 0-2 1 1 0 0 0 0 2zm-2 7A6 6 0 1 0 7 1a6 6 0 0 0 0 12zm0 1A7 7 0 1 1 7 0a7 7 0 0 1 0 14z" fill="#000" fill-rule="evenodd"/></symbol><symbol viewBox="0 0 14 14" id="smile-alt"><path d="M5 6a1 1 0 1 0 0-2 1 1 0 0 0 0 2zm5 2a3 3 0 1 1-6 0h1s0 2 2 2 2-2 2-2h1zM9 6a1 1 0 1 0 0-2 1 1 0 0 0 0 2zm-2 7A6 6 0 1 0 7 1a6 6 0 0 0 0 12zm0 1A7 7 0 1 1 7 0a7 7 0 0 1 0 14z" fill="#000" fill-rule="evenodd"/></symbol><symbol viewBox="0 0 8 14" id="speaker"><path d="M0 1s0-1 1-1h6c1 0 1 1 1 1v12s0 1-1 1H1c-1 0-1-1-1-1V1zm4 7a3 3 0 1 0 0-6 3 3 0 0 0 0 6zm0-1a2 2 0 1 0 0-4 2 2 0 0 0 0 4zm0 5a1 1 0 1 0 0-2 1 1 0 0 0 0 2z" fill="#000" fill-rule="evenodd"/></symbol><symbol viewBox="0 0 15 14" id="star"><path d="M7.5 11.609L2.865 14l.885-5.065L0 5.348l5.182-.74L7.5 0l2.318 4.609L15 5.348l-3.75 3.587.885 5.065z" fill="#000" fill-rule="evenodd"/></symbol><symbol viewBox="0 0 15 14" id="star-o"><path d="M7.5 11.609L2.865 14l.885-5.065L0 5.348l5.182-.74L7.5 0l2.318 4.609L15 5.348l-3.75 3.587.885 5.065L7.5 11.609zm0-1.117L4.1 12.2l.65-3.618L2 6.02l3.8-.528L7.5 2.2l1.7 3.292 3.8.528-2.75 2.562.65 3.618-3.4-1.708z" fill="#000" fill-rule="evenodd"/></symbol><symbol viewBox="0 0 12 12" id="step-backward"><path d="M5 2v6H3l3 4 3-4H7V2h5V0H0v2h5zM0 6h4V4H0v2zm8 0h4V4H8v2z" fill="#000" fill-rule="evenodd"/></symbol><symbol viewBox="0 0 12 12" id="step-forward"><path d="M5 10V4H3l3-4 3 4H7v6h5v2H0v-2h5zM0 6h4v2H0V6zm8 0h4v2H8V6z" fill="#000" fill-rule="evenodd"/></symbol><symbol viewBox="0 0 10 10" id="stop"><path d="M0 0h10v10H0z" fill="#000" fill-rule="evenodd"/></symbol><symbol viewBox="0 0 12 12" id="subtract"><path d="M4 4H.997C.453 4 0 4.446 0 4.997v6.006c0 .544.446.997.997.997h6.006c.544 0 .997-.446.997-.997V8h3.003c.544 0 .997-.446.997-.997V.997C12 .453 11.554 0 11.003 0H4.997C4.453 0 4 .446 4 .997V4zM1 5h6v6H1V5z" fill="#000" fill-rule="evenodd"/></symbol><symbol viewBox="0 0 12 12" id="sync"><path d="M8.29 9.29C9.103 8.682 10 7.64 10 6c0-3-3-4-3-4V0s5 1 5 6c0 2.355-1.11 3.823-2.283 4.717L11 12H7V8l1.29 1.29zM3.71 2.71C2.897 3.318 2 4.36 2 6c0 3 3 4 3 4v2s-5-1-5-6c0-2.355 1.11-3.823 2.283-4.717L1 0h4v4L3.71 2.71z" fill="#000" fill-rule="evenodd"/></symbol><symbol viewBox="0 0 14 10" id="table"><path d="M0 .995A1 1 0 0 1 1.007 0h11.986C13.55 0 14 .456 14 .995v8.01a1 1 0 0 1-1.007.995H1.007A1.008 1.008 0 0 1 0 9.005V.995zM1 9c0-.01 11.993-.005 11.993-.005.007 0 .007-8 .007-8C13 1.005 1.007 1 1.007 1 1 1 1 9 1 9zm1-7h3v2H2V2zm0 3h3v1H2V5zm0 2h3v1H2V7zm4-5h6v2H6V2zm0 3h6v1H6V5zm0 2h6v1H6V7z" fill="#000" fill-rule="evenodd"/></symbol><symbol viewBox="0 0 12 16" id="tablet"><path d="M12 1v13.995C12 16 11 16 11 16H1s-1 0-1-1V1c0-1 1-1 1-1h10s1 0 1 1zM1 14h10V2H1v12z" fill="#000" fill-rule="evenodd"/></symbol><symbol viewBox="0 0 14 14" id="tag"><path d="M9 0h4s1 0 1 1v4l-9 9-5-5 9-9zm.293 4.707a1 1 0 1 0 1.414-1.414 1 1 0 0 0-1.414 1.414z" fill="#000" fill-rule="evenodd"/></symbol><symbol viewBox="0 0 14 10" id="terminal"><path d="M0 9V1c0-1 1-1 1-1h12s1 0 1 1v8c0 1-1 1-1 1H1s-1 0-1-1zm2-7l1-1 3 3-3 3-1-1 2-2-2-2zm3 5h5v1H5V7z" fill="#000" fill-rule="evenodd"/></symbol><symbol viewBox="0 0 14 14" id="text-align-center"><path d="M3 12h8v2H3v-2zM0 8h14v2H0V8zm3-4h8v2H3V4zM0 0h14v2H0V0z" fill="#000" fill-rule="evenodd"/></symbol><symbol viewBox="0 0 14 14" id="text-align-left"><path d="M0 12h8v2H0v-2zm0-4h14v2H0V8zm0-4h8v2H0V4zm0-4h14v2H0V0z" fill="#000" fill-rule="evenodd"/></symbol><symbol viewBox="0 0 14 14" id="text-align-right"><path d="M6 12h8v2H6v-2zM0 8h14v2H0V8zm6-4h8v2H6V4zM0 0h14v2H0V0z" fill="#000" fill-rule="evenodd"/></symbol><symbol viewBox="0 0 16 10" id="text-size"><path d="M9.411 8.82L5.903 0H3.977L0 10h1.463a.625.625 0 0 0 .403-.131.655.655 0 0 0 .22-.29l.757-2.041h4.194l.756 2.04a.642.642 0 0 0 .63.422H9.88v-.002h.108a.468.468 0 0 0 .445-.301l.54-1.458h2.996l.54 1.458a.459.459 0 0 0 .45.301H16l-2.84-7.143h-1.376L9.41 8.821zm1.908-1.52h2.305s-1.108-3.047-1.155-3.215c-.047.168-1.15 3.216-1.15 3.216zM3.326 6.225h3.228S5.002 1.957 4.937 1.722c-.066.235-1.611 4.502-1.611 4.502z" fill="#000" fill-rule="evenodd"/></symbol><symbol viewBox="0 0 15 8" id="ticket"><path d="M14.995 6S13 6 13 4s1.995-2 1.995-2V0H0v2s2 0 2 2-2 2-2 2v2h14.995V6zM3 7h9V1H3v6zm1-1h7V2H4v4z" fill="#000" fill-rule="evenodd"/></symbol><symbol viewBox="0 0 14 9" id="tiled"><path d="M10 5h4v4h-4V5zM5 5h4v4H5V5zM0 5h4v4H0V5zm10-5h4v4h-4V0zM5 0h4v4H5V0zM0 0h4v4H0V0z" fill="#000" fill-rule="evenodd"/></symbol><symbol viewBox="0 0 14 10" id="timeline"><path d="M5 7h7v1H5V7zM1 9.005C1 8.995 12.993 9 12.993 9 13 9 13 .995 13 .995 13 1.005 1.007 1 1.007 1 1 1 1 9.005 1 9.005zM5 5h7v1H5V5zm0-3h7v2H5V2zM2 2h2v2H2V2zM0 .995A1 1 0 0 1 1.007 0h11.986C13.55 0 14 .456 14 .995v8.01a1 1 0 0 1-1.007.995H1.007A1.008 1.008 0 0 1 0 9.005V.995z" fill="#000" fill-rule="evenodd"/></symbol><symbol viewBox="0 0 14 14" id="tired"><path d="M7 13A6 6 0 1 0 7 1a6 6 0 0 0 0 12zm0 1A7 7 0 1 1 7 0a7 7 0 0 1 0 14zm0-2a2 2 0 1 0 0-4 2 2 0 0 0 0 4zM3 4.5l.5-.5 1 1 1-1 .5.5-1 1 1 1-.5.5-1-1-1 1-.5-.5 1-1-1-1zm5 0l.5-.5 1 1 1-1 .5.5-1 1 1 1-.5.5-1-1-1 1-.5-.5 1-1-1-1z" fill="#000" fill-rule="evenodd"/></symbol><symbol viewBox="0 0 11 15" id="trash"><path d="M1 14V5.497S1 5 1.5 5c.5 0 .5.5.5.5V14h7V5.5s0-.5.5-.5.5.5.5.5V14s0 1-1 1H2c-1 0-1-1-1-1zm2-1.5v-7s0-.5.5-.5.5.5.5.5v7s0 .5-.5.5-.5-.5-.5-.5zm2 0v-7s0-.5.5-.5.5.5.5.5v7s0 .5-.5.5-.5-.5-.5-.5zm2 0v-7s0-.5.5-.5.5.5.5.5v7s0 .5-.5.5-.5-.5-.5-.5zM7 2V.999A.996.996 0 0 0 6.001 0H4.999A.996.996 0 0 0 4 .999V2H.996A.997.997 0 0 0 0 3c0 .556.446 1 .996 1h9.008c.551 0 .996-.448.996-1 0-.556-.446-1-.996-1H7zM5 1h1v1H5V1z" fill="#000" fill-rule="evenodd"/></symbol><symbol viewBox="0 0 14 16" id="trophy"><path d="M6 9C3 9 3 6 3 6H2S0 6 0 3.5 2 1 2 1h1c0-1 1-1 1-1h6s1 0 1 1h1s2 0 2 2.5S12 6 12 6h-1s0 2.997-3 3v2s2 0 2 2H4c0-2 2-2 2-2V9zm-2 5h6c2 0 2 2 2 2H2s0-2 2-2zM1 3.5C1 5 2 5 2 5h1V2H2S1 2 1 3.5zM11 2v3h1s1 0 1-1.5S12 2 12 2h-1z" fill="#000" fill-rule="evenodd"/></symbol><symbol viewBox="0 0 10 14" id="underline"><path d="M0 0l2 .005L1.997 6c0 1.712 1.496 3 2.998 3C6.497 9 8 7.763 8 6V0h2v6c0 3-2.5 5-5 5S0 9 0 6V0zm0 12h10v2H0v-2z" fill="#000" fill-rule="evenodd"/></symbol><symbol viewBox="0 0 12 12" id="union"><path d="M4 4H.997C.453 4 0 4.446 0 4.997v6.006c0 .544.446.997.997.997h6.006c.544 0 .997-.446.997-.997V8h3.003c.544 0 .997-.446.997-.997V.997C12 .453 11.554 0 11.003 0H4.997C4.453 0 4 .446 4 .997V4zm3 3h4V1H5v4H1v6h6V7z" fill="#000" fill-rule="evenodd"/></symbol><symbol viewBox="0 0 12 14" id="unlock"><path d="M1.002 6h1.004s0-2-.006-2c0-4 3-4 4-4s3.994 0 4 4H8s.25-2-2-2-2 2-2 2v2H10.998C11.55 6 12 6.453 12 6.997v6.006c0 .55-.456.997-1.002.997H1.002A1.004 1.004 0 0 1 0 13.003V6.997C0 6.447.456 6 1.002 6zM2 8v4h1V8H2z" fill="#000" fill-rule="evenodd"/></symbol><symbol viewBox="0 0 14 14" id="upload"><path d="M5 8H2l5-5 5 5H9v6H5V8zM0 0h14v2H0V0z" fill="#000" fill-rule="evenodd"/></symbol><symbol viewBox="0 0 8 16" id="usb"><path d="M0 6v9c0 1 1 1 1 1h6s1 0 1-1V6c0-1-1-1-1-1V1c0-1-1-1-1-1H2S1 0 1 1v4S0 5 0 6zm5 0h1v5H5V6zM2 1h4v4H2V1z" fill="#000" fill-rule="evenodd"/></symbol><symbol viewBox="0 0 12 12" id="user"><path d="M6 8c2.305 0 4.408.867 6 2.292v.705c0 .554-.456 1.003-1.002 1.003H1.002A.996.996 0 0 1 0 10.997v-.705A8.966 8.966 0 0 1 6 8zm0-2a3 3 0 1 1 0-6 3 3 0 0 1 0 6z" fill="#000" fill-rule="evenodd"/></symbol><symbol viewBox="0 0 14 12" id="user-minus"><path d="M10 5.5h4v1h-4v-1zM6 8c2.305 0 4.408.867 6 2.292v.705c0 .554-.456 1.003-1.002 1.003H1.002A.996.996 0 0 1 0 10.997v-.705A8.966 8.966 0 0 1 6 8zm0-2a3 3 0 1 1 0-6 3 3 0 0 1 0 6z" fill="#000" fill-rule="evenodd"/></symbol><symbol viewBox="0 0 14 12" id="user-plus"><path d="M12.5 5.5H14v1h-1.5V8h-1V6.5H10v-1h1.5V4h1v1.5zM6 8c2.305 0 4.408.867 6 2.292v.705c0 .554-.456 1.003-1.002 1.003H1.002A.996.996 0 0 1 0 10.997v-.705A8.966 8.966 0 0 1 6 8zm0-2a3 3 0 1 1 0-6 3 3 0 0 1 0 6z" fill="#000" fill-rule="evenodd"/></symbol><symbol viewBox="0 0 14 10" id="users"><path d="M7 8H.997A.995.995 0 0 1 0 7.001V7a4.992 4.992 0 0 1 4-2c1.636 0 3.088.785 4 2V7a.99.99 0 0 1-.117.468A4.981 4.981 0 0 1 10 7c1.636 0 3.088.785 4 2V9c0 .552-.453.999-.997.999H6.997A.995.995 0 0 1 6 9.001V9a5.03 5.03 0 0 1 1-1zm3-2a2 2 0 1 1 0-4 2 2 0 0 1 0 4zM4 4a2 2 0 1 1 0-4 2 2 0 0 1 0 4z" fill="#000" fill-rule="evenodd"/></symbol><symbol viewBox="0 0 14 14" id="vector"><path d="M12.5 3.998V10H14v4h-4v-1.5H4.002V14H0v-4h1.5V3.998H0V0h4.002L4 1.5h6V0h4v3.998h-1.5zm-10 0V10h1.502L4 11.5h6V10h1.5V3.998H10V2.5H4.002v1.498H2.5zM11 11v2h2v-2h-2zM1 11v2h2v-2H1zm10-9.997V3h2V1.003h-2zm-10 0V3h2V1.003H1z" fill="#000" fill-rule="evenodd"/></symbol><symbol viewBox="0 0 14 9" id="video"><path d="M9 2.813V.998A.997.997 0 0 0 8.002 0H.998A.997.997 0 0 0 0 .998v7.004C0 8.554.447 9 .998 9h7.004A.997.997 0 0 0 9 8.002V6.187l4.129 2.323c.485.273.871.043.871-.508V.998c0-.552-.39-.779-.871-.508L9 2.812z" fill="#000" fill-rule="evenodd"/></symbol><symbol viewBox="0 0 14 14" id="warning"><path d="M7 14A7 7 0 1 1 7 0a7 7 0 0 1 0 14zM6 2.5v6s0 .5.502.5H7.5c.518 0 .5-.5.5-.5v-6S8 2 7.5 2h-.998C6 2 6 2.5 6 2.5zm0 9s0 .5.5.5h1c.5 0 .5-.5.5-.5v-1s0-.5-.5-.5h-1c-.5 0-.5.5-.5.5v1z" fill="#000" fill-rule="evenodd"/></symbol><symbol viewBox="0 0 8 14" id="watch"><path d="M6 3.535V1s0-1-1-1H3C2 0 2 1 2 1v2.535A3.998 3.998 0 0 0 0 7c0 1.48.804 2.773 2 3.465V13s0 1 1 1h2c1 0 1-1 1-1v-2.535A3.998 3.998 0 0 0 8 7c0-1.48-.804-2.773-2-3.465zM4 9.667a2.667 2.667 0 1 0 0-5.334 2.667 2.667 0 0 0 0 5.334z" fill="#000" fill-rule="evenodd"/></symbol><symbol viewBox="0 0 8 14" id="watch-alt"><path d="M1 11s-1 0-1-1V4c0-1 1-1 1-1h1V1.004C2 0 3 0 3 0h2s1 .004 1 1.004V3h1s1 0 1 1v6c0 1-1 1-1 1H6v2c0 1-1 1-1 1H3s-1 0-1-1v-2H1zm0-7v6h6V4H1z" fill="#000" fill-rule="evenodd"/></symbol><symbol viewBox="0 0 8 16" id="wine-glass"><path d="M3 9.93C0 9.475 0 7 0 7V1c0-1 1-1 1-1h6s1 0 1 1v6s0 2.476-3 2.93V15h1.5s.5 0 .5.5-.5.5-.5.5h-5s-.497 0-.497-.5.497-.5.497-.5H3V9.93zM1 1v2h6V1H1z" fill="#000" fill-rule="evenodd"/></symbol><symbol viewBox="0 0 11 14" id="wrench"><path d="M6.713 1.799A3.596 3.596 0 0 0 3.498.001l1.582 2.74-1.01 1.676-1.948.032L.534 1.711a3.598 3.598 0 0 0 3.588 5.446l3.723 6.448s.379.656 1.035.277l.983-.568c.656-.378.278-1.034.278-1.034L6.418 5.832a3.598 3.598 0 0 0 .295-4.033m2.09 10.815a.568.568 0 1 0-.568-.983.568.568 0 0 0 .569.983" fill="#000" fill-rule="evenodd"/></symbol></svg>