<?xml version="1.0" encoding="UTF-8" standalone="no"?><svg xmlns="http://www.w3.org/2000/svg" xmlns:xlink="http://www.w3.org/1999/xlink"><symbol viewBox="0 0 10 16" id="arrow-down"><path d="M9 5L5 8.999 1 5 0 6l5 5 5-5z" fill="#000" fill-rule="evenodd"/></symbol><symbol viewBox="0 0 6 16" id="arrow-left"><path d="M5 3L0 7.999 5 13l1-1-4-4.001L6 4z" fill="#000" fill-rule="evenodd"/></symbol><symbol viewBox="0 0 6 16" id="arrow-right"><path d="M1 3L0 4l3.999 3.998L0 12l1 1 5-5.002z" fill="#000" fill-rule="evenodd"/></symbol><symbol viewBox="0 0 10 16" id="arrow-up"><path d="M5 5l-5 5 1 1 4-4 4 4 1-1z" fill="#000" fill-rule="evenodd"/></symbol><symbol viewBox="0 0 16 16" id="artboard"><path d="M3 3h10v10H3V3zm9 11h1v2h-1v-2zM0 3h2v1H0V3zm0 9h2v1H0v-1zm14-9h2v1h-2V3zm0 9h2v1h-2v-1zM3 14h1v2H3v-2zm9-14h1v2h-1V0zM3 0h1v2H3V0z" fill="#000" fill-rule="evenodd"/></symbol><symbol viewBox="0 0 14 16" id="bar"><path d="M1 11h12s1 0 1 1-1 1-1 1H1s-1 0-1-1 1-1 1-1zm0-4h12s1 0 1 1-1 1-1 1H1S0 9 0 8s1-1 1-1zm0-4h12s1 0 1 1-1 1-1 1H1S0 5 0 4s1-1 1-1z" fill="#000" fill-rule="evenodd"/></symbol><symbol viewBox="0 0 16 16" id="bar-chart"><path d="M0 6h1v9h15v1H0V6zm3-2h2v9H3V4zm3-3h2v12H6V1zm3 4h2v8H9V5zm3 2h2v6h-2V7z" fill="#000" fill-rule="evenodd"/></symbol><symbol viewBox="0 0 13 16" id="beer"><path d="M.996 14S0 14 0 15s1 1 1 1h9s1 0 1-1-.996-1-.996-1L10 13h1c2 0 2-2.003 2-2.003V8s0-2-2-2h-1v-.5A2.5 2.5 0 0 0 8.5 1 2.496 2.496 0 0 0 5.174.38a2 2 0 0 0-2.916.636A2 2 0 0 0 1 4.733L.996 14zM3 7h1v6H3V7zm2 0h1v6H5V7zm2 0h1v6H7V7zM2.886 3.819S3.25 5 4.5 5s2-1 2-1 .5 1 2 1A1.5 1.5 0 0 0 10 3.5C10 2.672 9.25 2 8 2c0 0-.5-1-1.5-1s-1.367.586-1.367.586S4.75 1 4 1C3 1 2.7 2 2.7 2S1 1.586 1 3c0 1.6 1.886.819 1.886.819z" fill="#000" fill-rule="evenodd"/></symbol><symbol viewBox="0 0 14 16" id="bell"><path d="M5 14h4s.313 2-2 2-2-2-2-2zM4.5 2c-.828 0-1.294 2.37-.97 2.644L2.286 9H2a2 2 0 1 0 0 4h10a2 2 0 1 0 0-4h-.286L10.47 4.644C10.794 4.37 10.328 2 9.5 2h-.616C8.701 1.127 8.226 0 7 0S5.3 1.127 5.116 2H4.5z" fill="#000" fill-rule="evenodd"/></symbol><symbol viewBox="0 0 16 16" id="birthday-cake"><path d="M16 13.001c-1.02 0-1-1.001-2-1.001s-1 1.001-2 1.001S11 12 10 12s-1 1-2 1.001C7 13 7 12 6 12s-1 1.001-2 1.001S3 12 2 12s-.978 1.001-2 1.001V14c0 2 2 2 2 2h12s2 0 2-2v-.999zM7 7V4.5c0-.5.5-.5.5-.5h1s.5 0 .5.5V7h2V4.5c0-.5.5-.5.5-.5h1s.5 0 .5.5V7c3 0 3 3 3 3v1c-1 0-1-1-2-1s-1 1-2 1-1-1-2-1-1 1-2 1-1-1-2-1-1 1-2 1-1-1-2-1-1 1-2 1v-1s0-3 3-3V4.5c0-.5.5-.5.5-.5h1s.5 0 .5.5V7h2zm5-4c.552 0 1-.672 1-1.5S12.552 0 12 0c0 .997-.5 1-1 1.5 0 .828.448 1.5 1 1.5zM8 3c.552 0 1-.672 1-1.5S8.552 0 8 0c0 .997-.5 1-1 1.5C7 2.328 7.448 3 8 3zM4 3c.552 0 1-.672 1-1.5S4.552 0 4 0c0 .997-.5 1-1 1.5C3 2.328 3.448 3 4 3z" fill="#000" fill-rule="evenodd"/></symbol><symbol viewBox="0 0 16 16" id="book"><path d="M15 13c1 0 1-1.002 1-1.002V3s0-1-1-1H9L8 3 7 2H1C0 2 0 3 0 3v8.998S0 13 1 13c0 0 4.089-.004 6 0 0 0 0 .75 1 .75S9 13 9 13c1.588-.006 6 0 6 0zM9 4l1-1h5v9H9V4zM1 3h5l1 1v8H1V3zm9 6h4v1h-4V9zm0-2h4v1h-4V7zm0-2h4v1h-4V5zM2 9h4v1H2V9zm0-2h4v1H2V7zm0-2h4v1H2V5z" fill="#000" fill-rule="evenodd"/></symbol><symbol viewBox="0 0 8 16" id="bookmark"><path d="M0 1s0-1 1-1h6c1 0 1 1 1 1v15l-4-3-4 3V1zm5 1h1v2H5V2zm0 3h1v2H5V5z" fill="#000" fill-rule="evenodd"/></symbol><symbol viewBox="0 0 16 16" id="browser"><path d="M0 3c0-1 1-1 1-1h14s1 0 1 1.003V12c0 1-1 1-1 1H1s-1 0-1-1V3zm1 2h14v7H1V5zm4-2h10v1H5V3zM1 3h1v1H1V3zm2 0h1v1H3V3z" fill="#000" fill-rule="evenodd"/></symbol><symbol viewBox="0 0 12 16" id="brush"><path d="M5.252 6.892s2.964-4.157 4.91-6.553c.505-.882 2.252.137 1.748 1.02C10.833 4.262 8.747 8.93 8.747 8.93s-.504.883-1.378.373L5.621 8.284c-.873-.51-.369-1.392-.369-1.392m-3.476 8.665c1.659.968 4.032.287 5.007-1.42.976-1.707.536-3.587-.865-4.403-.812-.474-2.176-.667-3.035.076-.6.51-.818 1.431-.705 2.146.34 1.684-.175 2.298-.91 2.25-.238.018-.433-.11-1.268-.433.261.622.582 1.088 1.776 1.784" fill="#000" fill-rule="evenodd"/></symbol><symbol viewBox="0 0 14 16" id="bug"><path d="M5 2.44C3 3.48 3 6 3 6h8s0-2.52-2-3.56V0H8v2.094A5.06 5.06 0 0 0 7 2a5.06 5.06 0 0 0-1 .094V0H5v2.44zm6.153 10.477C10.562 14.107 9.339 15 7 15c-2.341 0-3.564-.895-4.154-2.086l-2.504.91L0 12.886l2.513-.915a5.903 5.903 0 0 1-.138-.97H0v-1h2.378c.018-.28.049-.553.086-.813L0 8.29l.342-.94 2.312.842C2.822 7.474 3 7 3 7h8s.177.473.345 1.188l2.314-.842.342.94-2.466.897c.038.261.069.536.087.817H14v1h-2.375a5.9 5.9 0 0 1-.139.974l2.504.911-.342.94-2.495-.908z" fill="#000" fill-rule="evenodd"/></symbol><symbol viewBox="0 0 11 16" id="building"><path d="M0 15V1.001C0 0 1 0 1 0h9s1 0 1 1v14c0 1-1 1-1 1H1s-1 0-1-1zm4-3h3v3H4v-3zm-2-2h1v1H2v-1zm6 0h1v1H8v-1zM2 8h1v1H2V8zm2 0h1v1H4V8zm2 0h1v1H6V8zm2 0h1v1H8V8zM2 6h1v1H2V6zm2 0h1v1H4V6zm2 0h1v1H6V6zm2 0h1v1H8V6zM2 4h1v1H2V4zm2 0h1v1H4V4zm2 0h1v1H6V4zm2 0h1v1H8V4zM2 2h1v1H2V2zm2 0h1v1H4V2zm2 0h1v1H6V2zm2 0h1v1H8V2z" fill="#000" fill-rule="evenodd"/></symbol><symbol viewBox="0 0 15 16" id="calendar"><path d="M15 2v13H0V2h3V0h3v2h3V0h3v2h3zM1 4h13v10H1V4zm4 7h2v2H5v-2zm3 0h2v2H8v-2zm-6 0h2v2H2v-2zm6-3h2v2H8V8zm3 0h2v2h-2V8zM5 8h2v2H5V8zM2 8h2v2H2V8zm6-3h2v2H8V5zm3 0h2v2h-2V5zM5 5h2v2H5V5zm5-4h1v2h-1V1zM4 1h1v2H4V1z" fill="#000" fill-rule="evenodd"/></symbol><symbol viewBox="0 0 15 16" id="camera"><path d="M13 3h-1c0-1.002-1-1.002-1-1.002H9C8 1.998 8 3 8 3H2C0 3 0 4.964 0 4.964V12s0 2 2 2h11c2 0 2-2 2-2V5c0-.059 0-2-2-2zm-2 1h2v1h-2V4zm-3.5 8a3.5 3.5 0 1 0 0-7 3.5 3.5 0 0 0 0 7zm0-1a2.5 2.5 0 1 0 0-5 2.5 2.5 0 0 0 0 5z" fill="#000" fill-rule="evenodd"/></symbol><symbol viewBox="0 0 10 16" id="check"><path d="M1 8L0 9l3 3 7-7-1-1-6 6z" fill="#000" fill-rule="evenodd"/></symbol><symbol viewBox="0 0 16 16" id="check-o"><path d="M8 16A8 8 0 1 0 8 0a8 8 0 0 0 0 16zM4 8L3 9l3 3 7-7-1-1-6 6-2-2z" fill="#000" fill-rule="evenodd"/></symbol><symbol viewBox="0 0 14 16" id="clock"><path d="M7 15A7 7 0 1 0 7 1a7 7 0 0 0 0 14zm6-7A6 6 0 1 0 1 8a6 6 0 0 0 12 0zM6.933 9.6h2.8s.934 0 .934-.933c0-.934-.934-.934-.934-.934H7.867v-2.8S7.867 4 6.933 4C6 4 6 4.933 6 4.933v3.734s0 .933.933.933z" fill="#000" fill-rule="evenodd"/></symbol><symbol viewBox="0 0 10 16" id="close"><path d="M6.343 8l3.358-3.358s.672-.672 0-1.343c-.671-.672-1.343 0-1.343 0L5 6.657 1.642 3.299s-.672-.672-1.343 0c-.672.671 0 1.343 0 1.343L3.657 8 .299 11.358s-.672.672 0 1.343c.671.672 1.343 0 1.343 0L5 9.343l3.358 3.358s.672.672 1.343 0c.672-.671 0-1.343 0-1.343L6.343 8z" fill="#000" fill-rule="evenodd"/></symbol><symbol viewBox="0 0 16 16" id="cloud"><path d="M13 13a3 3 0 1 0-.172-5.995A3 3 0 0 0 7.106 5.21 3.001 3.001 0 0 0 3.17 7.005 3 3 0 1 0 3 13h10z" fill="#000" fill-rule="evenodd"/></symbol><symbol viewBox="0 0 12 16" id="cocktail"><path d="M5 9L0 4V2.5S0 2 .5 2h11c.5 0 .5.5.5.5V4L7 9v5h2.5s.5 0 .5.5-.5.5-.5.5h-7s-.5 0-.5-.5.497-.5.5-.5H5V9zM3 5L1 3h10L9 5H3z" fill="#000" fill-rule="evenodd"/></symbol><symbol viewBox="0 0 14 16" id="code"><path d="M5 10.966L4 12 0 8l4-4 1 1-3 3 3 2.966zM9 11l1 1 4-4-4-4-1 1 3 3-3 3z" fill="#000" fill-rule="evenodd"/></symbol><symbol viewBox="0 0 14 16" id="coffee"><path d="M11 4s0-1-1-1H3C2 3 2 4 2 4v3.994C2 9.114 2.894 10 3.997 10h5.006c1.1 0 1.994-.895 1.997-2h1s1 0 1-1.5S12 5 12 5h-1V4zM0 11.5c0-.5.5-.5.5-.5h13s.5 0 .5.5-.5.5-.5.5H.5s-.5 0-.5-.5z" fill="#000" fill-rule="evenodd"/></symbol><symbol viewBox="0 0 14 16" id="columns"><path d="M10 3h4v9h-4V3zM5 3h4v9H5V3zM0 3h4v9H0V3z" fill="#000" fill-rule="evenodd"/></symbol><symbol viewBox="0 0 16 16" id="comment"><path d="M3 11.684C1.171 10.584 0 8.894 0 7c0-3.314 3.582-6 8-6s8 2.686 8 6-3.582 6-8 6c-.512 0-1.012-.036-1.497-.105l-2.506 1.5C3 15 3 14 3 14v-2.316z" fill="#000" fill-rule="evenodd"/></symbol><symbol viewBox="0 0 16 16" id="commenting"><path d="M3 11.684C1.171 10.584 0 8.894 0 7c0-3.314 3.582-6 8-6s8 2.686 8 6-3.582 6-8 6c-.512 0-1.012-.036-1.497-.105l-2.506 1.5C3 15 3 14 3 14v-2.316zM5 8a1 1 0 1 0 0-2 1 1 0 0 0 0 2zm3 0a1 1 0 1 0 0-2 1 1 0 0 0 0 2zm3 0a1 1 0 1 0 0-2 1 1 0 0 0 0 2z" fill="#000" fill-rule="evenodd"/></symbol><symbol viewBox="0 0 16 16" id="comments"><path d="M4.027 6.071C4.315 3.787 6.879 2 10 2c3.314 0 6 2.015 6 4.5 0 1.421-.878 2.688-2.25 3.513v1.737s0 .75-.747.296l-1.88-1.125a7.99 7.99 0 0 1-1.405.074C9.033 12.455 7.179 13.5 5 13.5c-.32 0-.632-.023-.936-.066l-1.566.937c-.623.379-.623-.246-.623-.246v-1.447C.732 11.99 0 10.934 0 9.75c0-1.821 1.731-3.34 4.027-3.679zm-1.152 6.04V13l.98-.605.35.05c.26.036.525.055.795.055 2.261 0 4-1.304 4-2.75S7.261 7 5 7 1 8.304 1 9.75c0 .775.496 1.533 1.39 2.07l.485.292z" fill="#000" fill-rule="evenodd"/></symbol><symbol viewBox="0 0 14 16" id="desktop"><path d="M5.998 12.001V13H5l-.859.684c-.223.177-.174.316.102.316h5.51c.284 0 .323-.142.104-.316L9 13H8v-.999h5s1 0 1-1.001V3c0-1-1-1-1-1H1S0 2 0 3v8c0 1 1 1.001 1 1.001h4.998zM1 3h12v8H1V3z" fill="#000" fill-rule="evenodd"/></symbol><symbol viewBox="0 0 16 16" id="diamond"><path d="M9 14.57c-1 .967-2 0-2 0L0 7l3-5h10l3 5-7 7.57zM4 7H2l5.001 6L4 7zm7 0H5l3 6 3-6zm1 0h2l-5 6 3-6zm-2-4h2l1.998 3H12l-2-3zM9 3H7L5 6h6L9 3zM6 3H4L2 6h2l2-3z" fill="#000" fill-rule="evenodd"/></symbol><symbol viewBox="0 0 16 16" id="disabled"><defs><path d="M2.343 2.342A7.981 7.981 0 0 0 0 7.942v.115a7.977 7.977 0 0 0 2.343 5.599 7.977 7.977 0 0 0 5.599 2.343h.115a7.981 7.981 0 0 0 5.6-2.343 7.974 7.974 0 0 0 2.342-5.6v-.113a7.976 7.976 0 0 0-2.342-5.601A7.981 7.981 0 0 0 7.999 0a7.975 7.975 0 0 0-5.656 2.342zm1.415 1.414c2.134-2.136 5.443-2.37 7.777-.706L3.05 11.535c-1.664-2.333-1.429-5.642.708-7.779zm.706 9.193l8.485-8.485c1.664 2.334 1.43 5.643-.706 7.777a6.116 6.116 0 0 1-4.332 1.801 5.925 5.925 0 0 1-3.447-1.093z" id="bga"/></defs><use fill="#000" xlink:href="#bga" fill-rule="evenodd"/></symbol><symbol viewBox="0 0 14 16" id="download"><path d="M9 6V0H5v6H2l5 6 5-6H9zm-9 7h14v2H0v-2z" fill="#000" fill-rule="evenodd"/></symbol><symbol viewBox="0 0 10 16" id="drop-down"><path d="M0 5l5 5 5-5z" fill="#000" fill-rule="evenodd"/></symbol><symbol viewBox="0 0 5 16" id="drop-left"><path d="M5 3L0 8l5 5z" fill="#000" fill-rule="evenodd"/></symbol><symbol viewBox="0 0 5 16" id="drop-right"><path d="M0 3v10l5-5z" fill="#000" fill-rule="evenodd"/></symbol><symbol viewBox="0 0 10 16" id="drop-up"><path d="M5 5l5 5H0z" fill="#000" fill-rule="evenodd"/></symbol><symbol viewBox="0 0 13 16" id="elipsis-h"><path d="M11.5 9a1.5 1.5 0 1 0 0-3 1.5 1.5 0 0 0 0 3zm-5 0a1.5 1.5 0 1 0 0-3 1.5 1.5 0 0 0 0 3zm-5 0a1.5 1.5 0 1 0 0-3 1.5 1.5 0 0 0 0 3z" fill="#000" fill-rule="evenodd"/></symbol><symbol viewBox="0 0 3 16" id="elipsis-v"><path d="M1.5 14a1.5 1.5 0 1 0 0-3 1.5 1.5 0 0 0 0 3zm0-5a1.5 1.5 0 1 0 0-3 1.5 1.5 0 0 0 0 3zm0-5a1.5 1.5 0 1 0 0-3 1.5 1.5 0 0 0 0 3z" fill="#000" fill-rule="evenodd"/></symbol><symbol viewBox="0 0 10 16" id="export"><path d="M0 7h3v1H1v7h8V8H7V7h3v9H0V7zm6 5H4V4L3 5 2 4l3-3 3 3-1 1-1-1v8z" fill="#000" fill-rule="evenodd"/></symbol><symbol viewBox="0 0 16 16" id="eye"><path d="M0 8s2.222-6 8-6c5.778 0 8 6 8 6s-2.222 6-8 6c-5.778 0-8-6-8-6zm8 4a4 4 0 1 1 0-8 4 4 0 0 1 0 8zm0-2a2 2 0 1 1 0-4 2 2 0 0 1 0 4z" fill="#000" fill-rule="evenodd"/></symbol><symbol viewBox="0 0 16 16" id="feather"><path d="M1 16l2-4c0-3 1-5 3-5-.07 0 .961-7 9-7 0 1-2 8-6 8-.009 0 0 4-4 4l-3 4H1z" fill="#000" fill-rule="evenodd"/></symbol><symbol viewBox="0 0 13 16" id="feed"><path d="M2 11a2 2 0 1 1 0 4 2 2 0 0 1 0-4zm5 4c0-7-7-7-7-7V6s9 0 9 9H7zm4 0C11 4 0 4 0 4V2s13 0 13 13h-2z" fill="#000" fill-rule="evenodd"/></symbol><symbol viewBox="0 0 10 16" id="filter"><path d="M6 16l-2-2V9L0 5V3s0-1 1-1h8c1 0 1 1 1 1v2L6 9v7z" fill="#000" fill-rule="evenodd"/></symbol><symbol viewBox="0 0 15 16" id="flag"><path d="M2 2.915a1.5 1.5 0 1 0-1 0V16h1V2.915zM3 8c0 2 4.531-.469 6 1 1.59 1.59 6 1 6 0V3c0-2-4.46 1.54-6 0-2-2-6-1.004-6 0v5z" fill="#000" fill-rule="evenodd"/></symbol><symbol viewBox="0 0 14 16" id="folder"><path d="M1 14h12c1 0 1-1 1-1V5s0-1-1-1H7V3c0-1-1-1-1-1H3S2 2 2 3v1H1C0 4 0 5 0 5v8s0 1 1 1z" fill="#000" fill-rule="evenodd"/></symbol><symbol viewBox="0 0 16 16" id="folder-open"><path d="M1 14h14l1-7H5l-1 4V6h10V5c0-1-1-1-1-1H7V3c0-1-1-1-1-1H3S2 2 2 3v1H1S0 4 0 5v8c0 1 1 1 1 1z" fill="#000" fill-rule="evenodd"/></symbol><symbol viewBox="0 0 10 16" id="fork"><path d="M3 10v2.268a2 2 0 1 1-2 0V3.732a2 2 0 1 1 2 0V8c1 0 3-1.72 3-2a2 2 0 1 1 1.103 1.788S5 10 3 10zM2 3a1 1 0 1 0 0-2 1 1 0 0 0 0 2zm0 12a1 1 0 1 0 0-2 1 1 0 0 0 0 2zm6-8a1 1 0 1 0 0-2 1 1 0 0 0 0 2z" fill="#000" fill-rule="evenodd"/></symbol><symbol viewBox="0 0 16 16" id="globe"><path d="M0 8a8 8 0 1 1 16 0A8 8 0 0 1 0 8zm1.43-1.774C1.709 5.646 2.167 4 2.497 4c.33 0 .21.827.504.898.248.06.058-.368.747-.445.688-.077 1.44.345 1.44.345S6 5 6.751 4.798c0 0-.397-.601.089-.798.485-.197 1.145.53 1.17 1 .023.47-1.08.786-1.08.786l1.08.647S8.324 5.43 9 5.419c.6-.01 1.352 1.086 1 1.581-.352.495-.578.154-.578.154S8.347 8.243 8.009 8.437c-.337.195-.809 0-.809 0s-.2.37 0 .541c.406.418 1.459.835 1.459.835S11.899 10.34 12 11c.101.66-2.578 4-3 4H8c-.408-.72.659-3.022.659-3.022S8.11 11.37 8 11c-.11-.37.213-1.022.213-1.022l-1.462-.672s-.777 0-1.162-.306C5.203 8.694 5 7 5 7L3.605 5.978S2.395 7.516 2 7.32c-.395-.196-.847-.514-.57-1.094zm7.51-2.397c-.966 0-3.287-1.227-2.896-1.887C6.044 1 8.379 1.064 8.94 1c.56-.065 1.93.438 2.91.943.6.943-.626 1.544-.98 1.887-.353.342-.965 0-1.93 0z" fill="#000" fill-rule="evenodd"/></symbol><symbol viewBox="0 0 14 16" id="hash"><path d="M7.64 12.375H5.027l-.262 1.522c-.125.725-.793 1.21-1.505 1.082-.706-.127-1.178-.812-1.052-1.544l.182-1.06H1.306A1.306 1.306 0 0 1 0 11.062c0-.724.58-1.312 1.306-1.312h1.537l.527-3.063H2.181A1.306 1.306 0 0 1 .875 5.375c0-.725.58-1.313 1.306-1.313h1.642l.337-1.959c.125-.725.794-1.21 1.505-1.082.706.127 1.178.813 1.052 1.544L6.46 4.063h2.614l.337-1.96c.125-.725.794-1.21 1.505-1.082.706.127 1.178.813 1.052 1.544l-.258 1.498h.985c.721 0 1.306.582 1.306 1.312 0 .725-.58 1.313-1.306 1.313h-1.437L10.73 9.75h1.089c.721 0 1.306.583 1.306 1.313 0 .724-.58 1.312-1.306 1.312h-1.542l-.262 1.522c-.125.725-.793 1.21-1.505 1.082-.706-.127-1.178-.812-1.052-1.544l.182-1.06zm.453-2.625H5.48l.527-3.063H8.62L8.093 9.75z" fill="#000" fill-rule="evenodd"/></symbol><symbol viewBox="0 0 12 16" id="heart"><path d="M6 13s4.873-2.487 5.847-5.97C12.822 3.548 8.924 1.058 6 5.04 3.076 1.06-.822 3.548.153 7.03 1.127 10.513 6 13 6 13z" fill="#000" fill-rule="evenodd"/></symbol><symbol viewBox="0 0 12 16" id="heart-o"><path d="M6 13s4.873-2.487 5.847-5.97C12.822 3.548 8.924 1.058 6 5.04 3.076 1.06-.822 3.548.153 7.03 1.127 10.513 6 13 6 13zm-.014-1.52s3.76-2.122 4.373-4.465c.612-2.344-1.382-4.01-4.373-.022-2.99-3.988-5.1-2.322-4.372.022.729 2.343 4.372 4.466 4.372 4.466z" fill="#000" fill-rule="evenodd"/></symbol><symbol viewBox="0 0 16 16" id="home"><path d="M8 1l8 7v1h-2l-1 6H3L2 9H0V8l8-7zM7 11h2v4H7v-4z" fill="#000" fill-rule="evenodd"/></symbol><symbol viewBox="0 0 10 16" id="import"><path d="M0 5h3v1H1v7h8V6H7V5h3v9H0V5zm6-4H4v8L3 8 2 9l3 3 3-3-1-1-1 1V1z" fill="#000" fill-rule="evenodd"/></symbol><symbol viewBox="0 0 16 16" id="info"><path d="M8 16A8 8 0 1 0 8 0a8 8 0 0 0 0 16zm-3-5v2h6v-2H9V6H6v2h1v3H5zm2-6V3h2v2H7z" fill="#000" fill-rule="evenodd"/></symbol><symbol viewBox="0 0 16 16" id="key"><path d="M8.101 4.898a4 4 0 1 1 3 3.001l-2.103 2.103H7V12l-1.004 1.004H4V15l-1 .999H1L0 15v-1.996l8.101-8.106zM13 4a1 1 0 1 0 0-2 1 1 0 0 0 0 2z" fill="#000" fill-rule="evenodd"/></symbol><symbol viewBox="0 0 16 16" id="keyboard"><path d="M16 10.995S16 12 14.857 12H1.143C0 12 0 10.995 0 10.995V4c0 .096 0-1 1.143-1h13.714C16 3 16 4 16 4v6.995zM1 4h2v1H1V4zm3 0h1v1H4V4zm2 0h1v1H6V4zm2 0h1v1H8V4zm2 0h1v1h-1V4zm2 0h1v1h-1V4zm2 0h1v1h-1V4zM1 6h1v1H1V6zm2 0h1v1H3V6zm2 0h1v1H5V6zm2 0h1v1H7V6zm2 0h1v1H9V6zm2 0h1v1h-1V6zm2 0h2v3h-2V6zM1 10h1v1H1v-1zm2 0h1v1H3v-1zm2 0h4v1H5v-1zm7 0h1v1h-1v-1zm-2 0h1v1h-1v-1zm4 0h1v1h-1v-1zM1 8h1v1H1V8zm2 0h1v1H3V8zm2 0h1v1H5V8zm2 0h1v1H7V8zm2 0h1v1H9V8zm2 0h1v1h-1V8z" fill="#000" fill-rule="evenodd"/></symbol><symbol viewBox="0 0 16 16" id="laptop"><path d="M0 12h16s0 1-1 1H1c-1 0-1-1-1-1zm14-1.966V3c0-1-1-1-1-1H3S2 2 2 3v7c0 1 1 1 1 1h10s1 0 1-.966zM3 3h10v7H3V3z" fill="#000" fill-rule="evenodd"/></symbol><symbol viewBox="0 0 14 16" id="layout"><path d="M0 3h9v9H0V3zm10 0h4v4h-4V3zm0 5h4v4h-4V8z" fill="#000" fill-rule="evenodd"/></symbol><symbol viewBox="0 0 16 16" id="line-chart"><path d="M0 5h1v9h15v1H0V5zm12 4.5a1.5 1.5 0 1 1-2.982-.236L7.142 7.856a1.494 1.494 0 0 1-.857.129L4.86 9.865a1.5 1.5 0 1 1-1.124-.847l1.408-1.876a1.5 1.5 0 1 1 2.838-.405l1.876 1.407c.195-.092.412-.144.642-.144l1.8-3.6a1.5 1.5 0 1 1 1.2.6l-1.8 3.6c.188.25.3.562.3.9z" fill="#000" fill-rule="evenodd"/></symbol><symbol viewBox="0 0 16 16" id="link"><path d="M4 9.01c-1 0-3-.016-3-2.013C1 5 3 5.013 3 5.013L8 5s2.006-.012 2 2c-.006 2.01-2 2.01-2 2.01V10s3 0 3-3-3-3-3-3H3S0 4 0 7c0 2.998 3 2.987 4 3v-.99zm8-1.02c1 0 3 .016 3 2.013 0 1.997-2 1.984-2 1.984L8 12s-2.006.012-2-2c.006-2.01 2-2.01 2-2.01V7s-3 0-3 3 3 3 3 3h5s3 0 3-3c0-2.998-3-2.987-4-3v.99z" fill="#000" fill-rule="evenodd"/></symbol><symbol viewBox="0 0 10 16" id="link-external"><path d="M0 12V6c0-1 1-1 1-1h3v1H1v6h6V9h1v3c0 1-1 1-1 1H1s-1 0-1-1zm9-7v3h1V4c0-1-1-1-1-1H5v1h3L4 8l1 1 4-4z" fill="#000" fill-rule="evenodd"/></symbol><symbol viewBox="0 0 12 16" id="location"><path d="M6 16c1 0 6-7.234 6-10 0-3.472-2.686-6-6-6S0 2.528 0 6c0 2.766 5 10 6 10zm0-7a3 3 0 1 0 0-6 3 3 0 0 0 0 6z" fill="#000" fill-rule="evenodd"/></symbol><symbol viewBox="0 0 12 16" id="lock"><path d="M1.002 7C.456 7 0 7.446 0 7.997v6.006c0 .544.449.997 1.002.997h9.996c.546 0 1.002-.446 1.002-.997V7.997C12 7.453 11.551 7 10.998 7H9.994L10 5c-.006-4-3-4-4-4S2 1 2 5c.006 0 .006 2 .006 2H1.002zM2 9h1v4H2V9zm2-4c0-2 1.5-2 2-2s2 0 2 2v2H4V5z" fill="#000" fill-rule="evenodd"/></symbol><symbol viewBox="0 0 12 16" id="login"><path d="M0 6v4l3 .006V12l4-3.997L3 4v2.006L0 6zm2-3.001h9v9.995H2v1h9c0 .026 1 0 1-1V2.999C12 2 11 2 11 2H2v.999z" fill="#000" fill-rule="evenodd"/></symbol><symbol viewBox="0 0 12 16" id="logout"><path d="M5 6v4h3v2l4-4.003L8 4v2H5zm5 7H1V3.005h9v-1H1c0-.026-1 0-1 1V13c0 1 1 1 1 1h9v-1z" fill="#000" fill-rule="evenodd"/></symbol><symbol viewBox="0 0 14 16" id="magic"><path d="M1 4l2-2 11 11-2 2L1 4zm1 0l1-1 4 4-1 1-4-4zm7.5-2L9 3l-1 .5L9 4l.5 1 .5-1.004 1-.496-1-.5-.5-1zM7 1l-.333.667L6 2l.667.333L7 3l.333-.67L8 2l-.667-.334L7 1zm5 0l-.333.667L11 2l.667.333L12 3l.333-.67L13 2l-.667-.334L12 1zM1 7l-.333.667L0 8l.667.333L1 9l.333-.67L2 8l-.667-.334L1 7z" fill="#000" fill-rule="evenodd"/></symbol><symbol viewBox="0 0 14 16" id="mail"><path d="M0 6l7 5 7-5v6c0 1-.985 1-.985 1H1s-1 0-1-1V6zm0-2c0-1 1-1 1-1h12s1 0 1 1L7 9 0 4z" fill="#000" fill-rule="evenodd"/></symbol><symbol viewBox="0 0 16 16" id="map"><path d="M3 10h2s0 3 3 3 3-3 3-3h2l3 5H0l3-5zm5 2s3-5.343 3-7a3 3 0 1 0-6 0c0 1.657 3 7 3 7zm0-6a1 1 0 1 0 0-2 1 1 0 0 0 0 2z" fill="#000" fill-rule="evenodd"/></symbol><symbol viewBox="0 0 10 16" id="medal"><path d="M8 0h1L7 3.002H6L8 0zM3 0h1l1 1.5L6 0h1.002L5.5 2.251l.5.751H5l-.5-.751L3 0zM1 0h1.002l2 3h-1L1 0zm2 4h4v1H3V4zm2 12A5 5 0 1 0 5 6a5 5 0 0 0 0 10zm0-8l2.121.879L8 11l-.879 2.121L5 14l-2.121-.879L2 11l.879-2.121L5 8z" fill="#000" fill-rule="evenodd"/></symbol><symbol viewBox="0 0 14 16" id="megaphone"><path d="M6.247 15H3.25v-4.232C1.892 10.6.94 10.47.94 10.47s-.421.109-.79-1.412c-.367-1.52.054-1.629.054-1.629s8.174-6.021 9.65-6.4c.211-.054 2.584-.433 3.793 4.563 1.21 4.996-1.058 5.809-1.269 5.863-.795.204-4.054-.098-6.891-.42-.062-.006.76 3.966.76 3.966zm5.268-4.768c1.059-.264 1.495-2.167.976-4.25-.52-2.085-1.799-3.56-2.857-3.296-1.059.264-1.496 2.167-.976 4.25.52 2.085 1.799 3.56 2.857 3.296zM10.222 8.2c.717-.179 1.131-.992.926-1.817-.206-.824-.954-1.348-1.67-1.169-.717.179.027 3.165.744 2.986z" fill="#000" fill-rule="evenodd"/></symbol><symbol viewBox="0 0 16 16" id="mention"><path d="M14.444 8c0-3.917-3.583-6.629-6.444-6.629-2.861 0-6.629 2.515-6.629 6.629 0 4.114 3.429 6.629 6.629 6.629 3.2 0 4.571-1.829 4.571-1.829s1.203.759 1.18.759C12.468 14.873 10.493 16 8 16A8 8 0 1 1 8 0c4.418 0 8 3.657 8 8 0 1.371-1.28 3.345-2.382 3.76-1.238.51-2.715.213-3.596-.624-.166-.158-.532-.672-.649-.876-.586.85-.916 1.397-2.059 1.397-2.224 0-3.428-1.628-3.428-3.657 0-2.03 1.204-3.657 3.2-3.657 1.513 0 2.142 1.201 2.142 1.201.068-.309.293-1.136.314-1.201H11.2c.01.011-.343 1.068-.398 1.448-.473 2.209-.492 3.766.17 4.371.72.543 1.628.726 2.398.098.772-.608 1.074-1.576 1.074-2.26zM8.686 8c0-1.162-.745-2.057-1.6-2.057-.856 0-1.6.895-1.6 2.057s.744 2.057 1.6 2.057c.855 0 1.6-.895 1.6-2.057z" fill="#000" fill-rule="evenodd"/></symbol><symbol viewBox="0 0 10 16" id="minus"><path d="M0 7h10v2H0z" fill="#000" fill-rule="evenodd"/></symbol><symbol viewBox="0 0 8 16" id="mobile"><path d="M8 1v13c0 1-1 1-1 1H1s-1 0-1-1V1c0-1 1-1 1-1h6s1 0 1 1zM1 13h6V2H1v11z" fill="#000" fill-rule="evenodd"/></symbol><symbol viewBox="0 0 10 16" id="mouse"><path d="M5 0C.625 0 0 3.582 0 8s.625 8 5 8 5-3.582 5-8-.625-8-5-8zM4 6s0 1 1 1 1-1 1-1V3s0-1.004-1-1.004S4 3 4 3v3z" fill="#000" fill-rule="evenodd"/></symbol><symbol viewBox="0 0 13 16" id="music"><path d="M11 4.111V9.05a2.5 2.5 0 1 0 1 .45V1L3 2v8.05a2.5 2.5 0 1 0 1 .45V4.889l7-.778z" fill="#000" fill-rule="evenodd"/></symbol><symbol viewBox="0 0 16 16" id="palette"><path d="M8.06 14c4.382 0 7.935-2.686 7.935-6S12.997 2 8.06 2C5 2 2.911 2.713 2.911 3.5c-.459 1.381 3.31 2.383 1.78 3.59C2.316 8.968 0 6.028 0 8.79 0 11.266 3.676 14 8.06 14zm.44-8c.828 0 1.5-.448 1.5-1s-.672-1-1.5-1S7 4.448 7 5s.672 1 1.5 1zm3 2c.828 0 1.5-.448 1.5-1s-.672-1-1.5-1-1.5.448-1.5 1 .672 1 1.5 1z" fill="#000" fill-rule="evenodd"/></symbol><symbol viewBox="0 0 16 16" id="paper-plane"><path d="M6.72 10.672l5.255-6.961-6.387 6.36L2.39 8.352c-.515-.277-.52-.731-.02-1.02L13.17 1.125c.502-.288.87-.058.826.513l-.89 11.398c-.044.571-.495.811-1.007.536l-2.876-1.573-1.907 1.906c-.596.34-.596-.333-.596-.333v-2.9z" fill="#000" fill-rule="evenodd"/></symbol><symbol viewBox="0 0 16 16" id="pencil"><path d="M8.982 3L13 7l-7.5 7.5L4 16H0v-4.009L1.997 10l6.985-7zM9 5L5 9l1 1 4-4-1-1zm-6 7H2l-1 1v1h1v1h1l1-1v-1l-1-1zm7-10s1.037-1 1-1c1-1 2 0 2 0l2 2s1 1 0 2c.023.023-1 1-1 1l-4-4z" fill="#000" fill-rule="evenodd"/></symbol><symbol viewBox="0 0 14 16" id="phone"><path d="M4.058.437l1.237 1.508c.247.302.742.905-.729 2.168-.882.758-.952 1.59 1.534 4.623 2.434 2.969 3.286 3.09 4.155 2.317 1.483-1.247 1.965-.66 2.212-.358l1.237 1.508c.247.302.742.906-.605 2.32-1.347 1.413-1.37 1.69-2.159 1.34-.789-.351-3.944-1.755-6.899-5.36C1.061 6.868.258 3.444.058 2.588c-.201-.856.07-.831 1.664-1.944C3.316-.469 3.81.135 4.058.437" fill="#000" fill-rule="evenodd"/></symbol><symbol viewBox="0 0 16 16" id="pie-chart"><path d="M7 16a7 7 0 0 0 7-7H7V2a7 7 0 1 0 0 14zm1-8V1a7 7 0 0 1 7 7H8z" fill="#000" fill-rule="evenodd"/></symbol><symbol viewBox="0 0 15 16" id="pizza"><path d="M7.5 16A7.5 7.5 0 0 0 15 8.5C15 4.358 11.65 1 7.4 1v7.5L1 4.763C.368 5.783 0 7.136 0 8.5A7.5 7.5 0 0 0 7.5 16zm-.007-1c3.538 0 6.502-3.185 6.502-6.586C13.995 5.12 11.302 2.164 8 2v6.5c0 1-.997.504-.997.504L1.5 6.001C1.273 6.568.995 7 .995 8.414.995 12.45 3.955 15 7.493 15zM4 12h1v1H4v-1zm7-4a1 1 0 1 0 0-2 1 1 0 0 0 0 2zM9 4h1v1H9V4zm2 7a1 1 0 1 0 0-2 1 1 0 0 0 0 2zm-3 3a1 1 0 1 0 0-2 1 1 0 0 0 0 2zm0-3.949h1v1H8v-1zM5 11a1 1 0 1 0 0-2 1 1 0 0 0 0 2zM2 8h1v1H2V8zm4.359-8v6.154L1.026 3.077S1.908 1.617 3.28.824C4.652.033 6.359 0 6.359 0z" fill="#000" fill-rule="evenodd"/></symbol><symbol viewBox="0 0 10 16" id="plus"><path d="M6 7V3H4v4H0v2h4v4h2V9h4V7z" fill="#000" fill-rule="evenodd"/></symbol><symbol viewBox="0 0 14 16" id="print"><path d="M0 9s0-1 1-1h1V6h1V2s0-1 .996-1H10c1 0 1 1 1 1v4h1v2h1c1 0 1 1 1 1v6h-3s0 1-1 1H3.996C3 16 3 15 3 15H0V9zm4 3h6v3H4v-3zm4-3h2v1H8V9zM4 2h6v6H4V2z" fill="#000" fill-rule="evenodd"/></symbol><symbol viewBox="0 0 15 16" id="prototype"><path d="M8.005 7.49c0-2.882-.003-6.49-.003-6.49 0-1 1-1 1-1h5s1 0 1 1v10c0 1-1 1-1 1h-5s-.994 0-1-1c.002 0 .003-1.062.003-2.495l3.36-1.932c.276.33.682.538 1.135.538.828 0 1.5-.696 1.5-1.555C14 4.696 13.328 4 12.5 4S11 4.696 11 5.556c0 .069.004.137.013.204L8.005 7.49zM7 9.082V14c0 1-1 1-1 1H1s-.994 0-1-1C.006 14 0 4 0 4c0-1 1-1 1-1h5s1 0 1 1v4.067l-2.366 1.36A1.475 1.475 0 0 0 3.5 8.889c-.828 0-1.5.696-1.5 1.555C2 11.304 2.672 12 3.5 12S5 11.304 5 10.444c0-.069-.004-.137-.013-.204L7 9.083z" fill="#000" fill-rule="evenodd"/></symbol><symbol viewBox="0 0 16 16" id="question"><path d="M8 16A8 8 0 1 0 8 0a8 8 0 0 0 0 16zm-1-3.5v-1s0-.5.5-.5h1c.5 0 .5.5.5.5v1s0 .5-.5.5h-1c-.5 0-.5-.5-.5-.5zm0-3c0 .504.5.5.5.5l1 .004s.5 0 .5-.504c0-1.5 1.888-2.603 2.335-3.496.488-1.004 0-3.976-2.924-4.004C5.973 2.02 5 3.5 5 5c0 0 0 .5.483.5h.979c.487 0 .487-.5.487-.5 0-.5.488-1 1.462-1 1.03 0 1.462.75.975 1.5C9.32 5.738 8.14 6.754 7.924 7c0 0-.924.624-.924 2.5z" fill="#000" fill-rule="evenodd"/></symbol><symbol viewBox="0 0 15 16" id="quote-left"><path d="M11.504 7a3.5 3.5 0 1 1-3.5 3.5c-.01-.133 0-.468 0-.5 0-3 4.005-8 4.005-8l.995 1c-.5.603-1.5 2.191-2.5 4.097.44-.131.588-.097 1-.097m-8 0a3.5 3.5 0 1 1-3.5 3.5c-.01-.133 0-.468 0-.5 0-3 4.005-8 4.005-8l.995 1c-.5.603-1.5 2.191-2.5 4.097.44-.131.588-.097 1-.097" fill="#000" fill-rule="evenodd"/></symbol><symbol viewBox="0 0 15 16" id="quote-right"><path d="M3.5 9A3.5 3.5 0 1 1 7 5.5c.01.133 0 .468 0 .5 0 3-4.005 8-4.005 8L2 13c.5-.603 1.5-2.19 2.5-4.097-.44.13-.588.097-1 .097zm8 0A3.5 3.5 0 1 1 15 5.5c.01.133 0 .468 0 .5 0 3-4.005 8-4.005 8L10 13c.5-.603 1.5-2.19 2.5-4.097-.44.13-.588.097-1 .097z" fill="#000" fill-rule="evenodd"/></symbol><symbol viewBox="0 0 14 16" id="rocket"><path d="M5.792 5c1.164-1.366 2.35-2.594 3.13-2.984 0 0 2.031-1.01 4.062-1.016 0 0 .508 0 .762.254s.254.762.254.762c0 2.032-1.016 4.063-1.016 4.063-.39.78-1.618 1.966-2.984 3.131v3.423c0 .28-.179.631-.417.796l-2.166 1.494c-.23.16-.417.062-.417-.211V11.61c-1.015.772-1.745 1.293-1.745 1.293a.604.604 0 0 1-.745-.064l-2.348-2.348a.597.597 0 0 1-.056-.755S2.624 9.01 3.392 8H.295c-.275 0-.379-.179-.22-.417l1.448-2.166A1.05 1.05 0 0 1 2.299 5h3.493zM2 11s-1 1 0 2 2 0 2 0 0 2-2 2-2 0-2-2 2-2 2-2zm8-5a1 1 0 1 0 0-2 1 1 0 0 0 0 2z" fill="#000" fill-rule="evenodd"/></symbol><symbol viewBox="0 0 14 16" id="search"><path d="M8.857 10.857a5.5 5.5 0 1 1 1-1L14 14l-1 1-4.143-4.143zM5.5 11a4.5 4.5 0 1 0 0-9 4.5 4.5 0 0 0 0 9z" fill="#000" fill-rule="evenodd"/></symbol><symbol viewBox="0 0 14 16" id="search-minus"><path d="M8.857 10.857a5.5 5.5 0 1 1 1-1L14 14l-1 1-4.143-4.143zM5.5 11a4.5 4.5 0 1 0 0-9 4.5 4.5 0 0 0 0 9zM3 6v1h5V6H3z" fill="#000" fill-rule="evenodd"/></symbol><symbol viewBox="0 0 14 16" id="search-plus"><path d="M8.857 10.857a5.5 5.5 0 1 1 1-1L14 14l-1 1-4.143-4.143zM5.5 11a4.5 4.5 0 1 0 0-9 4.5 4.5 0 0 0 0 9zM3 6v1h2v2h1V7h2V6H6V4H5v2H3z" fill="#000" fill-rule="evenodd"/></symbol><symbol viewBox="0 0 12 16" id="share"><path d="M3.958 8.41a2.009 2.009 0 0 0 0-.822l4.771-2.044a2 2 0 1 0-.687-1.134L3.271 6.455a2 2 0 1 0 0 3.09l4.771 2.045a2 2 0 1 0 .687-1.134L3.958 8.41z" fill="#000" fill-rule="evenodd"/></symbol><symbol viewBox="0 0 10 16" id="shield"><path d="M0 3s0-1 1-1h8c1 0 1 1 1 1v8l-5 4-5-4V3zm5 0h4.005v7.5L5 13.5V3z" fill="#000" fill-rule="evenodd"/></symbol><symbol viewBox="0 0 17 16" id="sitemap"><path d="M2 8s.007-1 1-1h5.005V5H7S6 5 6 4V1c0-1 1-1 1-1l3 .001s1 0 1 .999v3c0 1-1 1-1 1H9v2h5c1 0 1 1 1 1v2h1s1 0 1 1v3c0 1-1 1-1 1h-3s-1 0-1-1v-3c0-1 1-1 1-1h1V8H9v2h1s1 0 1 1v3c0 1-1 1-1 1H7s-1 0-1-1v-3c0-1 1-1 1-1h1.005V8H3v2h1s1 0 1 1l-.004 3c0 1-.996 1-.996 1H1s-1 0-1-1v-3c0-1 1-1 1-1h1V8z" fill="#000" fill-rule="evenodd"/></symbol><symbol viewBox="0 0 16 16" id="star"><path d="M8 12.5l5 2.5-1-5.5L16 6l-5.5-1L8 0 5.5 5 0 6l4 3.5L3 15z" fill="#000" fill-rule="evenodd"/></symbol><symbol viewBox="0 0 16 16" id="star-o"><path d="M8 12.618l-4.944 2.599L4 9.71 0 5.812l5.528-.803L8 0l2.472 5.01L16 5.811l-4 3.9.944 5.505L8 12.617zm0-1.168l-3.527 1.854.674-3.927-2.853-2.781 3.943-.573L8 2.45l1.763 3.573 3.943.573-2.853 2.781.674 3.927L8 11.45z" fill="#000" fill-rule="evenodd"/></symbol><symbol viewBox="0 0 12 16" id="tablet"><path d="M12 1v13.995C12 16 11 16 11 16H1s-1 0-1-1V1c0-1 1-1 1-1h10s1 0 1 1zM1 14h10V2H1v12z" fill="#000" fill-rule="evenodd"/></symbol><symbol viewBox="0 0 16 16" id="tag"><path d="M10 0h5s1 0 1 1v5L6 16l-6-6L10 0zm-.414 6.414a2 2 0 1 0 2.828-2.827 2 2 0 0 0-2.828 2.827z" fill="#000" fill-rule="evenodd"/></symbol><symbol viewBox="0 0 16 16" id="terminal"><path d="M0 13V3c0-1 1-1 1-1h14s1 0 1 1v10c0 1-1 1-1 1H1s-1 0-1-1zm2-8l1-1 3 3-3 3-1-1 2-2-2-2zm4 5h5v2H6v-2z" fill="#000" fill-rule="evenodd"/></symbol><symbol viewBox="0 0 15 16" id="ticket"><path d="M14.995 10S13 10 13 8s1.995-2 1.995-2V4H0v2s2 0 2 2-2 2-2 2v2h14.995v-2zM3 11h9V5H3v6zm1-1h7V6H4v4z" fill="#000" fill-rule="evenodd"/></symbol><symbol viewBox="0 0 14 16" id="tiled"><path d="M10 8h4v4h-4V8zM5 8h4v4H5V8zM0 8h4v4H0V8zm10-5h4v4h-4V3zM5 3h4v4H5V3zM0 3h4v4H0V3z" fill="#000" fill-rule="evenodd"/></symbol><symbol viewBox="0 0 11 16" id="trash"><path d="M1 14V5.497S1 5 1.5 5c.5 0 .5.5.5.5V14h7V5.5s0-.5.5-.5.5.5.5.5V14s0 1-1 1H2c-1 0-1-1-1-1zm2-1.5v-7s0-.5.5-.5.5.5.5.5v7s0 .5-.5.5-.5-.5-.5-.5zm2 0v-7s0-.5.5-.5.5.5.5.5v7s0 .5-.5.5-.5-.5-.5-.5zm2 0v-7s0-.5.5-.5.5.5.5.5v7s0 .5-.5.5-.5-.5-.5-.5zM7 2V.999A.996.996 0 0 0 6.001 0H4.999A.996.996 0 0 0 4 .999V2H.996A.997.997 0 0 0 0 3c0 .556.446 1 .996 1h9.008c.551 0 .996-.448.996-1 0-.556-.446-1-.996-1H7zM5 1h1v1H5V1z" fill="#000" fill-rule="evenodd"/></symbol><symbol viewBox="0 0 14 16" id="trophy"><path d="M6 9C3 9 3 6 3 6H2S0 6 0 3.5 2 1 2 1h1c0-1 1-1 1-1h6s1 0 1 1h1s2 0 2 2.5S12 6 12 6h-1s0 2.997-3 3v2s2 0 2 2H4c0-2 2-2 2-2V9zm-2 5h6c2 0 2 2 2 2H2s0-2 2-2zM1 3.5C1 2 2 2 2 2h1v3H2S1 5 1 3.5zM11 2h1s1 0 1 1.5S12 5 12 5h-1V2z" fill="#000" fill-rule="evenodd"/></symbol><symbol viewBox="0 0 12 16" id="unlock"><path d="M1.002 7C.456 7 0 7.446 0 7.997v6.006c0 .544.449.997 1.002.997h9.996c.546 0 1.002-.446 1.002-.997V7.997C12 7.453 11.551 7 10.998 7H4V5s-.25-2 2-2 2 2 2 2h2c-.006-4-3-4-4-4S2 1 2 5c.006 0 .006 2 .006 2H1.002zM2 9h1v4H2V9z" fill="#000" fill-rule="evenodd"/></symbol><symbol viewBox="0 0 14 16" id="upload"><path d="M5 9v6h4V9h3L7 3 2 9h3zM0 0h14v2H0V0z" fill="#000" fill-rule="evenodd"/></symbol><symbol viewBox="0 0 12 16" id="user"><path d="M6 8a3 3 0 1 0 0-6 3 3 0 0 0 0 6zm-2.998 7H12c0-3.75-2-6-6-6s-6 2.25-6 6h3.002z" fill="#000" fill-rule="evenodd"/></symbol><symbol viewBox="0 0 15 16" id="user-minus"><path d="M6 7a3 3 0 1 0 0-6 3 3 0 0 0 0 6zm-2.998 7H12c0-3.75-2-6-6-6s-6 2.25-6 6h3.002zM10 6v1h5V6h-5z" fill="#000" fill-rule="evenodd"/></symbol><symbol viewBox="0 0 15 16" id="user-plus"><path d="M6 7a3 3 0 1 0 0-6 3 3 0 0 0 0 6zm-2.998 7H12c0-3.75-2-6-6-6s-6 2.25-6 6h3.002zM13 6V4h-1v2h-2v1h2v2h1V7h2V6h-2z" fill="#000" fill-rule="evenodd"/></symbol><symbol viewBox="0 0 14 16" id="users"><path d="M6.375 11H2 0c0-2.5 1.333-4 4-4 2.067 0 3.333.901 3.798 2.471C8.387 9.163 9.12 9 10 9c2.667 0 4 1.5 4 4H8.001 6c0-.765.125-1.437.375-2zM10 8a2 2 0 1 0 0-4 2 2 0 0 0 0 4zM4 6a2 2 0 1 0 0-4 2 2 0 0 0 0 4z" fill="#000" fill-rule="evenodd"/></symbol><symbol viewBox="0 0 16 16" id="vector"><path d="M14 4v8h2v4h-4v-2H4v2H0v-4h2V4H0V0h4v2h8V0h4v4h-2zM3 4v8h1v1h8v-1h1V4h-1V3H4v1H3zm10 9h2v2h-2v-2zM1 13h2v2H1v-2zM13 1h2v2h-2V1zM1 1h2v2H1V1z" fill="#000" fill-rule="evenodd"/></symbol><symbol viewBox="0 0 14 16" id="video"><path d="M9 5.813V3.998A.997.997 0 0 0 8.002 3H.998A.997.997 0 0 0 0 3.998v7.004c0 .552.447.998.998.998h7.004A.997.997 0 0 0 9 11.002V9.187l4.129 2.323c.485.273.871.043.871-.508V3.998c0-.552-.39-.779-.871-.508L9 5.812z" fill="#000" fill-rule="evenodd"/></symbol><symbol viewBox="0 0 16 16" id="warning"><path d="M8 16A8 8 0 1 0 8 0a8 8 0 0 0 0 16zM6.76 3.25S6.75 3 7 3h2c.25 0 .24.25.24.25L9 9.5s.018.5-.5.5h-.998C7 10 7 9.5 7 9.5l-.24-6.25zM7 12.5v-1s0-.5.5-.5h1c.5 0 .5.5.5.5v1s0 .5-.5.5h-1c-.5 0-.5-.5-.5-.5z" fill="#000" fill-rule="evenodd"/></symbol><symbol viewBox="0 0 8 16" id="wearable"><path d="M1 12s-1 0-1-1V5c0-1 1-1 1-1h1V2.004C2 1 3 1 3 1h2s1 .004 1 1.004V4h1s1 0 1 1v6c0 1-1 1-1 1H6v2c0 1-1 1-1 1H3s-1 0-1-1v-2H1zm0-7h6v6H1V5z" fill="#000" fill-rule="evenodd"/></symbol><symbol viewBox="0 0 8 16" id="wine-glass"><path d="M3 9.93C0 9.475 0 7 0 7V1c0-1 1-1 1-1h6s1 0 1 1v6s0 2.476-3 2.93V15h1.5s.5 0 .5.5-.5.5-.5.5h-5s-.497 0-.497-.5.497-.5.497-.5H3V9.93zM1 1h6v2H1V1z" fill="#000" fill-rule="evenodd"/></symbol><symbol viewBox="0 0 12 16" id="wrench"><path d="M7.672 2.056A4.11 4.11 0 0 0 3.998.001l1.808 3.132-1.154 1.915-2.227.037-1.814-3.13a4.112 4.112 0 0 0 4.1 6.224l4.255 7.37s.433.75 1.182.316l1.125-.649c.749-.432.316-1.182.316-1.182l-4.255-7.37a4.112 4.112 0 0 0 .338-4.608m2.39 12.36a.65.65 0 1 0-.65-1.124.65.65 0 0 0 .65 1.125" fill="#000" fill-rule="evenodd"/></symbol></svg>