<?xml version="1.0" encoding="UTF-8"?>
<svg width="14px" height="10px" viewBox="0 0 14 10" version="1.1" xmlns="http://www.w3.org/2000/svg" xmlns:xlink="http://www.w3.org/1999/xlink">
    <!-- Generator: sketchtool 45.2 (43514) - http://www.bohemiancoding.com/sketch -->
    <title>table</title>
    <desc>Created with sketchtool.</desc>
    <defs></defs>
    <g id="text-edit" stroke="none" stroke-width="1" fill="none" fill-rule="evenodd">
        <g id="table" fill="#000000">
            <path d="M0,0.995397568 C0,0.445654671 0.449948758,0 1.00684547,0 L12.9931545,0 C13.5492199,0 14,0.455664396 14,0.995397568 L14,9.00460243 C14,9.55434533 13.5500512,10 12.9931545,10 L1.00684547,10 C0.450780073,10 0,9.5443356 0,9.00460243 L0,0.995397568 Z M1,9 C1,8.9898985 12.9931545,8.99540021 12.9931545,8.99540021 C12.9998968,8.99540021 13,0.995397568 13,0.995397568 C13,1.00549907 1.00684547,0.999997355 1.00684547,0.999997355 C1.00010318,0.999997355 1,9 1,9 Z M2,2 L5,2 L5,4 L2,4 L2,2 Z M2,5 L5,5 L5,6 L2,6 L2,5 Z M2,7 L5,7 L5,8 L2,8 L2,7 Z M6,2 L12,2 L12,4 L6,4 L6,2 Z M6,5 L12,5 L12,6 L6,6 L6,5 Z M6,7 L12,7 L12,8 L6,8 L6,7 Z" id="Shape"></path>
        </g>
    </g>
</svg>