<?xml version="1.0" encoding="UTF-8"?>
<svg width="12px" height="12px" viewBox="0 0 12 12" version="1.1" xmlns="http://www.w3.org/2000/svg" xmlns:xlink="http://www.w3.org/1999/xlink">
    <!-- Generator: sketchtool 49.2 (51160) - http://www.bohemiancoding.com/sketch -->
    <title>target</title>
    <desc>Created with sketchtool.</desc>
    <defs></defs>
    <g id="web-app" stroke="none" stroke-width="1" fill="none" fill-rule="evenodd">
        <g id="target" fill="#000000">
            <path d="M7,1.10001812 C8.95913038,1.49770059 10.5022994,3.04086962 10.8999819,5 L12,5 L12,7 L10.8999819,7 C10.5022994,8.95913038 8.95913038,10.5022994 7,10.8999819 L7,12 L5,12 L5,10.8999819 C3.04086962,10.5022994 1.49770059,8.95913038 1.10001812,7 L0,7 L0,5 L1.10001812,5 C1.49770059,3.04086962 3.04086962,1.49770059 5,1.10001812 L5,0 L7,0 L7,1.10001812 Z M6,10 C8.209139,10 10,8.209139 10,6 C10,3.790861 8.209139,2 6,2 C3.790861,2 2,3.790861 2,6 C2,8.209139 3.790861,10 6,10 Z M6,8 C7.1045695,8 8,7.1045695 8,6 C8,4.8954305 7.1045695,4 6,4 C4.8954305,4 4,4.8954305 4,6 C4,7.1045695 4.8954305,8 6,8 Z" id="Shape"></path>
        </g>
    </g>
</svg>