<?xml version="1.0" encoding="UTF-8"?>
<svg width="24px" height="24px" viewBox="0 0 24 24" version="1.1" xmlns="http://www.w3.org/2000/svg" xmlns:xlink="http://www.w3.org/1999/xlink">
    <!-- Generator: sketchtool 50.2 (55047) - http://www.bohemiancoding.com/sketch -->
    <title>terminal</title>
    <desc>Created with sketchtool.</desc>
    <defs></defs>
    <g id="production" stroke="none" stroke-width="1" fill="none" fill-rule="evenodd">
        <g id="terminal" fill="#000000" fill-rule="nonzero">
            <path d="M4,4 L20,4 C21.1045695,4 22,4.8954305 22,6 L22,18 C22,19.1045695 21.1045695,20 20,20 L4,20 C2.8954305,20 2,19.1045695 2,18 L2,6 C2,4.8954305 2.8954305,4 4,4 Z M4,6 L4,18 L20,18 L20,6 L4,6 Z M12,14 L18,14 L18,16 L12,16 L12,14 Z M10.9852814,11.5710678 L7.44974747,15.1066017 L6.03553391,13.6923882 L8.15685425,11.5710678 L6.03553391,9.44974747 L7.44974747,8.03553391 L10.9852814,11.5710678 Z" id="Shape"></path>
        </g>
    </g>
</svg>