<?xml version="1.0" encoding="UTF-8"?>
<svg width="24px" height="24px" viewBox="0 0 24 24" version="1.1" xmlns="http://www.w3.org/2000/svg" xmlns:xlink="http://www.w3.org/1999/xlink">
    <!-- Generator: sketchtool 52.2 (67145) - http://www.bohemiancoding.com/sketch -->
    <title>text-align-center</title>
    <desc>Created with sketchtool.</desc>
    <g id="text-edit" stroke="none" stroke-width="1" fill="none" fill-rule="evenodd">
        <g id="text-align-center" fill="#000000">
            <path d="M19,7 L5,7 C4.44771525,7 4,6.55228475 4,6 C4,5.44771525 4.44771525,5 5,5 L19,5 C19.5522847,5 20,5.44771525 20,6 C20,6.55228475 19.5522847,7 19,7 Z M17,11 L7,11 C6.44771525,11 6,10.5522847 6,10 C6,9.44771525 6.44771525,9 7,9 L17,9 C17.5522847,9 18,9.44771525 18,10 C18,10.5522847 17.5522847,11 17,11 Z M19,15 L5,15 C4.44771525,15 4,14.5522847 4,14 C4,13.4477153 4.44771525,13 5,13 L19,13 C19.5522847,13 20,13.4477153 20,14 C20,14.5522847 19.5522847,15 19,15 Z M17,19 L7,19 C6.44771525,19 6,18.5522847 6,18 C6,17.4477153 6.44771525,17 7,17 L17,17 C17.5522847,17 18,17.4477153 18,18 C18,18.5522847 17.5522847,19 17,19 Z" id="Shape"></path>
        </g>
    </g>
</svg>