<?xml version="1.0" encoding="UTF-8"?>
<svg width="14px" height="9px" viewBox="0 0 14 9" version="1.1" xmlns="http://www.w3.org/2000/svg" xmlns:xlink="http://www.w3.org/1999/xlink">
    <defs></defs>
    <g id="text-edit" stroke="none" stroke-width="1" fill="none" fill-rule="evenodd">
        <g id="tiled" fill="#000000">
            <path d="M10,5 L14,5 L14,9 L10,9 L10,5 Z M5,5 L9,5 L9,9 L5,9 L5,5 Z M0,5 L4,5 L4,9 L0,9 L0,5 Z M10,0 L14,0 L14,4 L10,4 L10,0 Z M5,0 L9,0 L9,4 L5,4 L5,0 Z M0,0 L4,0 L4,4 L0,4 L0,0 Z" id="Shape"></path>
        </g>
    </g>
</svg>