<?xml version="1.0" encoding="UTF-8"?>
<svg width="14px" height="14px" viewBox="0 0 14 14" version="1.1" xmlns="http://www.w3.org/2000/svg" xmlns:xlink="http://www.w3.org/1999/xlink">
    <!-- Generator: sketchtool 49.2 (51160) - http://www.bohemiancoding.com/sketch -->
    <title>umbrella</title>
    <desc>Created with sketchtool.</desc>
    <defs></defs>
    <g id="weather" stroke="none" stroke-width="1" fill="none" fill-rule="evenodd">
        <g id="umbrella" fill="#000000">
            <path d="M9.28610794,7.90896868 C9.69779047,7.07492559 10.5667852,6.5 11.5722159,6.5 C12.1015744,6.5 12.5931127,6.65937023 13,6.93201965 C12.5168802,4.28536712 10.2702484,2.24122018 7.5,2.01989059 L7.5,1.5 C7.5,1.16956597 7.33333333,1.00289931 7,1 C6.66666667,0.997100693 6.5,1.16376736 6.5,1.5 L6.5,2.01989059 C3.72975161,2.24122018 1.48311985,4.28536712 1,6.93201965 C1.4068873,6.65937023 1.89842558,6.5 2.42778412,6.5 C3.43321483,6.5 4.30220953,7.07492559 4.71389206,7.90896868 C5.05549669,7.21689904 5.7119743,6.70323946 6.5,6.54841931 L6.5,11 C6.5,11.5522847 6.05228475,12 5.5,12 C4.94771525,12 4.5,11.5522847 4.5,11 C4.5,10.7238576 4.27614237,10.5 4,10.5 C3.72385763,10.5 3.5,10.7238576 3.5,11 C3.5,12.1045695 4.3954305,13 5.5,13 C6.6045695,13 7.5,12.1045695 7.5,11 L7.5,6.54841931 C8.2880257,6.70323946 8.94450331,7.21689904 9.28610794,7.90896868 Z" id="Shape"></path>
        </g>
    </g>
</svg>