<?xml version="1.0" encoding="UTF-8"?>
<svg width="14px" height="10px" viewBox="0 0 14 10" version="1.1" xmlns="http://www.w3.org/2000/svg" xmlns:xlink="http://www.w3.org/1999/xlink">
    <defs></defs>
    <g id="web-app" stroke="none" stroke-width="1" fill="none" fill-rule="evenodd">
        <g id="users" fill="#000000">
            <path d="M6.99951255,8 L0.997030139,8 C0.446385598,8 1.44328993e-15,7.55733967 1.44328993e-15,7.00104344 L-3.52429197e-12,6.99951255 C0.912228791,5.7853431 2.36440104,5 4,5 C5.63559896,5 7.08777121,5.7853431 8,6.99951255 L8,7.00104344 C8,7.17017498 7.95742419,7.32948946 7.8827041,7.46911113 C8.52565127,7.16814344 9.24318963,7 10,7 C11.635599,7 13.0877712,7.7853431 14,8.99951255 L14,9.00104344 C14,9.55275191 13.5469637,10 13.0029699,10 L6.99703014,10 C6.4463856,10 6,9.55733967 6,9.00104344 L6,8.99951255 C6.28431827,8.62108713 6.62108713,8.28431827 6.99951255,8 L6.99951255,8 Z M10,6 C8.8954305,6 8,5.1045695 8,4 C8,2.8954305 8.8954305,2 10,2 C11.1045695,2 12,2.8954305 12,4 C12,5.1045695 11.1045695,6 10,6 Z M4,4 C2.8954305,4 2,3.1045695 2,2 C2,0.8954305 2.8954305,0 4,0 C5.1045695,0 6,0.8954305 6,2 C6,3.1045695 5.1045695,4 4,4 Z" id="Shape"></path>
        </g>
    </g>
</svg>