<?xml version="1.0" encoding="UTF-8"?>
<svg width="24px" height="24px" viewBox="0 0 24 24" version="1.1" xmlns="http://www.w3.org/2000/svg" xmlns:xlink="http://www.w3.org/1999/xlink">
    <!-- Generator: sketchtool 50.2 (55047) - http://www.bohemiancoding.com/sketch -->
    <title>wallet</title>
    <desc>Created with sketchtool.</desc>
    <defs></defs>
    <g id="e-commerce" stroke="none" stroke-width="1" fill="none" fill-rule="evenodd">
        <g id="wallet" fill="#000000">
            <path d="M20,9 C21.1000004,9 22,9.89999962 22,11 C22,11 22,13 22,13 C22,14.1000004 21.1000004,15 20,15 L20,18 C20,19.1045695 19.1045695,20 18,20 L4,20 C2.8954305,20 2,19.1045695 2,18 L2,6 C2,4.8954305 2.8954305,4 4,4 L18,4 C19.1045695,4 20,4.8954305 20,6 L20,9 Z M18,9 L18,6 L4,6 L4,18 L18,18 L18,15 L16,15 C14.8999996,15 14,13.8999996 14,13 C14,13 14,11.0324063 14,11.0324063 C14,9.89999962 14.8999996,9 16,9 L18,9 Z M16,13 L18,13 L18,11 L16,11 L16,13 Z" id="Shape"></path>
        </g>
    </g>
</svg>