<?xml version="1.0" encoding="UTF-8" standalone="no"?>
<svg width="24px" height="24px" viewBox="0 0 24 24" version="1.1" xmlns="http://www.w3.org/2000/svg" xmlns:xlink="http://www.w3.org/1999/xlink">
    <!-- Generator: Sketch 39.1 (31720) - http://www.bohemiancoding.com/sketch -->
    <title>icon_fe</title>
    <desc>Created with Sketch.</desc>
    <defs></defs>
    <g id="pages" stroke="none" stroke-width="1" fill="none" fill-rule="evenodd">
        <g id="Artboard" transform="translate(-120.000000, -10.000000)" fill="#FFFFFF">
            <path d="M132,34 C138.627417,34 144,28.627417 144,22 C144,15.372583 138.627417,10 132,10 C125.372583,10 120,15.372583 120,22 C120,28.627417 125.372583,34 132,34 Z M125.25,29.9285714 L127.178571,26.0714286 C127.178571,23.1785714 128.075077,21.2500001 130.071429,21.2500001 C130.003649,21.2500002 130.998174,14.5 138.75,14.5 C138.75,15.4642857 136.821429,22.2142856 132.964286,22.2142857 C132.955791,22.2142857 132.964286,26.0714286 129.107143,26.0714286 C129.107143,26.0714286 126.214286,29.9285714 126.214286,29.9285714 L125.25,29.9285714 Z" id="icon_fe"></path>
        </g>
    </g>
</svg>