<?xml version="1.0" encoding="UTF-8"?>
<svg width="24px" height="24px" viewBox="0 0 24 24" version="1.1" xmlns="http://www.w3.org/2000/svg" xmlns:xlink="http://www.w3.org/1999/xlink">
    <!-- Generator: sketchtool 52.2 (67145) - http://www.bohemiancoding.com/sketch -->
    <title>align-left</title>
    <desc>Created with sketchtool.</desc>
    <g id="production" stroke="none" stroke-width="1" fill="none" fill-rule="evenodd">
        <g id="align-left" fill="#000000">
            <path d="M7,21 C7,21.5522847 6.55228475,22 6,22 C5.44771525,22 5,21.5522847 5,21 L5,3 C5,2.44771525 5.44771525,2 6,2 C6.55228475,2 7,2.44771525 7,3 L7,21 Z M11,9 C9.8954305,9 9,8.1045695 9,7 C9,5.8954305 9.8954305,5 11,5 L17,5 C18.1045695,5 19,5.8954305 19,7 C19,8.1045695 18.1045695,9 17,9 L11,9 Z M11.0000001,12 L15,12 C16.1045695,12 17,12.8954305 17,14 C17,15.1045695 16.1045695,16 15,16 L11,16 C9.8954305,16 9,15.1045695 9,14 C9,12.8954305 9.8954305,12 11,12 Z" id="Shape"></path>
        </g>
    </g>
</svg>