<?xml version="1.0" encoding="UTF-8" standalone="no"?>
<svg width="10px" height="16px" viewBox="0 0 10 16" version="1.1" xmlns="http://www.w3.org/2000/svg" xmlns:xlink="http://www.w3.org/1999/xlink">
    <defs></defs>
    <g id="web-app" stroke="none" stroke-width="1" fill="none" fill-rule="evenodd">
        <g id="app-menu" fill="#000000">
            <path d="M8,11 L10,11 L10,13 L8,13 L8,11 Z M4,11 L6,11 L6,13 L4,13 L4,11 Z M0,11 L2,11 L2,13 L0,13 L0,11 Z M8,7 L10,7 L10,9 L8,9 L8,7 Z M4,7 L6,7 L6,9 L4,9 L4,7 Z M0,7 L2,7 L2,9 L0,9 L0,7 Z M8,3 L10,3 L10,5 L8,5 L8,3 Z M4,3 L6,3 L6,5 L4,5 L4,3 Z M0,3 L2,3 L2,5 L0,5 L0,3 Z" id="Shape"></path>
        </g>
    </g>
</svg>