<?xml version="1.0" encoding="UTF-8" standalone="no"?>
<svg width="16px" height="16px" viewBox="0 0 16 16" version="1.1" xmlns="http://www.w3.org/2000/svg" xmlns:xlink="http://www.w3.org/1999/xlink">
    <defs></defs>
    <g id="production" stroke="none" stroke-width="1" fill="none" fill-rule="evenodd">
        <g id="artboard" fill="#000000">
            <path d="M3,3 L13,3 L13,13 L3,13 L3,3 Z M12,14 L13,14 L13,16 L12,16 L12,14 Z M0,3 L2,3 L2,4 L0,4 L0,3 Z M0,12 L2,12 L2,13 L0,13 L0,12 Z M14,3 L16,3 L16,4 L14,4 L14,3 Z M14,12 L16,12 L16,13 L14,13 L14,12 Z M3,14 L4,14 L4,16 L3,16 L3,14 Z M12,0 L13,0 L13,2 L12,2 L12,0 Z M3,0 L4,0 L4,2 L3,2 L3,0 Z" id="Shape"></path>
        </g>
    </g>
</svg>