<?xml version="1.0" encoding="UTF-8" standalone="no"?>
<svg width="8px" height="16px" viewBox="0 0 8 16" version="1.1" xmlns="http://www.w3.org/2000/svg" xmlns:xlink="http://www.w3.org/1999/xlink">
    <defs></defs>
    <g id="devices" stroke="none" stroke-width="1" fill="none" fill-rule="evenodd">
        <g id="audio-player" fill="#000000">
            <path d="M0,2 C0,2 0,1 1,1 C1,1 7,1 7,1 C8,1 8,2 8,2 L8,14 C8,14 8,15 7,15 C7,15 1,15 1,15 C0,15 0,14 0,14 L0,2 Z M4,14 C5.65685425,14 7,12.6568542 7,11 C7,9.34314575 5.65685425,8 4,8 C2.34314575,8 1,9.34314575 1,11 C1,12.6568542 2.34314575,14 4,14 Z M4,13 C5.1045695,13 6,12.1045695 6,11 C6,9.8954305 5.1045695,9 4,9 C2.8954305,9 2,9.8954305 2,11 C2,12.1045695 2.8954305,13 4,13 Z M1,2 L7,2 L7,7 L1,7 L1,2 Z" id="Shape"></path>
        </g>
    </g>
</svg>