<?xml version="1.0" encoding="UTF-8" standalone="no"?>
<svg width="12px" height="16px" viewBox="0 0 12 16" version="1.1" xmlns="http://www.w3.org/2000/svg" xmlns:xlink="http://www.w3.org/1999/xlink">
    <defs></defs>
    <g id="web-app" stroke="none" stroke-width="1" fill="none" fill-rule="evenodd">
        <g id="bar" fill="#000000">
            <path d="M1,11 L11,11 C11,11 12,11 12,12 C12,13 11,13 11,13 L1,13 C1,13 4.19878921e-16,13 0,12 C4.19878903e-16,11 1,11 1,11 Z M1,7 L11,7 C11,7 12,7 12,8 C12,9 11,9 11,9 L1,9 C1,9 4.19878921e-16,9 0,8 C4.19878903e-16,7 1,7 1,7 Z M1,3 L11,3 C11,3 12,3 12,4 C12,5 11,5 11,5 L1,5 C1,5 4.19878921e-16,5 0,4 C4.19878903e-16,3 1,3 1,3 Z" id="Shape"></path>
        </g>
    </g>
</svg>