<?xml version="1.0" encoding="UTF-8" standalone="no"?>
<svg width="15px" height="16px" viewBox="0 0 15 16" version="1.1" xmlns="http://www.w3.org/2000/svg" xmlns:xlink="http://www.w3.org/1999/xlink">
    <defs></defs>
    <g id="web-app" stroke="none" stroke-width="1" fill="none" fill-rule="evenodd">
        <g id="bar" fill="#000000">
            <path d="M1,11 L14,11 C14,11 15,11 15,12 C15,13 14,13 14,13 L1,13 C1,13 4.89858741e-16,13 0,12 C4.8985872e-16,11 1,11 1,11 Z M1,7 L14,7 C14,7 15,7 15,8 C15,9 14,9 14,9 L1,9 C1,9 4.89858741e-16,9 0,8 C4.8985872e-16,7 1,7 1,7 Z M1,3 L14,3 C14,3 15,3 15,4 C15,5 14,5 14,5 L1,5 C1,5 4.89858741e-16,5 0,4 C4.8985872e-16,3 1,3 1,3 Z" id="Shape"></path>
        </g>
    </g>
</svg>