<?xml version="1.0" encoding="UTF-8" standalone="no"?>
<svg width="14px" height="16px" viewBox="0 0 14 16" version="1.1" xmlns="http://www.w3.org/2000/svg" xmlns:xlink="http://www.w3.org/1999/xlink">
    <defs></defs>
    <g id="web-app" stroke="none" stroke-width="1" fill="none" fill-rule="evenodd">
        <g id="bar" fill="#000000">
            <path d="M1,11 L13,11 C13,11 14,11 14,12 C14,13 13,13 13,13 L1,13 C1,13 4.89858741e-16,13 0,12 C4.8985872e-16,11 1,11 1,11 Z M1,7 L13,7 C13,7 14,7 14,8 C14,9 13,9 13,9 L1,9 C1,9 4.89858741e-16,9 0,8 C4.8985872e-16,7 1,7 1,7 Z M1,3 L13,3 C13,3 14,3 14,4 C14,5 13,5 13,5 L1,5 C1,5 4.89858741e-16,5 0,4 C4.8985872e-16,3 1,3 1,3 Z" id="Shape"></path>
        </g>
    </g>
</svg>