<?xml version="1.0" encoding="UTF-8" standalone="no"?>
<svg width="16px" height="16px" viewBox="0 0 16 16" version="1.1" xmlns="http://www.w3.org/2000/svg" xmlns:xlink="http://www.w3.org/1999/xlink">
    <defs></defs>
    <g id="web-app" stroke="none" stroke-width="1" fill="none" fill-rule="evenodd">
        <g id="bar" fill="#000000">
            <path d="M1,11 L15,11 C15,11 16,11 16,12 C16,13 15,13 15,13 L1,13 C1,13 4.89858741e-16,13 0,12 C4.8985872e-16,11 1,11 1,11 Z M1,7 L15,7 C15,7 16,7 16,8 C16,9 15,9 15,9 L1,9 C1,9 4.89858741e-16,9 0,8 C4.8985872e-16,7 1,7 1,7 Z M1,3 L15,3 C15,3 16,3 16,4 C16,5 15,5 15,5 L1,5 C1,5 4.89858741e-16,5 0,4 C4.8985872e-16,3 1,3 1,3 Z" id="Shape"></path>
        </g>
    </g>
</svg>