<?xml version="1.0" encoding="UTF-8"?>
<svg width="12px" height="12px" viewBox="0 0 12 12" version="1.1" xmlns="http://www.w3.org/2000/svg" xmlns:xlink="http://www.w3.org/1999/xlink">
    <defs></defs>
    <g id="web-app" stroke="none" stroke-width="1" fill="none" fill-rule="evenodd">
        <g id="bar" fill="#000000">
            <path d="M1,10 L11,10 C11,10 12,10 12,11 C12,12 11,12 11,12 L1,12 C1,12 4.19878921e-16,12 0,11 C4.19878903e-16,10 1,10 1,10 Z M1,5 L11,5 C11,5 12,5 12,6 C12,7 11,7 11,7 L1,7 C1,7 4.19878921e-16,7 0,6 C4.19878903e-16,5 1,5 1,5 Z M1,0 L11,0 C11,0 12,0 12,1 C12,2 11,2 11,2 L1,2 C1,2 4.19878921e-16,2 0,1 C4.19878903e-16,0 1,0 1,0 Z" id="Shape"></path>
        </g>
    </g>
</svg>