<?xml version="1.0" encoding="UTF-8" standalone="no"?>
<svg width="14px" height="16px" viewBox="0 0 14 16" version="1.1" xmlns="http://www.w3.org/2000/svg" xmlns:xlink="http://www.w3.org/1999/xlink">
    <defs></defs>
    <g id="food" stroke="none" stroke-width="1" fill="none" fill-rule="evenodd">
        <g id="beer" fill="#000000">
            <path d="M1.9955775,14 C1.9955775,14 1,14 1,15 C1,16 2,16 2,16 L11,16 C11,16 12,16 12,15 C12,14 11.0044225,14 11.0044225,14 L11,12 C12.6568542,12 14,10.6568542 14,9 C14,7.34314575 12.6568542,6 11,6 L11,5.50018309 C11.6072234,5.04407993 12,4.31790892 12,3.5 C12,2.11934916 10.8808108,1.00009896 9.5001831,1.00000001 C9.04407993,0.392776652 8.31790892,0 7.5,0 C7.01278117,0 6.55811505,0.139374686 6.17369644,0.38042924 C5.84405166,0.141122918 5.43850634,0 5,0 C4.25292578,0 3.60152171,0.409612578 3.25812236,1.01650316 C3.17362011,1.00561464 3.08746574,1 3,1 C1.8954305,1 1,1.8954305 1,3 C1,3.74028236 1.40219863,4.38662619 2,4.73243561 L1.9955775,14 Z M4,7 L5,7 L5,13 L4,13 L4,7 Z M6,7 L7,7 L7,13 L6,13 L6,7 Z M8,7 L9,7 L9,13 L8,13 L8,7 Z M3.88616305,3.81891089 C3.88616305,3.81891089 4.25,5 5.5,5 C6.75,5 7.5,4 7.5,4 C7.5,4 8,5 9.5,5 C10.3284271,5 11,4.32842712 11,3.5 C11,2.6716141 10.25,2 9.00060754,1.9999642 C9.00060754,1.9999642 8.5,1 7.5,1 C6.5,1 6.13276645,1.58643705 6.13276645,1.58643705 C6.13276645,1.58643705 5.75,1 5,1 C4,1 3.70000005,2 3.70000005,2 C3.70000005,2 2,1.58643705 2,3 C2,4.5999999 3.88616305,3.81891089 3.88616305,3.81891089 Z" id="Shape"></path>
        </g>
    </g>
</svg>