<?xml version="1.0" encoding="UTF-8"?>
<svg width="13px" height="16px" viewBox="0 0 13 16" version="1.1" xmlns="http://www.w3.org/2000/svg" xmlns:xlink="http://www.w3.org/1999/xlink">
    <defs></defs>
    <g id="food" stroke="none" stroke-width="1" fill="none" fill-rule="evenodd">
        <g id="beer" fill="#000000">
            <path d="M0.995577499,14 L1,4.73243561 C0.40219863,4.38662619 0,3.74028236 0,3 C0,1.8954305 0.8954305,1 2,1 C2.08746574,1 2.17362011,1.00561464 2.25812236,1.01650316 C2.60152171,0.409612578 3.25292578,0 4,0 C4.43850634,0 4.84405166,0.141122918 5.17369644,0.38042924 C5.55811505,0.139374686 6.01278117,0 6.5,0 C7.31790892,0 8.04407993,0.392776652 8.5001831,1.00000001 C9.88081083,1.00009896 11,2.11934916 11,3.5 C11,4.31790892 10.6072234,5.04407993 10,5.50018309 L10,6 C10.7687485,6 11,6 11,6 C13,6 13,8 13,8 L13,10.997364 C13,10.997364 13,13 11,13 L10,13 L10.0044225,14 C10.0044225,14 11,14 11,15 C11,16 10,16 10,16 L1,16 C1,16 4.97512762e-17,16 0,15 C0,14 0.995577499,14 0.995577499,14 Z M3,7 L3,13 L4,13 L4,7 L3,7 Z M5,7 L5,13 L6,13 L6,7 L5,7 Z M7,7 L7,13 L8,13 L8,7 L7,7 Z M2.88616305,3.81891089 C2.88616305,3.81891089 3.25,5 4.5,5 C5.75,5 6.5,4 6.5,4 C6.5,4 7,5 8.5,5 C9.32842712,5 10,4.32842712 10,3.5 C10,2.6716141 9.25,2 8.00060754,1.9999642 C8.00060754,1.9999642 7.5,1 6.5,1 C5.5,1 5.13276645,1.58643705 5.13276645,1.58643705 C5.13276645,1.58643705 4.75,1 4,1 C3,1 2.70000005,2 2.70000005,2 C2.70000005,2 1,1.58643705 1,3 C1,4.5999999 2.88616305,3.81891089 2.88616305,3.81891089 Z" id="Shape"></path>
        </g>
    </g>
</svg>