<?xml version="1.0" encoding="UTF-8"?>
<svg width="12px" height="12px" viewBox="0 0 12 12" version="1.1" xmlns="http://www.w3.org/2000/svg" xmlns:xlink="http://www.w3.org/1999/xlink">
    <!-- Generator: sketchtool 49.2 (51160) - http://www.bohemiancoding.com/sketch -->
    <title>beginner</title>
    <desc>Created with sketchtool.</desc>
    <defs></defs>
    <g id="web-app" stroke="none" stroke-width="1" fill="none" fill-rule="evenodd">
        <g id="beginner" fill="#000000" fill-rule="nonzero">
            <path d="M1,1.03742244 L1,9.01308684 L6,10.8987962 L6,2.92313182 L1,1.03742244 Z M1.34174306,0.0627249412 L6,1.8195487 L10.6582569,0.0627249412 C11.1772905,-0.133024355 11.7510539,0.144676422 11.9397934,0.682986986 C11.9796244,0.796590433 12,0.916541144 12,1.03742244 L12,9.01308684 C12,9.44921095 11.7369323,9.83874195 11.3417431,9.98778434 L6.34174306,11.8734937 C6.12098562,11.9567506 5.87901438,11.9567506 5.65825694,11.8734937 L0.658256937,9.98778434 C0.26306775,9.83874195 4.95586396e-16,9.44921095 4.4408921e-16,9.01308684 L4.4408921e-16,1.03742244 C3.76453835e-16,0.464625748 0.44771525,0.000282282937 1,0.000282282937 C1.11655252,0.000282282937 1.23220777,0.0214145967 1.34174306,0.0627249412 Z" id="Shape"></path>
        </g>
    </g>
</svg>