<?xml version="1.0" encoding="UTF-8"?>
<svg width="12px" height="14px" viewBox="0 0 12 14" version="1.1" xmlns="http://www.w3.org/2000/svg" xmlns:xlink="http://www.w3.org/1999/xlink">
    <!-- Generator: sketchtool 49.2 (51160) - http://www.bohemiancoding.com/sketch -->
    <title>bell</title>
    <desc>Created with sketchtool.</desc>
    <defs></defs>
    <g id="web-app" stroke="none" stroke-width="1" fill="none" fill-rule="evenodd">
        <g id="bell" fill="#000000">
            <path d="M0,11 C0,11.5522847 0.44771525,12 1,12 L4,12 C4,13.1045695 4.8954305,14 6,14 C7.1045695,14 8,13.1045695 8,12 L11,12 C11.5522847,12 12,11.5522847 12,11 C12,10.4477153 11.5522847,10 11,10 C11,10 11,4.23227209 7.93914913,2.49153906 C7.97888819,2.33428 8,2.16960547 8,2 C8,0.8954305 7.1045695,0 6,0 C4.8954305,0 4,0.8954305 4,2 C4,2.16960547 4.02111181,2.33428 4.06085087,2.49153906 C1.00008139,4.2322258 1,9.99969325 1,9.99999999 C0.44771525,10 0,10.4477153 0,11 Z" id="Shape"></path>
        </g>
    </g>
</svg>