<?xml version="1.0" encoding="UTF-8" standalone="no"?>
<svg width="14px" height="16px" viewBox="0 0 14 16" version="1.1" xmlns="http://www.w3.org/2000/svg" xmlns:xlink="http://www.w3.org/1999/xlink">
    <defs></defs>
    <g id="web-app" stroke="none" stroke-width="1" fill="none" fill-rule="evenodd">
        <g id="bell" fill="#000000">
            <path d="M5,14 L9.00000021,14 C9.00000021,14 9.31325312,16 7.00000011,16 C4.6867471,16 5,14 5,14 Z M4.5,2 C3.67157288,2 3.20584271,4.36921037 3.53018407,4.64435577 L2.28571429,9 L2,9 C0.8954305,9 0,9.8954305 0,11 C0,12.1045695 0.8954305,13 2,13 L12,13 C13.1045695,13 14,12.1045695 14,11 C14,9.8954305 13.1045695,9 12,9 L11.7142857,9 L10.4698159,4.64435577 C10.7941573,4.36921037 10.3284271,2 9.5,2 L8.88411191,2 C8.70051905,1.12744256 8.22607371,1.1261304e-16 7,0 C5.77392629,-1.12613044e-16 5.29948095,1.12744256 5.11588809,2 L4.5,2 Z" id="Shape"></path>
        </g>
    </g>
</svg>