<?xml version="1.0" encoding="UTF-8" standalone="no"?>
<svg width="12px" height="16px" viewBox="0 0 12 16" version="1.1" xmlns="http://www.w3.org/2000/svg" xmlns:xlink="http://www.w3.org/1999/xlink">
    <defs></defs>
    <g id="web-app" stroke="none" stroke-width="1" fill="none" fill-rule="evenodd">
        <g id="bell" fill="#000000">
            <path d="M0,12 C0,12.5522847 0.44771525,13 1,13 L4,13 C4,14.1045695 4.8954305,15 6,15 C7.1045695,15 8,14.1045695 8,13 L11,13 C11.5522847,13 12,12.5522847 12,12 C12,11.4477153 11.5522847,11 11,11 C11,11 11,5.23227209 7.93914913,3.49153906 C7.97888819,3.33428 8,3.16960547 8,3 C8,1.8954305 7.1045695,1 6,1 C4.8954305,1 4,1.8954305 4,3 C4,3.16960547 4.02111181,3.33428 4.06085087,3.49153906 C1.00008139,5.2322258 1,10.9996933 1,11 C0.44771525,11 0,11.4477153 0,12 Z" id="Shape"></path>
        </g>
    </g>
</svg>