<?xml version="1.0" encoding="UTF-8"?>
<svg width="24px" height="24px" viewBox="0 0 24 24" version="1.1" xmlns="http://www.w3.org/2000/svg" xmlns:xlink="http://www.w3.org/1999/xlink">
    <!-- Generator: sketchtool 52.1 (67048) - http://www.bohemiancoding.com/sketch -->
    <title>birthday-cake</title>
    <desc>Created with sketchtool.</desc>
    <g id="food" stroke="none" stroke-width="1" fill="none" fill-rule="evenodd">
        <g id="birthday-cake" fill="#000000" fill-rule="nonzero">
            <path d="M17,10 C19.209139,10 21,11.790861 21,14 L21,19 C21,20.1045695 20.1045695,21 19,21 L5,21 C3.8954305,21 3,20.1045695 3,19 L3,14 C3,11.790861 4.790861,10 7,10 C7,8 7,7 7,7 C7,7 7.66666667,7 9,7 L9,10 L11,10 C11,8 11,7 11,7 C11,7 11.6666667,7 13,7 L13,10 L15,10 C15,8 15,7 15,7 C15,7 15.6666667,7 17,7 L17,10 Z M7,12 C5.8954305,12 5,12.8954305 5,14 L5,15 L19,15 L19,14 C19,12.8954305 18.1045695,12 17,12 L7,12 Z M5,17 L5,19 L19,19 L19,17 L5,17 Z M7,4 C7.55228475,4 8,3.55228475 8,3 C8.55228475,3 9,3.44771525 9,4 L9,5 C9,5.55228475 8.55228475,6 8,6 C7.44771525,6 7,5.55228475 7,5 L7,4 Z M11,4 C11.5522847,4 12,3.55228475 12,3 C12.5522847,3 13,3.44771525 13,4 L13,5 C13,5.55228475 12.5522847,6 12,6 C11.4477153,6 11,5.55228475 11,5 L11,4 Z M15,4 C15.5522847,4 16,3.55228475 16,3 C16.5522847,3 17,3.44771525 17,4 L17,5 C17,5.55228475 16.5522847,6 16,6 C15.4477153,6 15,5.55228475 15,5 L15,4 Z" id="Shape"></path>
        </g>
    </g>
</svg>