<?xml version="1.0" encoding="UTF-8"?>
<svg width="16px" height="16px" viewBox="0 0 16 16" version="1.1" xmlns="http://www.w3.org/2000/svg" xmlns:xlink="http://www.w3.org/1999/xlink">
    <defs></defs>
    <g id="food" stroke="none" stroke-width="1" fill="none" fill-rule="evenodd">
        <g id="birthday-cake" fill="#000000">
            <path d="M16,13.0012273 C16,13.0012273 16,14 16,14 C16,16 14,16 14,16 L2,16 C2,16 -3.98131472e-10,16 -3.9812792e-10,14 C-3.98131472e-10,14 -3.9812792e-10,13.3256414 -3.98131472e-10,13.0012273 C1.02246571,13.0012273 1,12 2,12 C3,12 3,13.0012273 4,13.0012273 C5,13.0012273 5,12 6,12 C7,12 7,13.0000001 8,13.0012273 C9,13 9,12 10,12 C11,12 11,13.0012273 12,13.0012273 C13,13.0012273 13,12 14,12 C15,12 14.9791846,13.0012273 16,13.0012273 Z M7,7.00000001 L7,4.5 C7,4 7.5,4 7.5,4 L8.5,4 C8.5,4 9,4 9,4.5 L9,7.00000001 L11,7.00000001 L11,4.5 C11,4 11.5,4 11.5,4 L12.5,4 C12.5,4 13,4 13,4.5 L13,7 C16,7 16,10 16,10 L16,11 C15,11 15,10 14,10 C13,10 13,11 12,11 C11,11 11,10 10,10 C9,10 9,11 8,11 C7,11 7,10 6,10 C5,10 5,11 4,11 C3,11 3,10 2,10 C1,10 1.00046968,11 -1.66533454e-16,11 L-1.66533454e-16,10 C-1.66533454e-16,10 -1.66533454e-16,7 3,7 L3,4.5 C3,4 3.5,4 3.5,4 L4.5,4 C4.5,4 5,4 5,4.5 L5,7.00000001 L7,7.00000001 Z M12,3 C11.4477153,3 11,2.32842712 11,1.5 C11.5,1 12,0.996643066 12,0 C12.5522847,0 13,0.671572875 13,1.5 C13,2.32842712 12.5522847,3 12,3 Z M8,3 C7.44771525,3 7,2.32842712 7,1.5 C7.5,1 8,0.996643066 8,0 C8.55228475,0 9,0.671572875 9,1.5 C9,2.32842712 8.55228475,3 8,3 Z M4,3 C3.44771525,3 3,2.32842712 3,1.5 C3.5,1 4,0.996643066 4,0 C4.55228475,0 5,0.671572875 5,1.5 C5,2.32842712 4.55228475,3 4,3 Z" id="Shape"></path>
        </g>
    </g>
</svg>