<?xml version="1.0" encoding="UTF-8" standalone="no"?>
<svg width="10px" height="16px" viewBox="0 0 10 16" version="1.1" xmlns="http://www.w3.org/2000/svg" xmlns:xlink="http://www.w3.org/1999/xlink">
    <defs></defs>
    <g id="text-edit" stroke="none" stroke-width="1" fill="none" fill-rule="evenodd">
        <g id="bold" fill="#000000">
            <path d="M1,15 C1,15 1.09428267e-08,15 2.62372369e-14,14 C-3.42834516e-09,14 -1.05713487e-08,2.00691569 -3.42834524e-09,2 C-1.05713488e-08,1 0.956601202,1 0.956601202,1 L4.65485075,1 C5.53793974,1 6.29197449,1.08713606 6.91697761,1.26141079 C7.54198074,1.43568552 8.05503531,1.68418465 8.45615672,2.00691563 C8.85727813,2.32964661 9.15111847,2.72014524 9.33768657,3.17842324 C9.52425466,3.63670123 9.61753731,4.15306306 9.61753731,4.7275242 C9.61753731,5.05670981 9.57089599,5.37136779 9.47761194,5.67150761 C9.38432789,5.97164742 9.23973979,6.25241916 9.04384328,6.51383126 C8.84794678,6.77524335 8.59919305,7.01244707 8.29757463,7.22544952 C7.9959562,7.43845196 7.636818,7.6191786 7.22014925,7.76763485 C9.07339235,8.20009437 10,9.23927254 10,10.8852006 C10,11.4790256 9.89117024,12.02766 9.67350746,12.5311203 C9.45584468,13.0345807 9.13868368,13.4686473 8.72201493,13.8333333 C8.30534618,14.1980193 7.7922916,14.483632 7.18283582,14.6901798 C6.57338004,14.8967276 5.87686959,15 5.09328358,15 L1,15 Z M2.50932836,8.86168741 L2.50932836,12.966805 L5.05597015,12.966805 C5.52239039,12.966805 5.91262281,12.9087143 6.2266791,12.7925311 C6.5407354,12.676348 6.79259855,12.5214394 6.98227612,12.3278008 C7.17195368,12.1341622 7.30876824,11.9082539 7.39272388,11.6500692 C7.47667952,11.3918844 7.51865672,11.1175672 7.51865672,10.8271093 C7.51865672,10.5237421 7.47201539,10.2510386 7.37873134,10.0089903 C7.28544729,9.76694208 7.13930448,9.56039735 6.94029851,9.38934993 C6.74129254,9.21830251 6.48631996,9.08759842 6.17537313,8.99723375 C5.86442631,8.90686907 5.48818629,8.86168741 5.04664179,8.86168741 L2.50932836,8.86168741 Z M2.50932836,7.06085754 L4.51492537,7.06085754 C5.36691968,7.06085754 6.01367938,6.89949447 6.45522388,6.57676349 C6.89676838,6.2540325 7.11753731,5.74089794 7.11753731,5.0373444 C7.11753731,4.30797238 6.91853433,3.78838329 6.52052239,3.47856155 C6.12251045,3.16873981 5.50062612,3.01383126 4.65485075,3.01383126 L2.50932836,3.01383126 L2.50932836,7.06085754 Z" id="B"></path>
        </g>
    </g>
</svg>