<?xml version="1.0" encoding="UTF-8" standalone="no"?>
<svg width="16px" height="16px" viewBox="0 0 16 16" version="1.1" xmlns="http://www.w3.org/2000/svg" xmlns:xlink="http://www.w3.org/1999/xlink">
    <defs></defs>
    <g id="web-app" stroke="none" stroke-width="1" fill="none" fill-rule="evenodd">
        <g id="book" fill="#000000">
            <path d="M15,12.9999809 C16,12.9999809 16,11.9976006 16,11.9976006 L16,2.99998122 C16,2.99998122 16,2 15,2 C15,2.00000005 9,2 9,2 L8,2.99998122 L7,2 C7,2 0.999999514,2.00000005 0.99999997,2 C0,2.00000005 0,2.99998124 0,2.99998124 L0,11.9976006 C0,11.9976006 2.68467014e-08,12.9999809 1,12.9999809 C0.999999665,12.9999809 5.08858292,12.9960801 7,12.9999809 C7,12.9999809 7,13.75 8,13.75 C9,13.75 9,12.9999809 9,12.9999809 C10.5881235,12.9943592 15,12.9999809 15,12.9999809 Z M8.99998687,4.00000003 L9.99999998,2.99999812 L14.9999869,2.99999812 L14.9999869,11.9999981 L8.99998687,11.9999981 L8.99998687,4.00000003 Z M1.00001313,2.99999812 L5.99999978,2.99999812 L7.00001313,4.00000003 L7.00001313,11.9999981 L1.00001313,11.9999981 L1.00001313,2.99999812 Z M10,9 L14,9 L14,10 L10,10 L10,9 Z M10,7 L14,7 L14,8 L10,8 L10,7 Z M10,5 L14,5 L14,6 L10,6 L10,5 Z M2,9 L6,9 L6,10 L2,10 L2,9 Z M2,7 L6,7 L6,8 L2,8 L2,7 Z M2,5 L6,5 L6,6 L2,6 L2,5 Z" id="Shape"></path>
        </g>
    </g>
</svg>