<?xml version="1.0" encoding="UTF-8" standalone="no"?>
<svg width="16px" height="16px" viewBox="0 0 16 16" version="1.1" xmlns="http://www.w3.org/2000/svg" xmlns:xlink="http://www.w3.org/1999/xlink">
    <defs></defs>
    <g id="food" stroke="none" stroke-width="1" fill="none" fill-rule="evenodd">
        <g id="borthday-cake" fill="#000000">
            <path d="M16,13.0012273 C14.9791846,13.0012273 15,12 14,12 C13,12 13,13.0012273 12,13.0012273 C11,13.0012273 11,12 10,12 C9,12 9,13 8,13.0012273 C7,13.0000001 7,12 6,12 C5,12 5,13.0012273 4,13.0012273 C3,13.0012273 3,12 2,12 C1,12 1.02246571,13.0012273 -3.98131472e-10,13.0012273 C-3.9812792e-10,13.3256414 -3.98131472e-10,14 -3.9812792e-10,14 C-3.98131472e-10,16 2,16 2,16 L14,16 C14,16 16,16 16,14 C16,14 16,13.0012273 16,13.0012273 Z M5,7.00000001 L7,7.00000001 L7,4.5 C7,4 7.5,4 7.5,4 L8.5,4 C8.5,4 9,4 9,4.5 L9,7.00000001 L11,7.00000001 L11,4.5 C11,4 11.5,4 11.5,4 L12.5,4 C12.5,4 13,4 13,4.5 L13,7.0828865 C13.583417,7.28598575 14.001287,7.84033982 14.0002018,8.50000001 L13.9993793,9 L14.0136452,9 C16,9 16,11 16,11 C15,11 15,10 14,10 C13,10 13,11 12,11 C11,11 11,10 10,10 C9,10 9,11 8,11 C7,11 7,10 6,10 C5,10 5,11 4,11 C3,11 3,10 2,10 C1,10 1.00046968,11 -1.66533454e-16,11 C-1.66533454e-16,11 -1.66533454e-16,9 2,9 L2.00349522,9 L2.00267268,8.50000001 C2.00159921,7.84746201 2.42239831,7.29224337 3,7.08589415 L3,4.5 C3,4 3.5,4 3.5,4 L4.5,4 C4.5,4 5,4 5,4.5 L5,7.00000001 Z M12,3 C12.5522847,3 13,2.32842712 13,1.5 C13,0.671572875 12.5522847,0 12,0 C12,0.996643066 11.5,1 11,1.5 C11,2.32842712 11.4477153,3 12,3 Z M8,3 C8.55228475,3 9,2.32842712 9,1.5 C9,0.671572875 8.55228475,0 8,0 C8,0.996643066 7.5,1 7,1.5 C7,2.32842712 7.44771525,3 8,3 Z M4,3 C4.55228475,3 5,2.32842712 5,1.5 C5,0.671572875 4.55228475,0 4,0 C4,0.996643066 3.5,1 3,1.5 C3,2.32842712 3.44771525,3 4,3 Z" id="Shape"></path>
        </g>
    </g>
</svg>