<?xml version="1.0" encoding="UTF-8" standalone="no"?>
<svg width="16px" height="16px" viewBox="0 0 16 16" version="1.1" xmlns="http://www.w3.org/2000/svg" xmlns:xlink="http://www.w3.org/1999/xlink">
    <defs></defs>
    <g id="devices" stroke="none" stroke-width="1" fill="none" fill-rule="evenodd">
        <g id="browser" fill="#000000">
            <path d="M0,3 C0,2 1,2 1,2 L15,2 C15,2 16,2 16,3.00280032 L16,12 C16,13 15,13 15,13 L1,13 C1,13 3.58061258e-18,13 0,12 C3.58061259e-18,12.0112867 0,3.05067945 0,3 Z M1,5 L15,5 L15,12 L1,12 L1,5 Z M5,3 L15,3 L15,4 L5,4 L5,3 Z M1,3 L2,3 L2,4 L1,4 L1,3 Z M3,3 L4,3 L4,4 L3,4 L3,3 Z" id="Shape"></path>
        </g>
    </g>
</svg>