<?xml version="1.0" encoding="UTF-8" standalone="no"?>
<svg width="16px" height="16px" viewBox="0 0 16 16" version="1.1" xmlns="http://www.w3.org/2000/svg" xmlns:xlink="http://www.w3.org/1999/xlink">
    <defs></defs>
    <g id="devices" stroke="none" stroke-width="1" fill="none" fill-rule="evenodd">
        <g id="browser" fill="#000000">
            <path d="M0,4 C0,3 1,3 1,3 L15,3 C15,3 16,3 16,4.00280032 L16,13 C16,14 15,14 15,14 L1,14 C1,14 3.58061258e-18,14 0,13 C3.58061259e-18,13.0112867 0,4.05067945 0,4 Z M1,6 L15,6 L15,13 L1,13 L1,6 Z M5,4 L15,4 L15,5 L5,5 L5,4 Z M1,4 L2,4 L2,5 L1,5 L1,4 Z M3,4 L4,4 L4,5 L3,5 L3,4 Z" id="Shape"></path>
        </g>
    </g>
</svg>