<?xml version="1.0" encoding="UTF-8" standalone="no"?>
<svg width="12px" height="16px" viewBox="0 0 12 16" version="1.1" xmlns="http://www.w3.org/2000/svg" xmlns:xlink="http://www.w3.org/1999/xlink">
    <defs></defs>
    <g id="production" stroke="none" stroke-width="1" fill="none" fill-rule="evenodd">
        <g id="brush" fill="#000000">
            <path d="M5.25208475,6.89168969 C5.25208475,6.89168969 8.2155966,2.73479888 10.1620094,0.339337041 C10.6665228,-0.543416131 12.4141573,0.475929333 11.9096439,1.3586825 C10.8330122,4.26177839 8.74735375,8.93038061 8.74735375,8.93038061 C8.74735375,8.93038061 8.24284032,9.81313379 7.36902307,9.30346105 C7.08548653,9.13730774 5.92006052,8.45842366 5.62138857,8.28411559 C4.74757132,7.77444286 5.25208475,6.89168969 5.25208475,6.89168969 M1.77598725,15.5571455 C3.43482739,16.5245043 5.80805854,15.8435816 6.78277847,14.1371972 C7.75850744,12.4297936 7.31857173,10.5501206 5.91804247,9.73362484 C5.10577585,9.2596292 3.74157155,9.06697291 2.88288971,9.81007575 C2.28251873,10.3197485 2.06456893,11.2412368 2.17757994,11.955798 C2.51762199,13.6397567 2.00301829,14.254422 1.26844675,14.2054934 C1.03031641,14.2238416 0.834565204,14.0954041 0.0001,13.7732909 C0.261437954,14.3950916 0.582308491,14.8609325 1.77598725,15.5571455" id="Shape"></path>
        </g>
    </g>
</svg>