<?xml version="1.0" encoding="UTF-8" standalone="no"?>
<svg width="14px" height="16px" viewBox="0 0 14 16" version="1.1" xmlns="http://www.w3.org/2000/svg" xmlns:xlink="http://www.w3.org/1999/xlink">
    <defs></defs>
    <g id="production" stroke="none" stroke-width="1" fill="none" fill-rule="evenodd">
        <g id="bug" fill="#000000">
            <path d="M5,2.4404737 C3,3.4801579 3,6 3,6 L11,6 C11,6 11,3.4801579 9,2.4404737 L9,0 L8,0 L8,2.09421825 C7.69807275,2.03344488 7.36575881,2 7,2 C6.63424119,2 6.30192725,2.03344488 6,2.09421825 L6,0 L5,0 L5,2.4404737 L5,2.4404737 Z M11.1528169,12.9165558 C10.5619854,14.106423 9.33947823,15 6.99999984,15 C4.65859887,15 3.43600579,14.1049537 2.84572755,12.9136217 L0.342020143,13.8248967 L1.15463195e-14,12.885204 L2.51317296,11.9704839 C2.43910285,11.6527845 2.39539949,11.3263922 2.37499998,11 L5.32907052e-15,11 L5.32907052e-15,10 L2.37847693,10 C2.39626805,9.71991007 2.42655535,9.44681012 2.46447394,9.18668768 L0,8.28969253 L0.342020143,7.3499999 L2.65416684,8.19155248 C2.82219908,7.4741358 3,7 3,7 L11,7 C11,7 11.1772532,7.47267514 11.345056,8.18823648 L13.6587701,7.3461134 L14.0007902,8.28580602 L11.5350273,9.18327035 C11.573179,9.44441785 11.6036539,9.71868325 11.6215229,10 L14,10 L14,11 L11.6249999,11 C11.604532,11.3274856 11.5606039,11.6549712 11.4860814,11.9736764 L13.9904831,12.885204 L13.6484629,13.8248967 L11.1528169,12.9165558 L11.1528169,12.9165558 Z" id="Shape"></path>
        </g>
    </g>
</svg>