<?xml version="1.0" encoding="UTF-8" standalone="no"?>
<svg width="12px" height="16px" viewBox="0 0 12 16" version="1.1" xmlns="http://www.w3.org/2000/svg" xmlns:xlink="http://www.w3.org/1999/xlink">
    <defs></defs>
    <g id="web-app" stroke="none" stroke-width="1" fill="none" fill-rule="evenodd">
        <g id="building" fill="#000000">
            <path d="M0,15 L0,1.00134277 C0,0 1,0 1,0 L11,0 C11,0 12,0 12,1 L12,15 C12,16 11,16 11,16 L1,16 C1,16 0,16 0,15 Z M4,11.5 C4,11 4.5,11 4.5,11 L7.5,11 C7.5,11 8,11 8,11.5 L8,13.5 C8,14 7.5,14 7.5,14 L4.5,14 C4.5,14 4,14 4,13.5 C4,13.5 4,11.5 4,11.5 Z M8,8.5 C8,8 8.49371338,8 8.49371338,8 L9.5,8 C9.5,8 10,8 10,8.5 L10,9.5 C10,10 9.5,10 9.5,10 L8.49847412,10 C8.49847412,10 8,10 8,9.5 C8,9.5 8,8 8,8.5 Z M5,8.5 C5,8 5.49371338,8 5.49371338,8 L6.5,8 C6.5,8 7,8 7,8.5 L7,9.5 C7,10 6.5,10 6.5,10 L5.49847412,10 C5.49847412,10 5,10 5,9.5 C5,9.5 5,8 5,8.5 Z M2,8.5 C2,8 2.49371338,8 2.49371338,8 L3.5,8 C3.5,8 4,8 4,8.5 L4,9.5 C4,10 3.5,10 3.5,10 L2.49847412,10 C2.49847412,10 2,10 2,9.5 C2,9.5 2,8 2,8.5 Z M8,5.5 C8,5 8.49371338,5 8.49371338,5 L9.5,5 C9.5,5 10,5 10,5.5 L10,6.5 C10,7 9.5,7 9.5,7 L8.49847412,7 C8.49847412,7 8,7 8,6.5 C8,6.5 8,5 8,5.5 Z M5,5.5 C5,5 5.49371338,5 5.49371338,5 L6.5,5 C6.5,5 7,5 7,5.5 L7,6.5 C7,7 6.5,7 6.5,7 L5.49847412,7 C5.49847412,7 5,7 5,6.5 C5,6.5 5,5 5,5.5 Z M2,5.5 C2,5 2.49371338,5 2.49371338,5 L3.5,5 C3.5,5 4,5 4,5.5 L4,6.5 C4,7 3.5,7 3.5,7 L2.49847412,7 C2.49847412,7 2,7 2,6.5 C2,6.5 2,5 2,5.5 Z M8,2.5 C8,2 8.49371338,2 8.49371338,2 L9.5,2 C9.5,2 10,2 10,2.5 L10,3.5 C10,4 9.5,4 9.5,4 L8.49847412,4 C8.49847412,4 8,4 8,3.5 C8,3.5 8,2 8,2.5 Z M5,2.5 C5,2 5.49371338,2 5.49371338,2 L6.5,2 C6.5,2 7,2 7,2.5 L7,3.5 C7,4 6.5,4 6.5,4 L5.49847412,4 C5.49847412,4 5,4 5,3.5 C5,3.5 5,2 5,2.5 Z M2,2.5 C2,2 2.49371338,2 2.49371338,2 L3.5,2 C3.5,2 4,2 4,2.5 L4,3.5 C4,4 3.5,4 3.5,4 L2.49847412,4 C2.49847412,4 2,4 2,3.5 C2,3.5 2,2 2,2.5 Z" id="Shape"></path>
        </g>
    </g>
</svg>