<?xml version="1.0" encoding="UTF-8"?>
<svg width="11px" height="16px" viewBox="0 0 11 16" version="1.1" xmlns="http://www.w3.org/2000/svg" xmlns:xlink="http://www.w3.org/1999/xlink">
    <defs></defs>
    <g id="web-app" stroke="none" stroke-width="1" fill="none" fill-rule="evenodd">
        <g id="building" fill="#000000">
            <path d="M0,15 L0,1.00134277 C0,0 1,0 1,0 L10,0 C10,0 11,0 11,1 L11,15 C11,16 10,16 10,16 L1,16 C1,16 0,16 0,15 Z M4,12 L4,15 L7,15 L7,12 L4,12 Z M2,10 L2,11 L3,11 L3,10 L2,10 Z M8,10 L8,11 L9,11 L9,10 L8,10 Z M2,8 L2,9 L3,9 L3,8 L2,8 Z M4,8 L4,9 L5,9 L5,8 L4,8 Z M6,8 L6,9 L7,9 L7,8 L6,8 Z M8,8 L8,9 L9,9 L9,8 L8,8 Z M2,6 L2,7 L3,7 L3,6 L2,6 Z M4,6 L4,7 L5,7 L5,6 L4,6 Z M6,6 L6,7 L7,7 L7,6 L6,6 Z M8,6 L8,7 L9,7 L9,6 L8,6 Z M2,4 L2,5 L3,5 L3,4 L2,4 Z M4,4 L4,5 L5,5 L5,4 L4,4 Z M6,4 L6,5 L7,5 L7,4 L6,4 Z M8,4 L8,5 L9,5 L9,4 L8,4 Z M2,2 L2,3 L3,3 L3,2 L2,2 Z M4,2 L4,3 L5,3 L5,2 L4,2 Z M6,2 L6,3 L7,3 L7,2 L6,2 Z M8,2 L8,3 L9,3 L9,2 L8,2 Z" id="Shape"></path>
        </g>
    </g>
</svg>