<?xml version="1.0" encoding="UTF-8" standalone="no"?>
<svg width="15px" height="16px" viewBox="0 0 15 16" version="1.1" xmlns="http://www.w3.org/2000/svg" xmlns:xlink="http://www.w3.org/1999/xlink">
    <defs></defs>
    <g id="web-app" stroke="none" stroke-width="1" fill="none" fill-rule="evenodd">
        <g id="calendar" fill="#000000">
            <path d="M15,3 L15,14 C15,14 15,15 14,15 L1,15 C1.18155437e-08,15 1.18155437e-08,14 1.18155437e-08,14 L1.18155437e-08,3 C1.18155437e-08,3 1.18155437e-08,2 1,2 L3,2 L3,1 C3,1 3,1.38777878e-17 3.99759048,1.3883932e-17 C3.99759048,1.3883932e-17 5,1.35850962e-17 5,1.71556049e-17 C6,1.37023992e-15 6,1 6,1 L6,2 L9,2 L9,1 C9,1 9,1.71556049e-17 10,1.71556049e-17 L11,1.71556049e-17 C12,1.74754227e-15 12,1 12,1 L12,2 L14,2 C15,2 15,3 15,3 Z M1,4 L14,4 L14,14 L1,14 L1,4 Z M5,11 L7,11 L7,13 L5,13 L5,11 Z M8,11 L10,11 L10,13 L8,13 L8,11 Z M2,11 L4,11 L4,13 L2,13 L2,11 Z M8,8 L10,8 L10,10 L8,10 L8,8 Z M11,8 L13,8 L13,10 L11,10 L11,8 Z M5,8 L7,8 L7,10 L5,10 L5,8 Z M2,8 L4,8 L4,10 L2,10 L2,8 Z M8,5 L10,5 L10,7 L8,7 L8,5 Z M11,5 L13,5 L13,7 L11,7 L11,5 Z M5,5 L7,5 L7,7 L5,7 L5,5 Z M10,1 L11,1 L11,3 L10,3 L10,1 Z M4,1 L5,1 L5,3 L4,3 L4,1 Z" id="Shape"></path>
        </g>
    </g>
</svg>