<?xml version="1.0" encoding="UTF-8" standalone="no"?>
<svg width="15px" height="16px" viewBox="0 0 15 16" version="1.1" xmlns="http://www.w3.org/2000/svg" xmlns:xlink="http://www.w3.org/1999/xlink">
    <defs></defs>
    <g id="devices" stroke="none" stroke-width="1" fill="none" fill-rule="evenodd">
        <g id="camera" fill="#000000">
            <path d="M13,2.99999994 C13,2.99999994 12,2.99999994 12,2.99999994 C12,1.99797803 11,1.99797803 11,1.99797803 L9,1.99797803 C8,1.99797803 8,3 8,3 L2,3 C0,3 -5.81653588e-14,4.96425462 0,4.96425462 C6.08092388e-14,4.96425462 0,12 0,12 C0,12 1.00467438e-13,14 2,14 C2,14 13,14 13,14 C15,14 15,12 15,12 L15,5 C15,4.94132055 15,2.99999994 13,2.99999994 Z M11,4 L13,4 L13,5 L11,5 L11,4 Z M7.5,12 C9.43299662,12 11,10.4329966 11,8.5 C11,6.56700338 9.43299662,5 7.5,5 C5.56700338,5 4,6.56700338 4,8.5 C4,10.4329966 5.56700338,12 7.5,12 Z M7.5,11 C8.88071187,11 10,9.88071187 10,8.5 C10,7.11928813 8.88071187,6 7.5,6 C6.11928813,6 5,7.11928813 5,8.5 C5,9.88071187 6.11928813,11 7.5,11 Z" id="Shape"></path>
        </g>
    </g>
</svg>