<?xml version="1.0" encoding="UTF-8" standalone="no"?>
<svg width="16px" height="16px" viewBox="0 0 16 16" version="1.1" xmlns="http://www.w3.org/2000/svg" xmlns:xlink="http://www.w3.org/1999/xlink">
    <defs></defs>
    <g id="web-app" stroke="none" stroke-width="1" fill="none" fill-rule="evenodd">
        <g id="check-o" fill="#000000">
            <path d="M8,16 C12.418278,16 16,12.418278 16,8 C16,3.581722 12.418278,0 8,0 C3.581722,0 0,3.581722 0,8 C0,12.418278 3.581722,16 8,16 Z M3.722558,7.22255782 C3.722558,7.22255782 3.22039115,6.72222222 2.72222222,7.22222222 C2.72222221,7.22222222 2.7222222,7.22222222 2.22222222,7.72222222 C1.72222223,8.22222222 2.22222222,8.72222222 2.22222222,8.72222222 L5.72167303,12.2216728 C5.72167303,12.2216728 6.22222222,12.7222222 6.72222222,12.2222222 C8.59414377,10.3503043 13.2222222,5.72222222 13.2222222,5.72222222 C13.2222222,5.72222222 13.7222223,5.22222222 13.2222222,4.72222222 C13.2222223,4.72222221 12.7222223,4.22222221 12.7222222,4.22222222 C12.2222222,3.72222223 11.7222222,4.22222222 11.7222222,4.22222222 L6.22222222,9.72222191 L3.722558,7.22255782 Z" id="Shape"></path>
        </g>
    </g>
</svg>