<?xml version="1.0" encoding="UTF-8" standalone="no"?>
<svg width="14px" height="16px" viewBox="0 0 14 16" version="1.1" xmlns="http://www.w3.org/2000/svg" xmlns:xlink="http://www.w3.org/1999/xlink">
    <defs></defs>
    <g id="web-app" stroke="none" stroke-width="1" fill="none" fill-rule="evenodd">
        <g id="check-verified" fill="#000000">
            <path d="M0,8 C0,7.1423473 0.539844527,6.41078205 1.29826826,6.12656957 C1.39533567,5.83097118 1.51474935,5.54550678 1.65451134,5.27217435 C1.55498477,5.03458727 1.5,4.77371482 1.5,4.5 C1.5,3.3954305 2.3954305,2.5 3.5,2.5 C3.77371482,2.5 4.03458727,2.55498477 4.27217435,2.65451134 C4.54550678,2.51474935 4.83097118,2.39533567 5.12656957,2.29826826 C5.41078205,1.53984453 6.1423473,1 7,1 C7.8576527,1 8.58921795,1.53984453 8.87343043,2.29826826 C9.16902882,2.39533567 9.45449322,2.51474935 9.72782565,2.65451134 C9.96541273,2.55498477 10.2262852,2.5 10.5,2.5 C11.6045695,2.5 12.5,3.3954305 12.5,4.5 C12.5,4.77371482 12.4450152,5.03458727 12.3454887,5.27217435 C12.4852506,5.54550678 12.6046643,5.83097118 12.7017317,6.12656957 C13.4601555,6.41078205 14,7.1423473 14,8 C14,8.8576527 13.4601555,9.58921795 12.7017317,9.87343043 C12.6046643,10.1690288 12.4852506,10.4544932 12.3454887,10.7278257 C12.4450152,10.9654127 12.5,11.2262852 12.5,11.5 C12.5,12.6045695 11.6045695,13.5 10.5,13.5 C10.2262852,13.5 9.96541273,13.4450152 9.72782565,13.3454887 C9.45449322,13.4852506 9.16902882,13.6046643 8.87343043,13.7017317 C8.58921795,14.4601555 7.8576527,15 7,15 C6.1423473,15 5.41078205,14.4601555 5.12656957,13.7017317 C4.83097118,13.6046643 4.54550678,13.4852506 4.27217435,13.3454887 C4.03458727,13.4450152 3.77371482,13.5 3.5,13.5 C2.3954305,13.5 1.5,12.6045695 1.5,11.5 C1.5,11.2262852 1.55498477,10.9654127 1.65451134,10.7278257 C1.51474935,10.4544932 1.39533567,10.1690288 1.29826826,9.87343043 C0.539844527,9.58921795 0,8.8576527 0,8 Z M4,7 L3,8 L6,11 L11,6 L10,5 L6,9 L4,7 Z" id="Shape"></path>
        </g>
    </g>
</svg>