<?xml version="1.0" encoding="UTF-8" standalone="no"?>
<svg width="14px" height="16px" viewBox="0 0 14 16" version="1.1" xmlns="http://www.w3.org/2000/svg" xmlns:xlink="http://www.w3.org/1999/xlink">
    <defs></defs>
    <g id="web-app" stroke="none" stroke-width="1" fill="none" fill-rule="evenodd">
        <g id="check-circle-o" fill="#000000">
            <path d="M7,15 C10.8659932,15 14,11.8659932 14,8 C14,4.13400675 10.8659932,1 7,1 C3.13400675,1 0,4.13400675 0,8 C0,11.8659932 3.13400675,15 7,15 Z M7,14 C10.3137085,14 13,11.3137085 13,8 C13,4.6862915 10.3137085,2 7,2 C3.6862915,2 1,4.6862915 1,8 C1,11.3137085 3.6862915,14 7,14 Z M4,7 L3,8 L6,11 L11,6 L10,5 L6,9 L4,7 Z" id="Combined-Shape"></path>
        </g>
    </g>
</svg>