<?xml version="1.0" encoding="UTF-8"?>
<svg width="14px" height="14px" viewBox="0 0 14 14" version="1.1" xmlns="http://www.w3.org/2000/svg" xmlns:xlink="http://www.w3.org/1999/xlink">
    <defs></defs>
    <g id="web-app" stroke="none" stroke-width="1" fill="none" fill-rule="evenodd">
        <g id="clock" fill="#000000">
            <path d="M7,14 C10.8659932,14 14,10.8659932 14,7 C14,3.13400675 10.8659932,0 7,0 C3.13400675,0 0,3.13400675 0,7 C0,10.8659932 3.13400675,14 7,14 L7,14 L7,14 L7,14 Z M13,7 C13,10.3137085 10.3137085,13 7,13 C3.6862915,13 1,10.3137085 1,7 C1,3.6862915 3.6862915,1 7,1 C10.3137085,1 13,3.6862915 13,7 Z M6.93333333,8.6 L9.73333333,8.6 C9.73333333,8.6 10.6666667,8.6 10.6666667,7.66666667 C10.6666667,6.73333333 9.73333333,6.73333333 9.73333333,6.73333333 L7.86666667,6.73333333 L7.86666667,3.93333333 C7.86666667,3.93333333 7.86666667,3 6.93333333,3 C6,3 6,3.93333333 6,3.93333333 L6,7.66666667 C6,7.66666667 6,8.6 6.93333333,8.6 Z" id="Shape"></path>
        </g>
    </g>
</svg>