<?xml version="1.0" encoding="UTF-8" standalone="no"?>
<svg width="16px" height="16px" viewBox="0 0 16 16" version="1.1" xmlns="http://www.w3.org/2000/svg" xmlns:xlink="http://www.w3.org/1999/xlink">
    <defs></defs>
    <g id="web-app" stroke="none" stroke-width="1" fill="none" fill-rule="evenodd">
        <g id="clock" fill="#000000">
            <path d="M8,15 C11.8659932,15 15,11.8659932 15,8 C15,4.13400675 11.8659932,1 8,1 C4.13400675,1 1,4.13400675 1,8 C1,11.8659932 4.13400675,15 8,15 L8,15 L8,15 L8,15 Z M14,8 C14,4.6862915 11.3137085,2 8,2 C4.6862915,2 2,4.6862915 2,8 C2,11.3137085 4.6862915,14 8,14 C11.3137085,14 14,11.3137085 14,8 Z M7.93333333,9.6 L10.7333333,9.6 C10.7333333,9.6 11.6666667,9.6 11.6666667,8.66666667 C11.6666667,7.73333333 10.7333333,7.73333333 10.7333333,7.73333333 L8.86666667,7.73333333 L8.86666667,4.93333333 C8.86666667,4.93333333 8.86666667,4 7.93333333,4 C7,4 7,4.93333333 7,4.93333333 L7,8.66666667 C7,8.66666667 7,9.6 7.93333333,9.6 Z" id="Shape"></path>
        </g>
    </g>
</svg>