<?xml version="1.0" encoding="UTF-8" standalone="no"?>
<svg width="14px" height="16px" viewBox="0 0 14 16" version="1.1" xmlns="http://www.w3.org/2000/svg" xmlns:xlink="http://www.w3.org/1999/xlink">
    <defs></defs>
    <g id="web-app" stroke="none" stroke-width="1" fill="none" fill-rule="evenodd">
        <g id="clock" fill="#000000">
            <path d="M7,15 C10.8659932,15 14,11.8659932 14,8 C14,4.13400675 10.8659932,1 7,1 C3.13400675,1 0,4.13400675 0,8 C0,11.8659932 3.13400675,15 7,15 L7,15 L7,15 L7,15 Z M13,8 C13,4.6862915 10.3137085,2 7,2 C3.6862915,2 1,4.6862915 1,8 C1,11.3137085 3.6862915,14 7,14 C10.3137085,14 13,11.3137085 13,8 Z M6.93333333,9.6 L9.73333333,9.6 C9.73333333,9.6 10.6666667,9.6 10.6666667,8.66666667 C10.6666667,7.73333333 9.73333333,7.73333333 9.73333333,7.73333333 L7.86666667,7.73333333 L7.86666667,4.93333333 C7.86666667,4.93333333 7.86666667,4 6.93333333,4 C6,4 6,4.93333333 6,4.93333333 L6,8.66666667 C6,8.66666667 6,9.6 6.93333333,9.6 Z" id="Shape"></path>
        </g>
    </g>
</svg>