<?xml version="1.0" encoding="UTF-8" standalone="no"?>
<svg width="12px" height="16px" viewBox="0 0 12 16" version="1.1" xmlns="http://www.w3.org/2000/svg" xmlns:xlink="http://www.w3.org/1999/xlink">
    <defs></defs>
    <g id="web-app" stroke="none" stroke-width="1" fill="none" fill-rule="evenodd">
        <g id="close" fill="#000000">
            <path d="M0.315789474,12.2631579 C0.315789474,12.2631579 -0.394736842,12.9736842 0.315789474,13.6842105 C1.02631579,14.3947368 1.73684211,13.6842105 1.73684211,13.6842105 L6,9.42105263 L10.2631579,13.6842105 C10.2631579,13.6842105 10.9736842,14.3947368 11.6842105,13.6842105 C12.3947368,12.9736842 11.6842105,12.2631579 11.6842105,12.2631579 L7.42105263,8 L11.6842105,3.73684211 C11.6842105,3.73684211 12.3947368,3.02631579 11.6842105,2.31578947 C10.9736842,1.60526316 10.2631579,2.31578947 10.2631579,2.31578947 L6,6.57894737 L1.73684211,2.31578947 C1.73684211,2.31578947 1.02631579,1.60526316 0.315789474,2.31578947 C-0.394736842,3.02631579 0.315789474,3.73684211 0.315789474,3.73684211 L4.57894737,8 L0.315789474,12.2631579 Z" id="Shape"></path>
        </g>
    </g>
</svg>