<?xml version="1.0" encoding="UTF-8"?>
<svg width="10px" height="10px" viewBox="0 0 10 10" version="1.1" xmlns="http://www.w3.org/2000/svg" xmlns:xlink="http://www.w3.org/1999/xlink">
    <defs></defs>
    <g id="web-app" stroke="none" stroke-width="1" fill="none" fill-rule="evenodd">
        <g id="close" fill="#000000">
            <path d="M6.34328358,5 L9.70149254,1.64179104 C9.70149254,1.64179104 10.3731343,0.970149254 9.70149254,0.298507463 C9.02985075,-0.373134328 8.35820896,0.298507463 8.35820896,0.298507463 L5,3.65671642 L1.64179104,0.298507463 C1.64179104,0.298507463 0.970149254,-0.373134328 0.298507463,0.298507463 C-0.373134328,0.970149254 0.298507463,1.64179104 0.298507463,1.64179104 L3.65671642,5 L0.298507463,8.35820896 C0.298507463,8.35820896 -0.373134328,9.02985075 0.298507463,9.70149254 C0.970149254,10.3731343 1.64179104,9.70149254 1.64179104,9.70149254 L5,6.34328358 L8.35820896,9.70149254 C8.35820896,9.70149254 9.02985075,10.3731343 9.70149254,9.70149254 C10.3731343,9.02985075 9.70149254,8.35820896 9.70149254,8.35820896 L6.34328358,5 Z" id="Shape"></path>
        </g>
    </g>
</svg>