<?xml version="1.0" encoding="UTF-8" standalone="no"?>
<svg width="10px" height="16px" viewBox="0 0 10 16" version="1.1" xmlns="http://www.w3.org/2000/svg" xmlns:xlink="http://www.w3.org/1999/xlink">
    <defs></defs>
    <g id="web-app" stroke="none" stroke-width="1" fill="none" fill-rule="evenodd">
        <g id="close" fill="#000000">
            <path d="M6.34328358,8 L9.70149254,4.64179104 C9.70149254,4.64179104 10.3731343,3.97014925 9.70149254,3.29850746 C9.02985075,2.62686567 8.35820896,3.29850746 8.35820896,3.29850746 L5,6.65671642 L1.64179104,3.29850746 C1.64179104,3.29850746 0.970149254,2.62686567 0.298507463,3.29850746 C-0.373134328,3.97014925 0.298507463,4.64179104 0.298507463,4.64179104 L3.65671642,8 L0.298507463,11.358209 C0.298507463,11.358209 -0.373134328,12.0298507 0.298507463,12.7014925 C0.970149254,13.3731343 1.64179104,12.7014925 1.64179104,12.7014925 L5,9.34328358 L8.35820896,12.7014925 C8.35820896,12.7014925 9.02985075,13.3731343 9.70149254,12.7014925 C10.3731343,12.0298507 9.70149254,11.358209 9.70149254,11.358209 L6.34328358,8 Z" id="Shape"></path>
        </g>
    </g>
</svg>