<?xml version="1.0" encoding="UTF-8" standalone="no"?>
<svg width="12px" height="16px" viewBox="0 0 12 16" version="1.1" xmlns="http://www.w3.org/2000/svg" xmlns:xlink="http://www.w3.org/1999/xlink">
    <defs></defs>
    <g id="web-app" stroke="none" stroke-width="1" fill="none" fill-rule="evenodd">
        <g id="close" fill="#000000">
            <path d="M7.41421356,8 L10.9497475,4.46446609 C10.9497475,4.46446609 11.6568542,3.75735931 10.9497475,3.05025253 C10.2426407,2.34314575 9.53553391,3.05025253 9.53553391,3.05025253 L6,6.58578644 L2.46446609,3.05025253 C2.46446609,3.05025253 1.75735931,2.34314575 1.05025253,3.05025253 C0.343145751,3.75735931 1.05025253,4.46446609 1.05025253,4.46446609 L4.58578644,8 L1.05025253,11.5355339 C1.05025253,11.5355339 0.343145751,12.2426407 1.05025253,12.9497475 C1.75735931,13.6568542 2.46446609,12.9497475 2.46446609,12.9497475 L6,9.41421356 L9.53553391,12.9497475 C9.53553391,12.9497475 10.2426407,13.6568542 10.9497475,12.9497475 C11.6568542,12.2426407 10.9497475,11.5355339 10.9497475,11.5355339 L7.41421356,8 Z" id="Shape"></path>
        </g>
    </g>
</svg>