<?xml version="1.0" encoding="UTF-8"?>
<svg width="14px" height="10px" viewBox="0 0 14 10" version="1.1" xmlns="http://www.w3.org/2000/svg" xmlns:xlink="http://www.w3.org/1999/xlink">
    <!-- Generator: sketchtool 45.2 (43514) - http://www.bohemiancoding.com/sketch -->
    <title>cloud</title>
    <desc>Created with sketchtool.</desc>
    <defs></defs>
    <g id="web-app" stroke="none" stroke-width="1" fill="none" fill-rule="evenodd">
        <g id="cloud" fill="#000000">
            <path d="M11,10 L2.5,10 C1.11928813,10 0,8.88071187 0,7.5 C0,6.29037724 0.859084095,5.28140431 2.00040705,5.04992647 C2.00013603,5.03331678 2,5.01667428 2,5 C2,3.34314575 3.34314575,2 5,2 C5.39024771,2 5.76309185,2.07451355 6.10508099,2.21008923 C6.4517876,0.936467729 7.61653192,0 9,0 C10.6568542,0 12,1.34314575 12,3 C12,3.39024771 11.9254865,3.76309185 11.7899108,4.10508099 C13.0635323,4.4517876 14,5.61653192 14,7 C14,8.65685425 12.6568542,10 11,10 Z" id="Shape"></path>
        </g>
    </g>
</svg>