<?xml version="1.0" encoding="UTF-8"?>
<svg width="24px" height="24px" viewBox="0 0 24 24" version="1.1" xmlns="http://www.w3.org/2000/svg" xmlns:xlink="http://www.w3.org/1999/xlink">
    <!-- Generator: sketchtool 50.2 (55047) - http://www.bohemiancoding.com/sketch -->
    <title>cloud</title>
    <desc>Created with sketchtool.</desc>
    <defs></defs>
    <g id="web-app" stroke="none" stroke-width="1" fill="none" fill-rule="evenodd">
        <g id="cloud" fill="#000000" fill-rule="nonzero">
            <path d="M12.7130554,9.71959095 L11.6402844,11.2615172 L10.0341815,10.2874495 C9.7251575,10.1000329 9.37236458,10 9,10 C7.8954305,10 7,10.8954305 7,12 L7,14 L5,14 C4.44771525,14 4,14.4477153 4,15 C4,15.5522847 4.44771525,16 5,16 L16,16 C18.209139,16 20,14.209139 20,12 C20,9.790861 18.209139,8 16,8 C14.6726138,8 13.4578735,8.64904143 12.7130554,9.71959095 Z M16,6 C19.3137085,6 22,8.6862915 22,12 C22,15.3137085 19.3137085,18 16,18 L5,18 C3.34314575,18 2,16.6568542 2,15 C2,13.3431458 3.34314575,12 5,12 C5,9.790861 6.790861,8 9,8 C9.75820433,8 10.4671377,8.21095427 11.0713082,8.57737108 C12.1550988,7.01960616 13.9584785,6 16,6 Z" id="Shape"></path>
        </g>
    </g>
</svg>