<?xml version="1.0" encoding="UTF-8" standalone="no"?>
<svg width="16px" height="16px" viewBox="0 0 16 16" version="1.1" xmlns="http://www.w3.org/2000/svg" xmlns:xlink="http://www.w3.org/1999/xlink">
    <defs></defs>
    <g id="web-app" stroke="none" stroke-width="1" fill="none" fill-rule="evenodd">
        <g id="cloud" fill="#000000">
            <path d="M13,13 C14.6568542,13 16,11.6568542 16,10 C16,8.34314575 14.6568542,7 13,7 C12.942125,7 12.8846328,7.00163884 12.8275673,7.00487264 L12.8275673,7.00487264 C12.9392192,6.69071775 13,6.35245694 13,6 C13,4.34314575 11.6568542,3 10,3 C8.61653192,3 7.4517876,3.93646773 7.10508099,5.21008923 L7.10508099,5.21008923 C6.76309185,5.07451355 6.39024771,5 6,5 C4.69203186,5 3.57956608,5.8370451 3.16905486,7.00468311 L3.16905486,7.00468311 C3.11309861,7.00157481 3.05673321,7 3,7 C1.34314575,7 0,8.34314575 0,10 C0,11.6568542 1.34314575,13 3,13 L13,13 L13,13 Z" id="Shape"></path>
        </g>
    </g>
</svg>