<?xml version="1.0" encoding="UTF-8" standalone="no"?>
<svg width="12px" height="16px" viewBox="0 0 12 16" version="1.1" xmlns="http://www.w3.org/2000/svg" xmlns:xlink="http://www.w3.org/1999/xlink">
    <defs></defs>
    <g id="food" stroke="none" stroke-width="1" fill="none" fill-rule="evenodd">
        <g id="cocktail" fill="#000000">
            <path d="M5,9 L0,4 L0,2.5 C0,2.5 0,2 0.5,2 L11.5,2 C12,2 12,2.5 12,2.5 L12,4 L7,9 L7,14 L9.5,14 C9.5,14 10,14 10,14.5 C10,15 9.5,15 9.5,15 L2.5,15 C2.5,15 2,15 2,14.5 C2,14 2.49742112,14 2.5,14 L5,14 L5,9 Z M3,5 L1,3 L11,3 L9,5 L3,5 Z" id="Shape"></path>
        </g>
    </g>
</svg>