<?xml version="1.0" encoding="UTF-8" standalone="no"?>
<svg width="14px" height="16px" viewBox="0 0 14 16" version="1.1" xmlns="http://www.w3.org/2000/svg" xmlns:xlink="http://www.w3.org/1999/xlink">
    <defs></defs>
    <g id="food" stroke="none" stroke-width="1" fill="none" fill-rule="evenodd">
        <g id="cocktail" fill="#000000">
            <path d="M6,9 C6,9 -2.03908341e-09,3 0,3 C-2.63826763e-09,2 1,2 1,2 L13,2 C13,2 14,2 14,3 C14,3 8,9 8,9 L8,13 L11,13 C11,13 12,13 12,13 C13,13 13,14 13,14 C13,14 13,15 12,15 L11,15 L3,15 L2,15 C1,15 1,14 1,14 C1,14 1,13 2,13 C2,13 2.99742112,13 3,13 L6,13 L6,9 Z M3,4 L2,3 L12,3 L11,4 L3,4 Z" id="Shape"></path>
        </g>
    </g>
</svg>