<?xml version="1.0" encoding="UTF-8" standalone="no"?>
<svg width="14px" height="16px" viewBox="0 0 14 16" version="1.1" xmlns="http://www.w3.org/2000/svg" xmlns:xlink="http://www.w3.org/1999/xlink">
    <defs></defs>
    <g id="food" stroke="none" stroke-width="1" fill="none" fill-rule="evenodd">
        <g id="coffee" fill="#000000">
            <path d="M11,4 C11,4 10.9999914,3 10,3 L3,3 C2,3 2,4 2,4 L2,7.99408095 C2,9.11344516 2.89426273,10 3.9973917,10 L9.0026083,10 C10.1021797,10 10.9968073,9.10511657 10.9999915,8 L12,8 C12,8 13,8 13,6.5 C13,5 12,5 12,5 L10.9999914,5 L11,4 Z M0,11.5 C4.89858741e-16,11 0.5,11 0.5,11 L13.5,11 C13.5,11 14,11 14,11.5 C14,12 13.5,12 13.5,12 L0.5,12 C0.5,12 4.8985872e-16,12 0,11.5 Z" id="Shape"></path>
        </g>
    </g>
</svg>