<?xml version="1.0" encoding="UTF-8" standalone="no"?>
<svg width="16px" height="16px" viewBox="0 0 16 16" version="1.1" xmlns="http://www.w3.org/2000/svg" xmlns:xlink="http://www.w3.org/1999/xlink">
    <defs></defs>
    <g id="web-app" stroke="none" stroke-width="1" fill="none" fill-rule="evenodd">
        <g id="comments" fill="#000000">
            <path d="M4.0269144,6.07097405 C4.31494574,3.78693481 6.87923221,2 10,2 C13.3137085,2 16,4.01471863 16,6.5 C16,7.92109132 15.1216937,9.18832808 13.75,10.0130212 L13.75,10.0130212 L13.75,11.75 C13.75,11.75 13.75,12.5 13.0025325,12.0456354 C13.0025325,12.0456354 11.9753764,11.4313547 11.1226113,10.9213668 C10.7589495,10.97299 10.3836805,11 10,11 C9.90540264,11 9.81131659,10.9983581 9.71778975,10.9951103 C9.03323993,12.4541544 7.17946686,13.5 5,13.5 C4.68026629,13.5 4.36754206,13.4774916 4.06449057,13.4344724 C3.353853,13.8594622 2.4978896,14.3713628 2.49788959,14.3713628 C1.875,14.75 1.875,14.125 1.875,14.125 L1.875,12.6775176 C0.731921893,11.9902734 0,10.9342428 0,9.75 C0,7.92865679 1.7312781,6.41058483 4.0269144,6.07097405 L4.0269144,6.07097405 Z M2.875,12.1119203 L2.875,13 L3.8548157,12.3946831 L4.20503527,12.444398 C4.46466602,12.4812536 4.73046552,12.5 5,12.5 C7.26142375,12.5 9,11.1960678 9,9.75 C9,8.30393219 7.26142375,7 5,7 C2.73857625,7 1,8.30393219 1,9.75 C1,10.5249287 1.49598404,11.2828249 2.3902659,11.8204873 L2.875,12.1119203 Z" id="Shape"></path>
        </g>
    </g>
</svg>