<?xml version="1.0" encoding="UTF-8" standalone="no"?>
<svg width="14px" height="16px" viewBox="0 0 14 16" version="1.1" xmlns="http://www.w3.org/2000/svg" xmlns:xlink="http://www.w3.org/1999/xlink">
    <defs></defs>
    <g id="web-app" stroke="none" stroke-width="1" fill="none" fill-rule="evenodd">
        <g id="commenting" fill="#000000">
            <path d="M2,12.0490554 C0.762812978,10.8766995 0,9.271069 0,7.5 C0,3.91014913 3.13400675,1 7,1 C10.8659932,1 14,3.91014913 14,7.5 C14,11.0898509 10.8659932,14 7,14 C5.82461097,14 4.71688384,13.7309975 3.74432397,13.255676 L2,15 L2,12.0490554 L2,12.0490554 Z M4,8.5 C4.55228475,8.5 5,8.05228475 5,7.5 C5,6.94771525 4.55228475,6.5 4,6.5 C3.44771525,6.5 3,6.94771525 3,7.5 C3,8.05228475 3.44771525,8.5 4,8.5 Z M7,8.5 C7.55228475,8.5 8,8.05228475 8,7.5 C8,6.94771525 7.55228475,6.5 7,6.5 C6.44771525,6.5 6,6.94771525 6,7.5 C6,8.05228475 6.44771525,8.5 7,8.5 Z M10,8.5 C10.5522847,8.5 11,8.05228475 11,7.5 C11,6.94771525 10.5522847,6.5 10,6.5 C9.44771525,6.5 9,6.94771525 9,7.5 C9,8.05228475 9.44771525,8.5 10,8.5 Z" id="Shape"></path>
        </g>
    </g>
</svg>