<?xml version="1.0" encoding="UTF-8" standalone="no"?>
<svg width="14px" height="16px" viewBox="0 0 14 16" version="1.1" xmlns="http://www.w3.org/2000/svg" xmlns:xlink="http://www.w3.org/1999/xlink">
    <defs></defs>
    <g id="web-app" stroke="none" stroke-width="1" fill="none" fill-rule="evenodd">
        <g id="comment-o" fill="#000000">
            <path d="M2,12.0490554 C0.762812978,10.8766995 0,9.271069 0,7.5 C0,3.91014913 3.13400675,1 7,1 C10.8659932,1 14,3.91014913 14,7.5 C14,11.0898509 10.8659932,14 7,14 C5.82461097,14 4.71688384,13.7309975 3.74432397,13.255676 L2,15 L2,12.0490554 L2,12.0490554 Z M7,13 C10.3137085,13 13,10.5375661 13,7.5 C13,4.46243388 10.3137085,2 7,2 C3.6862915,2 1,4.46243388 1,7.5 C1,10.5375661 3.6862915,13 7,13 Z" id="Shape"></path>
        </g>
    </g>
</svg>