<?xml version="1.0" encoding="UTF-8" standalone="no"?>
<svg width="16px" height="16px" viewBox="0 0 16 16" version="1.1" xmlns="http://www.w3.org/2000/svg" xmlns:xlink="http://www.w3.org/1999/xlink">
    <defs></defs>
    <g id="web-app" stroke="none" stroke-width="1" fill="none" fill-rule="evenodd">
        <g id="commenting" fill="#000000">
            <path d="M2.99999999,11.6840282 C1.17107503,10.5844374 0,8.89478843 0,7 C0,3.6862915 3.581722,1 8,1 C12.418278,1 16,3.6862915 16,7 C16,10.3137085 12.418278,13 8,13 C7.48842606,13 6.98806729,12.9639866 6.50318492,12.8951558 C5.36616479,13.5751396 3.99662335,14.3941805 3.99662335,14.3941805 C2.99999999,15 3,14 3,14 L2.99999999,11.6840282 L2.99999999,11.6840282 Z M5,8 C5.55228475,8 6,7.55228475 6,7 C6,6.44771525 5.55228475,6 5,6 C4.44771525,6 4,6.44771525 4,7 C4,7.55228475 4.44771525,8 5,8 Z M8,8 C8.55228475,8 9,7.55228475 9,7 C9,6.44771525 8.55228475,6 8,6 C7.44771525,6 7,6.44771525 7,7 C7,7.55228475 7.44771525,8 8,8 Z M11,8 C11.5522847,8 12,7.55228475 12,7 C12,6.44771525 11.5522847,6 11,6 C10.4477153,6 10,6.44771525 10,7 C10,7.55228475 10.4477153,8 11,8 Z" id="Shape"></path>
        </g>
    </g>
</svg>