<?xml version="1.0" encoding="UTF-8" standalone="no"?>
<svg width="14px" height="16px" viewBox="0 0 14 16" version="1.1" xmlns="http://www.w3.org/2000/svg" xmlns:xlink="http://www.w3.org/1999/xlink">
    <defs></defs>
    <g id="web-app" stroke="none" stroke-width="1" fill="none" fill-rule="evenodd">
        <g id="comments" fill="#000000">
            <path d="M4.04750273,6.00025653 C4.3844813,3.74019971 6.47338542,2 9,2 C11.7614237,2 14,4.07867795 14,6.64285714 C14,7.90790643 13.4551336,9.05478537 12.5714286,9.89218243 L12.5714286,12 L11.3254829,10.7540543 C10.6307973,11.0935696 9.83956359,11.2857143 9,11.2857143 C8.55046606,11.2857143 8.11478799,11.2306277 7.70036759,11.1273275 C7.10162003,12.4778326 5.67037914,13.4285714 4,13.4285714 C3.32834913,13.4285714 2.69536219,13.2748557 2.13961369,13.0032434 L1.14285714,14 L1.14285714,12.3137459 C0.435893131,11.6438283 0,10.7263251 0,9.71428571 C0,7.66294236 1.790861,6 4,6 C4.01585596,6 4.03169038,6.00008567 4.04750273,6.00025653 L4.04750273,6.00025653 Z M1,9.78571429 C1,8.24392823 2.34314575,7 4,7 C5.65685425,7 7,8.24720677 7,9.78571429 C7,11.3242218 5.65685425,12.5714286 4,12.5714286 C2.34314575,12.5714286 1,11.3275003 1,9.78571429 Z" id="Shape"></path>
        </g>
    </g>
</svg>