<?xml version="1.0" encoding="UTF-8" standalone="no"?>
<svg width="16px" height="16px" viewBox="0 0 16 16" version="1.1" xmlns="http://www.w3.org/2000/svg" xmlns:xlink="http://www.w3.org/1999/xlink">
    <defs></defs>
    <g id="food" stroke="none" stroke-width="1" fill="none" fill-rule="evenodd">
        <g id="cooffee" fill="#000000">
            <path d="M12,4 L12,3 L3,3 L3,7.99408095 C3,9.11344516 3.89426273,10 4.9973917,10 L10.0026083,10 C11.1021797,10 11.9968073,9.10511657 11.9999915,8 L13,8 C13,8 15,8 15,6 C15,4 13,4 13,4 L12,4 Z M0,12 C5.59838561e-16,11 1.14285719,11 1.14285719,11 L14.8571429,11 C14.8571429,11 16,11 16,12 C16,13 14.8571429,13 14.8571429,13 L1.14285714,13 C1.14285714,13 5.59838537e-16,13 0,12 Z" id="Shape"></path>
        </g>
    </g>
</svg>