<?xml version="1.0" encoding="UTF-8" standalone="no"?>
<svg width="14px" height="16px" viewBox="0 0 14 16" version="1.1" xmlns="http://www.w3.org/2000/svg" xmlns:xlink="http://www.w3.org/1999/xlink">
    <defs></defs>
    <g id="production" stroke="none" stroke-width="1" fill="none" fill-rule="evenodd">
        <g id="crop" fill="#000000">
            <path d="M12,11 L14,11 L14,13 L12,13 L12,15 L10,15 L10,13 L3,13 C2,13 2,12 2,12 L2,5 L0,5 L0,3 L2,3 L2,1 L4,1 L4,3 L11,3 L12,2 L13,3 L12,4 L12,11 Z M4,5 L9,5 L4,10 L4,5 Z M10,11 L5,11 L10,6 L10,11 Z" id="Shape"></path>
        </g>
    </g>
</svg>