<?xml version="1.0" encoding="UTF-8"?>
<svg width="10px" height="14px" viewBox="0 0 10 14" version="1.1" xmlns="http://www.w3.org/2000/svg" xmlns:xlink="http://www.w3.org/1999/xlink">
    <!-- Generator: sketchtool 49.2 (51160) - http://www.bohemiancoding.com/sketch -->
    <title>cutlery</title>
    <desc>Created with sketchtool.</desc>
    <defs></defs>
    <g id="food" stroke="none" stroke-width="1" fill="none" fill-rule="evenodd">
        <g id="cutlery" fill="#000000">
            <path d="M9.99746957,1 L10,8 L10,13 C10,13 10,14 8.5,14 C7,14 7,13 7,13 L7,9 L6,9 C6,9 6,0 9,0 C9.99746957,0 9.99746957,1 9.99746957,1 Z M4,3 L4,0 L5,0 L5,6 C5,6 5,7 4,7 L4,13 C4,13 4,14 3.00366711,14 L2,14 C1.09085209,14 1,13 1,13 L1,7 C0,7 0,6 0,6 L5.68434189e-14,0 L1,0 L1,3 L2,3 L2,0 L3,0 L3,3 L4,3 Z" id="Shape"></path>
        </g>
    </g>
</svg>