<?xml version="1.0" encoding="UTF-8" standalone="no"?>
<svg width="10px" height="16px" viewBox="0 0 10 16" version="1.1" xmlns="http://www.w3.org/2000/svg" xmlns:xlink="http://www.w3.org/1999/xlink">
    <defs></defs>
    <g id="food" stroke="none" stroke-width="1" fill="none" fill-rule="evenodd">
        <g id="cutlery" fill="#000000">
            <path d="M9.99746957,2 C9.99746957,2 9.99746957,1 9,1 C6,1 6,10 6,10 L7,10 L7,14 C7,14 7,15 8.5,15 C10,15 10,14 10,14 L10,9 L9.99746957,2 Z M4,4 L3,4 L3,1 L2,1 L2,4 L1,4 L1,1 L5.68434189e-14,1 L0,7 C0,7 0,8 1,8 L1,14 C1,14 1.09085209,15 2,15 L3.00366711,15 C4,15 4,14 4,14 L4,8 C5,8 5,7 5,7 L5,1 L4,1 L4,4 Z" id="Shape"></path>
        </g>
    </g>
</svg>