<?xml version="1.0" encoding="UTF-8" standalone="no"?>
<svg width="14px" height="16px" viewBox="0 0 14 16" version="1.1" xmlns="http://www.w3.org/2000/svg" xmlns:xlink="http://www.w3.org/1999/xlink">
    <defs></defs>
    <g id="text-edit" stroke="none" stroke-width="1" fill="none" fill-rule="evenodd">
        <g id="delete-link" fill="#000000">
            <path d="M11,5 C12.6568542,5 14,6.34314575 14,8 C14,9.65685425 12.6568542,11 11,11 L8,11 L8,5 L11,5 Z M11,10 C12.1045695,10 13,9.1045695 13,8 C13,6.8954305 12.1045695,6 11,6 L8,6 L8,10 L11,10 Z M3,5 C1.34314575,5 -2.27373675e-13,6.34314575 -2.27373675e-13,8 C-2.27373675e-13,9.65685425 1.34314575,11 3,11 L6,11 L6,5 L3,5 Z M3,10 C1.8954305,10 1,9.1045695 1,8 C1,6.8954305 1.8954305,6 3,6 L6,6 L6,10 L3,10 Z M9,9 C9.55228475,9 10,8.55228475 10,8 C10,7.44771525 9.55228475,7 9,7 C8.44771525,7 8,7 8,7 L8,9 C8,9 8.70227045,9 9,9 Z M5,9 C4.44771525,9 4,8.55228475 4,8 C4,7.44771525 4.44771525,7 5,7 C5.55228475,7 6,7 6,7 L6,9 C6,9 5.29772955,9 5,9 Z" id="Shape"></path>
        </g>
    </g>
</svg>