<?xml version="1.0" encoding="UTF-8" standalone="no"?>
<svg width="16px" height="16px" viewBox="0 0 16 16" version="1.1" xmlns="http://www.w3.org/2000/svg" xmlns:xlink="http://www.w3.org/1999/xlink">
    <defs></defs>
    <g id="devices" stroke="none" stroke-width="1" fill="none" fill-rule="evenodd">
        <g id="desktop" fill="#000000">
            <path d="M6.99809105,12.0009766 L6.99809103,13 L6,13 L5.14100261,13.6835938 C4.91813306,13.8609543 4.96727579,14 5.2434288,14 L10.7533905,14 C11.0368104,14 11.0758519,13.8583401 10.8568231,13.6835938 L10,13 L9,13 L9,12.0009766 L14,12.0009766 C14,12.0009766 15,12.0009766 15,11 C15,11 15,3 15,3 C15,2 14,2 14,2 L2,2 C2,2 1,2 1,3 C1,2.9538128 1,11 1,11 C1,12 2,12.0009766 2,12.0009766 L6.99809105,12.0009766 L6.99809105,12.0009766 Z M2,3 L14,3 L14,11 L2,11 L2,3 Z" id="shape"></path>
        </g>
    </g>
</svg>