<?xml version="1.0" encoding="UTF-8" standalone="no"?>
<svg width="14px" height="16px" viewBox="0 0 14 16" version="1.1" xmlns="http://www.w3.org/2000/svg" xmlns:xlink="http://www.w3.org/1999/xlink">
    <defs></defs>
    <g id="devices" stroke="none" stroke-width="1" fill="none" fill-rule="evenodd">
        <g id="desktop" fill="#000000">
            <path d="M5.99809103,13 L4,13 C4,13 4,14 5,14 L9,14 C10,14 10,13 10,13 L8,13 L8,12.0009766 L13,12.0009766 C13,12.0009766 14,12.0009766 14,11 C14,11 14,3 14,3 C14,2 13,2 13,2 L1,2 C1,2 3.55271368e-15,2 3.55271368e-15,3 C3.55271368e-15,2.9538128 0,11 0,11 C5.32907052e-15,12 1,12.0009766 1,12.0009766 L5.99809105,12.0009766 L5.99809103,13 Z M1,3 L13,3 L13,11 L1,11 L1,3 Z" id="shape"></path>
        </g>
    </g>
</svg>