<?xml version="1.0" encoding="UTF-8" standalone="no"?>
<svg width="14px" height="16px" viewBox="0 0 14 16" version="1.1" xmlns="http://www.w3.org/2000/svg" xmlns:xlink="http://www.w3.org/1999/xlink">
    <defs></defs>
    <g id="devices" stroke="none" stroke-width="1" fill="none" fill-rule="evenodd">
        <g id="desktop" fill="#000000">
            <path d="M5.99809105,12.0009766 L5.99809103,13 L5,13 L4.14100261,13.6835938 C3.91813306,13.8609543 3.96727579,14 4.2434288,14 L9.75339051,14 C10.0368104,14 10.0758519,13.8583401 9.85682308,13.6835938 L9,13 L8,13 L8,12.0009766 L13,12.0009766 C13,12.0009766 14,12.0009766 14,11 C14,11 14,3 14,3 C14,2 13,2 13,2 L1,2 C1,2 2.66453526e-15,2 2.66453526e-15,3 C2.66453526e-15,2.9538128 -8.8817842e-16,11 -8.8817842e-16,11 C4.4408921e-15,12 1,12.0009766 1,12.0009766 L5.99809105,12.0009766 L5.99809105,12.0009766 Z M1,3 L13,3 L13,11 L1,11 L1,3 Z" id="shape"></path>
        </g>
    </g>
</svg>