<?xml version="1.0" encoding="UTF-8" standalone="no"?>
<svg width="16px" height="16px" viewBox="0 0 16 16" version="1.1" xmlns="http://www.w3.org/2000/svg" xmlns:xlink="http://www.w3.org/1999/xlink">
    <defs></defs>
    <g id="shape" stroke="none" stroke-width="1" fill="none" fill-rule="evenodd">
        <g id="diamond" fill="#000000">
            <path d="M9,14.5702479 C8,15.5371901 7,14.5702479 7,14.5702479 L0,7 L3,2 L13,2 L16,7 C16,7 9,14.5702479 9,14.5702479 Z M4,7 L2,7 L7.00134025,13 L4,7 Z M11,7 L5,7 L8,13 L11,7 Z M12,7 L14,7 L9,13 L12,7 Z M10,3 L12,3 L13.997719,6 L12,6 L10,3 Z M9,3 L7,3 L5,6 L11,6 L9,3 Z M6,3 L4,3 L2,6 L4,6 L6,3 Z" id="Shape"></path>
        </g>
    </g>
</svg>