<?xml version="1.0" encoding="UTF-8" standalone="no"?>
<svg width="12px" height="16px" viewBox="0 0 12 16" version="1.1" xmlns="http://www.w3.org/2000/svg" xmlns:xlink="http://www.w3.org/1999/xlink">
    <defs></defs>
    <g id="production" stroke="none" stroke-width="1" fill="none" fill-rule="evenodd">
        <g id="difference" fill="#000000">
            <path d="M4,6 L0.997030139,6 C0.453036308,6 0,6.4463856 0,6.99703014 L0,13.0029699 C0,13.5469637 0.446385598,14 0.997030139,14 L7.00296986,14 C7.54696369,14 8,13.5536144 8,13.0029699 L8,10 L11.0029699,10 C11.5469637,10 12,9.5536144 12,9.00296986 L12,2.99703014 C12,2.45303631 11.5536144,2 11.0029699,2 L4.99703014,2 C4.45303631,2 4,2.4463856 4,2.99703014 L4,6 Z M1,7 L4,7 L4,10 L7,10 L7,13 L1,13 L1,7 Z M11,9 L8,9 L8,6 L5,6 L5,3 L11,3 L11,9 Z" id="Shape"></path>
        </g>
    </g>
</svg>