<?xml version="1.0" encoding="UTF-8" standalone="no"?>
<svg width="16px" height="16px" viewBox="0 0 16 16" version="1.1" xmlns="http://www.w3.org/2000/svg" xmlns:xlink="http://www.w3.org/1999/xlink">
    <defs>
        <path d="M2.343,2.342 C0.796,3.89 0.015,5.914 0,7.942 L0,8.057 C0.015,10.085 0.796,12.109 2.343,13.656 C3.89,15.203 5.914,15.984 7.942,15.999 L8.057,15.999 C10.085,15.984 12.109,15.203 13.657,13.656 C15.204,12.109 15.985,10.084 15.999,8.056 L15.999,7.943 C15.985,5.914 15.204,3.89 13.657,2.342 C12.094,0.781 10.047,8.8817842e-16 7.999,8.8817842e-16 C5.952,8.8817842e-16 3.904,0.781 2.343,2.342 L2.343,2.342 Z M3.758,3.756 C5.892,1.62 9.201,1.386 11.535,3.05 L3.05,11.535 C1.386,9.202 1.621,5.893 3.758,3.756 L3.758,3.756 Z M4.464,12.949 L12.949,4.464 C14.613,6.798 14.379,10.107 12.243,12.241 C11.042,13.442 9.471,14.042 7.911,14.042 C6.695,14.042 5.486,13.678 4.464,12.949 L4.464,12.949 Z" id="path-1"></path>
    </defs>
    <g id="web-app" stroke="none" stroke-width="1" fill="none" fill-rule="evenodd">
        <g id="disabled">
            <mask id="mask-2" fill="white">
                <use xlink:href="#path-1"></use>
            </mask>
            <use id="Shape" fill="#000000" xlink:href="#path-1"></use>
        </g>
    </g>
</svg>