<?xml version="1.0" encoding="UTF-8"?>
<svg width="24px" height="24px" viewBox="0 0 24 24" version="1.1" xmlns="http://www.w3.org/2000/svg" xmlns:xlink="http://www.w3.org/1999/xlink">
    <!-- Generator: sketchtool 50.2 (55047) - http://www.bohemiancoding.com/sketch -->
    <title>document</title>
    <desc>Created with sketchtool.</desc>
    <defs></defs>
    <g id="file-types" stroke="none" stroke-width="1" fill="none" fill-rule="evenodd">
        <g id="document" fill="#000000" fill-rule="nonzero">
            <path d="M15,4 L6,4 L6,20 L18,20 L18,7 L15,7 L15,4 Z M6,2 L16,2 L20,6 L20,20 C20,21.1045695 19.1045695,22 18,22 L6,22 C4.8954305,22 4,21.1045695 4,20 L4,4 C4,2.8954305 4.8954305,2 6,2 Z M8,11 L16,11 L16,13 L8,13 L8,11 Z M8,15 L16,15 L16,17 L8,17 L8,15 Z" id="Shape"></path>
        </g>
    </g>
</svg>