<?xml version="1.0" encoding="UTF-8" standalone="no"?>
<svg width="10px" height="16px" viewBox="0 0 10 16" version="1.1" xmlns="http://www.w3.org/2000/svg" xmlns:xlink="http://www.w3.org/1999/xlink">
    <defs></defs>
    <g id="file-types" stroke="none" stroke-width="1" fill="none" fill-rule="evenodd">
        <g id="document" fill="#000000">
            <path d="M1,13.9931545 C1,13.9998968 9.00460243,14 9.00460243,14 C8.9970214,14 9,5 9,5 L6,5 L6,2 L0.995397568,2 C1.00550487,2 1,13.9931545 1,13.9931545 Z M0,2.00684547 C0,1.45078007 0.455664396,1 0.995397568,1 L7.5,1 L10,3.5 L10,13.9931545 C10,14.5492199 9.5443356,15 9.00460243,15 L0.995397568,15 C0.445654671,15 0,14.5500512 0,13.9931545 L0,2.00684547 Z M2,11 L8,11 L8,12 L2,12 L2,11 Z M2,9 L8,9 L8,10 L2,10 L2,9 Z M2,7 L8,7 L8,8 L2,8 L2,7 Z M7,2 L9,4 L7,4 L7,2 Z" id="Shape"></path>
        </g>
    </g>
</svg>