<?xml version="1.0" encoding="UTF-8" standalone="no"?>
<svg width="14px" height="16px" viewBox="0 0 14 16" version="1.1" xmlns="http://www.w3.org/2000/svg" xmlns:xlink="http://www.w3.org/1999/xlink">
    <defs></defs>
    <g id="web-app" stroke="none" stroke-width="1" fill="none" fill-rule="evenodd">
        <g id="download" fill="#000000">
            <path d="M0.5,12 L1,12 L2,13 L12,13 L13,12 L13.5,12 C13.5,12 14,12 14,12.5 C14,12.5 14,14 14,14 C14,14 14,15 13,15 L1,15 C-1.15744076e-10,15 -4.4408921e-16,14 -4.4408921e-16,14 L-4.4408921e-16,12.5 C-4.4408921e-16,12 0.5,12 0.5,12 Z M9,6 C9,6 9,1 9,1 C9,-2.22044605e-16 8,-2.22044605e-16 8,-2.22044605e-16 L6,-2.22044605e-16 C6,-2.22044605e-16 5,-2.22044605e-16 5,1 L5,6 L2,6 L7,12 L12,6 L9,6 Z" id="Shape"></path>
        </g>
    </g>
</svg>