<?xml version="1.0" encoding="UTF-8" standalone="no"?>
<svg width="16px" height="16px" viewBox="0 0 16 16" version="1.1" xmlns="http://www.w3.org/2000/svg" xmlns:xlink="http://www.w3.org/1999/xlink">
    <defs></defs>
    <g id="text-edit" stroke="none" stroke-width="1" fill="none" fill-rule="evenodd">
        <g id="edit" fill="#000000">
            <path d="M11,2 L11,3.00448823 L1,3.00448823 L1,13 L11,13 L11,12 L12,12 L12,14 L0,14 L0,2 L11,2 Z M11.8158775,3.58273381 L14.4172661,6.17266186 L9.56115108,11.028777 L8.58992806,12 L6,12 L6,9.40432981 L7.29328338,8.11510791 L11.8158775,3.58273381 Z M11.8273381,4.87769784 L9.23741007,7.46762589 L9.88489209,8.11510791 L12.4748201,5.52517985 L11.8273381,4.87769784 Z M7.94244604,9.41007194 L7.29496403,9.41007194 L6.64748201,10.057554 L6.64748201,10.705036 L7.29496403,10.705036 L7.29496403,11.352518 L7.94244604,11.352518 L8.58992806,10.705036 L8.58992806,10.057554 L7.94244604,9.41007194 Z M12.4748201,2.93525179 C12.4748201,2.93525179 13.1464951,2.28776978 13.1223022,2.28776978 C13.7697842,1.64028778 14.4172662,2.28776978 14.4172662,2.28776978 L15.7122302,3.5827338 C15.7122302,3.5827338 16.3597122,4.23021581 15.7122302,4.87769783 C15.7274154,4.892883 15.0647482,5.52517992 15.0647482,5.52517992 L12.4748201,2.93525179 Z" id="Shape"></path>
        </g>
    </g>
</svg>