<?xml version="1.0" encoding="UTF-8"?>
<svg width="24px" height="24px" viewBox="0 0 24 24" version="1.1" xmlns="http://www.w3.org/2000/svg" xmlns:xlink="http://www.w3.org/1999/xlink">
    <!-- Generator: sketchtool 52.2 (67145) - http://www.bohemiancoding.com/sketch -->
    <title>edit</title>
    <desc>Created with sketchtool.</desc>
    <g id="text-edit" stroke="none" stroke-width="1" fill="none" fill-rule="evenodd">
        <g id="edit" fill="#000000">
            <path d="M5,20 L19,20 C19.5522847,20 20,20.4477153 20,21 C20,21.5522847 19.5522847,22 19,22 L5,22 C4.44771525,22 4,21.5522847 4,21 C4,20.4477153 4.44771525,20 5,20 Z M4,15 C4,15 7.33323693,11.6666667 13.9997108,5 L17,8 C10.3333333,14.6666667 7,18 7,18 C6.34392558,18 5.34392558,18 4,18 C4,16.6105922 4,15.6105922 4,15 Z M15,4 L16.9997108,2 L20,5 L17.9989741,7.00102587 L15,4 Z" id="Shape"></path>
        </g>
    </g>
</svg>