<?xml version="1.0" encoding="UTF-8" standalone="no"?>
<svg width="3px" height="16px" viewBox="0 0 3 16" version="1.1" xmlns="http://www.w3.org/2000/svg" xmlns:xlink="http://www.w3.org/1999/xlink">
    <defs></defs>
    <g id="web-app" stroke="none" stroke-width="1" fill="none" fill-rule="evenodd">
        <g id="elipsis-v" fill="#000000">
            <path d="M1.5,14 C2.32842712,14 3,13.3284271 3,12.5 C3,11.6715729 2.32842712,11 1.5,11 C0.671572875,11 0,11.6715729 0,12.5 C0,13.3284271 0.671572875,14 1.5,14 Z M1.5,9 C2.32842712,9 3,8.32842712 3,7.5 C3,6.67157288 2.32842712,6 1.5,6 C0.671572875,6 0,6.67157288 0,7.5 C0,8.32842712 0.671572875,9 1.5,9 Z M1.5,4 C2.32842712,4 3,3.32842712 3,2.5 C3,1.67157288 2.32842712,1 1.5,1 C0.671572875,1 0,1.67157288 0,2.5 C0,3.32842712 0.671572875,4 1.5,4 Z" id="Shape"></path>
        </g>
    </g>
</svg>