<?xml version="1.0" encoding="UTF-8" standalone="no"?>
<svg width="13px" height="16px" viewBox="0 0 13 16" version="1.1" xmlns="http://www.w3.org/2000/svg" xmlns:xlink="http://www.w3.org/1999/xlink">
    <defs></defs>
    <g id="web-app" stroke="none" stroke-width="1" fill="none" fill-rule="evenodd">
        <g id="elipsis-h" fill="#000000">
            <path d="M11.5,9 C12.3284271,9 13,8.32842712 13,7.5 C13,6.67157288 12.3284271,6 11.5,6 C10.6715729,6 10,6.67157288 10,7.5 C10,8.32842712 10.6715729,9 11.5,9 Z M6.5,9 C7.32842712,9 8,8.32842712 8,7.5 C8,6.67157288 7.32842712,6 6.5,6 C5.67157288,6 5,6.67157288 5,7.5 C5,8.32842712 5.67157288,9 6.5,9 Z M1.5,9 C2.32842712,9 3,8.32842712 3,7.5 C3,6.67157288 2.32842712,6 1.5,6 C0.671572875,6 0,6.67157288 0,7.5 C0,8.32842712 0.671572875,9 1.5,9 Z" id="Shape"></path>
        </g>
    </g>
</svg>