<?xml version="1.0" encoding="UTF-8" standalone="no"?>
<svg width="7px" height="16px" viewBox="0 0 7 16" version="1.1" xmlns="http://www.w3.org/2000/svg" xmlns:xlink="http://www.w3.org/1999/xlink">
    <defs></defs>
    <g id="web-app" stroke="none" stroke-width="1" fill="none" fill-rule="evenodd">
        <g id="elipsis-v" fill="#000000">
            <path d="M3.5,14 C4.32842712,14 5,13.3284271 5,12.5 C5,11.6715729 4.32842712,11 3.5,11 C2.67157288,11 2,11.6715729 2,12.5 C2,13.3284271 2.67157288,14 3.5,14 Z M3.5,9 C4.32842712,9 5,8.32842712 5,7.5 C5,6.67157288 4.32842712,6 3.5,6 C2.67157288,6 2,6.67157288 2,7.5 C2,8.32842712 2.67157288,9 3.5,9 Z M3.5,4 C4.32842712,4 5,3.32842712 5,2.5 C5,1.67157288 4.32842712,1 3.5,1 C2.67157288,1 2,1.67157288 2,2.5 C2,3.32842712 2.67157288,4 3.5,4 Z" id="Shape"></path>
        </g>
    </g>
</svg>