<?xml version="1.0" encoding="UTF-8"?>
<svg width="13px" height="3px" viewBox="0 0 13 3" version="1.1" xmlns="http://www.w3.org/2000/svg" xmlns:xlink="http://www.w3.org/1999/xlink">
    <!-- Generator: sketchtool 47.1 (45422) - http://www.bohemiancoding.com/sketch -->
    <title>elipsis-h</title>
    <desc>Created with sketchtool.</desc>
    <defs></defs>
    <g id="web-app" stroke="none" stroke-width="1" fill="none" fill-rule="evenodd">
        <g id="elipsis-h" fill="#000000">
            <path d="M11.5,3 C10.6715729,3 10,2.32842712 10,1.5 C10,0.671572875 10.6715729,0 11.5,0 C12.3284271,0 13,0.671572875 13,1.5 C13,2.32842712 12.3284271,3 11.5,3 Z M6.5,3 C5.67157288,3 5,2.32842712 5,1.5 C5,0.671572875 5.67157288,0 6.5,0 C7.32842712,0 8,0.671572875 8,1.5 C8,2.32842712 7.32842712,3 6.5,3 Z M1.5,3 C0.671572875,3 0,2.32842712 0,1.5 C0,0.671572875 0.671572875,0 1.5,0 C2.32842712,0 3,0.671572875 3,1.5 C3,2.32842712 2.32842712,3 1.5,3 Z" id="Shape"></path>
        </g>
    </g>
</svg>