<?xml version="1.0" encoding="UTF-8"?>
<svg width="14px" height="14px" viewBox="0 0 14 14" version="1.1" xmlns="http://www.w3.org/2000/svg" xmlns:xlink="http://www.w3.org/1999/xlink">
    <!-- Generator: sketchtool 46.2 (44496) - http://www.bohemiancoding.com/sketch -->
    <title>equalizer</title>
    <desc>Created with sketchtool.</desc>
    <defs></defs>
    <g id="devices" stroke="none" stroke-width="1" fill="none" fill-rule="evenodd">
        <g id="equalizer" fill="#000000">
            <path d="M1.00212332,9 L3,9 C3,9 4,9 4,10.0006441 C4,11.0012883 3,11 3,11 L1.00212332,11 C1.00212332,11 1.2246468e-16,11 0,10 C0,9 1.00212332,9 1.00212332,9 Z M6.00212332,4 L8,4 C8,4 9,4 9,5.00064413 C9,6.00128827 8,6 8,6 L6.00212332,6 C6.00212332,6 5,6 5,5 C5,4 6.00212332,4 6.00212332,4 Z M11.0021233,7 L13,7 C13,7 14,7 14,8.00064413 C14,9.00128827 13,9 13,9 L11.0021233,9 C11.0021233,9 10,9 10,8 C10,7 11.0021233,7 11.0021233,7 Z M11,10 L13,10 L13,14 L11,14 L11,10 Z M11,0 L13,0 L13,6 L11,6 L11,0 Z M6,7 L8,7 L8,14 L6,14 L6,7 Z M6,0 L8,0 L8,3 L6,3 L6,0 Z M1,12 L3,12 L3,14 L1,14 L1,12 Z M1,0 L3,0 L3,8 L1,8 L1,0 Z" id="Shape"></path>
        </g>
    </g>
</svg>