<?xml version="1.0" encoding="UTF-8" standalone="no"?>
<svg width="14px" height="16px" viewBox="0 0 14 16" version="1.1" xmlns="http://www.w3.org/2000/svg" xmlns:xlink="http://www.w3.org/1999/xlink">
    <defs></defs>
    <g id="devices" stroke="none" stroke-width="1" fill="none" fill-rule="evenodd">
        <g id="equalizer" fill="#000000">
            <path d="M1.00212332,10 L3,10 C3,10 4,10 4,11.0006441 C4,12.0012883 3,12 3,12 L1.00212332,12 C1.00212332,12 1.2246468e-16,12 0,11 C0,10 1.00212332,10 1.00212332,10 Z M6.00212332,5 L8,5 C8,5 9,5 9,6.00064413 C9,7.00128827 8,7 8,7 L6.00212332,7 C6.00212332,7 5,7 5,6 C5,5 6.00212332,5 6.00212332,5 Z M11.0021233,8 L13,8 C13,8 14,8 14,9.00064413 C14,10.0012883 13,10 13,10 L11.0021233,10 C11.0021233,10 10,10 10,9 C10,8 11.0021233,8 11.0021233,8 Z M11,11 L13,11 L13,15 L11,15 L11,11 Z M11,1 L13,1 L13,7 L11,7 L11,1 Z M6,8 L8,8 L8,15 L6,15 L6,8 Z M6,1 L8,1 L8,4 L6,4 L6,1 Z M1,13 L3,13 L3,15 L1,15 L1,13 Z M1,1 L3,1 L3,9 L1,9 L1,1 Z" id="Shape"></path>
        </g>
    </g>
</svg>