<?xml version="1.0" encoding="UTF-8" standalone="no"?>
<svg width="10px" height="16px" viewBox="0 0 10 16" version="1.1" xmlns="http://www.w3.org/2000/svg" xmlns:xlink="http://www.w3.org/1999/xlink">
    <defs></defs>
    <g id="production" stroke="none" stroke-width="1" fill="none" fill-rule="evenodd">
        <g id="eraser" fill="#000000">
            <path d="M9,11 L9.00460243,11 C9.5443356,11 10,10.5543453 10,10.0046024 L10,1.99539757 C10,1.4556644 9.55434533,1 9.00460243,1 L0.995397568,1 C0.455664396,1 0,1.44565467 0,1.99539757 L0,10.0046024 C0,10.5443356 0.445654671,11 0.995397568,11 L1,11 L1,14.0001925 C1,14.5562834 1.4463856,15 1.99703014,15 L8.00296986,15 C8.54696369,15 9,14.5523709 9,14.0001925 L9,11 L9,11 Z M2,11 L8,11 L8,14 L2,14 L2,11 Z" id="Shape"></path>
        </g>
    </g>
</svg>