<?xml version="1.0" encoding="UTF-8" standalone="no"?>
<svg width="14px" height="16px" viewBox="0 0 14 16" version="1.1" xmlns="http://www.w3.org/2000/svg" xmlns:xlink="http://www.w3.org/1999/xlink">
    <defs></defs>
    <g id="web-app" stroke="none" stroke-width="1" fill="none" fill-rule="evenodd">
        <g id="feed" fill="#000000">
            <path d="M2,11 C3.1045,11 4,11.8955 4,13 C4,14.1045 3.1045,15 2,15 C0.8955,15 0,14.1045 0,13 C0,11.8955 0.8955,11 2,11 Z M7,15 C7,8 0,8 0,8 L0,6 C0,6 9,6 9,15 L7,15 Z M11,15 C11,4 0,4 0,4 L3.60822483e-16,2 C3.60822483e-16,2 13,2 13,15 L11,15 Z" id="Shape"></path>
        </g>
    </g>
</svg>