<?xml version="1.0" encoding="UTF-8" standalone="no"?>
<svg width="16px" height="16px" viewBox="0 0 16 16" version="1.1" xmlns="http://www.w3.org/2000/svg" xmlns:xlink="http://www.w3.org/1999/xlink">
    <defs></defs>
    <g id="web-app" stroke="none" stroke-width="1" fill="none" fill-rule="evenodd">
        <g id="feed" fill="#000000">
            <path d="M2.19428571,11.6114286 C3.40608,11.6114286 4.38857143,12.59392 4.38857143,13.8057143 C4.38857143,15.0175086 3.40608,16 2.19428571,16 C0.982491429,16 0,15.0175086 0,13.8057143 C0,12.59392 0.982491429,11.6114286 2.19428571,11.6114286 Z M10.6057143,16 L7.49714286,16 C7.49714286,11.8593829 4.14061714,8.50285714 0,8.50285714 L0,5.39428571 C5.85746286,5.39428571 10.6057143,10.1425371 10.6057143,16 Z M12.8,16 C12.8,8.93074286 7.06925714,3.2 0,3.2 L0,0 C8.83657143,0 16,7.16342857 16,16 L12.8,16 Z" id="Shape"></path>
        </g>
    </g>
</svg>