<?xml version="1.0" encoding="UTF-8"?>
<svg width="10px" height="14px" viewBox="0 0 10 14" version="1.1" xmlns="http://www.w3.org/2000/svg" xmlns:xlink="http://www.w3.org/1999/xlink">
    <!-- Generator: sketchtool 47.1 (45422) - http://www.bohemiancoding.com/sketch -->
    <title>file-excel</title>
    <desc>Created with sketchtool.</desc>
    <defs></defs>
    <g id="file-types" stroke="none" stroke-width="1" fill="none" fill-rule="evenodd">
        <g id="file-excel" fill="#000000">
            <path d="M1,12.9931545 C1,12.9998968 9.00460243,13 9.00460243,13 C8.9970214,13 9,4 9,4 L6,4 L6,1 L0.995397568,1 C1.00550487,1 1,12.9931545 1,12.9931545 Z M4.4408921e-16,1.00684547 C4.4408921e-16,0.450780073 0.455664396,0 0.995397568,0 L7.5,0 L10,2.5 L10,12.9931545 C10,13.5492199 9.5443356,14 9.00460243,14 L0.995397568,14 C0.445654671,14 4.4408921e-16,13.5500512 4.4408921e-16,12.9931545 L4.4408921e-16,1.00684547 Z M7,1 L9,3 L7,3 L7,1 Z M2,7 L4,7 L5,8.5 L6,7 L8,7 L7,9 L8,11 L6,11 L5,9.5 L4,11 L2,11 L2.98938282,9 L2,7 Z" id="Shape"></path>
        </g>
    </g>
</svg>