<?xml version="1.0" encoding="UTF-8"?>
<svg width="10px" height="14px" viewBox="0 0 10 14" version="1.1" xmlns="http://www.w3.org/2000/svg" xmlns:xlink="http://www.w3.org/1999/xlink">
    <!-- Generator: sketchtool 45.2 (43514) - http://www.bohemiancoding.com/sketch -->
    <title>file-audio</title>
    <desc>Created with sketchtool.</desc>
    <defs></defs>
    <g id="file-types" stroke="none" stroke-width="1" fill="none" fill-rule="evenodd">
        <g id="file-audio" fill="#000000">
            <path d="M1,12.9931545 C1,12.9998968 9.00460243,13 9.00460243,13 C8.9970214,13 9,4 9,4 L6,4 L6,1 L0.995397568,1 C1.00550487,1 1,12.9931545 1,12.9931545 Z M0,1.00684547 C0,0.450780073 0.455664396,8.8817842e-16 0.995397568,8.8817842e-16 L7.5,8.8817842e-16 L10,2.5 L10,12.9931545 C10,13.5492199 9.5443356,14 9.00460243,14 L0.995397568,14 C0.445654671,14 0,13.5500512 0,12.9931545 L0,1.00684547 Z M7,1 L9,3 L7,3 L7,1 Z M4,7 L7,7 L7,9 C6.44771525,9 6,9.44771525 6,10 C6,10.5522847 6.44771525,11 7,11 C7.55228475,11 8,10.5522847 8,10 L8,7 C8,7 8,6 7.00442116,6 C7.00442116,6 4,6 4,6 C3,6 3,7 3,7 L3,10 C2.44771525,10 2,10.4477153 2,11 C2,11.5522847 2.44771525,12 3,12 C3.55228475,12 4,11.5522847 4,11 L4,7 Z" id="Shape"></path>
        </g>
    </g>
</svg>