<?xml version="1.0" encoding="UTF-8" standalone="no"?>
<svg width="10px" height="16px" viewBox="0 0 10 16" version="1.1" xmlns="http://www.w3.org/2000/svg" xmlns:xlink="http://www.w3.org/1999/xlink">
    <defs></defs>
    <g id="file-types" stroke="none" stroke-width="1" fill="none" fill-rule="evenodd">
        <g id="file-movie" fill="#000000">
            <path d="M0,2.00684547 C0,1.45078007 0.455664396,1 0.995397568,1 L7.5,1 L10,3.5 L10,13.9931545 C10,14.5492199 9.5443356,15 9.00460243,15 L0.995397568,15 C0.445654671,15 0,14.5500512 0,13.9931545 L0,2.00684547 Z M1,13.9931545 C1,13.9998968 9.00460243,14 9.00460243,14 C8.9970214,14 9,5 9,5 L6,5 L6,2 L0.995397568,2 C1.00550487,2 1,13.9931545 1,13.9931545 Z M2,9.5 C2,9.5 2,9 2.5,9 C2.5,9 5.5,9 5.5,9 C6,9 6,9.5 6,9.5 L6,11.5 C6,11.5 6,12 5.5,12 C5.5,12 2.5,12 2.5,12 C2,12 2,11.5 2,11.5 L2,9.5 Z M8,9 L8,12 L6,10.5 L8,9 Z M7,2 L9,4 L7,4 L7,2 Z" id="Shape"></path>
        </g>
    </g>
</svg>