<?xml version="1.0" encoding="UTF-8" standalone="no"?>
<svg width="10px" height="16px" viewBox="0 0 10 16" version="1.1" xmlns="http://www.w3.org/2000/svg" xmlns:xlink="http://www.w3.org/1999/xlink">
    <defs></defs>
    <g id="file-types" stroke="none" stroke-width="1" fill="none" fill-rule="evenodd">
        <g id="file-audio" fill="#000000">
            <path d="M1,13.9931545 C1,13.9998968 9.00460243,14 9.00460243,14 C8.9970214,14 9,5 9,5 L6,5 L6,2 L0.995397568,2 C1.00550487,2 1,13.9931545 1,13.9931545 Z M0,2.00684547 C0,1.45078007 0.455664396,1 0.995397568,1 L7.5,1 L10,3.5 L10,13.9931545 C10,14.5492199 9.5443356,15 9.00460243,15 L0.995397568,15 C0.445654671,15 0,14.5500512 0,13.9931545 L0,2.00684547 Z M7,2 L9,4 L7,4 L7,2 Z M4,8 L7,8 L7,10 C6.44771525,10 6,10.4477153 6,11 C6,11.5522847 6.44771525,12 7,12 C7.55228475,12 8,11.5522847 8,11 L8,8 C8,8 8,7 7.00442116,7 C7.00442116,7 4,7 4,7 C3,7 3,8 3,8 L3,11 C2.44771525,11 2,11.4477153 2,12 C2,12.5522847 2.44771525,13 3,13 C3.55228475,13 4,12.5522847 4,12 L4,8 Z" id="Shape"></path>
        </g>
    </g>
</svg>