<?xml version="1.0" encoding="UTF-8"?>
<svg width="24px" height="24px" viewBox="0 0 24 24" version="1.1" xmlns="http://www.w3.org/2000/svg" xmlns:xlink="http://www.w3.org/1999/xlink">
    <!-- Generator: sketchtool 52.1 (67048) - http://www.bohemiancoding.com/sketch -->
    <title>file-zip</title>
    <desc>Created with sketchtool.</desc>
    <g id="file-types" stroke="none" stroke-width="1" fill="none" fill-rule="evenodd">
        <g id="file-zip" fill="#000000">
            <path d="M6,2 L16,2 L20,6 L20,20 C20,21.1045695 19.1045695,22 18,22 L6,22 C4.8954305,22 4,21.1045695 4,20 L4,4 C4,2.8954305 4.8954305,2 6,2 Z M15.1715729,4 L6,4 L6,20 L18,20 L18,6.82842712 L15.1715729,6.82842712 L15.1715729,4 Z M8,4 L10,4 L10,6 L8,6 L8,4 Z M10,6 L12,6 L12,8 L10,8 L10,6 Z M8,8 L10,8 L10,10 L8,10 L8,8 Z M10,10 L12,10 L12,12 L10,12 L10,10 Z M9,14 L10,13 L11,14 L11,18 L9,18 L9,14 Z" id="Shape"></path>
        </g>
    </g>
</svg>