<?xml version="1.0" encoding="UTF-8" standalone="no"?>
<svg width="16px" height="16px" viewBox="0 0 16 16" version="1.1" xmlns="http://www.w3.org/2000/svg" xmlns:xlink="http://www.w3.org/1999/xlink">
    <defs></defs>
    <g id="event" stroke="none" stroke-width="1" fill="none" fill-rule="evenodd">
        <g id="flag" fill="#000000">
            <path d="M2,2.91464715 C2.58259619,2.70872894 3,2.15310941 3,1.5 C3,0.671572875 2.32842712,0 1.5,0 C0.671572875,0 0,0.671572875 0,1.5 C0,2.15310941 0.417403814,2.70872894 1,2.91464715 L1,16 L2,16 L2,2.91464715 L2,2.91464715 Z M3,8.00000005 C3,10 7.5314336,7.5314336 9,9 C10.589605,10.589605 15,9.99999999 15,9 C15,8.00000001 15,3.00000013 15,3.00000013 C15,1 10.5408926,4.5408926 9,3 C7,1 3,1.99627704 3,3 L3,8.00000005 Z" id="Shape"></path>
        </g>
    </g>
</svg>