<?xml version="1.0" encoding="UTF-8" standalone="no"?>
<svg width="16px" height="16px" viewBox="0 0 16 16" version="1.1" xmlns="http://www.w3.org/2000/svg" xmlns:xlink="http://www.w3.org/1999/xlink">
    <defs></defs>
    <g id="web-app" stroke="none" stroke-width="1" fill="none" fill-rule="evenodd">
        <g id="folder-open" fill="#000000">
            <path d="M1,14 L15,14 L16,7 L5,7 L4,11 L4,6 L14,6 L14,5 C14,4 13,4 13,4 L7,4 L7,3 C7,2 6,2 6,2 L3,2 C3,2 2,2 2,3 C2.00067687,3.01840769 2,4 2,4 L1,4 C1,4 0,4 0,5 L0,13 C0,14 1,14 1,14 Z" id="Shape"></path>
        </g>
    </g>
</svg>