<?xml version="1.0" encoding="UTF-8"?>
<svg width="14px" height="12px" viewBox="0 0 14 12" version="1.1" xmlns="http://www.w3.org/2000/svg" xmlns:xlink="http://www.w3.org/1999/xlink">
    <!-- Generator: sketchtool 46.2 (44496) - http://www.bohemiancoding.com/sketch -->
    <title>folder</title>
    <desc>Created with sketchtool.</desc>
    <defs></defs>
    <g id="web-app" stroke="none" stroke-width="1" fill="none" fill-rule="evenodd">
        <g id="folder" fill="#000000">
            <path d="M1,12 L13,12 C14,12 14,11 14,11 L14,3 C14,3 14,2 13,2 L7,2 L7,1 C7,8.8817842e-16 6,8.8817842e-16 6,8.8817842e-16 L3,8.8817842e-16 C3,8.8817842e-16 2,8.8817842e-16 2,1 C2.00067687,1.01840769 2,2 2,2 L1,2 C0,2 0,3 0,3 L0,11 C0,11 0,12 1,12 Z" id="Shape"></path>
        </g>
    </g>
</svg>