<?xml version="1.0" encoding="UTF-8" standalone="no"?>
<svg width="14px" height="16px" viewBox="0 0 14 16" version="1.1" xmlns="http://www.w3.org/2000/svg" xmlns:xlink="http://www.w3.org/1999/xlink">
    <defs></defs>
    <g id="web-app" stroke="none" stroke-width="1" fill="none" fill-rule="evenodd">
        <g id="folder" fill="#000000">
            <path d="M1,14 L13,14 C14,14 14,13 14,13 L14,5 C14,5 14,4 13,4 L7,4 L7,3 C7,2 6,2 6,2 L3,2 C3,2 2,2 2,3 C2.00067687,3.01840769 2,4 2,4 L1,4 C0,4 0,5 0,5 L0,13 C0,13 0,14 1,14 Z" id="Shape"></path>
        </g>
    </g>
</svg>