<?xml version="1.0" encoding="UTF-8"?>
<svg width="10px" height="14px" viewBox="0 0 10 14" version="1.1" xmlns="http://www.w3.org/2000/svg" xmlns:xlink="http://www.w3.org/1999/xlink">
    <!-- Generator: sketchtool 48.1 (47250) - http://www.bohemiancoding.com/sketch -->
    <title>fork</title>
    <desc>Created with sketchtool.</desc>
    <defs></defs>
    <g id="production" stroke="none" stroke-width="1" fill="none" fill-rule="evenodd">
        <g id="fork" fill="#000000">
            <path d="M6.50168508,5.32481895 C6.18950007,4.97201617 6,4.50813814 6,4 C6,2.8954305 6.8954305,2 8,2 C9.1045695,2 10,2.8954305 10,4 C10,4.94421697 9.34568121,5.73560959 8.46573515,5.94548637 C7.80356763,7.38649882 6.32071013,9 3,9 L3,10.2675644 C3.59780137,10.6133738 4,11.2597176 4,12 C4,13.1045695 3.1045695,14 2,14 C0.8954305,14 0,13.1045695 0,12 C0,11.2597176 0.40219863,10.6133738 1,10.2675644 L1,3.73243561 C0.40219863,3.38662619 0,2.74028236 0,2 C0,0.8954305 0.8954305,0 2,0 C3.1045695,0 4,0.8954305 4,2 C4,2.74028236 3.59780137,3.38662619 3,3.73243561 L3,7 C5.03378891,7 6.0217891,6.15527388 6.50168508,5.32481895 Z M2,3 C2.55228475,3 3,2.55228475 3,2 C3,1.44771525 2.55228475,1 2,1 C1.44771525,1 1,1.44771525 1,2 C1,2.55228475 1.44771525,3 2,3 Z M2,13 C2.55228475,13 3,12.5522847 3,12 C3,11.4477153 2.55228475,11 2,11 C1.44771525,11 1,11.4477153 1,12 C1,12.5522847 1.44771525,13 2,13 Z M8,5 C8.55228475,5 9,4.55228475 9,4 C9,3.44771525 8.55228475,3 8,3 C7.44771525,3 7,3.44771525 7,4 C7,4.55228475 7.44771525,5 8,5 Z" id="Shape"></path>
        </g>
    </g>
</svg>