<?xml version="1.0" encoding="UTF-8" standalone="no"?>
<svg width="14px" height="16px" viewBox="0 0 14 16" version="1.1" xmlns="http://www.w3.org/2000/svg" xmlns:xlink="http://www.w3.org/1999/xlink">
    <defs></defs>
    <g id="people" stroke="none" stroke-width="1" fill="none" fill-rule="evenodd">
        <g id="frowing" fill="#000000">
            <path d="M7,14 C10.3137085,14 13,11.3137085 13,8 C13,4.6862915 10.3137085,2 7,2 C3.6862915,2 1,4.6862915 1,8 C1,11.3137085 3.6862915,14 7,14 Z M7,15 C3.13400675,15 0,11.8659932 0,8 C0,4.13400675 3.13400675,1 7,1 C10.8659932,1 14,4.13400675 14,8 C14,11.8659932 10.8659932,15 7,15 Z M7,10 C4.99707031,10 4.99707031,12 4.99707031,12 L6,12 C6,12 6,11 7,11 C8,11 8,12 8,12 L8.99743652,12 C8.99743652,12 9.00292969,10 7,10 Z M9,9 C9.55228475,9 10,8.55228475 10,8 C10,7.44771525 9.55228475,7 9,7 C8.44771525,7 8,7.44771525 8,8 C8,8.55228475 8.44771525,9 9,9 Z M5,9 C5.55228475,9 6,8.55228475 6,8 C6,7.44771525 5.55228475,7 5,7 C4.44771525,7 4,7.44771525 4,8 C4,8.55228475 4.44771525,9 5,9 Z" id="Shape"></path>
        </g>
    </g>
</svg>