<?xml version="1.0" encoding="UTF-8" standalone="no"?>
<svg width="16px" height="16px" viewBox="0 0 16 16" version="1.1" xmlns="http://www.w3.org/2000/svg" xmlns:xlink="http://www.w3.org/1999/xlink">
    <defs></defs>
    <g id="devices" stroke="none" stroke-width="1" fill="none" fill-rule="evenodd">
        <g id="gamepad" fill="#000000">
            <path d="M3.5,11 C1.56700338,11 0,9.43299662 0,7.5 C0,5.73676405 1.30385293,4.27805926 3,4.03544443 L13,4.03544443 C14.6961471,4.27805926 16,5.73676405 16,7.5 C16,9.43299662 14.4329966,11 12.5,11 C11.5463475,11 10.6817772,10.6185935 10.0505086,10 L5.94949137,10 C5.31822282,10.6185935 4.45365254,11 3.5,11 Z M11,7 C11.5522847,7 12,6.55228475 12,6 C12,5.44771525 11.5522847,5 11,5 C10.4477153,5 10,5.44771525 10,6 C10,6.55228475 10.4477153,7 11,7 Z M13,9 C13.5522847,9 14,8.55228475 14,8 C14,7.44771525 13.5522847,7 13,7 C12.4477153,7 12,7.44771525 12,8 C12,8.55228475 12.4477153,9 13,9 Z M4.66666667,6.33333333 L4.66666667,5 L3.33333333,5 L3.33333333,6.33333333 L2,6.33333333 L2,7.66666667 L3.33333333,7.66666667 L3.33333333,9 L4.66666667,9 L4.66666667,7.66666667 L6,7.66666667 L6,6.33333333 L4.66666667,6.33333333 L4.66666667,6.33333333 Z" id="Shape"></path>
        </g>
    </g>
</svg>