<?xml version="1.0" encoding="UTF-8"?>
<svg width="14px" height="12px" viewBox="0 0 14 12" version="1.1" xmlns="http://www.w3.org/2000/svg" xmlns:xlink="http://www.w3.org/1999/xlink">
    <defs></defs>
    <g id="brand" stroke="none" stroke-width="1" fill="none" fill-rule="evenodd">
        <g id="github-alt" fill="#000000">
            <path d="M12.8625,2.92180812 C12.97625,2.64180812 13.34375,1.53055812 12.74875,0.0255581153 C12.74875,0.0255581153 11.83,-0.263191885 9.73875,1.16305812 C8.86375,0.918058115 7.9275,0.883058115 7,0.883058115 C6.0725,0.883058115 5.13625,0.918058115 4.26125,1.16305812 C2.17,-0.271941885 1.25125,0.0255581153 1.25125,0.0255581153 C0.65625,1.53055812 1.02375,2.64180812 1.1375,2.92180812 C0.42875,3.68305812 0,4.66305812 0,5.85305812 C0,10.3593081 2.91375,11.3743081 6.9825,11.3743081 C11.05125,11.3743081 14,10.3593081 14,5.85305812 C14,4.66305812 13.57125,3.68305812 12.8625,2.92180812 L12.8625,2.92180812 Z M7,10.5168081 C4.1125,10.5168081 1.7675,10.3855581 1.7675,7.58555812 C1.7675,6.92055812 2.1,6.29055812 2.66,5.77430812 C3.59625,4.91680812 5.1975,5.37180812 7,5.37180812 C8.81125,5.37180812 10.395,4.91680812 11.34,5.77430812 C11.90875,6.29055812 12.2325,6.91180812 12.2325,7.58555812 C12.2325,10.3768081 9.8875,10.5168081 7,10.5168081 L7,10.5168081 Z M4.80375,6.13305812 C4.22625,6.13305812 3.75375,6.83305812 3.75375,7.69055812 C3.75375,8.54805812 4.22625,9.25680812 4.80375,9.25680812 C5.38125,9.25680812 5.85375,8.55680812 5.85375,7.69055812 C5.85375,6.82430812 5.38125,6.13305812 4.80375,6.13305812 L4.80375,6.13305812 Z M9.19625,6.13305812 C8.61875,6.13305812 8.14625,6.82430812 8.14625,7.69055812 C8.14625,8.55680812 8.61875,9.25680812 9.19625,9.25680812 C9.77375,9.25680812 10.24625,8.55680812 10.24625,7.69055812 C10.24625,6.82430812 9.7825,6.13305812 9.19625,6.13305812 L9.19625,6.13305812 Z" id="Shape"></path>
        </g>
    </g>
</svg>