<?xml version="1.0" encoding="UTF-8" standalone="no"?>
<svg width="16px" height="16px" viewBox="0 0 16 16" version="1.1" xmlns="http://www.w3.org/2000/svg" xmlns:xlink="http://www.w3.org/1999/xlink">
    <defs></defs>
    <g id="web-app" stroke="none" stroke-width="1" fill="none" fill-rule="evenodd">
        <g id="globe" fill="#000000">
            <path d="M0,8 C0,3.581722 3.581722,0 8,0 C12.418278,0 16,3.581722 16,8 C16,12.418278 12.418278,16 8,16 C3.581722,16 0,12.418278 0,8 Z M1.43074903,6.22597167 C1.70827295,5.64589916 2.16625484,4 2.49572003,4 C2.82518521,4 2.70529687,4.82666583 3,4.89829099 C3.24763431,4.95847647 3.05812067,4.52955208 3.7465547,4.45271331 C4.43498873,4.37587454 5.18729052,4.79793954 5.18729052,4.79793954 C5.18729052,4.79793954 6.00000009,5 6.75084569,4.79793957 C6.75084569,4.79793957 6.35434556,4.19663702 6.83969657,4 C7.32504758,3.80336298 7.9853833,4.53029998 8.00931367,4.99999998 C8.03324404,5.46969997 6.93067017,5.78560964 6.93067017,5.78560964 L8.00931384,6.43283627 C8.00931384,6.43283627 8.3254736,5.42988638 9,5.41941235 C9.59983194,5.40893832 10.3515502,6.50470207 10,7 C9.64844981,7.49529793 9.42172955,7.15415585 9.42172955,7.15415585 C9.42172955,7.15415585 8.34662113,8.24250431 8.00931367,8.43732831 C7.67200621,8.63215232 7.20011593,8.43732837 7.20011593,8.43732837 C7.20011593,8.43732837 7.00000009,8.80780837 7.20011616,8.97800589 C7.60599193,9.39639804 8.65896654,9.81331444 8.65896654,9.81331444 C8.65896654,9.81331444 11.8988934,10.3395877 12.0000001,11 C12.1011067,11.6604123 9.42172965,15.0000005 9.00000009,15.0000005 C8.57827052,15.0000005 8.00000009,15.0000005 8,15.0000005 C7.59159955,14.2799735 8.65896654,11.9780059 8.65896654,11.9780059 C8.65896654,11.9780059 8.11020814,11.3704979 8,11 C7.88979186,10.6295021 8.21309471,9.97800589 8.21309471,9.97800589 L6.75084591,9.3056426 C6.75084591,9.3056426 5.97398719,9.30564258 5.58864889,9 C5.20331058,8.69435742 5,6.99999998 5,6.99999998 L3.60471249,5.97800589 C3.60471249,5.97800589 2.39518281,7.51633474 1.99999997,7.32006428 C1.60481713,7.12379383 1.1532251,6.80604419 1.43074903,6.22597167 Z M8.93981824,3.828577 C7.97448498,3.828577 5.65339158,2.60167861 6.04381854,1.94212575 C6.04381853,0.998900062 8.37920704,1.06409736 8.93981834,0.998900063 C9.50042963,0.933702768 10.8704848,1.43738234 11.8508615,1.94212574 C12.4508898,2.88535137 11.2244519,3.48646638 10.8704848,3.828577 C10.5165176,4.17068762 9.90515151,3.828577 8.93981824,3.828577 Z" id="Shape"></path>
        </g>
    </g>
</svg>