<?xml version="1.0" encoding="UTF-8" standalone="no"?>
<svg width="14px" height="16px" viewBox="0 0 14 16" version="1.1" xmlns="http://www.w3.org/2000/svg" xmlns:xlink="http://www.w3.org/1999/xlink">
    <defs></defs>
    <g id="shape" stroke="none" stroke-width="1" fill="none" fill-rule="evenodd">
        <g id="hash" fill="#000000">
            <path d="M7.64041941,12.375 L5.02742494,12.375 L4.76531714,13.8968492 C4.63981755,14.6223835 3.97164042,15.1078449 3.26018757,14.9793925 C2.5539278,14.851826 2.08222244,14.1670421 2.20772203,13.4353066 L2.39041941,12.375 L1.30645931,12.375 C0.584921756,12.375 0,11.7924274 0,11.0625 C0,10.3376263 0.580900116,9.75 1.30645931,9.75 L2.84272315,9.75 L3.37041084,6.6875 L2.18145931,6.6875 C1.45992176,6.6875 0.875,6.10492742 0.875,5.375 C0.875,4.65012627 1.45590012,4.0625 2.18145931,4.0625 L3.82271458,4.0625 L4.16032256,2.10315082 C4.28495664,1.37761646 4.95399929,0.892155125 5.66545214,1.02060748 C6.37084639,1.14817397 6.84341727,1.8338438 6.71705216,2.56469343 L6.45908522,4.0625 L9.07271458,4.0625 L9.41032256,2.10315082 C9.53495664,1.37761646 10.2039993,0.892155125 10.9154521,1.02060748 C11.6208464,1.14817397 12.0934173,1.8338438 11.9670522,2.56469343 L11.7090852,4.0625 L12.6935407,4.0625 C13.4150782,4.0625 14,4.64507258 14,5.375 C14,6.09987373 13.4190999,6.6875 12.6935407,6.6875 L11.256982,6.6875 L10.7295282,9.75 L11.8185407,9.75 C12.5400782,9.75 13.125,10.3325726 13.125,11.0625 C13.125,11.7873737 12.5440999,12.375 11.8185407,12.375 L10.2774249,12.375 L10.0153171,13.8968492 C9.88981755,14.6223835 9.22164042,15.1078449 8.51018757,14.9793925 C7.8039278,14.851826 7.33222244,14.1670421 7.45772203,13.4353066 L7.64041941,12.375 L7.64041941,12.375 Z M8.09272315,9.75 L5.47952819,9.75 L6.00698198,6.6875 L8.62041084,6.6875 L8.09272315,9.75 L8.09272315,9.75 Z" id="Shape"></path>
        </g>
    </g>
</svg>