<?xml version="1.0" encoding="UTF-8" standalone="no"?>
<svg width="16px" height="16px" viewBox="0 0 16 16" version="1.1" xmlns="http://www.w3.org/2000/svg" xmlns:xlink="http://www.w3.org/1999/xlink">
    <defs></defs>
    <g id="shape" stroke="none" stroke-width="1" fill="none" fill-rule="evenodd">
        <g id="hash" fill="#000000">
            <path d="M8.7319079,13 L5.7456285,13 L5.44607674,14.7392562 C5.30264863,15.5684383 4.53901762,16.1232513 3.72592865,15.9764486 C2.91877463,15.8306583 2.37968279,15.0480481 2.52311089,14.2117789 L2.7319079,13 L1.49309635,13 C0.668482007,13 0,12.3342028 0,11.5 C0,10.6715729 0.663885847,10 1.49309635,10 L3.24882645,10 L3.8518981,6.5 L2.49309635,6.5 C1.66848201,6.5 1,5.83420277 1,5 C1,4.17157288 1.66388585,3.5 2.49309635,3.5 L4.36881666,3.5 L4.75465436,1.26074379 C4.8970933,0.431561664 5.66171347,-0.123251286 6.47480245,0.0235514108 C7.28096731,0.169341675 7.82104831,0.952964345 7.67663104,1.78822107 L7.38181169,3.5 L10.3688167,3.5 L10.7546544,1.26074379 C10.8970933,0.431561664 11.6617135,-0.123251286 12.4748024,0.0235514108 C13.2809673,0.169341675 13.8210483,0.952964345 13.676631,1.78822107 L13.3818117,3.5 L14.5069036,3.5 C15.331518,3.5 16,4.16579723 16,5 C16,5.82842712 15.3361142,6.5 14.5069036,6.5 L12.8651223,6.5 L12.2623179,10 L13.5069036,10 C14.331518,10 15,10.6657972 15,11.5 C15,12.3284271 14.3361142,13 13.5069036,13 L11.7456285,13 L11.4460767,14.7392562 C11.3026486,15.5684383 10.5390176,16.1232513 9.72592865,15.9764486 C8.91877463,15.8306583 8.37968279,15.0480481 8.52311089,14.2117789 L8.7319079,13 L8.7319079,13 Z M9.24882645,10 L6.26231793,10 L6.86512226,6.5 L9.8518981,6.5 L9.24882645,10 L9.24882645,10 Z" id="Shape"></path>
        </g>
    </g>
</svg>