<?xml version="1.0" encoding="UTF-8" standalone="no"?>
<svg width="14px" height="16px" viewBox="0 0 14 16" version="1.1" xmlns="http://www.w3.org/2000/svg" xmlns:xlink="http://www.w3.org/1999/xlink">
    <defs></defs>
    <g id="devices" stroke="none" stroke-width="1" fill="none" fill-rule="evenodd">
        <g id="headphone" fill="#000000">
            <path d="M1.03706425,9.20218741 C1.20200119,7.00026592 2.10091196,1 7,1 C11.899088,1 12.7979988,7.00026592 12.9629357,9.20218741 C14,9.710238 14,11 14,11 L14,13.0039673 C14,13.0039673 14,15 11.9974365,15 C11.9974365,15 11,15 11,14.0281982 L11,10 C11,9.14715495 11.7419502,9.02165458 11.9462671,9.00318658 C11.7565086,6.85875629 10.8966156,2 7,2 C3.10338437,2 2.24349141,6.85875629 2.05373292,9.00318658 C2.25804982,9.02165458 3,9.14715495 3,10 L3,14.0281982 C3,15 2.00256348,15 2.00256348,15 C0,15 0,13.0039673 0,13.0039673 L0,11 C0,11 0,9.710238 1.03706425,9.20218741 L1.03706425,9.20218741 Z" id="Shape"></path>
        </g>
    </g>
</svg>