<?xml version="1.0" encoding="UTF-8"?>
<svg width="14px" height="14px" viewBox="0 0 14 14" version="1.1" xmlns="http://www.w3.org/2000/svg" xmlns:xlink="http://www.w3.org/1999/xlink">
    <!-- Generator: sketchtool 46.2 (44496) - http://www.bohemiancoding.com/sketch -->
    <title>headphone</title>
    <desc>Created with sketchtool.</desc>
    <defs></defs>
    <g id="devices" stroke="none" stroke-width="1" fill="none" fill-rule="evenodd">
        <g id="headphone" fill="#000000">
            <path d="M7,0 C11.899088,-2.37256881e-11 12.7979988,6.00026592 12.9629357,8.20218741 C14,8.710238 14,10 14,10 L14,12.0039673 C14,12.0039673 14,14 11.9974365,14 C11.9974365,14 11,14 11,13.0281982 L11,9 C11,8.14715495 11.7419502,8.02165458 11.9462671,8.00318658 C11.7565086,5.85875629 10.8966156,1 7,1 C3.10338437,1 2.24349141,5.85875629 2.05373292,8.00318658 C2.25804982,8.02165458 3,8.14715495 3,9 L3,13.0281982 C3,14 2.00256348,14 2.00256348,14 C0,14 0,12.0039673 0,12.0039673 L0,10 C0,10 0,8.710238 1.03706425,8.20218741 C1.20200119,6.00026592 2.10091196,2.37256881e-11 7,0 Z" id="Shape"></path>
        </g>
    </g>
</svg>