<?xml version="1.0" encoding="UTF-8" standalone="no"?>
<svg width="14px" height="16px" viewBox="0 0 14 16" version="1.1" xmlns="http://www.w3.org/2000/svg" xmlns:xlink="http://www.w3.org/1999/xlink">
    <defs></defs>
    <g id="web-app" stroke="none" stroke-width="1" fill="none" fill-rule="evenodd">
        <g id="info" fill="#000000">
            <path d="M7,15 C10.8659932,15 14,11.8659932 14,8 C14,4.13400675 10.8659932,1 7,1 C3.13400675,1 0,4.13400675 0,8 C0,11.8659932 3.13400675,15 7,15 Z M5.5,12 L8.5,12 C9,12 9,11.5 9,11.5 L9,10.5 C9,10.5 9,10 8.5,10 L8,10 L8,7.5 C8,7.5 8,7 7.5,7 L6.5,7 C6,7 6,7.5 6,7.5 L6,10 L5.5,10 C5,10 5,10.5 5,10.5 L5,11.5 C5,11.5 5,12 5.5,12 Z M6,5.5 L6,4.5 C6,4.5 6,4 6.50299072,4 C6.50299072,4 7.5,4 7.5,4 C8,4 8,4.5 8,4.5 L8,5.5 C8,5.5 8,6 7.5,6 C7.16737874,6 6.50299072,6 6.50213623,6 C6,6 6,5.5 6,5.5 Z" id="Shape"></path>
        </g>
    </g>
</svg>