<?xml version="1.0" encoding="UTF-8" standalone="no"?>
<svg width="14px" height="16px" viewBox="0 0 14 16" version="1.1" xmlns="http://www.w3.org/2000/svg" xmlns:xlink="http://www.w3.org/1999/xlink">
    <defs></defs>
    <g id="web-app" stroke="none" stroke-width="1" fill="none" fill-rule="evenodd">
        <g id="info" fill="#000000">
            <path d="M7,6 C7.55228475,6 8,5.55228475 8,5 C8,4.44771525 7.55228475,4 7,4 C6.44771525,4 6,4.44771525 6,5 C6,5.55228475 6.44771525,6 7,6 Z M7,15 C10.8659932,15 14,11.8659932 14,8 C14,4.13400675 10.8659932,1 7,1 C3.13400675,1 0,4.13400675 0,8 C0,11.8659932 3.13400675,15 7,15 Z M6.5,12 L7.5,12 C8,12 8,11.5 8,11.5 L8,7.5 C8,7.5 8,7 7.5,7 L6.5,7 C6,7 6,7.5 6,7.5 L6,11.5 C6,11.5 6,12 6.5,12 Z" id="Shape"></path>
        </g>
    </g>
</svg>