<?xml version="1.0" encoding="UTF-8" standalone="no"?>
<svg width="16px" height="16px" viewBox="0 0 16 16" version="1.1" xmlns="http://www.w3.org/2000/svg" xmlns:xlink="http://www.w3.org/1999/xlink">
    <defs></defs>
    <g id="web-app" stroke="none" stroke-width="1" fill="none" fill-rule="evenodd">
        <g id="info" fill="#000000">
            <path d="M8,16 C12.418278,16 16,12.418278 16,8 C16,3.581722 12.418278,0 8,0 C3.581722,0 0,3.581722 0,8 C0,12.418278 3.581722,16 8,16 Z M5.5258789,11 C5,11 5,11.5 5,11.5 L5,12.4968872 C5,12.4968872 5,13 5.5,13 C5.5211627,13 10.5,13 10.5,13 C11,13 11,12.5 11,12.5 L11,11.5 C11,11.5 11,11 10.5,11 C10.4971667,10.976088 9,11 9,11 L9,7 C9,7 9,6 8,6 C8,6 6.5,6 6.5,6 C6,6 6,6.5 6,6.5 L6,7.5 C6,7.5 5.93416535,8 6.5,8 C6.46004426,8 7,8 7,8 L7,11 L5.5258789,11 Z M7,4.5 L7,3.5 C7,3.5 7,3 7.5,3 L8.5,3 C9,3 9,3.5 9,3.5 L9,4.5 C9,4.5 9,5 8.5,5 L7.5,5 C7,5 7,4.5 7,4.5 Z" id="Shape"></path>
        </g>
    </g>
</svg>