<?xml version="1.0" encoding="UTF-8" standalone="no"?>
<svg width="14px" height="16px" viewBox="0 0 14 16" version="1.1" xmlns="http://www.w3.org/2000/svg" xmlns:xlink="http://www.w3.org/1999/xlink">
    <defs></defs>
    <g id="text-edit" stroke="none" stroke-width="1" fill="none" fill-rule="evenodd">
        <g id="insert-link" fill="#000000">
            <path d="M11,5 C12.6568542,5 14,6.34314575 14,8 C14,9.65685425 12.6568542,11 11,11 L8,11 L8,5 L11,5 Z M11,10 C12.1045695,10 13,9.1045695 13,8 C13,6.8954305 12.1045695,6 11,6 L8,6 L8,10 L11,10 Z M3,5 C1.34314575,5 -1.70530257e-13,6.34314575 -1.70530257e-13,8 C-1.70530257e-13,9.65685425 1.34314575,11 3,11 L6,11 L6,5 L3,5 Z M3,10 C1.8954305,10 1,9.1045695 1,8 C1,6.8954305 1.8954305,6 3,6 L6,6 L6,10 L3,10 Z M5,7 L9,7 C10,7 10,8 10,8 C10,8 10,9 9,9 L5,9 C4,9 4,8 4,8 C4,8 4,7 5,7 Z" id="Shape"></path>
        </g>
    </g>
</svg>