<?xml version="1.0" encoding="UTF-8" standalone="no"?>
<svg width="8px" height="16px" viewBox="0 0 8 16" version="1.1" xmlns="http://www.w3.org/2000/svg" xmlns:xlink="http://www.w3.org/1999/xlink">
    <defs></defs>
    <g id="text-edit" stroke="none" stroke-width="1" fill="none" fill-rule="evenodd">
        <g id="italic" fill="#000000">
            <path d="M4,3 L2.5,3 C2.5,3 2,3 2,2.5 C2,2.5 2,1.5 2,1.5 C2,1 2.5,1 2.5,1 L7.5,1 C7.5,1 8,1 8,1.5 C8,1.5 8,2.5 8,2.5 C8,3 7.5,3 7.5,3 L6,3 L4,13 L5.5,13 C5.5,13 6,13 6,13.5 C6,13.5 6,14.5 6,14.5 C6,15 5.5,15 5.5,15 L0.5,15 C0.5,15 -5.67879077e-14,15 -5.67879077e-14,14.5 C-5.67879077e-14,14.5 -5.67879077e-14,13.5 -5.67879077e-14,13.5 C-5.67879077e-14,13 0.5,13 0.5,13 L2,13 L4,3 Z" id="Shape"></path>
        </g>
    </g>
</svg>