<?xml version="1.0" encoding="UTF-8"?>
<svg width="14px" height="14px" viewBox="0 0 14 14" version="1.1" xmlns="http://www.w3.org/2000/svg" xmlns:xlink="http://www.w3.org/1999/xlink">
    <!-- Generator: sketchtool 49.2 (51160) - http://www.bohemiancoding.com/sketch -->
    <title>key</title>
    <desc>Created with sketchtool.</desc>
    <defs></defs>
    <g id="web-app" stroke="none" stroke-width="1" fill="none" fill-rule="evenodd">
        <g id="key" fill="#000000">
            <path d="M8.5,8 L6.49797645,8 L6.49797645,10.0020235 L5.5,11 L3.5,11 L3.5,13 L2.50272053,14 L1.5,14 L0,12.4986612 L0,11.5016088 L7.11331589,4.38676705 C7.03936602,4.10356057 7,3.8063775 7,3.5 C7,1.56700338 8.56700338,0 10.5,0 C12.4329966,0 14,1.56700338 14,3.5 C14,5.43299662 12.4329966,7 10.5,7 C10.1936462,7 9.89648544,6.96064008 9.61329872,6.88670128 L8.5,8 Z M11,4 C11.5522847,4 12,3.55228475 12,3 C12,2.44771525 11.5522847,2 11,2 C10.4477153,2 10,2.44771525 10,3 C10,3.55228475 10.4477153,4 11,4 Z" id="Shape"></path>
        </g>
    </g>
</svg>