<?xml version="1.0" encoding="UTF-8" standalone="no"?>
<svg width="16px" height="16px" viewBox="0 0 16 16" version="1.1" xmlns="http://www.w3.org/2000/svg" xmlns:xlink="http://www.w3.org/1999/xlink">
    <defs></defs>
    <g id="web-app" stroke="none" stroke-width="1" fill="none" fill-rule="evenodd">
        <g id="key" fill="#000000">
            <path d="M8.10111713,4.89765132 C8.03495326,4.60909307 8,4.30862842 8,4 C8,1.790861 9.790861,0 12,0 C14.209139,0 16,1.790861 16,4 C16,6.209139 14.209139,8 12,8 C11.6910144,8 11.3902115,7.9649658 11.101347,7.89865304 L8.99813515,10.0018649 L7,10.0018649 L7,12 L5.99551571,13.0044843 L4,13.0044842 L4,15 L3,15.9986048 L1,15.9986048 L0,15 L0,13.0044842 L8.10111713,4.89765132 L8.10111713,4.89765132 Z M13,4 C13.5522847,4 14,3.55228475 14,3 C14,2.44771525 13.5522847,2 13,2 C12.4477153,2 12,2.44771525 12,3 C12,3.55228475 12.4477153,4 13,4 Z" id="Shape"></path>
        </g>
    </g>
</svg>