<?xml version="1.0" encoding="UTF-8" standalone="no"?>
<svg width="16px" height="16px" viewBox="0 0 16 16" version="1.1" xmlns="http://www.w3.org/2000/svg" xmlns:xlink="http://www.w3.org/1999/xlink">
    <defs></defs>
    <g id="devices" stroke="none" stroke-width="1" fill="none" fill-rule="evenodd">
        <g id="keyboard" fill="#000000">
            <path d="M16,10.9952502 C16,10.9952502 16,12 14.8571429,12 L1.14285714,12 C6.48961649e-14,12 0,10.9952502 0,10.9952502 C0,10.9952502 6.03961325e-14,4.09586835 0,4 C-6.03961325e-14,4.09586835 0,3 1.14285714,3 C1.10305892,3 14.8214438,3 14.8571429,3 C16,3 16,4 16,4 L16,10.9952502 Z M1,4 L3,4 L3,5 L1,5 L1,4 Z M4,4 L5,4 L5,5 L4,5 L4,4 Z M6,4 L7,4 L7,5 L6,5 L6,4 Z M8,4 L9,4 L9,5 L8,5 L8,4 Z M10,4 L11,4 L11,5 L10,5 L10,4 Z M12,4 L13,4 L13,5 L12,5 L12,4 Z M14,4 L15,4 L15,5 L14,5 L14,4 Z M1,6 L2,6 L2,7 L1,7 L1,6 Z M3,6 L4,6 L4,7 L3,7 L3,6 Z M5,6 L6,6 L6,7 L5,7 L5,6 Z M7,6 L8,6 L8,7 L7,7 L7,6 Z M9,6 L10,6 L10,7 L9,7 L9,6 Z M11,6 L12,6 L12,7 L11,7 L11,6 Z M13,6 L15,6 L15,9 L13,9 L13,6 Z M1,10 L2,10 L2,11 L1,11 L1,10 Z M3,10 L4,10 L4,11 L3,11 L3,10 Z M5,10 L9,10 L9,11 L5,11 L5,10 Z M12,10 L13,10 L13,11 L12,11 L12,10 Z M10,10 L11,10 L11,11 L10,11 L10,10 Z M14,10 L15,10 L15,11 L14,11 L14,10 Z M1,8 L2,8 L2,9 L1,9 L1,8 Z M3,8 L4,8 L4,9 L3,9 L3,8 Z M5,8 L6,8 L6,9 L5,9 L5,8 Z M7,8 L8,8 L8,9 L7,9 L7,8 Z M9,8 L10,8 L10,9 L9,9 L9,8 Z M11,8 L12,8 L12,9 L11,9 L11,8 Z" id="Shape"></path>
        </g>
    </g>
</svg>