<?xml version="1.0" encoding="UTF-8"?>
<svg width="14px" height="7px" viewBox="0 0 14 7" version="1.1" xmlns="http://www.w3.org/2000/svg" xmlns:xlink="http://www.w3.org/1999/xlink">
    <defs></defs>
    <g id="devices" stroke="none" stroke-width="1" fill="none" fill-rule="evenodd">
        <g id="keyboard" fill="#000000">
            <path d="M14,6 C14,6 14,7 13,7 L1,7 C5.67841443e-14,7 0,6 0,6 L0,1 C0,1 0,0 1,0 C0.965176554,0 12.9687634,0 13,0 C14,0 14,1 14,1 L14,6 Z M1,1 L1,2 L3,2 L3,1 L1,1 Z M4,1 L4,2 L5,2 L5,1 L4,1 Z M6,1 L6,2 L7,2 L7,1 L6,1 Z M8,1 L8,2 L9,2 L9,1 L8,1 Z M10,1 L10,2 L11,2 L11,1 L10,1 Z M12,1 L12,2 L13,2 L13,1 L12,1 Z M11,3 L11,6 L13,6 L13,3 L11,3 Z M1,3 L1,4 L2,4 L2,3 L1,3 Z M3,3 L3,4 L4,4 L4,3 L3,3 Z M5,3 L5,4 L6,4 L6,3 L5,3 Z M7,3 L7,4 L8,4 L8,3 L7,3 Z M9,3 L9,4 L10,4 L10,3 L9,3 Z M1,5 L1,6 L2,6 L2,5 L1,5 Z M3,5 L3,6 L4,6 L4,5 L3,5 Z M5,5 L5,6 L6,6 L6,5 L5,5 Z M7,5 L7,6 L8,6 L8,5 L7,5 Z M9,5 L9,6 L10,6 L10,5 L9,5 Z" id="Shape"></path>
        </g>
    </g>
</svg>