<?xml version="1.0" encoding="UTF-8" standalone="no"?>
<svg width="14px" height="16px" viewBox="0 0 14 16" version="1.1" xmlns="http://www.w3.org/2000/svg" xmlns:xlink="http://www.w3.org/1999/xlink">
    <defs></defs>
    <g id="food" stroke="none" stroke-width="1" fill="none" fill-rule="evenodd">
        <g id="kitchen-cooker" fill="#000000">
            <path d="M11,13 L3,13 C3,13.5522847 2.55228475,14 2,14 C1.44771525,14 1,13.5522847 1,13 C0.447085215,12.996256 0,12.5421191 0,12.0046024 L0,3.99539757 C0,3.44565467 0.449948758,3 1.00684547,3 L12.9931545,3 C13.5492199,3 14,3.4556644 14,3.99539757 L14,12.0046024 C14,12.5520928 13.5537309,12.9963462 12.9999946,12.9999776 C13,13.5522847 12.5522847,14 12,14 C11.4477153,14 11,13.5522847 11,13 Z M1,12.0046024 C1,11.9944951 12.9931545,12 12.9931545,12 C12.9998968,12 13,3.99539757 13,3.99539757 C13,4.00550487 1.00684547,4 1.00684547,4 C1.00010318,4 1,12.0046024 1,12.0046024 Z M2,7 L12,7 L12,11 L2,11 L2,7 Z M6,8 L8,8 L8,9 L6,9 L6,8 Z M9.5,6 C9.77614237,6 10,5.77614237 10,5.5 C10,5.22385763 9.77614237,5 9.5,5 C9.22385763,5 9,5.22385763 9,5.5 C9,5.77614237 9.22385763,6 9.5,6 Z M7.5,6 C7.77614237,6 8,5.77614237 8,5.5 C8,5.22385763 7.77614237,5 7.5,5 C7.22385763,5 7,5.22385763 7,5.5 C7,5.77614237 7.22385763,6 7.5,6 Z M11.5,6 C11.7761424,6 12,5.77614237 12,5.5 C12,5.22385763 11.7761424,5 11.5,5 C11.2238576,5 11,5.22385763 11,5.5 C11,5.77614237 11.2238576,6 11.5,6 Z M2,5 L5,5 L5,6 L2,6 L2,5 Z" id="Shape"></path>
        </g>
    </g>
</svg>