<?xml version="1.0" encoding="UTF-8" standalone="no"?>
<svg width="16px" height="16px" viewBox="0 0 16 16" version="1.1" xmlns="http://www.w3.org/2000/svg" xmlns:xlink="http://www.w3.org/1999/xlink">
    <defs></defs>
    <g id="devices" stroke="none" stroke-width="1" fill="none" fill-rule="evenodd">
        <g id="laptop" fill="#000000">
            <path d="M-1.13464793e-13,12 L16,12 C16,12 16,13 15,13 C15.0456009,13 1.00000005,13 1,13 C-1.13464793e-13,13 -1.13464793e-13,12 -1.13464793e-13,12 Z M13.9999999,10.0341797 C13.9999999,10.0341797 13.9999999,3 13.9999999,3 C13.9999999,2 13,2 13,2 L3.00085434,2 C3.00085434,2 2.00007519,2 2.00007519,3 C1.99999954,3 2.00007437,10.0341797 2.00007519,10 C2.00007424,11 3.00085434,11 3.00085434,11 L13,11 C13,11 13.9999999,11 13.9999999,10.0341797 Z M3,3 L13,3 L13,10 L3,10 L3,3 Z" id="Shape"></path>
        </g>
    </g>
</svg>