<?xml version="1.0" encoding="UTF-8"?>
<svg width="16px" height="11px" viewBox="0 0 16 11" version="1.1" xmlns="http://www.w3.org/2000/svg" xmlns:xlink="http://www.w3.org/1999/xlink">
    <defs></defs>
    <g id="devices" stroke="none" stroke-width="1" fill="none" fill-rule="evenodd">
        <g id="laptop" fill="#000000">
            <path d="M-1.13464793e-13,10 L16,10 C16,10 16,11 15,11 C15.0456009,11 1.00000005,11 1,11 C-1.13464793e-13,11 -1.13464793e-13,10 -1.13464793e-13,10 Z M13.9999999,8.03417969 C13.9999999,9 13,9 13,9 L3.00085434,9 C3.00085434,9 2.00007424,9 2.00007519,8 C2.00007437,8.03417969 1.99999954,1 2.00007519,1 C2.00007519,0 3.00085434,0 3.00085434,0 L13,0 C13,0 13.9999999,0 13.9999999,1 C13.9999999,1 13.9999999,8.03417969 13.9999999,8.03417969 Z M3,1 L3,8 L13,8 L13,1 L3,1 Z" id="Shape"></path>
        </g>
    </g>
</svg>