<?xml version="1.0" encoding="UTF-8"?>
<svg width="24px" height="24px" viewBox="0 0 24 24" version="1.1" xmlns="http://www.w3.org/2000/svg" xmlns:xlink="http://www.w3.org/1999/xlink">
    <!-- Generator: sketchtool 50.2 (55047) - http://www.bohemiancoding.com/sketch -->
    <title>line-chart</title>
    <desc>Created with sketchtool.</desc>
    <defs></defs>
    <g id="web-app" stroke="none" stroke-width="1" fill="none" fill-rule="evenodd">
        <g id="line-chart" fill="#000000">
            <path d="M5.82324762,14.1767524 C5.93679216,14.4278245 6,14.7065308 6,15 C6,16.1045695 5.1045695,17 4,17 C2.8954305,17 2,16.1045695 2,15 C2,13.8954305 2.8954305,13 4,13 C4.29346924,13 4.57217549,13.0632078 4.82324762,13.1767524 L7.17675238,10.8232476 C7.06320784,10.5721755 7,10.2934692 7,10 C7,8.8954305 7.8954305,8 9,8 C10.1045695,8 11,8.8954305 11,10 C11,10.2934692 10.9367922,10.5721755 10.8232476,10.8232476 L13.1767524,13.1767524 C13.4278245,13.0632078 13.7065308,13 14,13 C14.2934692,13 14.5721755,13.0632078 14.8232476,13.1767524 L18.1767524,9.82324762 C18.0632078,9.57217549 18,9.29346924 18,9 C18,7.8954305 18.8954305,7 20,7 C21.1045695,7 22,7.8954305 22,9 C22,10.1045695 21.1045695,11 20,11 C19.7065308,11 19.4278245,10.9367922 19.1767524,10.8232476 L15.8232476,14.1767524 C15.9367922,14.4278245 16,14.7065308 16,15 C16,16.1045695 15.1045695,17 14,17 C12.8954305,17 12,16.1045695 12,15 C12,14.7065308 12.0632078,14.4278245 12.1767524,14.1767524 L9.82324762,11.8232476 C9.57217549,11.9367922 9.29346924,12 9,12 C8.70653076,12 8.42782451,11.9367922 8.17675238,11.8232476 L5.82324762,14.1767524 Z" id="Shape"></path>
        </g>
    </g>
</svg>