<?xml version="1.0" encoding="UTF-8" standalone="no"?>
<svg width="16px" height="16px" viewBox="0 0 16 16" version="1.1" xmlns="http://www.w3.org/2000/svg" xmlns:xlink="http://www.w3.org/1999/xlink">
    <defs></defs>
    <g id="web-app" stroke="none" stroke-width="1" fill="none" fill-rule="evenodd">
        <g id="line-chart" fill="#000000">
            <path d="M0,6 L1,6 L0.999999975,14 L16,14 L16,15 L0,15 L0,6 Z M12,9.5 C12,10.3284271 11.3284271,11 10.5,11 C9.67157288,11 9,10.3284271 9,9.5 C9,9.41965503 9.00631687,9.34078544 9.01848106,9.26386079 L7.14163836,7.85622877 C6.94710794,7.94842476 6.72957699,8 6.5,8 C6.42705486,8 6.35532586,7.99479312 6.28516438,7.98473077 L4.85966821,9.86566975 C4.94970651,10.058334 5,10.2732937 5,10.5 C5,11.3284271 4.32842712,12 3.5,12 C2.67157288,12 2,11.3284271 2,10.5 C2,9.67157288 2.67157288,9 3.5,9 C3.58034497,9 3.65921456,9.00631687 3.73613921,9.01848106 L5.14377123,7.14163836 C5.05157524,6.94710794 5,6.72957699 5,6.5 C5,5.67157288 5.67157288,5 6.5,5 C7.32842712,5 8,5.67157288 8,6.5 C8,6.58034497 7.99368313,6.65921456 7.98151894,6.73613921 L9.85836164,8.14377123 C10.0528921,8.05157524 10.270423,8 10.5,8 L12.2999561,4.4000878 C12.1116095,4.1493746 12,3.8377212 12,3.5 C12,2.67157288 12.6715729,2 13.5,2 C14.3284271,2 15,2.67157288 15,3.5 C15,4.32842712 14.3284271,5 13.5,5 L11.7000439,8.5999122 C11.8883905,8.8506254 12,9.1622788 12,9.5 Z" id="Shape"></path>
        </g>
    </g>
</svg>