<?xml version="1.0" encoding="UTF-8"?>
<svg width="12px" height="10px" viewBox="0 0 12 10" version="1.1" xmlns="http://www.w3.org/2000/svg" xmlns:xlink="http://www.w3.org/1999/xlink">
    <!-- Generator: sketchtool 47.1 (45422) - http://www.bohemiancoding.com/sketch -->
    <title>line-chart</title>
    <desc>Created with sketchtool.</desc>
    <defs></defs>
    <g id="web-app" stroke="none" stroke-width="1" fill="none" fill-rule="evenodd">
        <g id="line-chart" fill="#000000">
            <path d="M7,4 L6,3 L4,5 C4,5.55228475 3.55228475,6 3,6 C2.44771525,6 2,5.55228475 2,5 C2,4.44771525 2.44771525,4 3,4 L5,2 C5,1.44771525 5.44771525,1 6,1 C6.55228475,1 7,1.44771525 7,2 L8,3 L10,1 C10,0.44771525 10.4477153,0 11,0 C11.5522847,0 12,0.44771525 12,1 C12,1.55228475 11.5522847,2 11,2 L9,4 C9,4.55228475 8.55228475,5 8,5 C7.44771525,5 7,4.55228475 7,4 Z M0,2 L1,2 L0.999999975,9 L12,9 L12,10 L0,10 L0,2 Z" id="Shape"></path>
        </g>
    </g>
</svg>