<?xml version="1.0" encoding="UTF-8" standalone="no"?>
<svg width="16px" height="16px" viewBox="0 0 16 16" version="1.1" xmlns="http://www.w3.org/2000/svg" xmlns:xlink="http://www.w3.org/1999/xlink">
    <defs></defs>
    <g id="web-app" stroke="none" stroke-width="1" fill="none" fill-rule="evenodd">
        <g id="line-chart" fill="#000000">
            <path d="M0,6 L1,6 L0.999999975,15 L16,15 L16,16 L0,16 L0,6 Z M12,10.5 C12,11.3284271 11.3284271,12 10.5,12 C9.67157288,12 9,11.3284271 9,10.5 C9,10.419655 9.00631687,10.3407854 9.01848106,10.2638608 L7.14163836,8.85622877 C6.94710794,8.94842476 6.72957699,9 6.5,9 C6.42705486,9 6.35532586,8.99479312 6.28516438,8.98473077 L4.85966821,10.8656697 C4.94970651,11.058334 5,11.2732937 5,11.5 C5,12.3284271 4.32842712,13 3.5,13 C2.67157288,13 2,12.3284271 2,11.5 C2,10.6715729 2.67157288,10 3.5,10 C3.58034497,10 3.65921456,10.0063169 3.73613921,10.0184811 L5.14377123,8.14163836 C5.05157524,7.94710794 5,7.72957699 5,7.5 C5,6.67157288 5.67157288,6 6.5,6 C7.32842712,6 8,6.67157288 8,7.5 C8,7.58034497 7.99368313,7.65921456 7.98151894,7.73613921 L9.85836164,9.14377123 C10.0528921,9.05157524 10.270423,9 10.5,9 L12.2999561,5.4000878 C12.1116095,5.1493746 12,4.8377212 12,4.5 C12,3.67157288 12.6715729,3 13.5,3 C14.3284271,3 15,3.67157288 15,4.5 C15,5.32842712 14.3284271,6 13.5,6 L11.7000439,9.5999122 C11.8883905,9.8506254 12,10.1622788 12,10.5 Z" id="Shape"></path>
        </g>
    </g>
</svg>