<?xml version="1.0" encoding="UTF-8" standalone="no"?>
<svg width="10px" height="16px" viewBox="0 0 10 16" version="1.1" xmlns="http://www.w3.org/2000/svg" xmlns:xlink="http://www.w3.org/1999/xlink">
    <defs></defs>
    <g id="web-app" stroke="none" stroke-width="1" fill="none" fill-rule="evenodd">
        <g id="link-external" fill="#000000">
            <path d="M3.05311332e-16,12 L0,5.99999999 C0,4.99999999 1,4.99999999 1,4.99999999 L4,4.99999999 L4,6 L1,6 L1,12 L7,12 L7,9 L8,9.00001811 L8,12 C8,13 7,13 7,13 L1,13 C1,13 3.05311332e-16,13 3.05311332e-16,12 Z M9.00000001,5 L9.00000001,8 L10,8 L10,4 C10,3 9.00000001,3 9.00000001,3 L5,3 L5,4 L8.00000001,4 L4.00000001,8 L5.00000001,9 L9.00000001,5 Z" id="Shape"></path>
        </g>
    </g>
</svg>