<?xml version="1.0" encoding="UTF-8" standalone="no"?>
<svg width="16px" height="16px" viewBox="0 0 16 16" version="1.1" xmlns="http://www.w3.org/2000/svg" xmlns:xlink="http://www.w3.org/1999/xlink">
    <defs></defs>
    <g id="web-app" stroke="none" stroke-width="1" fill="none" fill-rule="evenodd">
        <g id="link" fill="#000000">
            <path d="M4,9.0098877 C2.99999905,9.0098877 0.99999915,8.99410784 0.999999158,6.99705392 C0.999999166,5 2.99999916,5.0133651 2.99999916,5.0133651 L7.99999916,5 C7.99999916,5 10.0055618,4.98827648 9.99999905,6.99908209 C9.99443626,9.0098877 7.99999905,9.0098877 7.99999905,9.0098877 L7.99999905,10 C7.99999905,10 11,10 11,7 C11,4 7.99999916,4 7.99999916,4 L2.99999916,4 C2.99999916,4 -8.42423276e-07,4 0,6.99908216 C8.42423275e-07,9.99816433 2.99999905,9.98702717 4,10 L4,9.0098877 Z M12,7.9901123 C13.000001,7.9901123 15.0000009,8.00589216 15.0000008,10.0029461 C15.0000008,12 13.0000008,11.9866349 13.0000008,11.9866349 L8.00000084,12 C8.00000084,12 5.99443817,12.0117235 6.00000095,10.0009179 C6.00556374,7.9901123 8.00000095,7.9901123 8.00000095,7.9901123 L8.00000095,7 C8.00000095,7 5,7 5,10 C5,13 8.00000084,13 8.00000084,13 L13.0000008,13 C13.0000008,13 16.0000008,13 16,10.0009178 C15.9999992,7.00183567 13.000001,7.01297283 12,7 L12,7.9901123 Z" id="Shape"></path>
        </g>
    </g>
</svg>