<?xml version="1.0" encoding="UTF-8" standalone="no"?>
<svg width="16px" height="16px" viewBox="0 0 16 16" version="1.1" xmlns="http://www.w3.org/2000/svg" xmlns:xlink="http://www.w3.org/1999/xlink">
    <defs></defs>
    <g id="web-app" stroke="none" stroke-width="1" fill="none" fill-rule="evenodd">
        <g id="link-external" fill="#000000">
            <path d="M3,12 L3,5.99999999 C3,4.99999999 4,4.99999999 4,4.99999999 L7,4.99999999 L7,6 L4,6 L4,12 L10,12 L10,9 L11,9.00001811 L11,12 C11,13 10,13 10,13 L4,13 C4,13 3,13 3,12 Z M12,5 L12,8 L13,8 L13,4 C13,3 12,3 12,3 L8,3 L8,4 L11,4 L7.00000001,8 L8.00000001,9 L12,5 Z" id="Shape"></path>
        </g>
    </g>
</svg>