<?xml version="1.0" encoding="UTF-8"?>
<svg width="24px" height="24px" viewBox="0 0 24 24" version="1.1" xmlns="http://www.w3.org/2000/svg" xmlns:xlink="http://www.w3.org/1999/xlink">
    <!-- Generator: sketchtool 52.1 (67048) - http://www.bohemiancoding.com/sketch -->
    <title>link-external</title>
    <desc>Created with sketchtool.</desc>
    <g id="web-app" stroke="none" stroke-width="1" fill="none" fill-rule="evenodd">
        <g id="link-external" fill="#000000">
            <path d="M6,8 C9.33333333,8 11,8 11,8 C11,8 11,8.66666667 11,10 L6,10 L6,18 L14,18 L14,13 L16,13 L16,18 C16,19.1045695 15.1045695,20 14,20 L6,20 C4.8954305,20 4,19.1045695 4,18 L4,10 C4,8.8954305 4.8954305,8 6,8 Z M16.613961,6 L12,6 L12,4 L20,4 L20,12 L18,12 L18,7.44238816 L12.6642136,12.7781746 L11.25,11.363961 L16.613961,6 Z" id="Shape"></path>
        </g>
    </g>
</svg>