<?xml version="1.0" encoding="UTF-8" standalone="no"?>
<svg width="12px" height="16px" viewBox="0 0 12 16" version="1.1" xmlns="http://www.w3.org/2000/svg" xmlns:xlink="http://www.w3.org/1999/xlink">
    <defs></defs>
    <g id="text-edit" stroke="none" stroke-width="1" fill="none" fill-rule="evenodd">
        <g id="list-bullet" fill="#000000">
            <path d="M4,2 L12,2 L12,4 L4,4 L4,2 Z M4,7 L12,7 L12,9 L4,9 L4,7 Z M4,12 L12,12 L12,14 L4,14 L4,12 Z M0,12 L2,12 L2,14 L0,14 L0,12 Z M0,7 L2,7 L2,9 L0,9 L0,7 Z M0,2 L2,2 L2,4 L0,4 L0,2 Z" id="Shape"></path>
        </g>
    </g>
</svg>