<?xml version="1.0" encoding="UTF-8" standalone="no"?>
<svg width="12px" height="16px" viewBox="0 0 12 16" version="1.1" xmlns="http://www.w3.org/2000/svg" xmlns:xlink="http://www.w3.org/1999/xlink">
    <defs></defs>
    <g id="web-app" stroke="none" stroke-width="1" fill="none" fill-rule="evenodd">
        <g id="lock" fill="#000000">
            <path d="M2.00564456,7 L1.00247329,7 C0.455760956,7 0,7.4463856 0,7.99703014 L0,14.0029699 C0,14.5469637 0.448822582,15 1.00247329,15 L10.9975267,15 C11.544239,15 12,14.5536144 12,14.0029699 L12,7.99703014 C12,7.45303631 11.5511774,7 10.9975267,7 L9.99406045,7 C9.93703396,5.06560935 9.41114386,1 5.99760797,1 C2.58407209,1 2.06122378,5.06560935 2.00564456,7 L2.00564456,7 Z M2,9 L3,9 L3,13 L2,13 L2,9 Z M5.99880399,3 C8.23835353,3 7.99198783,7 7.99198783,7 L4.00823876,7 C4.00823876,7 3.75925444,3 5.99880399,3 Z" id="Shape"></path>
        </g>
    </g>
</svg>