<?xml version="1.0" encoding="UTF-8" standalone="no"?>
<svg width="16px" height="16px" viewBox="0 0 16 16" version="1.1" xmlns="http://www.w3.org/2000/svg" xmlns:xlink="http://www.w3.org/1999/xlink">
    <defs></defs>
    <g id="web-app" stroke="none" stroke-width="1" fill="none" fill-rule="evenodd">
        <g id="login" fill="#000000">
            <path d="M4,14 L14,14 L14,2 L4,2 L4,0 L15,0 C15,0 16,0 16,1 L16,15 C16,16 15,16 15,16 L4,16 L4,14 Z M5,6 L1.49769878,6 C1.21484375,6 1,6.21959471 1,6.49047852 L1,9.50952148 C1,9.78494263 1.22282734,10 1.49769878,10 L5,10 L5,11.722546 C5,11.9998372 5.17598024,12.083671 5.39306287,11.9082511 L9.83644272,8.31765072 C10.0555106,8.14062666 10.0535253,7.85784803 9.83644272,7.68246385 L5.39306287,4.09259328 C5.17399501,3.9156052 5,4.00038101 5,4.27836293 L5,6 Z" id="Shape"></path>
        </g>
    </g>
</svg>