<?xml version="1.0" encoding="UTF-8" standalone="no"?>
<svg width="12px" height="16px" viewBox="0 0 12 16" version="1.1" xmlns="http://www.w3.org/2000/svg" xmlns:xlink="http://www.w3.org/1999/xlink">
    <defs></defs>
    <g id="web-app" stroke="none" stroke-width="1" fill="none" fill-rule="evenodd">
        <g id="login" fill="#000000">
            <path d="M0.5,6 C0,6.006 0,6.506 0,6.506 L0,9.506 C0,9.506 0,10.006 0.5,10.006 L3,10.006 L3,12 L7,8.003 L3,4 L3,6.006 L0.5,6 Z M2,2.999 L11,2.999 L11,12.994 L2,12.994 L2,13.994 L11,13.994 C11,14.02 12,13.994 12,12.994 L12,2.999 C12,2 11,2 11,2 L2,2 L2,2.999 Z" id="Shape"></path>
        </g>
    </g>
</svg>