<?xml version="1.0" encoding="UTF-8" standalone="no"?>
<svg width="16px" height="16px" viewBox="0 0 16 16" version="1.1" xmlns="http://www.w3.org/2000/svg" xmlns:xlink="http://www.w3.org/1999/xlink">
    <defs></defs>
    <g id="web-app" stroke="none" stroke-width="1" fill="none" fill-rule="evenodd">
        <g id="logout" fill="#000000">
            <path d="M13,14 L3,14 L3,2 L13,2 L13,0 L2,0 C2,0 1,0 1,1 L1,15 C1,16 2,16 2,16 L13,16 L13,14 Z M11,6 L7.498,6 C7.215,6 7,6.22 7,6.49 L7,9.51 C7,9.785 7.223,10 7.498,10 L11,10 L11,11.723 C11,12 11.176,12.084 11.393,11.908 L15.836,8.318 C16.056,8.141 16.054,7.858 15.836,7.682 L11.393,4.093 C11.174,3.916 11,4 11,4.278 L11,6 Z" id="Shape"></path>
        </g>
    </g>
</svg>