<?xml version="1.0" encoding="UTF-8" standalone="no"?>
<svg width="12px" height="16px" viewBox="0 0 12 16" version="1.1" xmlns="http://www.w3.org/2000/svg" xmlns:xlink="http://www.w3.org/1999/xlink">
    <defs></defs>
    <g id="media-player" stroke="none" stroke-width="1" fill="none" fill-rule="evenodd">
        <g id="loop" fill="#000000">
            <path d="M2.70956666,10.2904335 C3.31753833,11.103337 4.35988159,12 6.00000017,12 C9.00000017,12 10.0000002,9 10.0000002,9 L12.0000002,9 C12.0000002,9 11.0000002,14 6.00000017,14 C3.64466338,14 2.17694441,12.8904777 1.28324743,11.7167526 L0,13 L1.70652186e-07,9 L4.00000017,9 L2.70956666,10.2904335 L2.70956666,10.2904335 Z M9.29043351,5.70956655 C8.68246184,4.89666299 7.64011858,4 6,4 C3,4 2,7 2,7 L-1.08770486e-31,7 C-1.08770486e-31,7 1,2 6,2 C8.35533679,2 9.82305576,3.10952228 10.7167527,4.28324738 L12.0000002,3 L12,7 L8,7 L9.29043351,5.70956655 L9.29043351,5.70956655 Z" id="Shape"></path>
        </g>
    </g>
</svg>