<?xml version="1.0" encoding="UTF-8" standalone="no"?>
<svg width="14px" height="16px" viewBox="0 0 14 16" version="1.1" xmlns="http://www.w3.org/2000/svg" xmlns:xlink="http://www.w3.org/1999/xlink">
    <defs></defs>
    <g id="web-app" stroke="none" stroke-width="1" fill="none" fill-rule="evenodd">
        <g id="magic" fill="#000000">
            <path d="M1,4 L3,2 L14,13 L12,15 L1,4 Z M2,4 L3.00000003,3 L7,7 L6,8 L2,4 Z M9.5,2 L9,3 L8,3.5 L9,4 L9.5,5 L10,3.99607448 L11,3.5 L10,2.99929345 L9.5,2 Z M7,1 L6.66666667,1.66666667 L6,2 L6.66666667,2.33333333 L7,3 L7.33333333,2.33071632 L8,2 L7.33333333,1.66619564 L7,1 Z M12,1 L11.6666667,1.66666667 L11,2 L11.6666667,2.33333333 L12,3 L12.3333333,2.33071632 L13,2 L12.3333333,1.66619564 L12,1 Z M1,7 L0.666666667,7.66666667 L0,8 L0.666666667,8.33333333 L1,9 L1.33333333,8.33071632 L2,8 L1.33333333,7.66619564 L1,7 Z" id="Shape"></path>
        </g>
    </g>
</svg>