<?xml version="1.0" encoding="UTF-8"?>
<svg width="14px" height="14px" viewBox="0 0 14 14" version="1.1" xmlns="http://www.w3.org/2000/svg" xmlns:xlink="http://www.w3.org/1999/xlink">
    <defs></defs>
    <g id="web-app" stroke="none" stroke-width="1" fill="none" fill-rule="evenodd">
        <g id="magic" fill="#000000">
            <path d="M1,3 L3,1 L14,12 L12,14 L1,3 Z M9.5,1 L10,1.99929345 L11,2.5 L10,2.99607448 L9.5,4 L9,3 L8,2.5 L9,2 L9.5,1 Z M7,0 L7.33333333,0.666195636 L8,1 L7.33333333,1.33071632 L7,2 L6.66666667,1.33333333 L6,1 L6.66666667,0.666666667 L7,0 Z M12,0 L12.3333333,0.666195636 L13,1 L12.3333333,1.33071632 L12,2 L11.6666667,1.33333333 L11,1 L11.6666667,0.666666667 L12,0 Z M1,6 L1.33333333,6.66619564 L2,7 L1.33333333,7.33071632 L1,8 L0.666666667,7.33333333 L0,7 L0.666666667,6.66666667 L1,6 Z" id="Shape"></path>
        </g>
    </g>
</svg>