<?xml version="1.0" encoding="UTF-8"?>
<svg width="14px" height="10px" viewBox="0 0 14 10" version="1.1" xmlns="http://www.w3.org/2000/svg" xmlns:xlink="http://www.w3.org/1999/xlink">
    <!-- Generator: sketchtool 45.2 (43514) - http://www.bohemiancoding.com/sketch -->
    <title>mail</title>
    <desc>Created with sketchtool.</desc>
    <defs></defs>
    <g id="web-app" stroke="none" stroke-width="1" fill="none" fill-rule="evenodd">
        <g id="mail" fill="#000000">
            <path d="M7.10542736e-15,3 L7,8 L14,3 C14,3 14,9 14,9 C14,10 13.0150146,10 13.0150146,10 L1,10 C1,10 7.10542736e-15,10 7.10542736e-15,9 L7.10542736e-15,3 Z M7.10542736e-15,1 C7.10542736e-15,4.4408921e-16 1,4.4408921e-16 1,4.4408921e-16 L13,4.4408921e-16 C13,4.4408921e-16 14,1.16573418e-15 14,1 L7,6 L7.10542736e-15,1 Z" id="Shape"></path>
        </g>
    </g>
</svg>