<?xml version="1.0" encoding="UTF-8" standalone="no"?>
<svg width="10px" height="16px" viewBox="0 0 10 16" version="1.1" xmlns="http://www.w3.org/2000/svg" xmlns:xlink="http://www.w3.org/1999/xlink">
    <defs></defs>
    <g id="event" stroke="none" stroke-width="1" fill="none" fill-rule="evenodd">
        <g id="medal" fill="#000000">
            <path d="M8,0 L9,0 L7.0000001,3.0020647 L6,3.0020647 L8,0 Z M3,0 L4,0 L4.999656,1.500516 L6,0 L7.00220105,0 L5.4997586,2.25118618 L6,3.0020647 L4.9999999,3.0020647 L4.49948397,2.25077405 L3,0 Z M1,0 L2.00220105,0 L4.00220105,3 L3.00220105,3 L1,0 Z M3,4 L7,4 L7,5 L3,5 L3,4 Z M5,16 C7.76142375,16 10,13.7614237 10,11 C10,8.23857625 7.76142375,6 5,6 C2.23857625,6 0,8.23857625 0,11 C0,13.7614237 2.23857625,16 5,16 Z M5,8 L7.12132034,8.87867966 L8,11 L7.12132034,13.1213203 L5,14 L2.87867966,13.1213203 L2,11 L2.87867966,8.87867966 L5,8 Z" id="Shape"></path>
        </g>
    </g>
</svg>