<?xml version="1.0" encoding="UTF-8"?>
<svg width="24px" height="24px" viewBox="0 0 24 24" version="1.1" xmlns="http://www.w3.org/2000/svg" xmlns:xlink="http://www.w3.org/1999/xlink">
    <!-- Generator: sketchtool 52.1 (67048) - http://www.bohemiancoding.com/sketch -->
    <title>megaphone</title>
    <desc>Created with sketchtool.</desc>
    <g id="event" stroke="none" stroke-width="1" fill="none" fill-rule="evenodd">
        <g id="megaphone" fill="#000000" fill-rule="nonzero">
            <path d="M4,8 L4.03984449,10.1168762 L19.4992264,6.06510816 C19.6641584,6.02188092 19.8339414,6 20.0044272,6 C21.1065516,6 22,6.89483396 22,7.99866759 L22,16.000844 C22,16.1715941 21.978153,16.3416404 21.9349927,16.5068282 C21.655978,17.5747036 20.5654483,18.2138508 19.4992264,17.9344034 L4,13.8826353 L4,16 C4,16.5522847 3.55228475,17 3,17 C2.44771525,17 2,16.5522847 2,16 L2,8 C2,7.44771525 2.44771525,7 3,7 C3.55228475,7 4,7.44771525 4,8 Z M6,11.6640841 L6,12.3444044 L20,16 L20,8.00048878 L6,11.6640841 Z" id="Shape"></path>
        </g>
    </g>
</svg>