<?xml version="1.0" encoding="UTF-8"?>
<svg width="14px" height="14px" viewBox="0 0 14 14" version="1.1" xmlns="http://www.w3.org/2000/svg" xmlns:xlink="http://www.w3.org/1999/xlink">
    <defs></defs>
    <g id="event" stroke="none" stroke-width="1" fill="none" fill-rule="evenodd">
        <g id="megaphone" fill="#000000">
            <path d="M6.2471498,14 L3.24981061,14 L3.24981057,9.76828303 C1.89171737,9.59949119 0.940518127,9.46925919 0.940518127,9.46925919 C0.940518127,9.46925919 0.51876504,9.5775743 0.150723049,8.05707562 C-0.217318942,6.53657695 0.204434144,6.42826183 0.204434144,6.42826183 C0.204434144,6.42826183 8.37830924,0.40684724 9.85444504,0.0277443418 C10.0653216,-0.0264132151 12.437541,-0.404932245 13.6468218,4.59099198 C14.8561026,9.58691621 12.5890381,10.3998634 12.3781616,10.454021 C11.5827469,10.6583003 8.32353273,10.3564942 5.48670723,10.0346959 C5.42460757,10.0276515 6.2471498,14 6.2471498,14 Z M11.5152141,9.2323918 C10.4567796,9.49628915 9.17753514,8.02082391 8.65794158,5.93684795 C8.13834802,3.85287199 8.57516486,1.94954461 9.63359931,1.68564726 C10.6920338,1.42174991 11.9712782,2.89721515 12.4908718,4.98119111 C13.0104653,7.06516707 12.5736485,8.96849445 11.5152141,9.2323918 Z M10.2219377,7.19900419 C10.938821,7.0202651 11.3533132,6.20694547 11.1477319,5.38240394 C10.9421506,4.55786242 10.1943453,4.03433611 9.47746194,4.2130752 C8.7605786,4.39181429 9.50505431,7.37774328 10.2219377,7.19900419 Z" id="Shape"></path>
        </g>
    </g>
</svg>