<?xml version="1.0" encoding="UTF-8" standalone="no"?>
<svg width="14px" height="16px" viewBox="0 0 14 16" version="1.1" xmlns="http://www.w3.org/2000/svg" xmlns:xlink="http://www.w3.org/1999/xlink">
    <defs></defs>
    <g id="event" stroke="none" stroke-width="1" fill="none" fill-rule="evenodd">
        <g id="megaphone" fill="#000000">
            <path d="M6.2471498,15 L3.24981061,15 L3.24981057,10.768283 C1.89171737,10.5994912 0.940518127,10.4692592 0.940518127,10.4692592 C0.940518127,10.4692592 0.51876504,10.5775743 0.150723049,9.05707562 C-0.217318942,7.53657695 0.204434144,7.42826183 0.204434144,7.42826183 C0.204434144,7.42826183 8.37830924,1.40684724 9.85444504,1.02774434 C10.0653216,0.973586785 12.437541,0.595067755 13.6468218,5.59099198 C14.8561026,10.5869162 12.5890381,11.3998634 12.3781616,11.454021 C11.5827469,11.6583003 8.32353273,11.3564942 5.48670723,11.0346959 C5.42460757,11.0276515 6.2471498,15 6.2471498,15 Z M11.5152141,10.2323918 C12.5736485,9.96849445 13.0104653,8.06516707 12.4908718,5.98119111 C11.9712782,3.89721515 10.6920338,2.42174991 9.63359931,2.68564726 C8.57516486,2.94954461 8.13834802,4.85287199 8.65794158,6.93684795 C9.17753514,9.02082391 10.4567796,10.4962891 11.5152141,10.2323918 Z M10.2219377,8.19900419 C10.938821,8.0202651 11.3533132,7.20694547 11.1477319,6.38240394 C10.9421506,5.55786242 10.1943453,5.03433611 9.47746194,5.2130752 C8.7605786,5.39181429 9.50505431,8.37774328 10.2219377,8.19900419 Z" id="Shape"></path>
        </g>
    </g>
</svg>