<?xml version="1.0" encoding="UTF-8"?>
<svg width="24px" height="24px" viewBox="0 0 24 24" version="1.1" xmlns="http://www.w3.org/2000/svg" xmlns:xlink="http://www.w3.org/1999/xlink">
    <!-- Generator: sketchtool 52.1 (67048) - http://www.bohemiancoding.com/sketch -->
    <title>mention</title>
    <desc>Created with sketchtool.</desc>
    <g id="web-app" stroke="none" stroke-width="1" fill="none" fill-rule="evenodd">
        <g id="mention" fill="#000000" fill-rule="nonzero">
            <path d="M21,12 C21,13.9329966 19.4329966,15.5 17.5,15.5 C16.5665737,15.5 15.7184909,15.1346006 15.0909882,14.5390381 C14.3573725,15.4310935 13.2451239,16 12,16 C9.790861,16 8,14.209139 8,12 C8,9.790861 9.790861,8 12,8 C12.7285743,8 13.4116533,8.19478857 14,8.53512878 L14,8 L16,8 L16,12 C16,12.8284271 16.6715729,13.5 17.5,13.5 C18.3284271,13.5 19,12.8284271 19,12 C19,8.13400675 15.8659932,5 12,5 C8.13400675,5 5,8.13400675 5,12 C5,15.8659932 8.13400675,19 12,19 C13.3196681,19 14.5540438,18.6348198 15.6075866,18 L18.7083195,18 C17.0603579,19.8412481 14.6654994,21 12,21 C7.02943725,21 3,16.9705627 3,12 C3,7.02943725 7.02943725,3 12,3 C16.9705627,3 21,7.02943725 21,12 Z M12,14 C13.1045695,14 14,13.1045695 14,12 C14,10.8954305 13.1045695,10 12,10 C10.8954305,10 10,10.8954305 10,12 C10,13.1045695 10.8954305,14 12,14 Z" id="Shape"></path>
        </g>
    </g>
</svg>