<?xml version="1.0" encoding="UTF-8" standalone="no"?>
<svg width="16px" height="16px" viewBox="0 0 16 16" version="1.1" xmlns="http://www.w3.org/2000/svg" xmlns:xlink="http://www.w3.org/1999/xlink">
    <defs></defs>
    <g id="web-app" stroke="none" stroke-width="1" fill="none" fill-rule="evenodd">
        <g id="mention" fill="#000000">
            <path d="M14.4444074,8 C14.4444074,4.08283517 10.8611032,1.37142857 8,1.37142857 C5.13889683,1.37142857 1.37142857,3.88571429 1.37142857,8 C1.37142857,12.1142857 4.8,14.6285714 8,14.6285714 C11.2,14.6285714 12.5714286,12.8 12.5714286,12.8 C12.5714286,12.8 13.7743138,13.5586748 13.7514709,13.5586748 C12.4684091,14.8726423 10.4933486,16 8,16 C3.581722,16 0,12.418278 0,8 C0,3.581722 3.581722,0 8,0 C12.418278,0 16,3.65714286 16,8 C16,9.37142857 14.7207659,11.3452645 13.6178292,11.7600664 C12.3798244,12.2694938 10.9031023,11.9730476 10.0220511,11.1364563 C9.85558416,10.9783896 9.48950592,10.4642352 9.37300371,10.2602318 C8.78707579,11.110901 8.45714286,11.6571429 7.31428571,11.6571429 C5.08983166,11.6571429 3.88571429,10.0293544 3.88571429,8 C3.88571429,5.97064558 5.08983166,4.34285714 7.08571429,4.34285714 C8.59859532,4.34285714 9.22831682,5.5441367 9.22831678,5.5441366 C9.29618532,5.23547804 9.520899,4.4082381 9.54181191,4.34285714 L11.2,4.34285714 C11.2091431,4.35433674 10.8565979,5.41052638 10.8022853,5.79094499 C10.3285906,8 10.3104457,9.55664934 10.9714286,10.1621512 C11.6910688,10.7047721 12.6003305,10.8879325 13.3703727,10.2602321 C14.1424787,9.65184326 14.4444074,8.68407506 14.4444074,8 Z M8.68571429,8 C8.68571429,6.83816169 7.9410088,5.94285714 7.08571429,5.94285714 C6.23041977,5.94285714 5.48571429,6.83816169 5.48571429,8 C5.48571429,9.16183831 6.23041977,10.0571429 7.08571429,10.0571429 C7.9410088,10.0571429 8.68571429,9.16183831 8.68571429,8 Z" id="Shape"></path>
        </g>
    </g>
</svg>