<?xml version="1.0" encoding="UTF-8" standalone="no"?>
<svg width="16px" height="16px" viewBox="0 0 16 16" version="1.1" xmlns="http://www.w3.org/2000/svg" xmlns:xlink="http://www.w3.org/1999/xlink">
    <defs></defs>
    <g id="devices" stroke="none" stroke-width="1" fill="none" fill-rule="evenodd">
        <g id="mobile" fill="#000000">
            <path d="M4,1 C4,0.9375 4,14.0582132 4,14 C4,15 5,15 5,15 L11,15 C11,15 12,15 11.9999496,14 C12,14.0625 12,0.9375 12,1 C12,0 11,0 11,0 L5,1.77635684e-15 C5,1.77635684e-15 4,0 4,1 Z M5,2 L11,2 L11,13 L5,13 L5,2 Z" id="Shape" transform="translate(8.000000, 7.500000) scale(-1, 1) translate(-8.000000, -7.500000) "></path>
        </g>
    </g>
</svg>