<?xml version="1.0" encoding="UTF-8" standalone="no"?>
<svg width="14px" height="16px" viewBox="0 0 14 16" version="1.1" xmlns="http://www.w3.org/2000/svg" xmlns:xlink="http://www.w3.org/1999/xlink">
    <defs></defs>
    <g id="web-app" stroke="none" stroke-width="1" fill="none" fill-rule="evenodd">
        <g id="money" fill="#000000">
            <path d="M3,11 C3,11 11,11 11,11 C11,9 13,9 13,9 L13,7 C13,7 11,7 11,5 L3,5 C3,7 1,7 1,7 L1,9 C1,9 3,9 3,11 Z M0,5 C0,5 0,4 1,4 L13,4 C14,4 14,5 14,5 L14,11 C14,11 14,12 13,12 L1,12 C0,12 0,11 0,11 L0,5 Z M8,10 C9.1045695,10 10,9.1045695 10,8 C10,6.8954305 9.1045695,6 8,6 C6.8954305,6 6,6.8954305 6,8 C6,9.1045695 6.8954305,10 8,10 Z M4,6 L5,6 L5,10 L4,10 L4,6 Z M8,9 C8.55228475,9 9,8.55228475 9,8 C9,7.44771525 8.55228475,7 8,7 C7.44771525,7 7,7.44771525 7,8 C7,8.55228475 7.44771525,9 8,9 Z" id="Shape"></path>
        </g>
    </g>
</svg>