<?xml version="1.0" encoding="UTF-8" standalone="no"?>
<svg width="16px" height="16px" viewBox="0 0 16 16" version="1.1" xmlns="http://www.w3.org/2000/svg" xmlns:xlink="http://www.w3.org/1999/xlink">
    <defs></defs>
    <g id="devices" stroke="none" stroke-width="1" fill="none" fill-rule="evenodd">
        <g id="mouse" fill="#000000">
            <path d="M8,0 C3.625,0 3,3.582 3,8 C3,12.418 3.625,16 8,16 C12.375,16 13,12.418 13,8 C13,3.582 12.375,0 8,0 L8,0 Z M7,6 C7,6 7,7 8,7 C9,7 9,6 9,6 L9,3 C9,3 9,1.996 8,1.996 C7,1.996 7,3 7,3 L7,6 Z" id="Shape"></path>
        </g>
    </g>
</svg>