<?xml version="1.0" encoding="UTF-8" standalone="no"?>
<svg width="16px" height="16px" viewBox="0 0 16 16" version="1.1" xmlns="http://www.w3.org/2000/svg" xmlns:xlink="http://www.w3.org/1999/xlink">
    <defs></defs>
    <g id="devices" stroke="none" stroke-width="1" fill="none" fill-rule="evenodd">
        <g id="mouse" fill="#000000">
            <path d="M8,0 C12.375,3.55271368e-15 13,3.581722 13,8 C13,12.418278 12.375,16 8,16 C3.625,16 3,12.418278 3,8 C3,3.581722 3.625,-3.55271368e-15 8,0 Z M9,6 C9,6 9,7 8,7 C7,7 7,6 7,6 L7,3 C7,3 7,1.99578857 8,1.99578857 C9,1.99578857 9,3 9,3 L9,6 Z" id="Shape" transform="translate(8.000000, 8.000000) scale(-1, 1) translate(-8.000000, -8.000000) "></path>
        </g>
    </g>
</svg>