<?xml version="1.0" encoding="UTF-8" standalone="no"?>
<svg width="10px" height="16px" viewBox="0 0 10 16" version="1.1" xmlns="http://www.w3.org/2000/svg" xmlns:xlink="http://www.w3.org/1999/xlink">
    <defs></defs>
    <g id="devices" stroke="none" stroke-width="1" fill="none" fill-rule="evenodd">
        <g id="mouse" fill="#000000">
            <path d="M5,0 C0.625,0 0,3.582 0,8 C0,12.418 0.625,16 5,16 C9.375,16 10,12.418 10,8 C10,3.582 9.375,0 5,0 L5,0 Z M4,6 C4,6 4,7 5,7 C6,7 6,6 6,6 L6,3 C6,3 6,1.996 5,1.996 C4,1.996 4,3 4,3 L4,6 Z" id="Shape"></path>
        </g>
    </g>
</svg>