<?xml version="1.0" encoding="UTF-8"?>
<svg width="12px" height="14px" viewBox="0 0 12 14" version="1.1" xmlns="http://www.w3.org/2000/svg" xmlns:xlink="http://www.w3.org/1999/xlink">
    <!-- Generator: sketchtool 48.1 (47250) - http://www.bohemiancoding.com/sketch -->
    <title>music</title>
    <desc>Created with sketchtool.</desc>
    <defs></defs>
    <g id="web-app" stroke="none" stroke-width="1" fill="none" fill-rule="evenodd">
        <g id="music" fill="#000000">
            <path d="M3,0.998956561 C3,0.447248087 3.4463114,0 3.99754465,0 L11.0024554,0 C11.553384,0 12,0.442660332 12,0.998956561 L12,11 C12,12.1045695 11.1045695,13 10,13 C8.8954305,13 8,12.1045695 8,11 C8,9.8954305 8.8954305,9 10,9 C10.3642871,9 10.7058266,9.09739429 11,9.26756439 L11,3 L4,3 L4,12 C4,13.1045695 3.1045695,14 2,14 C0.8954305,14 0,13.1045695 0,12 C0,10.8954305 0.8954305,10 2,10 C2.36428714,10 2.70582663,10.0973943 3,10.2675644 L3,0.998956561 Z" id="Shape"></path>
        </g>
    </g>
</svg>