<?xml version="1.0" encoding="UTF-8" standalone="no"?>
<svg width="13px" height="16px" viewBox="0 0 13 16" version="1.1" xmlns="http://www.w3.org/2000/svg" xmlns:xlink="http://www.w3.org/1999/xlink">
    <defs></defs>
    <g id="web-app" stroke="none" stroke-width="1" fill="none" fill-rule="evenodd">
        <g id="music" fill="#000000">
            <path d="M11,4.11111111 L11,9.05000906 C10.838445,9.01721513 10.6712329,9 10.5,9 C9.11928813,9 8,10.1192881 8,11.5 C8,12.8807119 9.11928813,14 10.5,14 C11.8807119,14 13,12.8807119 13,11.5 C13,10.6820911 12.6072234,9.95592007 12,9.49981691 L12,3 L12,1 L3,2 L3,4 L3,10.0500091 C2.83844503,10.0172151 2.67123292,10 2.5,10 C1.11928813,10 0,11.1192881 0,12.5 C0,13.8807119 1.11928813,15 2.5,15 C3.88071187,15 5,13.8807119 5,12.5 C5,11.6820911 4.60722335,10.9559201 4,10.4998169 L4,4.88888889 L11,4.11111111 L11,4.11111111 Z" id="Shape"></path>
        </g>
    </g>
</svg>