<?xml version="1.0" encoding="UTF-8" standalone="no"?>
<svg width="12px" height="16px" viewBox="0 0 12 16" version="1.1" xmlns="http://www.w3.org/2000/svg" xmlns:xlink="http://www.w3.org/1999/xlink">
    <defs></defs>
    <g id="web-app" stroke="none" stroke-width="1" fill="none" fill-rule="evenodd">
        <g id="music" fill="#000000">
            <path d="M3,1.99895656 C3,1.44724809 3.4463114,1 3.99754465,1 L11.0024554,1 C11.553384,1 12,1.44266033 12,1.99895656 L12,12 C12,13.1045695 11.1045695,14 10,14 C8.8954305,14 8,13.1045695 8,12 C8,10.8954305 8.8954305,10 10,10 C10.3642871,10 10.7058266,10.0973943 11,10.2675644 L11,4 L4,4 L4,13 C4,14.1045695 3.1045695,15 2,15 C0.8954305,15 0,14.1045695 0,13 C0,11.8954305 0.8954305,11 2,11 C2.36428714,11 2.70582663,11.0973943 3,11.2675644 L3,1.99895656 Z" id="Shape"></path>
        </g>
    </g>
</svg>