<?xml version="1.0" encoding="UTF-8"?>
<svg width="14px" height="14px" viewBox="0 0 14 14" version="1.1" xmlns="http://www.w3.org/2000/svg" xmlns:xlink="http://www.w3.org/1999/xlink">
    <!-- Generator: sketchtool 48.1 (47250) - http://www.bohemiancoding.com/sketch -->
    <title>open-mouth</title>
    <desc>Created with sketchtool.</desc>
    <defs></defs>
    <g id="people" stroke="none" stroke-width="1" fill="none" fill-rule="evenodd">
        <g id="open-mouth" fill="#000000">
            <path d="M7,13 C10.3137085,13 13,10.3137085 13,7 C13,3.6862915 10.3137085,1 7,1 C3.6862915,1 1,3.6862915 1,7 C1,10.3137085 3.6862915,13 7,13 Z M7,14 C3.13400675,14 0,10.8659932 0,7 C0,3.13400675 3.13400675,0 7,0 C10.8659932,0 14,3.13400675 14,7 C14,10.8659932 10.8659932,14 7,14 Z M7,12 C8.1045695,12 9,11.1045695 9,10 C9,8.8954305 8.1045695,8 7,8 C5.8954305,8 5,8.8954305 5,10 C5,11.1045695 5.8954305,12 7,12 Z M9,6 C9.55228475,6 10,5.55228475 10,5 C10,4.44771525 9.55228475,4 9,4 C8.44771525,4 8,4.44771525 8,5 C8,5.55228475 8.44771525,6 9,6 Z M5,6 C5.55228475,6 6,5.55228475 6,5 C6,4.44771525 5.55228475,4 5,4 C4.44771525,4 4,4.44771525 4,5 C4,5.55228475 4.44771525,6 5,6 Z" id="Shape"></path>
        </g>
    </g>
</svg>