<?xml version="1.0" encoding="UTF-8" standalone="no"?>
<svg width="16px" height="16px" viewBox="0 0 16 16" version="1.1" xmlns="http://www.w3.org/2000/svg" xmlns:xlink="http://www.w3.org/1999/xlink">
    <defs></defs>
    <g id="production" stroke="none" stroke-width="1" fill="none" fill-rule="evenodd">
        <g id="palette" fill="#000000">
            <path d="M8.05910344,14 C12.4422503,14 15.9954929,11.3137085 15.9954929,8 C15.9954929,4.6862915 12.9965849,1.99999999 8.05910344,2 C5,2.00000001 2.91117523,2.71262738 2.91117516,3.5 C2.45243673,4.88148547 6.22031994,5.8826779 4.69156688,7.09012318 C2.314551,8.96754646 0,6.02841513 0,8.78946822 C0,11.2666375 3.67595659,14 8.05910344,14 Z M8.5,6 C9.32842712,6 10,5.55228475 10,5 C10,4.44771525 9.32842712,4 8.5,4 C7.67157288,4 7,4.44771525 7,5 C7,5.55228475 7.67157288,6 8.5,6 Z M11.5,8 C12.3284271,8 13,7.55228475 13,7 C13,6.44771525 12.3284271,6 11.5,6 C10.6715729,6 10,6.44771525 10,7 C10,7.55228475 10.6715729,8 11.5,8 Z" id="Shape"></path>
        </g>
    </g>
</svg>