<?xml version="1.0" encoding="UTF-8" standalone="no"?>
<svg width="16px" height="16px" viewBox="0 0 16 16" version="1.1" xmlns="http://www.w3.org/2000/svg" xmlns:xlink="http://www.w3.org/1999/xlink">
    <defs></defs>
    <g id="web-app" stroke="none" stroke-width="1" fill="none" fill-rule="evenodd">
        <g id="pencil" fill="#000000">
            <path d="M8.98229972,3 L12.9999999,7 L5.5,14.5 L4,16 L0,16 L0,11.9911316 L1.99740434,10 L8.98229972,3 Z M9,5 L5,9 L6,10 L10,6 L9,5 Z M3,12 L2,12 L1,13 L1,14 L2,14 L2,15 L3,15 L4,14 L4,13 L3,12 Z M10,2 C10,2 11.0373647,1 11,1 C12,2.41509146e-08 13,0.999999996 13,0.999999996 L15,3 C15,3 16,3.99999998 15,5 C15.0234526,5.02345264 14,6.00000011 14,6.00000011 L10,2 Z" id="Shape"></path>
        </g>
    </g>
</svg>