<?xml version="1.0" encoding="UTF-8"?>
<svg width="14px" height="14px" viewBox="0 0 14 14" version="1.1" xmlns="http://www.w3.org/2000/svg" xmlns:xlink="http://www.w3.org/1999/xlink">
    <defs></defs>
    <g id="web-app" stroke="none" stroke-width="1" fill="none" fill-rule="evenodd">
        <g id="pencil" fill="#000000">
            <path d="M8.14222853,2.21582733 L11.7841726,5.84172661 L4.98561151,12.6402878 L3.62589928,14 L0,14 L0,10.3660617 L1.81059674,8.56115108 L8.14222853,2.21582733 Z M8,4 L4,8 L5,9 L9,5 L8,4 Z M3,10 L2,10 L1,11 L3,13 L4,12 L4,11 L3,10 Z M9.06474821,1.30935251 C9.06474821,1.30935251 10.0050932,0.402877689 9.97122303,0.402877689 C10.8776978,-0.503597109 11.7841727,0.402877686 11.7841727,0.402877686 L13.5971223,2.21582733 C13.5971223,2.21582733 14.5035971,3.12230214 13.5971223,4.02877697 C13.6183815,4.0500362 12.6906475,4.93525189 12.6906475,4.93525189 L9.06474821,1.30935251 Z" id="Shape"></path>
        </g>
    </g>
</svg>