<?xml version="1.0" encoding="UTF-8" standalone="no"?>
<svg width="14px" height="16px" viewBox="0 0 14 16" version="1.1" xmlns="http://www.w3.org/2000/svg" xmlns:xlink="http://www.w3.org/1999/xlink">
    <defs></defs>
    <g id="web-app" stroke="none" stroke-width="1" fill="none" fill-rule="evenodd">
        <g id="phone" fill="#000000">
            <path d="M4.05794271,0.43658667 C4.30518337,0.73839082 5.04728926,1.6434103 5.29452992,1.94521445 C5.54196253,2.24682211 6.0366358,2.85023392 4.56605298,4.11325285 C3.68381846,4.87110351 3.61375414,5.70263682 6.09998162,8.73561133 C8.53418875,11.704924 9.38551819,11.8263531 10.2546996,11.0527834 C11.7383355,9.80567995 12.2197638,10.3931763 12.4671964,10.694784 L13.7037836,12.2034118 C13.9512162,12.5052159 14.4458895,13.1086277 13.0991189,14.5223522 C11.7521564,15.9362732 11.7287377,16.21332 10.9399862,15.8625906 C10.1512348,15.5116647 6.99622901,14.108354 4.04143441,10.5037985 C1.06034169,6.86741221 0.258153255,3.44323192 0.057558156,2.58713773 C-0.143036943,1.73124002 0.127622473,1.7558009 1.72182563,0.643487562 C3.31602878,-0.468629293 3.81070205,0.13478252 4.05794271,0.43658667" id="Shape"></path>
        </g>
    </g>
</svg>