<?xml version="1.0" encoding="UTF-8" standalone="no"?>
<svg width="14px" height="16px" viewBox="0 0 14 16" version="1.1" xmlns="http://www.w3.org/2000/svg" xmlns:xlink="http://www.w3.org/1999/xlink">
    <defs></defs>
    <g id="text-edit" stroke="none" stroke-width="1" fill="none" fill-rule="evenodd">
        <g id="picture" fill="#000000">
            <path d="M1,12.0046024 C1,11.9944951 12.9931545,12 12.9931545,12 C12.9998968,12 13,3.99539757 13,3.99539757 C13,4.00550487 1.00684547,4 1.00684547,4 C1.00010318,4 1,12.0046024 1,12.0046024 Z M0,3.99539757 C0,3.44565467 0.449948758,3 1.00684547,3 L12.9931545,3 C13.5492199,3 14,3.4556644 14,3.99539757 L14,12.0046024 C14,12.5543453 13.5500512,13 12.9931545,13 L1.00684547,13 C0.450780073,13 0,12.5443356 0,12.0046024 L0,3.99539757 Z M4,8 L6,10 L10,6 L12,8 L12,11 L2,11 L2,10 L4,8 Z M3,7 C3.55228475,7 4,6.55228475 4,6 C4,5.44771525 3.55228475,5 3,5 C2.44771525,5 2,5.44771525 2,6 C2,6.55228475 2.44771525,7 3,7 Z" id="Shape"></path>
        </g>
    </g>
</svg>