<?xml version="1.0" encoding="UTF-8" standalone="no"?>
<svg width="8px" height="16px" viewBox="0 0 8 16" version="1.1" xmlns="http://www.w3.org/2000/svg" xmlns:xlink="http://www.w3.org/1999/xlink">
    <defs></defs>
    <g id="devices" stroke="none" stroke-width="1" fill="none" fill-rule="evenodd">
        <g id="plug" fill="#000000">
            <path d="M5,6 L3,6 L3,1.99077797 C3,1.45097518 2.55228475,1 2,1 C1.44386482,1 1,1.44358641 1,1.99077797 L1,6 L0,6 L0,9.5 C0,11.257011 1.30325945,12.7169288 3,12.9633711 L3,16 L5,16 L5,12.9637612 C6.70356873,12.7187737 8,11.261322 8,9.5 L8,6 L7,6 L7,1.99077797 C7,1.45097518 6.55228475,1 6,1 C5.44386482,1 5,1.44358641 5,1.99077797 L5,6 L5,6 Z" id="Shape"></path>
        </g>
    </g>
</svg>