<?xml version="1.0" encoding="UTF-8"?>
<svg width="8px" height="14px" viewBox="0 0 8 14" version="1.1" xmlns="http://www.w3.org/2000/svg" xmlns:xlink="http://www.w3.org/1999/xlink">
    <defs></defs>
    <g id="devices" stroke="none" stroke-width="1" fill="none" fill-rule="evenodd">
        <g id="plug" fill="#000000">
            <path d="M5,5 L3,5 L3,0.990777969 C3,0.45097518 2.55228475,0 2,0 C1.44386482,0 1,0.443586406 1,0.990777969 L1,5 L0,5 L0,8.5 C0,10.257011 1.30325945,11.7169288 3,11.9633711 L3,15 L5,15 L5,11.9637612 C6.70356873,11.7187737 8,10.261322 8,8.5 L8,5 L7,5 L7,0.990777969 C7,0.45097518 6.55228475,0 6,0 C5.44386482,0 5,0.443586406 5,0.990777969 L5,5 L5,5 Z" id="Shape"></path>
        </g>
    </g>
</svg>