<?xml version="1.0" encoding="UTF-8" standalone="no"?>
<svg width="14px" height="16px" viewBox="0 0 14 16" version="1.1" xmlns="http://www.w3.org/2000/svg" xmlns:xlink="http://www.w3.org/1999/xlink">
    <defs></defs>
    <g id="food" stroke="none" stroke-width="1" fill="none" fill-rule="evenodd">
        <g id="pot" fill="#000000">
            <path d="M0.995631754,7 L13,7 C13,7 14,7 14,7.99513968 C14,8.99027936 13,9 13,9 L12,9 L12,13 C12,13 12,14 11,14 L2.99769116,14 C2,14 2,13 2,13 L2,9 L0.995631754,9 C0.995631754,9 1.2246468e-16,9 0,8 C0,7 0.995631754,7 0.995631754,7 Z M4,4 C2,4 2,6 2,6 L12,6 C12,6 12,4 10,4 L9,4 C9,4 9,2 7,2 C5,2 5,4 5,4 L4,4 Z M7,3 C8,3 8,4 8,4 L6,4 C6,4 6,3 7,3 Z" id="Shape"></path>
        </g>
    </g>
</svg>