<?xml version="1.0" encoding="UTF-8"?>
<svg width="24px" height="24px" viewBox="0 0 24 24" version="1.1" xmlns="http://www.w3.org/2000/svg" xmlns:xlink="http://www.w3.org/1999/xlink">
    <!-- Generator: sketchtool 52.1 (67048) - http://www.bohemiancoding.com/sketch -->
    <title>print</title>
    <desc>Created with sketchtool.</desc>
    <g id="web-app" stroke="none" stroke-width="1" fill="none" fill-rule="evenodd">
        <g id="print" fill="#000000">
            <path d="M7,11 L7,4 C7,2.8954305 7.8954305,2 9,2 L15,2 C16.1045695,2 17,2.8954305 17,4 L17,11 L18,11 C19.1045695,11 20,11.8954305 20,13 C20,15 20,16 20,16 C20,17.1000004 19.1000004,18 18,18 C18,18 17.6666667,18 17,18 L17,20 C17,21.1045695 16.1045695,22 15,22 L9,22 C7.8954305,22 7,21.1045695 7,20 L7,18 C6.33333333,18 6,18 6,18 C4.9000001,18 4,17.1000004 4,16 C4,16 4,15 4,13 C4,11.8954305 4.8954305,11 6,11 L7,11 Z M9,4 L9,11 L15,11 L15,4 L9,4 Z M14,13 L14,15 L16,15 L16,13 L14,13 Z M9,18 L9,20 L15,20 L15,18 L9,18 Z" id="Shape"></path>
        </g>
    </g>
</svg>