<?xml version="1.0" encoding="UTF-8" standalone="no"?>
<svg width="14px" height="16px" viewBox="0 0 14 16" version="1.1" xmlns="http://www.w3.org/2000/svg" xmlns:xlink="http://www.w3.org/1999/xlink">
    <defs></defs>
    <g id="web-app" stroke="none" stroke-width="1" fill="none" fill-rule="evenodd">
        <g id="print" fill="#000000">
            <path d="M0,9 C0,9 0,8 1,8 L2,8 L2,6 L3,6 L3,2 C3,2 3,1 3.99558592,1.00000001 C3.99558592,1 10,1.00000001 10,1.00000001 C11,1.00000001 11,2 11,2 L11,6 L12,6 L12,8 C12,8 13,8 13,8 C14,8 14,9 14,9 L14,15 L11,15 C11,15 11,16 10,16 C10,16 3.99558592,16 3.99558592,16 C3,16 3,15 3,15 L0,15 L0,9 Z M4,12 L10,12 L10,15 L4,15 L4,12 Z M8,9 L10,9 L10,10 L8,10 L8,9 Z M4,2 L10,2 L10,8 L4,8 L4,2 Z" id="Shape"></path>
        </g>
    </g>
</svg>