<?xml version="1.0" encoding="UTF-8" standalone="no"?>
<svg width="15px" height="16px" viewBox="0 0 15 16" version="1.1" xmlns="http://www.w3.org/2000/svg" xmlns:xlink="http://www.w3.org/1999/xlink">
    <defs></defs>
    <g id="production" stroke="none" stroke-width="1" fill="none" fill-rule="evenodd">
        <g id="prototype" fill="#000000">
            <path d="M8.00455702,7.48922309 C8.00410787,4.60769207 8.00184037,1 8.00184037,1 C8.00184037,0 9.00184037,0 9.00184037,0 L14.0018404,0 C14.0018404,0 15.0018404,0 15.0018404,1 L15.0018404,11 C15.0018404,12 14.0018404,12 14.0018404,12 L9.00184037,12 C9.00184037,12 8.00812556,12 8.00184037,11 C8.00388894,11 8.0046021,9.93766271 8.00463275,8.50549428 L11.3656804,6.57343298 C11.6407216,6.90277369 12.0468998,7.11111111 12.5,7.11111111 C13.3284271,7.11111111 14,6.41466517 14,5.55555556 C14,4.69644594 13.3284271,4 12.5,4 C11.6715729,4 11,4.69644594 11,5.55555556 C11,5.62483784 11.0043676,5.69306224 11.0128328,5.75994881 L8.00455702,7.48922309 Z M7,9.08299638 L7,14 C7,15 6,15 6,15 L1,15 C1,15 0.00628519058,15 0,14 C0.00628519058,14 2.66453526e-15,4 0,4 C0,3 1,3 1,3 L6,3 C6,3 7,3 7,4 L7,8.06668165 L4.63431964,9.42656702 C4.35927842,9.09722631 3.95310019,8.88888889 3.5,8.88888889 C2.67157288,8.88888889 2,9.58533483 2,10.4444444 C2,11.3035541 2.67157288,12 3.5,12 C4.32842712,12 5,11.3035541 5,10.4444444 C5,10.3751622 4.99563242,10.3069378 4.98716723,10.2400512 L7,9.08299638 Z" id="Shape"></path>
        </g>
    </g>
</svg>