<?xml version="1.0" encoding="UTF-8" standalone="no"?>
<svg width="14px" height="16px" viewBox="0 0 14 16" version="1.1" xmlns="http://www.w3.org/2000/svg" xmlns:xlink="http://www.w3.org/1999/xlink">
    <defs></defs>
    <g id="web-app" stroke="none" stroke-width="1" fill="none" fill-rule="evenodd">
        <g id="question" fill="#000000">
            <path d="M7,15 C10.8659932,15 14,11.8659932 14,8 C14,4.13400675 10.8659932,1 7,1 C3.13400675,1 0,4.13400675 0,8 C0,11.8659932 3.13400675,15 7,15 Z M6,12.5 L6,11.5 C6,11.5 6,11 6.5,11 C6.5,11 7.5,11 7.5,11 C8,11 8,11.5 8,11.5 L8,12.5 C8,12.5 8,13 7.5,13 L6.5,13 C6,13 6,12.5 6,12.5 Z M6,9.55942631 C6,10.0000001 6.5,9.9967214 6.5,9.9967214 L7.5,9.9967214 C7.5,9.9967214 8.04867324,10.0000001 8.04867324,9.55942631 C8.04867324,8.24754105 9.43500024,7.28321061 9.84808357,6.50173995 C10.2979361,5.62377053 10.0042575,3 7.00860263,3 C5,3 4,4.00897517 4,5.5 C4,5.5 4,6 4.5,6 L5.5,6 C6,6 6,5.5 6,5.5 C6,5.5 6,4.5 7,4.5 C8.04867324,4.5 8,5.5 8,6 C8,6.74016844 7.5,7.22136175 7,7.47323647 C7,7.47323647 6,7.91860888 6,9.55942631 Z" id="Shape"></path>
        </g>
    </g>
</svg>