<?xml version="1.0" encoding="UTF-8"?>
<svg width="24px" height="24px" viewBox="0 0 24 24" version="1.1" xmlns="http://www.w3.org/2000/svg" xmlns:xlink="http://www.w3.org/1999/xlink">
    <!-- Generator: sketchtool 52.1 (67048) - http://www.bohemiancoding.com/sketch -->
    <title>question</title>
    <desc>Created with sketchtool.</desc>
    <g id="web-app" stroke="none" stroke-width="1" fill="none" fill-rule="evenodd">
        <g id="question" fill="#000000">
            <path d="M12,22 C6.4771525,22 2,17.5228475 2,12 C2,6.4771525 6.4771525,2 12,2 C17.5228475,2 22,6.4771525 22,12 C22,17.5228475 17.5228475,22 12,22 Z M12,20 C16.418278,20 20,16.418278 20,12 C20,7.581722 16.418278,4 12,4 C7.581722,4 4,7.581722 4,12 C4,16.418278 7.581722,20 12,20 Z M11,16 L13,16 L13,18 L11,18 L11,16 Z M11,14.0078184 C11,14.0078184 13,14 13,14.0078184 C13,13.0059106 16,12 16,10 C16,7.78999996 14.2272053,6 12.0086026,6 C9.78999996,6 8,7.78999996 8,10 L10,10 C10,8.89999962 10.8999996,8 12,8 C13.1000004,8 14,8.89999962 14,10 C14,10.8999996 11,12.3670009 11,14.0078184 Z" id="Shape"></path>
        </g>
    </g>
</svg>