<?xml version="1.0" encoding="UTF-8" standalone="no"?>
<svg width="16px" height="16px" viewBox="0 0 16 16" version="1.1" xmlns="http://www.w3.org/2000/svg" xmlns:xlink="http://www.w3.org/1999/xlink">
    <defs></defs>
    <g id="web-app" stroke="none" stroke-width="1" fill="none" fill-rule="evenodd">
        <g id="question" fill="#000000">
            <path d="M8,16 C12.418278,16 16,12.418278 16,8 C16,3.581722 12.418278,0 8,0 C3.581722,0 0,3.581722 0,8 C0,12.418278 3.581722,16 8,16 Z M7,12.5 L7,11.5 C7,11.5 7,11 7.5,11 C7.5,11 8.5,11 8.5,11 C9,11 9,11.5 9,11.5 L9,12.5 C9,12.5 9,13 8.5,13 L7.5,13 C7,13 7,12.5 7,12.5 Z M7,9.5 C7,10.0037489 7.5,10 7.5,10 L8.5,10.0037487 C8.5,10.0037487 9,10.0037489 9,9.5 C9,8 10.8879169,6.89739164 11.3354239,6.00386381 C11.8227642,5 11.3348806,2.02837329 8.41083904,2 C5.97285838,2.02005762 5,3.5 5,5 C5,5 5,5.5 5.4826406,5.5 L6.46202089,5.5 C6.94936119,5.5 6.94936119,5 6.94936119,5 C6.94936119,4.5 7.43670149,4 8.410839,4 C9.4413752,4 9.87340297,4.74945068 9.38606268,5.5 C9.31967208,5.73779297 8.13890393,6.75376649 7.92404189,7 C7.92404189,7 7,7.62390137 7,9.5 Z" id="Shape"></path>
        </g>
    </g>
</svg>