<?xml version="1.0" encoding="UTF-8" standalone="no"?>
<svg width="16px" height="16px" viewBox="0 0 16 16" version="1.1" xmlns="http://www.w3.org/2000/svg" xmlns:xlink="http://www.w3.org/1999/xlink">
    <defs></defs>
    <g id="text-edit" stroke="none" stroke-width="1" fill="none" fill-rule="evenodd">
        <g id="quote-left" fill="#000000">
            <path d="M11.5044,7 C13.4374,7 15.0044,8.567 15.0044,10.5 C15.0044,12.433 13.4374,14 11.5044,14 C9.5714,14 8.0044,12.433 8.0044,10.5 C7.9944,10.367 8.0044,10.032 8.0044,10 C8.0044,7 12.0094,2 12.0094,2 L13.0044,3 C12.5044,3.603 11.5034,5.191 10.5044,7.097 C10.9444,6.966 11.0924,7 11.5044,7 M3.5044,7 C5.4374,7 7.0044,8.567 7.0044,10.5 C7.0044,12.433 5.4374,14 3.5044,14 C1.5714,14 0.0044,12.433 0.0044,10.5 C-0.0056,10.367 0.0044,10.032 0.0044,10 C0.0044,7 4.0094,2 4.0094,2 L5.0044,3 C4.5044,3.603 3.5034,5.191 2.5044,7.097 C2.9444,6.966 3.0924,7 3.5044,7" id="Shape"></path>
        </g>
    </g>
</svg>