<?xml version="1.0" encoding="UTF-8"?>
<svg width="12px" height="12px" viewBox="0 0 12 12" version="1.1" xmlns="http://www.w3.org/2000/svg" xmlns:xlink="http://www.w3.org/1999/xlink">
    <!-- Generator: sketchtool 47.1 (45422) - http://www.bohemiancoding.com/sketch -->
    <title>quote-right</title>
    <desc>Created with sketchtool.</desc>
    <defs></defs>
    <g id="text-edit" stroke="none" stroke-width="1" fill="none" fill-rule="evenodd">
        <g id="quote-right" fill="#000000">
            <path d="M2.68064043,4.99357383 L2.68064043,4.99357383 C2.62098165,4.99783359 2.56074382,5 2.5,5 C1.11928813,5 0,3.88071187 0,2.5 C0,1.11928813 1.11928813,0 2.5,0 C3.88071187,0 5,1.11928813 5,2.5 C5,6 1,12 1,12 L0,11 C0,11 1.90781151,7.791851 2.68064043,4.99357383 Z M9.68064043,4.99357383 C9.62098165,4.99783359 9.56074382,5 9.5,5 C8.11928813,5 7,3.88071187 7,2.5 C7,1.11928813 8.11928813,0 9.5,0 C10.8807119,0 12,1.11928813 12,2.5 C12,6 8,12 8,12 L7,11 C7,11 8.90781151,7.791851 9.68064043,4.99357383 L9.68064043,4.99357383 Z" id="Shape"></path>
        </g>
    </g>
</svg>