<?xml version="1.0" encoding="UTF-8"?>
<svg width="12px" height="12px" viewBox="0 0 12 12" version="1.1" xmlns="http://www.w3.org/2000/svg" xmlns:xlink="http://www.w3.org/1999/xlink">
    <!-- Generator: sketchtool 48.1 (47250) - http://www.bohemiancoding.com/sketch -->
    <title>quote-left</title>
    <desc>Created with sketchtool.</desc>
    <defs></defs>
    <g id="text-edit" stroke="none" stroke-width="1" fill="none" fill-rule="evenodd">
        <g id="quote-left" fill="#000000">
            <path d="M2.5,7 C3.88071187,7 5,8.11928813 5,9.5 C5,10.8807119 3.88071187,12 2.5,12 C1.11928813,12 0,10.8807119 0,9.5 C0,6 4,0 4,0 L5,1 C5,1 3.09218849,4.208149 2.31935957,7.00642617 C2.37901835,7.00216641 2.43925618,7 2.5,7 Z M12,1 C12,1 10.0921885,4.208149 9.31935957,7.00642617 C9.37901835,7.00216641 9.43925618,7 9.5,7 C10.8807119,7 12,8.11928813 12,9.5 C12,10.8807119 10.8807119,12 9.5,12 C8.11928813,12 7,10.8807119 7,9.5 C7,6 11,0 11,0 L12,1 Z" id="Shape"></path>
        </g>
    </g>
</svg>