<?xml version="1.0" encoding="UTF-8"?>
<svg width="15px" height="12px" viewBox="0 0 15 12" version="1.1" xmlns="http://www.w3.org/2000/svg" xmlns:xlink="http://www.w3.org/1999/xlink">
    <defs></defs>
    <g id="text-edit" stroke="none" stroke-width="1" fill="none" fill-rule="evenodd">
        <g id="quote-left" fill="#000000">
            <path d="M11.5044,5 C13.4374,5 15.0044,6.567 15.0044,8.5 C15.0044,10.433 13.4374,12 11.5044,12 C9.5714,12 8.0044,10.433 8.0044,8.5 C7.9944,8.367 8.0044,8.032 8.0044,8 C8.0044,5 12.0094,0 12.0094,0 L13.0044,1 C12.5044,1.603 11.5034,3.191 10.5044,5.097 C10.9444,4.966 11.0924,5 11.5044,5 M3.5044,5 C5.4374,5 7.0044,6.567 7.0044,8.5 C7.0044,10.433 5.4374,12 3.5044,12 C1.5714,12 0.0044,10.433 0.0044,8.5 C-0.0056,8.367 0.0044,8.032 0.0044,8 C0.0044,5 4.0094,0 4.0094,0 L5.0044,1 C4.5044,1.603 3.5034,3.191 2.5044,5.097 C2.9444,4.966 3.0924,5 3.5044,5" id="Shape"></path>
        </g>
    </g>
</svg>