<?xml version="1.0" encoding="UTF-8" standalone="no"?>
<svg width="15px" height="16px" viewBox="0 0 15 16" version="1.1" xmlns="http://www.w3.org/2000/svg" xmlns:xlink="http://www.w3.org/1999/xlink">
    <defs></defs>
    <g id="text-edit" stroke="none" stroke-width="1" fill="none" fill-rule="evenodd">
        <g id="quote-right" fill="#000000">
            <path d="M3.5,9 C1.56700338,9 0,7.43299662 0,5.5 C0,3.56700338 1.56700338,2 3.5,2 C5.43299662,2 7,3.56700338 7,5.5 C7.01000023,5.63349717 7,5.96817911 7,6 C7,9 2.99501866,13.9999996 2.99501866,13.9999996 C2.99501866,13.9999996 2,12.9999996 2,13 C2.5,12.3972339 3.50059842,10.8093475 4.5,8.90262413 C4.06044717,9.03356324 3.91231929,9 3.5,9 Z M11.5,9 C9.56700338,9 8,7.43299662 8,5.5 C8,3.56700338 9.56700338,2 11.5,2 C13.4329966,2 15,3.56700338 15,5.5 C15.0100002,5.63349717 15,5.96817911 15,6 C15,9 10.9950187,13.9999996 10.9950187,13.9999996 C10.9950187,13.9999996 10,12.9999996 10,13 C10.5,12.3972339 11.5005984,10.8093475 12.5,8.90262413 C12.0604472,9.03356324 11.9123193,9 11.5,9 Z" id="Shape"></path>
        </g>
    </g>
</svg>