<?xml version="1.0" encoding="UTF-8" standalone="no"?>
<svg width="14px" height="16px" viewBox="0 0 14 16" version="1.1" xmlns="http://www.w3.org/2000/svg" xmlns:xlink="http://www.w3.org/1999/xlink">
    <defs></defs>
    <g id="people" stroke="none" stroke-width="1" fill="none" fill-rule="evenodd">
        <g id="rage" fill="#000000">
            <path d="M7,14 C10.3137085,14 13,11.3137085 13,8 C13,4.6862915 10.3137085,2 7,2 C3.6862915,2 1,4.6862915 1,8 C1,11.3137085 3.6862915,14 7,14 Z M7,15 C3.13400675,15 0,11.8659932 0,8 C0,4.13400675 3.13400675,1 7,1 C10.8659932,1 14,4.13400675 14,8 C14,11.8659932 10.8659932,15 7,15 Z M7,9 C4.99707031,9 4.99707031,11 4.99707031,11 L6,11 C6,11 6,10 7,10 C8,10 8,11 8,11 L8.99743652,11 C8.99743652,11 9.00292969,9 7,9 Z M9,8 C9.55228475,8 10,7.55228475 10,7 C10,6.44771525 10,5.9967041 10,5.9967041 C10,5.9967041 8,6.99835205 8,7 C8,7.55228475 8.44771525,8 9,8 Z M5,8 C5.55228475,8 6,7.55228475 6,7 L4,6 L4,7 C4,7.55228475 4.44771525,8 5,8 Z" id="Shape"></path>
        </g>
    </g>
</svg>