<?xml version="1.0" encoding="UTF-8"?>
<svg width="12px" height="10px" viewBox="0 0 12 10" version="1.1" xmlns="http://www.w3.org/2000/svg" xmlns:xlink="http://www.w3.org/1999/xlink">
    <!-- Generator: sketchtool 48.2 (47327) - http://www.bohemiancoding.com/sketch -->
    <title>random</title>
    <desc>Created with sketchtool.</desc>
    <defs></defs>
    <g id="media-player" stroke="none" stroke-width="1" fill="none" fill-rule="evenodd">
        <g id="random" fill="#000000">
            <path d="M9,3 L7,5 L9,7 L10,7 L10,6 L12,8 L10,10 L10,9 L8,9 L6,7 L4,9 L0,9 L0,7 L3,7 L5,5 L3,3 L0,3 L0,1 L4,1 L6,3 L8,1 L10,1 L10,0 L12,2 L10,4 C10,4 10.0245038,3.0490075 10,3 C9.97549625,2.9509925 9,3 9,3 Z" id="Shape"></path>
        </g>
    </g>
</svg>