<?xml version="1.0" encoding="UTF-8" standalone="no"?>
<svg width="12px" height="16px" viewBox="0 0 12 16" version="1.1" xmlns="http://www.w3.org/2000/svg" xmlns:xlink="http://www.w3.org/1999/xlink">
    <defs></defs>
    <g id="web-app" stroke="none" stroke-width="1" fill="none" fill-rule="evenodd">
        <g id="reload" fill="#000000">
            <path d="M8.83809166,5.16190834 C8.16928164,4.52737728 7.20411823,4 6,4 C3.54418945,4 2,6 2,8 C2,9.82910156 3.41046143,12 6,12 C8.58953857,12 9.49316406,9.89021444 9.55000019,9.89999962 C9.57676506,9.89021444 11.3467073,10.7975922 11.3254404,10.7975922 C10.8264771,11.5945435 9.31000042,14 6,14 C2.68999958,14 0,11.3137085 0,8 C0,4.6862915 2.6862915,2 6,2 C7.67721157,2 9.16730686,2.75706645 10.2300313,3.7699687 L12,2 L11.9999999,6.99999989 L7,7 L8.83809166,5.16190834 L8.83809166,5.16190834 Z" id="Shape"></path>
        </g>
    </g>
</svg>