<?xml version="1.0" encoding="UTF-8" standalone="no"?>
<svg width="15px" height="16px" viewBox="0 0 15 16" version="1.1" xmlns="http://www.w3.org/2000/svg" xmlns:xlink="http://www.w3.org/1999/xlink">
    <defs></defs>
    <g id="media-player" stroke="none" stroke-width="1" fill="none" fill-rule="evenodd">
        <g id="repeat" fill="#000000">
            <path d="M11.4303841,5.5 C11.2313672,4.64658055 10.4634039,3 7.5,3 C3.5,3 3.5,6 3.5,6 L1.5,6 C1.5,3.19999981 4.1862915,1 7.5,1 C10.6137394,1 13.1735012,2.94248897 13.4711049,5.5 L15,5.5 L12.5,9 L10,5.5 L11.4303841,5.5 L11.4303841,5.5 Z M3.56961594,10 C3.76863285,10.8534195 4.53659606,12.5 7.5,12.5 C11.5,12.5 11.5,9.5 11.5,9.5 L13.5,9.5 C13.5,12.3000002 10.8137085,14.5 7.5,14.5 C4.38626061,14.5 1.82649881,12.557511 1.52889508,10 L0,10 L2.5,6.5 L5,10 L3.56961594,10 L3.56961594,10 Z" id="Shape"></path>
        </g>
    </g>
</svg>