<?xml version="1.0" encoding="UTF-8" standalone="no"?>
<svg width="14px" height="16px" viewBox="0 0 14 16" version="1.1" xmlns="http://www.w3.org/2000/svg" xmlns:xlink="http://www.w3.org/1999/xlink">
    <defs></defs>
    <g id="web-app" stroke="none" stroke-width="1" fill="none" fill-rule="evenodd">
        <g id="rocket" fill="#000000">
            <path d="M5.79156674,5 C6.95643519,3.63430329 8.14201578,2.40582388 8.92182614,2.01583993 C8.92182614,2.01583993 10.9530957,1.00604066 12.9843652,1 C12.9843652,1 13.4921826,1 13.7460913,1.25395998 C14,1.50791996 14,2.01583993 14,2.01583993 C14,4.0475198 12.9843652,6.07919966 12.9843652,6.07919966 C12.5947074,6.85867269 11.3662611,8.04459636 10,9.21035932 L10,12.6330379 C10,12.9134553 9.82132053,13.2640906 9.58286285,13.4286574 L7.41713715,14.9232891 C7.18675866,15.0822802 7,14.9847572 7,14.7115547 L7,11.6110247 C5.98478922,12.3826128 5.25459214,12.9038758 5.25459214,12.9038758 C5.03627117,13.0619416 4.69547225,13.0262313 4.50976839,12.8404899 L2.16190141,10.4921487 C1.96886758,10.2990758 1.93958504,9.96594684 2.1060901,9.73680659 C2.1060901,9.73680659 2.6242659,9.01061603 3.39195803,8 L0.295384196,8 C0.0199712896,8 -0.0839041089,7.82132053 0.0754296511,7.58286285 L1.52253431,5.41713715 C1.67646968,5.18675866 2.02700151,5 2.29939788,5 L5.79156674,5 L5.79156674,5 Z M2,11 C2,11 1.00000001,11.9999998 2,13 C2.99999999,14.0000001 4,13 4,13 C4,13 4,15 2,15.0000001 C1.19837612e-15,15.0000001 -9.95799302e-17,14.9999999 -2.22044605e-16,13 C-9.95799329e-17,11 2,11 2,11 Z M10,6 C10.5522847,6 11,5.55228475 11,5 C11,4.44771525 10.5522847,4 10,4 C9.44771525,4 9,4.44771525 9,5 C9,5.55228475 9.44771525,6 10,6 Z" id="Shape"></path>
        </g>
    </g>
</svg>