<?xml version="1.0" encoding="UTF-8" standalone="no"?>
<svg width="14px" height="16px" viewBox="0 0 14 16" version="1.1" xmlns="http://www.w3.org/2000/svg" xmlns:xlink="http://www.w3.org/1999/xlink">
    <defs></defs>
    <g id="production" stroke="none" stroke-width="1" fill="none" fill-rule="evenodd">
        <g id="scale" fill="#000000">
            <path d="M9.47780888,10.9774659 C8.78945442,12.1854845 7.48984735,13 6,13 C5.94322855,13 5.88673333,12.9988173 5.83053765,12.9964752 C5.41969811,14.1635084 4.30753559,15 3,15 C1.34314575,15 0,13.6568542 0,12 C0,10.6924644 0.836491575,9.58030189 2.00352481,9.16946235 C2.0011827,9.11326667 2,9.05677145 2,9 C2,7.51015265 2.81451547,6.21054558 4.0225341,5.52219112 C4.2630798,2.98490244 6.3997405,1 9,1 C11.7614237,1 14,3.23857625 14,6 C14,8.6002595 12.0150976,10.7369202 9.47780888,10.9774659 L9.47780888,10.9774659 Z M3,14 C4.1045695,14 5,13.1045695 5,12 C5,10.8954305 4.1045695,10 3,10 C1.8954305,10 1,10.8954305 1,12 C1,13.1045695 1.8954305,14 3,14 Z M3,9 C3,7.34314575 4.34314575,6 6,6 C7.65685425,6 9,7.34314575 9,9 C9,10.6568542 7.65685425,12 6,12 C6,10.3431458 4.65685425,9 3,9 Z M9.89865304,9.89865304 C11.6750694,9.49085273 13,7.90015343 13,6 C13,3.790861 11.209139,2 9,2 C7.09984657,2 5.50914727,3.32493061 5.10134696,5.10134696 C5.39021153,5.0350342 5.69101443,5 6,5 C8.209139,5 10,6.790861 10,9 C10,9.30898557 9.9649658,9.60978847 9.89865304,9.89865304 L9.89865304,9.89865304 Z" id="Shape"></path>
        </g>
    </g>
</svg>