<?xml version="1.0" encoding="UTF-8" standalone="no"?>
<svg width="14px" height="16px" viewBox="0 0 14 16" version="1.1" xmlns="http://www.w3.org/2000/svg" xmlns:xlink="http://www.w3.org/1999/xlink">
    <defs></defs>
    <g id="web-app" stroke="none" stroke-width="1" fill="none" fill-rule="evenodd">
        <g id="search" fill="#000000">
            <path d="M10.1673026,9.84110491 C10.8176162,8.92634981 11.2,7.80783017 11.2,6.6 C11.2,3.5072054 8.6927946,1 5.6,1 C2.5072054,1 0,3.5072054 0,6.6 C0,9.6927946 2.5072054,12.2 5.6,12.2 C6.80764238,12.2 7.926002,11.8177351 8.84067823,11.1676059 L12.3792188,14.7053125 C12.3792188,14.7053125 13.0422657,15.3683594 13.7053125,14.7053125 C14.3683594,14.0422657 13.7053125,13.378281 13.7053125,13.378281 L10.1673026,9.84110491 L10.1673026,9.84110491 Z M9.33333333,6.6 C9.33333333,4.53813693 7.66186307,2.86666667 5.6,2.86666667 C3.53813693,2.86666667 1.86666667,4.53813693 1.86666667,6.6 C1.86666667,8.66186307 3.53813693,10.3333333 5.6,10.3333333 C7.66186307,10.3333333 9.33333333,8.66186307 9.33333333,6.6 Z" id="Shape"></path>
        </g>
    </g>
</svg>