<?xml version="1.0" encoding="UTF-8"?>
<svg width="14px" height="14px" viewBox="0 0 14 14" version="1.1" xmlns="http://www.w3.org/2000/svg" xmlns:xlink="http://www.w3.org/1999/xlink">
    <defs></defs>
    <g id="web-app" stroke="none" stroke-width="1" fill="none" fill-rule="evenodd">
        <g id="search" fill="#000000">
            <path d="M8.85700408,9.85700408 L13,14 L14,13 L9.85700408,8.85700408 C10.5736833,7.92821055 11,6.76389108 11,5.5 C11,2.46243388 8.53756612,0 5.5,0 C2.46243388,0 0,2.46243388 0,5.5 C0,8.53756612 2.46243388,11 5.5,11 C6.76389108,11 7.92821055,10.5736833 8.85700408,9.85700408 L8.85700408,9.85700408 Z M5.5,9.5 C7.709139,9.5 9.5,7.709139 9.5,5.5 C9.5,3.290861 7.709139,1.5 5.5,1.5 C3.290861,1.5 1.5,3.290861 1.5,5.5 C1.5,7.709139 3.290861,9.5 5.5,9.5 Z" id="Shape"></path>
        </g>
    </g>
</svg>