<?xml version="1.0" encoding="UTF-8" standalone="no"?>
<svg width="16px" height="16px" viewBox="0 0 16 16" version="1.1" xmlns="http://www.w3.org/2000/svg" xmlns:xlink="http://www.w3.org/1999/xlink">
    <defs></defs>
    <g id="web-app" stroke="none" stroke-width="1" fill="none" fill-rule="evenodd">
        <g id="search" fill="#000000">
            <path d="M10.8935385,9.4726124 C11.5903031,8.49251765 12,7.29410375 12,6 C12,2.6862915 9.3137085,0 6,0 C2.6862915,0 0,2.6862915 0,6 C0,9.3137085 2.6862915,12 6,12 C7.29390255,12 8.492145,11.5904304 9.47215524,10.8938634 L13.2634488,14.6842634 C13.2634488,14.6842634 13.9738561,15.3946707 14.6842634,14.6842634 C15.3946707,13.9738561 14.6842634,13.2624439 14.6842634,13.2624439 L10.8935385,9.4726124 L10.8935385,9.4726124 Z M10,6 C10,3.790861 8.209139,2 6,2 C3.790861,2 2,3.790861 2,6 C2,8.209139 3.790861,10 6,10 C8.209139,10 10,8.209139 10,6 Z" id="Shape"></path>
        </g>
    </g>
</svg>