<?xml version="1.0" encoding="UTF-8" standalone="no"?>
<svg width="14px" height="16px" viewBox="0 0 14 16" version="1.1" xmlns="http://www.w3.org/2000/svg" xmlns:xlink="http://www.w3.org/1999/xlink">
    <defs></defs>
    <g id="web-app" stroke="none" stroke-width="1" fill="none" fill-rule="evenodd">
        <g id="search-plus" fill="#000000">
            <path d="M8.85700408,10.8570041 C7.92821055,11.5736833 6.76389108,12 5.5,12 C2.46243388,12 0,9.53756612 0,6.5 C0,3.46243388 2.46243388,1 5.5,1 C8.53756612,1 11,3.46243388 11,6.5 C11,7.76389108 10.5736833,8.92821055 9.85700408,9.85700408 L14,14 L13,15 L8.85700408,10.8570041 L8.85700408,10.8570041 Z M5.5,11 C7.98528137,11 10,8.98528137 10,6.5 C10,4.01471863 7.98528137,2 5.5,2 C3.01471863,2 1,4.01471863 1,6.5 C1,8.98528137 3.01471863,11 5.5,11 Z M3,6 L3,7 L5,7 L5,9 L6,9 L6,7 L8,7 L8,6 L6,6 L6,4 L5,4 L5,6 L3,6 Z" id="Shape"></path>
        </g>
    </g>
</svg>