<?xml version="1.0" encoding="UTF-8" standalone="no"?>
<svg width="12px" height="16px" viewBox="0 0 12 16" version="1.1" xmlns="http://www.w3.org/2000/svg" xmlns:xlink="http://www.w3.org/1999/xlink">
    <defs></defs>
    <g id="web-app" stroke="none" stroke-width="1" fill="none" fill-rule="evenodd">
        <g id="share" fill="#000000">
            <path d="M3.95783201,8.41049943 C3.9854712,8.27800529 4,8.14069934 4,8 C4,7.8587089 3.98534873,7.72083979 3.95748257,7.58782906 L8.72904487,5.54431198 C9.07458367,5.82901534 9.51732403,6 10,6 C11.1045695,6 12,5.1045695 12,4 C12,2.8954305 11.1045695,2 10,2 C8.8954305,2 8,2.8954305 8,4 C8,4.14069934 8.0145288,4.27800529 8.04216799,4.41049943 L3.27064925,6.45543604 C2.92515506,6.17088377 2.48253355,6 2,6 C0.8954305,6 0,6.8954305 0,8 C0,9.1045695 0.8954305,10 2,10 C2.48253355,10 2.92515506,9.82911623 3.27064925,9.54456396 L8.04216799,11.5895006 C8.0145288,11.7219947 8,11.8593007 8,12 C8,13.1045695 8.8954305,14 10,14 C11.1045695,14 12,13.1045695 12,12 C12,10.8954305 11.1045695,10 10,10 C9.51746645,10 9.07484494,10.1708838 8.72935075,10.455436 L3.95783201,8.41049943 L3.95783201,8.41049943 Z" id="Shape"></path>
        </g>
    </g>
</svg>