<?xml version="1.0" encoding="UTF-8" standalone="no"?>
<svg width="16px" height="16px" viewBox="0 0 16 16" version="1.1" xmlns="http://www.w3.org/2000/svg" xmlns:xlink="http://www.w3.org/1999/xlink">
    <defs></defs>
    <g id="web-app" stroke="none" stroke-width="1" fill="none" fill-rule="evenodd">
        <g id="share" fill="#000000">
            <path d="M3,5 C1.34314575,5 0,6.34314575 0,8 C0,9.65685425 1.34314575,11 3,11 C3.69711362,11 4.33869249,10.7622275 4.84806093,10.3633581 L10.0287405,12.5830594 C10.0097938,12.7193248 10,12.8585187 10,13 C10,14.6568542 11.3431458,16 13,16 C14.6568542,16 16,14.6568542 16,13 C16,11.3431458 14.6568542,10 13,10 C12.3019383,10 11.6595625,10.2384197 11.1498616,10.6382701 L5.97129535,8.41668247 C5.99021853,8.28049941 6,8.141392 6,8 C6,7.85874291 5.99023719,7.71976605 5.97134949,7.58370736 L11.1520188,5.36342053 C11.6613744,5.76225228 12.3029227,6 13,6 C14.6568542,6 16,4.65685425 16,3 C16,1.34314575 14.6568542,0 13,0 C11.3431458,0 10,1.34314575 10,3 C10,3.1408558 10.0097074,3.27944432 10.0284898,3.41513302 L4.84783862,5.63646782 C4.33850582,5.23770335 3.69701221,5 3,5 Z" id="Shape"></path>
        </g>
    </g>
</svg>