<?xml version="1.0" encoding="UTF-8"?>
<svg width="24px" height="24px" viewBox="0 0 24 24" version="1.1" xmlns="http://www.w3.org/2000/svg" xmlns:xlink="http://www.w3.org/1999/xlink">
    <!-- Generator: sketchtool 50.2 (55047) - http://www.bohemiancoding.com/sketch -->
    <title>share</title>
    <desc>Created with sketchtool.</desc>
    <defs></defs>
    <g id="web-app" stroke="none" stroke-width="1" fill="none" fill-rule="evenodd">
        <g id="share" fill="#000000">
            <path d="M14.8387471,14.9193736 C15.384491,14.3526158 16.1510666,14 17,14 C18.6568542,14 20,15.3431458 20,17 C20,18.6568542 18.6568542,20 17,20 C15.3431458,20 14,18.6568542 14,17 C14,16.8359406 14.0131691,16.674957 14.0385079,16.5180487 L9.16599916,14.0756862 C8.6199581,14.6453344 7.85139735,15 7,15 C5.34314575,15 4,13.6568542 4,12 C4,10.3431458 5.34314575,9 7,9 C7.85139735,9 8.6199581,9.35466564 9.16599916,9.92431384 L14.0385079,7.48195134 C14.0131691,7.32504299 14,7.1640594 14,7 C14,5.34314575 15.3431458,4 17,4 C18.6568542,4 20,5.34314575 20,7 C20,8.65685425 18.6568542,10 17,10 C16.1510666,10 15.384491,9.64738418 14.8387471,9.08062643 L9.96167196,11.519164 C9.98689321,11.6757199 10,11.8363293 10,12 C10,12.1636707 9.98689321,12.3242801 9.96167196,12.480836 L14.8387471,14.9193736 Z M17,8 C17.5522847,8 18,7.55228475 18,7 C18,6.44771525 17.5522847,6 17,6 C16.4477153,6 16,6.44771525 16,7 C16,7.55228475 16.4477153,8 17,8 Z M17,18 C17.5522847,18 18,17.5522847 18,17 C18,16.4477153 17.5522847,16 17,16 C16.4477153,16 16,16.4477153 16,17 C16,17.5522847 16.4477153,18 17,18 Z M7,13 C7.55228475,13 8,12.5522847 8,12 C8,11.4477153 7.55228475,11 7,11 C6.44771525,11 6,11.4477153 6,12 C6,12.5522847 6.44771525,13 7,13 Z" id="Shape"></path>
        </g>
    </g>
</svg>