<?xml version="1.0" encoding="UTF-8"?>
<svg width="14px" height="14px" viewBox="0 0 14 14" version="1.1" xmlns="http://www.w3.org/2000/svg" xmlns:xlink="http://www.w3.org/1999/xlink">
    <!-- Generator: sketchtool 49.2 (51160) - http://www.bohemiancoding.com/sketch -->
    <title>smile-heart</title>
    <desc>Created with sketchtool.</desc>
    <defs></defs>
    <g id="people" stroke="none" stroke-width="1" fill="none" fill-rule="evenodd">
        <g id="smile-heart" fill="#000000">
            <path d="M3.92857143,7.71428571 C4.36250945,7.71428571 4.71428571,7.36250945 4.71428571,6.92857143 C4.71428571,6.49463341 4.36250945,6.14285714 3.92857143,6.14285714 C3.49463341,6.14285714 3.14285714,6.49463341 3.14285714,6.92857143 C3.14285714,7.36250945 3.49463341,7.71428571 3.92857143,7.71428571 Z M7.85714286,9.28571429 C7.85714286,10.5875283 6.80181405,11.6428571 5.5,11.6428571 C4.19818595,11.6428571 3.14285714,10.5875283 3.14285714,9.28571429 L7.85714286,9.28571429 Z M7.07142857,7.71428571 C7.50536659,7.71428571 7.85714286,7.36250945 7.85714286,6.92857143 C7.85714286,6.49463341 7.50536659,6.14285714 7.07142857,6.14285714 C6.63749055,6.14285714 6.28571429,6.49463341 6.28571429,6.92857143 C6.28571429,7.36250945 6.63749055,7.71428571 7.07142857,7.71428571 Z M5.5,13.2142857 C8.10362811,13.2142857 10.2142857,11.1036281 10.2142857,8.5 C10.2142857,5.89637189 8.10362811,3.78571429 5.5,3.78571429 C2.89637189,3.78571429 0.785714286,5.89637189 0.785714286,8.5 C0.785714286,11.1036281 2.89637189,13.2142857 5.5,13.2142857 Z M5.5,14 C2.46243388,14 0,11.5375661 0,8.5 C0,5.46243388 2.46243388,3 5.5,3 C8.53756612,3 11,5.46243388 11,8.5 C11,11.5375661 8.53756612,14 5.5,14 Z M11,5 C11,5 8.56359645,3.75630836 8.07631574,2.01514007 C7.58903503,0.273971785 9.53815787,-0.96971985 11,1.02018677 C12.4618421,-0.970999223 14.410965,0.273971785 13.9236843,2.01514007 C13.4364036,3.75630836 11,5 11,5 Z" id="Shape"></path>
        </g>
    </g>
</svg>