<?xml version="1.0" encoding="UTF-8" standalone="no"?>
<svg width="14px" height="16px" viewBox="0 0 14 16" version="1.1" xmlns="http://www.w3.org/2000/svg" xmlns:xlink="http://www.w3.org/1999/xlink">
    <defs></defs>
    <g id="people" stroke="none" stroke-width="1" fill="none" fill-rule="evenodd">
        <g id="smile-alt" fill="#000000">
            <path d="M5,7 C5.55228475,7 6,6.55228475 6,6 C6,5.44771525 5.55228475,5 5,5 C4.44771525,5 4,5.44771525 4,6 C4,6.55228475 4.44771525,7 5,7 Z M10,9 C10,10.6568542 8.65685425,12 7,12 C5.34314575,12 4,10.6568542 4,9 C4.5869769,9 5,9 5,9 C5,9 5,11 7,11 C9,11 9,9 9,9 C9,9 9.86365024,9 10,9 Z M9,7 C9.55228475,7 10,6.55228475 10,6 C10,5.44771525 9.55228475,5 9,5 C8.44771525,5 8,5.44771525 8,6 C8,6.55228475 8.44771525,7 9,7 Z M7,14 C10.3137085,14 13,11.3137085 13,8 C13,4.6862915 10.3137085,2 7,2 C3.6862915,2 1,4.6862915 1,8 C1,11.3137085 3.6862915,14 7,14 Z M7,15 C3.13400675,15 0,11.8659932 0,8 C0,4.13400675 3.13400675,1 7,1 C10.8659932,1 14,4.13400675 14,8 C14,11.8659932 10.8659932,15 7,15 Z" id="Shape"></path>
        </g>
    </g>
</svg>