<?xml version="1.0" encoding="UTF-8"?>
<svg width="14px" height="14px" viewBox="0 0 14 14" version="1.1" xmlns="http://www.w3.org/2000/svg" xmlns:xlink="http://www.w3.org/1999/xlink">
    <!-- Generator: sketchtool 47.1 (45422) - http://www.bohemiancoding.com/sketch -->
    <title>smile-plus</title>
    <desc>Created with sketchtool.</desc>
    <defs></defs>
    <g id="people" stroke="none" stroke-width="1" fill="none" fill-rule="evenodd">
        <g id="smile-plus" fill="#000000">
            <path d="M3.92857143,7.71428571 C4.36250945,7.71428571 4.71428571,7.36250945 4.71428571,6.92857143 C4.71428571,6.49463341 4.36250945,6.14285714 3.92857143,6.14285714 C3.49463341,6.14285714 3.14285714,6.49463341 3.14285714,6.92857143 C3.14285714,7.36250945 3.49463341,7.71428571 3.92857143,7.71428571 Z M7.85714286,9.28571429 C7.85714286,10.5875283 6.80181405,11.6428571 5.5,11.6428571 C4.19818595,11.6428571 3.14285714,10.5875283 3.14285714,9.28571429 L7.85714286,9.28571429 Z M7.07142857,7.71428571 C7.50536659,7.71428571 7.85714286,7.36250945 7.85714286,6.92857143 C7.85714286,6.49463341 7.50536659,6.14285714 7.07142857,6.14285714 C6.63749055,6.14285714 6.28571429,6.49463341 6.28571429,6.92857143 C6.28571429,7.36250945 6.63749055,7.71428571 7.07142857,7.71428571 Z M5.5,13.2142857 C8.10362811,13.2142857 10.2142857,11.1036281 10.2142857,8.5 C10.2142857,5.89637189 8.10362811,3.78571429 5.5,3.78571429 C2.89637189,3.78571429 0.785714286,5.89637189 0.785714286,8.5 C0.785714286,11.1036281 2.89637189,13.2142857 5.5,13.2142857 Z M5.5,14 C2.46243388,14 0,11.5375661 0,8.5 C0,5.46243388 2.46243388,3 5.5,3 C8.53756612,3 11,5.46243388 11,8.5 C11,11.5375661 8.53756612,14 5.5,14 Z" id="Shape"></path>
            <path d="M12.3333333,1.66666667 L12.3333333,0.833333333 C12.3333333,0.373096042 11.9602373,-8.45442189e-17 11.5,0 C11.0397627,8.45442189e-17 10.6666667,0.373096042 10.6666667,0.833333333 L10.6666667,1.66666667 L9.83333333,1.66666667 C9.37309604,1.66666667 9,2.03976271 9,2.5 C9,2.96023729 9.37309604,3.33333333 9.83333333,3.33333333 L10.6666667,3.33333333 L10.6666667,4.16666667 C10.6666667,4.62690396 11.0397627,5 11.5,5 C11.9602373,5 12.3333333,4.62690396 12.3333333,4.16666667 L12.3333333,3.33333333 L13.1666667,3.33333333 C13.626904,3.33333333 14,2.96023729 14,2.5 C14,2.03976271 13.626904,1.66666667 13.1666667,1.66666667 L12.3333333,1.66666667 Z" id="Combined-Shape"></path>
        </g>
    </g>
</svg>