<?xml version="1.0" encoding="UTF-8" standalone="no"?>
<svg width="8px" height="16px" viewBox="0 0 8 16" version="1.1" xmlns="http://www.w3.org/2000/svg" xmlns:xlink="http://www.w3.org/1999/xlink">
    <defs></defs>
    <g id="devices" stroke="none" stroke-width="1" fill="none" fill-rule="evenodd">
        <g id="speaker" fill="#000000">
            <path d="M-5.72875081e-14,2 C-5.72875081e-14,2 -5.72875081e-14,1 1,1 C1,1 7,1 7,1 C8,1 8,2 8,2 L8,14 C8,14 8,15 7,15 C7,15 1,15 1,15 C-5.72875081e-14,15 -5.72875081e-14,14 -5.72875081e-14,14 L-5.72875081e-14,2 Z M4,9 C5.65685425,9 7,7.65685425 7,6 C7,4.34314575 5.65685425,3 4,3 C2.34314575,3 1,4.34314575 1,6 C1,7.65685425 2.34314575,9 4,9 Z M4,8 C5.1045695,8 6,7.1045695 6,6 C6,4.8954305 5.1045695,4 4,4 C2.8954305,4 2,4.8954305 2,6 C2,7.1045695 2.8954305,8 4,8 Z M4,13 C4.55228475,13 5,12.5522847 5,12 C5,11.4477153 4.55228475,11 4,11 C3.44771525,11 3,11.4477153 3,12 C3,12.5522847 3.44771525,13 4,13 Z" id="Shape"></path>
        </g>
    </g>
</svg>