<?xml version="1.0" encoding="UTF-8"?>
<svg width="12px" height="12px" viewBox="0 0 12 12" version="1.1" xmlns="http://www.w3.org/2000/svg" xmlns:xlink="http://www.w3.org/1999/xlink">
    <!-- Generator: sketchtool 46.2 (44496) - http://www.bohemiancoding.com/sketch -->
    <title>subtract</title>
    <desc>Created with sketchtool.</desc>
    <defs></defs>
    <g id="production" stroke="none" stroke-width="1" fill="none" fill-rule="evenodd">
        <g id="subtract" fill="#000000">
            <path d="M4,4 L0.997030139,4 C0.453036308,4 0,4.4463856 0,4.99703014 L0,11.0029699 C0,11.5469637 0.446385598,12 0.997030139,12 L7.00296986,12 C7.54696369,12 8,11.5536144 8,11.0029699 L8,8 L11.0029699,8 C11.5469637,8 12,7.5536144 12,7.00296986 L12,0.997030139 C12,0.453036308 11.5536144,0 11.0029699,0 L4.99703014,0 C4.45303631,0 4,0.446385598 4,0.997030139 L4,4 Z M1,5 L7,5 L7,11 L1,11 L1,5 Z" id="Shape"></path>
        </g>
    </g>
</svg>