<?xml version="1.0" encoding="UTF-8"?>
<svg width="14px" height="14px" viewBox="0 0 14 14" version="1.1" xmlns="http://www.w3.org/2000/svg" xmlns:xlink="http://www.w3.org/1999/xlink">
    <!-- Generator: sketchtool 46.2 (44496) - http://www.bohemiancoding.com/sketch -->
    <title>sunny-o</title>
    <desc>Created with sketchtool.</desc>
    <defs></defs>
    <g id="weather" stroke="none" stroke-width="1" fill="none" fill-rule="evenodd">
        <g id="sunny-o" fill="#000000">
            <path d="M8,11.8999819 L7,14 L6,11.8999819 C5.36162534,11.7703987 4.7674156,11.5191928 4.2426101,11.1716035 L2.05025253,11.9497475 L2.82839654,9.7573899 C2.48080724,9.2325844 2.22960133,8.63837466 2.10001812,8 L0,7 L2.10001812,6 C2.22960133,5.36162534 2.48080724,4.7674156 2.82839654,4.2426101 L2.05025253,2.05025253 L4.2426101,2.82839654 C4.7674156,2.48080724 5.36162534,2.22960133 6,2.10001812 L7,0 L8,2.10001812 C8.63837466,2.22960133 9.2325844,2.48080724 9.7573899,2.82839654 L11.9497475,2.05025253 L11.1716035,4.2426101 C11.5191928,4.7674156 11.7703987,5.36162534 11.8999819,6 L14,7 L11.8999819,8 C11.7703987,8.63837466 11.5191928,9.2325844 11.1716035,9.7573899 L11.9497475,11.9497475 L9.7573899,11.1716035 C9.2325844,11.5191928 8.63837466,11.7703987 8,11.8999819 Z M7,11 C9.209139,11 11,9.209139 11,7 C11,4.790861 9.209139,3 7,3 C4.790861,3 3,4.790861 3,7 C3,9.209139 4.790861,11 7,11 Z" id="Shape"></path>
        </g>
    </g>
</svg>