<?xml version="1.0" encoding="UTF-8"?>
<svg width="12px" height="12px" viewBox="0 0 12 12" version="1.1" xmlns="http://www.w3.org/2000/svg" xmlns:xlink="http://www.w3.org/1999/xlink">
    <!-- Generator: sketchtool 47.1 (45422) - http://www.bohemiancoding.com/sketch -->
    <title>sync</title>
    <desc>Created with sketchtool.</desc>
    <defs></defs>
    <g id="web-app" stroke="none" stroke-width="1" fill="none" fill-rule="evenodd">
        <g id="sync" fill="#000000">
            <path d="M8.29043345,9.29043351 C9.10333701,8.68246184 10,7.64011858 10,6 C10,3 7,2 7,2 L7,0 C7,0 12,1 12,6 C12,8.35533679 10.8904777,9.82305576 9.71675262,10.7167527 L11,12.0000002 L7,12 L7,8 L8.29043345,9.29043351 L8.29043345,9.29043351 Z M3.70956655,2.70956666 C2.89666299,3.31753833 2,4.35988159 2,6.00000017 C2,9.00000017 5,10.0000002 5,10.0000002 L5,12.0000002 C5,12.0000002 0,11.0000002 0,6.00000017 C0,3.64466338 1.10952228,2.17694441 2.28324738,1.28324743 L1,0 L5,1.70652186e-07 L5,4.00000017 L3.70956655,2.70956666 L3.70956655,2.70956666 Z" id="Shape"></path>
        </g>
    </g>
</svg>