<?xml version="1.0" encoding="UTF-8" standalone="no"?>
<svg width="12px" height="16px" viewBox="0 0 12 16" version="1.1" xmlns="http://www.w3.org/2000/svg" xmlns:xlink="http://www.w3.org/1999/xlink">
    <defs></defs>
    <g id="web-app" stroke="none" stroke-width="1" fill="none" fill-rule="evenodd">
        <g id="sync" fill="#000000">
            <path d="M8.29043345,11.2904335 C9.10333701,10.6824618 10,9.64011858 10,8 C10,5 7,4 7,4 L7,2 C7,2 12,3 12,8 C12,10.3553368 10.8904777,11.8230558 9.71675262,12.7167527 L11,14.0000002 L7,14 L7,10 L8.29043345,11.2904335 L8.29043345,11.2904335 Z M3.70956655,4.70956666 C2.89666299,5.31753833 2,6.35988159 2,8.00000017 C2,11.0000002 5,12.0000002 5,12.0000002 L5,14.0000002 C5,14.0000002 0,13.0000002 0,8.00000017 C0,5.64466338 1.10952228,4.17694441 2.28324738,3.28324743 L1,2 L5,2.00000017 L5,6.00000017 L3.70956655,4.70956666 L3.70956655,4.70956666 Z" id="Shape"></path>
        </g>
    </g>
</svg>