<?xml version="1.0" encoding="UTF-8" standalone="no"?>
<svg width="14px" height="16px" viewBox="0 0 14 16" version="1.1" xmlns="http://www.w3.org/2000/svg" xmlns:xlink="http://www.w3.org/1999/xlink">
    <defs></defs>
    <g id="text-edit" stroke="none" stroke-width="1" fill="none" fill-rule="evenodd">
        <g id="table" fill="#000000">
            <path d="M0,3.99539757 C0,3.44565467 0.449948758,3 1.00684547,3 L12.9931545,3 C13.5492199,3 14,3.4556644 14,3.99539757 L14,12.0046024 C14,12.5543453 13.5500512,13 12.9931545,13 L1.00684547,13 C0.450780073,13 0,12.5443356 0,12.0046024 L0,3.99539757 Z M1,12 C1,11.9898985 12.9931545,11.9954002 12.9931545,11.9954002 C12.9998968,11.9954002 13,3.99539757 13,3.99539757 C13,4.00549907 1.00684547,3.99999736 1.00684547,3.99999736 C1.00010318,3.99999736 1,12 1,12 Z M2,5 L5,5 L5,7 L2,7 L2,5 Z M2,8 L5,8 L5,9 L2,9 L2,8 Z M2,10 L5,10 L5,11 L2,11 L2,10 Z M6,5 L12,5 L12,7 L6,7 L6,5 Z M6,8 L12,8 L12,9 L6,9 L6,8 Z M6,10 L12,10 L12,11 L6,11 L6,10 Z" id="Shape"></path>
        </g>
    </g>
</svg>