<?xml version="1.0" encoding="UTF-8"?>
<svg width="24px" height="24px" viewBox="0 0 24 24" version="1.1" xmlns="http://www.w3.org/2000/svg" xmlns:xlink="http://www.w3.org/1999/xlink">
    <!-- Generator: sketchtool 50.2 (55047) - http://www.bohemiancoding.com/sketch -->
    <title>table</title>
    <desc>Created with sketchtool.</desc>
    <defs></defs>
    <g id="text-edit" stroke="none" stroke-width="1" fill="none" fill-rule="evenodd">
        <g id="table" fill="#000000" fill-rule="nonzero">
            <path d="M4,4 L20,4 C21.1045695,4 22,4.8954305 22,6 L22,18 C22,19.1045695 21.1045695,20 20,20 L4,20 C2.8954305,20 2,19.1045695 2,18 L2,6 C2,4.8954305 2.8954305,4 4,4 Z M13,14 L13,18 L20,18 L20,14 L13,14 Z M4,14 L4,18 L11,18 L11,14 L4,14 Z M13,8 L13,12 L20,12 L20,8 L13,8 Z M4,8 L4,12 L11,12 L11,8 L4,8 Z" id="Shape"></path>
        </g>
    </g>
</svg>