<?xml version="1.0" encoding="UTF-8" standalone="no"?>
<svg width="16px" height="16px" viewBox="0 0 16 16" version="1.1" xmlns="http://www.w3.org/2000/svg" xmlns:xlink="http://www.w3.org/1999/xlink">
    <defs></defs>
    <g id="production" stroke="none" stroke-width="1" fill="none" fill-rule="evenodd">
        <g id="terminal" fill="#000000">
            <path d="M2.16564822e-11,13 C2.16564822e-11,13 7.0334405e-11,3 2.16564822e-11,3.00000005 C7.0334405e-11,2 0.999289274,2 1,2 C1.00071073,2 15,2 15,2 C15,2 16,2 16,3.00000005 L16,13 C16,14 15,14 15,14 L1,14 C1,14 7.39587963e-09,14 2.16564822e-11,13 Z M2,5 L3,4 L6,7 L3,10 L2,9 L3.9999826,7 L2,5 Z M6,10 L11,10 L11,12 L6,12 L6,10 Z" id="Shape"></path>
        </g>
    </g>
</svg>