<?xml version="1.0" encoding="UTF-8" standalone="no"?>
<svg width="16px" height="16px" viewBox="0 0 16 16" version="1.1" xmlns="http://www.w3.org/2000/svg" xmlns:xlink="http://www.w3.org/1999/xlink">
    <defs></defs>
    <g id="text-edit" stroke="none" stroke-width="1" fill="none" fill-rule="evenodd">
        <g id="text-size" fill="#000000">
            <path d="M9.41104816,11.8206915 L5.90284479,3 L3.97724299,3 L0,13 L1.46345737,13 C1.62217443,13 1.7563817,12.9562015 1.8660832,12.868603 C1.9757847,12.7810046 2.04930694,12.6841868 2.08665213,12.5781466 L2.84288848,10.538036 L7.03719931,10.538036 L7.79343565,12.5781466 C7.84011714,12.6980181 7.91597342,12.7982937 8.02100677,12.8789765 C8.12604013,12.9596592 8.26024739,13 8.42363261,13 L9.88008779,13 L9.87930188,12.998024 L9.98812113,12.998024 C10.1014905,12.998024 10.1973528,12.9667393 10.275711,12.904169 C10.3540692,12.8415987 10.4065851,12.7724431 10.4332602,12.6967001 L10.9734291,11.2394783 L13.9693654,11.2394783 L14.5095342,12.6967001 C14.5428781,12.7823226 14.5970612,12.8539481 14.672085,12.9115786 C14.7471088,12.9692092 14.8429711,12.998024 14.9596749,12.998024 L16,12.998024 L13.1591121,5.85516685 L11.7836823,5.85516685 L9.41104816,11.8206915 L9.41104816,11.8206915 Z M11.3185369,10.3009286 L13.6242575,10.3009286 C13.6242575,10.3009286 12.5155779,7.25311276 12.4688964,7.08516092 C12.4222149,7.25311276 11.3185369,10.3009286 11.3185369,10.3009286 Z M3.32603947,9.22406639 L6.55404831,9.22406639 C6.55404831,9.22406639 5.00189688,4.95712427 4.9365428,4.7219917 C4.87118871,4.95712427 3.32603947,9.22406639 3.32603947,9.22406639 Z" id="Shape"></path>
        </g>
    </g>
</svg>