<?xml version="1.0" encoding="UTF-8" standalone="no"?>
<svg width="16px" height="16px" viewBox="0 0 16 16" version="1.1" xmlns="http://www.w3.org/2000/svg" xmlns:xlink="http://www.w3.org/1999/xlink">
    <defs></defs>
    <g id="event" stroke="none" stroke-width="1" fill="none" fill-rule="evenodd">
        <g id="ticket" fill="#000000">
            <path d="M1,10 C1,10 2.99552321,10 2.99552321,8 C2.99552321,6 1,6 1,6 L1,4 L15.9955232,4 L15.9955232,6 C15.9955232,6 13.9955232,6 13.9955232,8 C13.9955232,10 15.9955232,10 15.9955232,10 L15.9955232,12 L1,12 L1,10 Z M3.9955232,5 L12.9955232,5 L12.9955232,11 L3.9955232,11 L3.9955232,5 Z M4.9955232,6 L11.9955232,6 L11.9955232,10 L4.9955232,10 L4.9955232,6 Z" id="Shape" transform="translate(8.497762, 8.000000) scale(-1, 1) translate(-8.497762, -8.000000) "></path>
        </g>
    </g>
</svg>