<?xml version="1.0" encoding="UTF-8" standalone="no"?>
<svg width="16px" height="16px" viewBox="0 0 16 16" version="1.1" xmlns="http://www.w3.org/2000/svg" xmlns:xlink="http://www.w3.org/1999/xlink">
    <defs></defs>
    <g id="event" stroke="none" stroke-width="1" fill="none" fill-rule="evenodd">
        <g id="ticket" fill="#000000">
            <path d="M15.9955,10 C15.9955,10 13.9995,10 13.9995,8 C13.9995,6 15.9955,6 15.9955,6 L15.9955,4 L0.9995,4 L0.9995,6 C0.9995,6 2.9995,6 2.9995,8 C2.9995,10 0.9995,10 0.9995,10 L0.9995,12 L15.9955,12 L15.9955,10 Z M3.9995,11 L12.9995,11 L12.9995,5 L3.9995,5 L3.9995,11 Z M4.9995,10 L11.9995,10 L11.9995,6 L4.9995,6 L4.9995,10 Z" id="Shape"></path>
        </g>
    </g>
</svg>