<?xml version="1.0" encoding="UTF-8"?>
<svg width="15px" height="8px" viewBox="0 0 15 8" version="1.1" xmlns="http://www.w3.org/2000/svg" xmlns:xlink="http://www.w3.org/1999/xlink">
    <defs></defs>
    <g id="event" stroke="none" stroke-width="1" fill="none" fill-rule="evenodd">
        <g id="ticket" fill="#000000">
            <path d="M14.9955,6 C14.9955,6 12.9995,6 12.9995,4 C12.9995,2 14.9955,2 14.9955,2 L14.9955,0 L-0.0005,0 L-0.0005,2 C-0.0005,2 1.9995,2 1.9995,4 C1.9995,6 -0.0005,6 -0.0005,6 L-0.0005,8 L14.9955,8 L14.9955,6 Z M2.9995,7 L11.9995,7 L11.9995,1 L2.9995,1 L2.9995,7 Z M3.9995,6 L10.9995,6 L10.9995,2 L3.9995,2 L3.9995,6 Z" id="Shape"></path>
        </g>
    </g>
</svg>