<?xml version="1.0" encoding="UTF-8" standalone="no"?>
<svg width="15px" height="16px" viewBox="0 0 15 16" version="1.1" xmlns="http://www.w3.org/2000/svg" xmlns:xlink="http://www.w3.org/1999/xlink">
    <defs></defs>
    <g id="event" stroke="none" stroke-width="1" fill="none" fill-rule="evenodd">
        <g id="ticket" fill="#000000">
            <path d="M14.9955,10 C14.9955,10 12.9995,10 12.9995,8 C12.9995,6 14.9955,6 14.9955,6 L14.9955,4 L-0.0005,4 L-0.0005,6 C-0.0005,6 1.9995,6 1.9995,8 C1.9995,10 -0.0005,10 -0.0005,10 L-0.0005,12 L14.9955,12 L14.9955,10 Z M2.9995,11 L11.9995,11 L11.9995,5 L2.9995,5 L2.9995,11 Z M3.9995,10 L10.9995,10 L10.9995,6 L3.9995,6 L3.9995,10 Z" id="Shape"></path>
        </g>
    </g>
</svg>