<?xml version="1.0" encoding="UTF-8" standalone="no"?>
<svg width="14px" height="16px" viewBox="0 0 14 16" version="1.1" xmlns="http://www.w3.org/2000/svg" xmlns:xlink="http://www.w3.org/1999/xlink">
    <defs></defs>
    <g id="people" stroke="none" stroke-width="1" fill="none" fill-rule="evenodd">
        <g id="tired" fill="#000000">
            <path d="M7,14 C10.3137085,14 13,11.3137085 13,8 C13,4.6862915 10.3137085,2 7,2 C3.6862915,2 1,4.6862915 1,8 C1,11.3137085 3.6862915,14 7,14 Z M7,15 C3.13400675,15 0,11.8659932 0,8 C0,4.13400675 3.13400675,1 7,1 C10.8659932,1 14,4.13400675 14,8 C14,11.8659932 10.8659932,15 7,15 Z M7,13 C8.1045695,13 9,12.1045695 9,11 C9,9.8954305 8.1045695,9 7,9 C5.8954305,9 5,9.8954305 5,11 C5,12.1045695 5.8954305,13 7,13 Z M3,5.5 L3.5,5 L4.5,6 L5.5,5 L6,5.5 L5,6.5 L6,7.5 L5.5,8 L4.5,7 L3.5,8 L3,7.5 L4,6.5 L3,5.5 Z M8,5.5 L8.5,5 L9.5,6 L10.5,5 L11,5.5 L10,6.5 L11,7.5 L10.5,8 L9.5,7 L8.5,8 L8,7.5 L9,6.5 L8,5.5 Z" id="Shape"></path>
        </g>
    </g>
</svg>