<?xml version="1.0" encoding="UTF-8"?>
<svg width="14px" height="14px" viewBox="0 0 14 14" version="1.1" xmlns="http://www.w3.org/2000/svg" xmlns:xlink="http://www.w3.org/1999/xlink">
    <!-- Generator: sketchtool 49.2 (51160) - http://www.bohemiancoding.com/sketch -->
    <title>train</title>
    <desc>Created with sketchtool.</desc>
    <defs></defs>
    <g id="vehicles" stroke="none" stroke-width="1" fill="none" fill-rule="evenodd">
        <g id="train" fill="#000000">
            <path d="M3,12 C1.8954305,12 1,11.1045695 1,10 L1,2 C1,0.8954305 1.8954305,2.02906125e-16 3,0 L11,0 C12.1045695,-2.02906125e-16 13,0.8954305 13,2 L13,10 C13,11.1045695 12.1045695,12 11,12 L12,13 L12,14 L9,14 L9,12 L5,12 L5,14 L2,14 L2,13 L3,12 Z M3,10 C3.55228475,10 4,9.55228475 4,9 C4,8.44771525 3.55228475,8 3,8 C2.44771525,8 2,8.44771525 2,9 C2,9.55228475 2.44771525,10 3,10 Z M11,10 C11.5522847,10 12,9.55228475 12,9 C12,8.44771525 11.5522847,8 11,8 C10.4477153,8 10,8.44771525 10,9 C10,9.55228475 10.4477153,10 11,10 Z M3,2 L3,7 L11,7 L11,2 L3,2 Z" id="Shape"></path>
        </g>
    </g>
</svg>