<?xml version="1.0" encoding="UTF-8" standalone="no"?>
<svg width="11px" height="16px" viewBox="0 0 11 16" version="1.1" xmlns="http://www.w3.org/2000/svg" xmlns:xlink="http://www.w3.org/1999/xlink">
    <defs></defs>
    <g id="web-app" stroke="none" stroke-width="1" fill="none" fill-rule="evenodd">
        <g id="trash" fill="#000000">
            <path d="M1,14 L1,5.49717691 C1,5.49717691 1,4.99929334 1.5,5 C2,5.00070666 2,5.5 2,5.5 L2,14 L9,14 L9,5.5 C9,5.5 9,4.99999998 9.5,4.99999998 C10,4.99999998 10,5.5 10,5.5 L10,14 C10,14 10,15 9,15 C9,15 2,15 2,15 C1,15 1,14 1,14 Z M3,12.5 L3,5.5 C3,5.5 3,5 3.5,5 C4,5 4,5.5 4,5.5 L4,12.5 C4,12.5 4,13 3.5,13 C3,13 3,12.5 3,12.5 Z M5,12.5 L5,5.5 C5,5.5 5,5 5.5,5 C6,5 6,5.5 6,5.5 L6,12.5 C6,12.5 6,13 5.5,13 C5,13 5,12.5 5,12.5 Z M7,12.5 L7,5.5 C7,5.5 7,5 7.5,5 C8,5 8,5.5 8,5.5 L8,12.5 C8,12.5 8,13 7.5,13 C7,13 7,12.5 7,12.5 Z M7,2 L7,0.998956561 C7,0.442660332 6.55275191,0 6.00104344,0 L4.99895656,0 C4.44266033,0 4,0.447248087 4,0.998956561 L4,2 L0.995577499,2 C0.444836974,2 0,2.44771525 0,3 C0,3.55613518 0.445735229,4 0.995577499,4 L10.0044225,4 C10.555163,4 11,3.55228475 11,3 C11,2.44386482 10.5542648,2 10.0044225,2 L7,2 L7,2 Z" id="Shape"></path>
        </g>
    </g>
</svg>