<?xml version="1.0" encoding="UTF-8" standalone="no"?>
<svg width="12px" height="16px" viewBox="0 0 12 16" version="1.1" xmlns="http://www.w3.org/2000/svg" xmlns:xlink="http://www.w3.org/1999/xlink">
    <defs></defs>
    <g id="web-app" stroke="none" stroke-width="1" fill="none" fill-rule="evenodd">
        <g id="unlock" fill="#000000">
            <path d="M1.00247329,7 C0.455760956,7 0,7.4463856 0,7.99703014 L0,14.0029699 C0,14.5469637 0.448822582,15 1.00247329,15 L10.9975267,15 C11.544239,15 12,14.5536144 12,14.0029699 L12,7.99703014 C12,7.45303631 11.5511774,7 10.9975267,7 L9.99406045,7 L4,7 L4,5 C4,5 3.75,3 6,3 C8.25,3 8,5 8,5 L10,5 C9.99406052,1 7,1 6,1 C5,1 2,0.999999995 2,5 C2.00564456,5 2.00564456,7 2.00564456,7 L1.00247329,7 Z M2,9 L3,9 L3,13 L2,13 L2,9 Z" id="Shape"></path>
        </g>
    </g>
</svg>