<?xml version="1.0" encoding="UTF-8" standalone="no"?>
<svg width="8px" height="16px" viewBox="0 0 8 16" version="1.1" xmlns="http://www.w3.org/2000/svg" xmlns:xlink="http://www.w3.org/1999/xlink">
    <defs></defs>
    <g id="devices" stroke="none" stroke-width="1" fill="none" fill-rule="evenodd">
        <g id="usb" fill="#000000">
            <path d="M5.22779617e-14,6 C5.22779617e-14,6 2.17486074e-09,15 -1.63720459e-09,15 C2.17486078e-09,16 1,16 1,16 L7,16 C7,16 8,16 8,15 L8,6 C8,5 7,5 7,5 L7,1 C7,-5.67879077e-14 6,-5.67879077e-14 6,-5.67879077e-14 L2,1.03860989e-09 C2,1.03860989e-09 1,1.03860992e-09 1,1 L1,5 C1,5 5.22779617e-14,5 5.22779617e-14,6 Z M5,6 L6,6 L6,11 L5,11 L5,6 Z M2,1 L6,1 L6,5 L2,5 L2,1 Z" id="Shape"></path>
        </g>
    </g>
</svg>