<?xml version="1.0" encoding="UTF-8"?>
<svg width="8px" height="14px" viewBox="0 0 8 14" version="1.1" xmlns="http://www.w3.org/2000/svg" xmlns:xlink="http://www.w3.org/1999/xlink">
    <!-- Generator: sketchtool 46.2 (44496) - http://www.bohemiancoding.com/sketch -->
    <title>usb</title>
    <desc>Created with sketchtool.</desc>
    <defs></defs>
    <g id="devices" stroke="none" stroke-width="1" fill="none" fill-rule="evenodd">
        <g id="usb" fill="#000000">
            <path d="M5.77315973e-14,5 C5.77315973e-14,5 2.17486162e-09,13 -1.63720371e-09,13 C2.17486167e-09,14 1,14 1,14 L7,14 C7,14 8,14 8,13 L8,5 C8,4 7,4 7,4 L7,1 C7,-5.67879077e-14 6,-5.67879077e-14 6,-5.67879077e-14 L2,1.03860989e-09 C2,1.03860989e-09 1,1.03860992e-09 1,1 L1,4 C1,4 5.77315973e-14,4 5.77315973e-14,5 Z M5,6 L6,6 L6,11 L5,11 L5,6 Z M2,1 L6,1 L6,4 L2,4 L2,1 Z" id="Shape"></path>
        </g>
    </g>
</svg>