<?xml version="1.0" encoding="UTF-8" standalone="no"?>
<svg width="16px" height="16px" viewBox="0 0 16 16" version="1.1" xmlns="http://www.w3.org/2000/svg" xmlns:xlink="http://www.w3.org/1999/xlink">
    <defs></defs>
    <g id="web-app" stroke="none" stroke-width="1" fill="none" fill-rule="evenodd">
        <g id="user-plus" fill="#000000">
            <path d="M3.00150283,15 C4.65752708,15 7.35218185,15 9.0063263,15 C9.0063263,15 7.78599037,15 12,15 C12,14.5936601 12,13.8825073 11.8400002,13 L10,13 L10,10 L7,10 L7,8.06482329 C7,8.06482329 6.36476374,8 5.99999999,8 C1.99999999,8 0,10.625 0,15 C5.65678055,15 3.00150283,15 3.00150283,15 Z M11,7 L8,7 L8,9 L11,9 L11,12 L13,12 L13,9 L16,9 L16,7 L13,7 L13,4 L11,4 L11,7 Z M5.99999999,7 C7.65685424,7 8.99999999,5.65685425 8.99999999,4 C8.99999999,2.34314575 7.65685424,1 5.99999999,1 C4.34314574,1 2.99999999,2.34314575 2.99999999,4 C2.99999999,5.65685425 4.34314574,7 5.99999999,7 Z" id="Shape"></path>
        </g>
    </g>
</svg>