<?xml version="1.0" encoding="UTF-8" standalone="no"?>
<svg width="16px" height="16px" viewBox="0 0 16 16" version="1.1" xmlns="http://www.w3.org/2000/svg" xmlns:xlink="http://www.w3.org/1999/xlink">
    <defs></defs>
    <g id="web-app" stroke="none" stroke-width="1" fill="none" fill-rule="evenodd">
        <g id="user-plus" fill="#000000">
            <path d="M5.99999999,7 C7.65685424,7 8.99999999,5.65685425 8.99999999,4 C8.99999999,2.34314575 7.65685424,1 5.99999999,1 C4.34314574,1 2.99999999,2.34314575 2.99999999,4 C2.99999999,5.65685425 4.34314574,7 5.99999999,7 Z M3.00150283,14 C4.65752708,14 7.35218185,14 9.0063263,14 C9.0063263,14 7.78599037,14 12,14 C12,10.25 9.99999999,8 5.99999999,8 C1.99999999,8 0,10.25 0,14 C5.65678055,14 3.00150283,14 3.00150283,14 Z M13,6 L13,4 L12,4 L12,6 L10,6 L10,7 L12,7 L12,9 L13,9 L13,7 L15,7 L15,6 L13,6 Z" id="Shape"></path>
        </g>
    </g>
</svg>