<?xml version="1.0" encoding="UTF-8" standalone="no"?>
<svg width="12px" height="16px" viewBox="0 0 12 16" version="1.1" xmlns="http://www.w3.org/2000/svg" xmlns:xlink="http://www.w3.org/1999/xlink">
    <defs></defs>
    <g id="web-app" stroke="none" stroke-width="1" fill="none" fill-rule="evenodd">
        <g id="user" fill="#000000">
            <path d="M5.99999999,8 C7.65685424,8 8.99999999,6.65685425 8.99999999,5 C8.99999999,3.34314575 7.65685424,2 5.99999999,2 C4.34314574,2 2.99999999,3.34314575 2.99999999,5 C2.99999999,6.65685425 4.34314574,8 5.99999999,8 Z M3.00150283,15 C4.65752708,15 7.35218185,15 9.0063263,15 C9.0063263,15 7.78599037,15 12,15 C12,11.25 9.99999999,9 5.99999999,9 C1.99999999,9 0,11.25 0,15 C5.65678055,15 3.00150283,15 3.00150283,15 Z" id="Shape"></path>
        </g>
    </g>
</svg>