<?xml version="1.0" encoding="UTF-8" standalone="no"?>
<svg width="14px" height="16px" viewBox="0 0 14 16" version="1.1" xmlns="http://www.w3.org/2000/svg" xmlns:xlink="http://www.w3.org/1999/xlink">
    <defs></defs>
    <g id="web-app" stroke="none" stroke-width="1" fill="none" fill-rule="evenodd">
        <g id="user-plus" fill="#000000">
            <path d="M12.5,7.5 L12.5,6 L11.5,6 L11.5,7.5 L10,7.5 L10,8.5 L11.5,8.5 L11.5,10 L12.5,10 L12.5,8.5 L14,8.5 L14,7.5 L12.5,7.5 Z M6,10 C3.69493669,10 1.59226948,10.8665607 -2.87059265e-11,12.2916805 L-1.02140518e-14,12.9970707 C-1.02140518e-14,13.5621186 0.448822582,14 1.00247329,14 L10.9975267,14 C11.544239,14 12,13.5509732 12,12.9970707 L12,12.2916805 C10.4077305,10.8665607 8.30506331,10 6,10 Z M5.99999999,8 C7.65685424,8 8.99999999,6.65685425 8.99999999,5 C8.99999999,3.34314575 7.65685424,2 5.99999999,2 C4.34314574,2 2.99999999,3.34314575 2.99999999,5 C2.99999999,6.65685425 4.34314574,8 5.99999999,8 Z" id="Shape"></path>
        </g>
    </g>
</svg>