<?xml version="1.0" encoding="UTF-8" standalone="no"?>
<svg width="14px" height="16px" viewBox="0 0 14 16" version="1.1" xmlns="http://www.w3.org/2000/svg" xmlns:xlink="http://www.w3.org/1999/xlink">
    <defs></defs>
    <g id="web-app" stroke="none" stroke-width="1" fill="none" fill-rule="evenodd">
        <g id="users" fill="#000000">
            <path d="M6.37464785,11 L6.00421754,11 L2.00100189,11 C2.00100189,11 3.77118704,11 0,11 C0,8.5 1.33333333,7 4,7 C6.06705328,7 7.33297357,7.90127461 7.79776088,9.47095099 C8.38699503,9.16295125 9.12107474,9 10,9 C12.6666667,9 14,10.5 14,13 L12.0042175,13 L8.00100189,13 C8.00100189,13 9.77118704,13 6,13 C6,12.2348939 6.12488262,11.5634499 6.37464785,11 L6.37464785,11 Z M10,8 C11.1045695,8 12,7.1045695 12,6 C12,4.8954305 11.1045695,4 10,4 C8.8954305,4 8,4.8954305 8,6 C8,7.1045695 8.8954305,8 10,8 Z M4,6 C5.1045695,6 6,5.1045695 6,4 C6,2.8954305 5.1045695,2 4,2 C2.8954305,2 2,2.8954305 2,4 C2,5.1045695 2.8954305,6 4,6 Z" id="Shape"></path>
        </g>
    </g>
</svg>