<?xml version="1.0" encoding="UTF-8" standalone="no"?>
<svg width="14px" height="16px" viewBox="0 0 14 16" version="1.1" xmlns="http://www.w3.org/2000/svg" xmlns:xlink="http://www.w3.org/1999/xlink">
    <defs></defs>
    <g id="web-app" stroke="none" stroke-width="1" fill="none" fill-rule="evenodd">
        <g id="users" fill="#000000">
            <path d="M6.99951255,11 L0.997030139,11 C0.446385598,11 1.44328993e-15,10.5573397 1.44328993e-15,10.0010434 L-3.52429197e-12,9.99951255 C0.912228791,8.7853431 2.36440104,8 4,8 C5.63559896,8 7.08777121,8.7853431 8,9.99951255 L8,10.0010434 C8,10.170175 7.95742419,10.3294895 7.8827041,10.4691111 C8.52565127,10.1681434 9.24318963,10 10,10 C11.635599,10 13.0877712,10.7853431 14,11.9995125 L14,12.0010434 C14,12.5527519 13.5469637,13 13.0029699,13 L6.99703014,13 C6.4463856,13 6,12.5573397 6,12.0010434 L6,11.9995125 C6.28431827,11.6210871 6.62108713,11.2843183 6.99951255,11 L6.99951255,11 Z M10,9 C11.1045695,9 12,8.1045695 12,7 C12,5.8954305 11.1045695,5 10,5 C8.8954305,5 8,5.8954305 8,7 C8,8.1045695 8.8954305,9 10,9 Z M4,7 C5.1045695,7 6,6.1045695 6,5 C6,3.8954305 5.1045695,3 4,3 C2.8954305,3 2,3.8954305 2,5 C2,6.1045695 2.8954305,7 4,7 Z" id="Shape"></path>
        </g>
    </g>
</svg>