<?xml version="1.0" encoding="UTF-8"?>
<svg width="12px" height="12px" viewBox="0 0 12 12" version="1.1" xmlns="http://www.w3.org/2000/svg" xmlns:xlink="http://www.w3.org/1999/xlink">
    <defs></defs>
    <g id="web-app" stroke="none" stroke-width="1" fill="none" fill-rule="evenodd">
        <g id="user" fill="#000000">
            <path d="M6,8 C8.30506331,8 10.4077305,8.86656071 12,10.2916805 L12,10.9970707 C12,11.5509732 11.544239,12 10.9975267,12 L1.00247329,12 C0.448822582,12 -1.02140518e-14,11.5621186 -1.02140518e-14,10.9970707 L-2.87059265e-11,10.2916805 C1.59226948,8.86656071 3.69493669,8 6,8 Z M5.99999999,6 C4.34314574,6 2.99999999,4.65685425 2.99999999,3 C2.99999999,1.34314575 4.34314574,4.4408921e-16 5.99999999,4.4408921e-16 C7.65685424,4.4408921e-16 8.99999999,1.34314575 8.99999999,3 C8.99999999,4.65685425 7.65685424,6 5.99999999,6 Z" id="Shape"></path>
        </g>
    </g>
</svg>