<?xml version="1.0" encoding="UTF-8"?>
<svg width="14px" height="12px" viewBox="0 0 14 12" version="1.1" xmlns="http://www.w3.org/2000/svg" xmlns:xlink="http://www.w3.org/1999/xlink">
    <!-- Generator: sketchtool 46.2 (44496) - http://www.bohemiancoding.com/sketch -->
    <title>user-plus</title>
    <desc>Created with sketchtool.</desc>
    <defs></defs>
    <g id="web-app" stroke="none" stroke-width="1" fill="none" fill-rule="evenodd">
        <g id="user-plus" fill="#000000">
            <path d="M12.5,5.5 L14,5.5 L14,6.5 L12.5,6.5 L12.5,8 L11.5,8 L11.5,6.5 L10,6.5 L10,5.5 L11.5,5.5 L11.5,4 L12.5,4 L12.5,5.5 Z M5.99999999,6 C4.34314574,6 2.99999999,4.65685425 2.99999999,3 C2.99999999,1.34314575 4.34314574,0 5.99999999,0 C7.65685424,0 8.99999999,1.34314575 8.99999999,3 C8.99999999,4.65685425 7.65685424,6 5.99999999,6 Z M6,8 C9,8 12,9.78999996 12,11 L12,11.9970707 L0.00247329476,12 L0,11 C0.00247329476,9.78525148 3,8 6,8 Z" id="Shape"></path>
        </g>
    </g>
</svg>