<?xml version="1.0" encoding="UTF-8" standalone="no"?>
<svg width="16px" height="16px" viewBox="0 0 16 16" version="1.1" xmlns="http://www.w3.org/2000/svg" xmlns:xlink="http://www.w3.org/1999/xlink">
    <defs></defs>
    <g id="production" stroke="none" stroke-width="1" fill="none" fill-rule="evenodd">
        <g id="vector" fill="#000000">
            <path d="M14,4 L14,12 L16,12 L16,16 L12,16 L12,14 L4,14 L4,16 L0,16 L0,12 L2,12 L2,4 L0,4 L0,0 L4,0 L4,2 L12,2 L12,0 L16,0 L16,4 L14,4 Z M3,4 L3,12 L4,12 L4,13 L12,13 L12,12 L13,12 L13,4 L12,4 L12,3 L4,3 L4,4 L3,4 Z M13,13 L15,13 L15,15 L13,15 L13,13 Z M1,13 L3,13 L3,15 L1,15 L1,13 Z M13,1 L15,1 L15,3 L13,3 L13,1 Z M1,1 L3,1 L3,3 L1,3 L1,1 Z" id="Shape"></path>
        </g>
    </g>
</svg>