<?xml version="1.0" encoding="UTF-8" standalone="no"?>
<svg width="14px" height="16px" viewBox="0 0 14 16" version="1.1" xmlns="http://www.w3.org/2000/svg" xmlns:xlink="http://www.w3.org/1999/xlink">
    <defs></defs>
    <g id="web-app" stroke="none" stroke-width="1" fill="none" fill-rule="evenodd">
        <g id="warning" fill="#000000">
            <path d="M7,15 C10.8659932,15 14,11.8659932 14,8 C14,4.13400675 10.8659932,1 7,1 C3.13400675,1 0,4.13400675 0,8 C0,11.8659932 3.13400675,15 7,15 Z M5.99999999,3.5 C5.99999999,3.5 5.99999999,3 6.50244141,3 C6.5024414,3 7.5,3 7.5,3 C8,3 8,3.5 8,3.5 L8,9.5 C8,9.5 8.01829787,10 7.5,10 C7.49999996,10 6.50244143,10 6.50244141,10 C5.99999999,10 5.99999999,9.5 5.99999999,9.5 L5.99999999,3.5 Z M6,12.5 L6,11.5 C6,11.5 6,11 6.5,11 L7.5,11 C8,11 8,11.5 8,11.5 L8,12.5 C8,12.5 8,13 7.5,13 L6.5,13 C6,13 6,12.5 6,12.5 Z" id="Shape"></path>
        </g>
    </g>
</svg>