<?xml version="1.0" encoding="UTF-8" standalone="no"?>
<svg width="16px" height="16px" viewBox="0 0 16 16" version="1.1" xmlns="http://www.w3.org/2000/svg" xmlns:xlink="http://www.w3.org/1999/xlink">
    <defs></defs>
    <g id="web-app" stroke="none" stroke-width="1" fill="none" fill-rule="evenodd">
        <g id="warning" fill="#000000">
            <path d="M8,16 C12.418278,16 16,12.418278 16,8 C16,3.581722 12.418278,0 8,0 C3.581722,0 0,3.581722 0,8 C0,12.418278 3.581722,16 8,16 Z M6.76000023,3.25 C6.76000023,3.25 6.75,3 7,3 C6.99999999,3 8.37825521,3 9,3 C9.25,3 9.23999977,3.25 9.23999977,3.25 L9,9.5 C9,9.5 9.01829787,10 8.5,10 C8.49999996,10 7.50244143,10 7.50244141,10 C6.99999999,10 6.99999999,9.5 6.99999999,9.5 L6.76000023,3.25 Z M7,12.5 L7,11.5 C7,11.5 7,11 7.5,11 L8.5,11 C9,11 9,11.5 9,11.5 L9,12.5 C9,12.5 9,13 8.5,13 L7.5,13 C7,13 7,12.5 7,12.5 Z" id="Shape"></path>
        </g>
    </g>
</svg>