<?xml version="1.0" encoding="UTF-8"?>
<svg width="8px" height="14px" viewBox="0 0 8 14" version="1.1" xmlns="http://www.w3.org/2000/svg" xmlns:xlink="http://www.w3.org/1999/xlink">
    <defs></defs>
    <g id="devices" stroke="none" stroke-width="1" fill="none" fill-rule="evenodd">
        <g id="watch" fill="#000000">
            <path d="M6,3.53512878 L6,1 C6,1 6,1.28785871e-14 5,0 L3,0 C2,0 2,1 2,1 L2,3.53512878 C0.804397259,4.22674762 0,5.51943529 0,7 C0,8.48056471 0.804397259,9.77325238 2,10.4648712 L2,13 C2,13 2,14 3,14 L5,14 C6,14 6,13 6,13 L6,10.4648712 C7.19560274,9.77325238 8,8.48056471 8,7 C8,5.51943529 7.19560274,4.22674762 6,3.53512878 L6,3.53512878 Z M4,9.66666667 C5.47275933,9.66666667 6.66666667,8.47275933 6.66666667,7 C6.66666667,5.52724067 5.47275933,4.33333333 4,4.33333333 C2.52724067,4.33333333 1.33333333,5.52724067 1.33333333,7 C1.33333333,8.47275933 2.52724067,9.66666667 4,9.66666667 Z" id="Shape"></path>
        </g>
    </g>
</svg>