<?xml version="1.0" encoding="UTF-8" standalone="no"?>
<svg width="8px" height="16px" viewBox="0 0 8 16" version="1.1" xmlns="http://www.w3.org/2000/svg" xmlns:xlink="http://www.w3.org/1999/xlink">
    <defs></defs>
    <g id="devices" stroke="none" stroke-width="1" fill="none" fill-rule="evenodd">
        <g id="watch-alt" fill="#000000">
            <path d="M1,12 C1,12 0,12 0,11 L0,5 C0,4 1,4 1,4 L2,4 L2,2.0035224 C2,1 3,1 3,1 L5,1 C5,1 6,1.0035224 6,2.0035224 L6,4 L7,4 C7,4 8,4 8,5 L8,11 C8,12 7,12 7,12 L6,12 L6,14 C6,15 5,15 5,15 L3,15 C3,15 2,15 2,14 L2,12 L1,12 Z M1,5 L7,5 L7,11 L1,11 L1,5 Z" id="Shape"></path>
        </g>
    </g>
</svg>