<?xml version="1.0" encoding="UTF-8"?>
<svg width="8px" height="14px" viewBox="0 0 8 14" version="1.1" xmlns="http://www.w3.org/2000/svg" xmlns:xlink="http://www.w3.org/1999/xlink">
    <!-- Generator: sketchtool 45.2 (43514) - http://www.bohemiancoding.com/sketch -->
    <title>watch</title>
    <desc>Created with sketchtool.</desc>
    <defs></defs>
    <g id="devices" stroke="none" stroke-width="1" fill="none" fill-rule="evenodd">
        <g id="watch" fill="#000000">
            <path d="M4.5,6.5 L4.5,5 L3.5,5 L3.5,7.00230223 C3.5,7.00230223 3.5,7.5 4,7.5 C4,7.5 6,7.5 6,7.5 L6,6.5 L4.5,6.5 Z M4,10 C5.65685425,10 7,8.65685425 7,7 C7,5.34314575 5.65685425,4 4,4 C2.34314575,4 1,5.34314575 1,7 C1,8.65685425 2.34314575,10 4,10 Z M6,3.53512878 L6,1 C6,1 6,1.28785871e-14 5,0 L3,0 C2,0 2,1 2,1 L2,3.53512878 C0.804397259,4.22674762 4.4408921e-16,5.51943529 4.4408921e-16,7 C4.4408921e-16,8.48056471 0.804397259,9.77325238 2,10.4648712 L2,13 C2,13 2,14 3,14 L5,14 C6,14 6,13 6,13 L6,10.4648712 C7.19560274,9.77325238 8,8.48056471 8,7 C8,5.51943529 7.19560274,4.22674762 6,3.53512878 L6,3.53512878 Z" id="Combined-Shape"></path>
        </g>
    </g>
</svg>