<?xml version="1.0" encoding="UTF-8" standalone="no"?>
<svg width="8px" height="16px" viewBox="0 0 8 16" version="1.1" xmlns="http://www.w3.org/2000/svg" xmlns:xlink="http://www.w3.org/1999/xlink">
    <defs></defs>
    <g id="devices" stroke="none" stroke-width="1" fill="none" fill-rule="evenodd">
        <g id="watch" fill="#000000">
            <path d="M6,4.53512878 L6,2 C6,2 6,1 5,1 L3,1 C2,1 2,2 2,2 L2,4.53512878 C0.804397259,5.22674762 0,6.51943529 0,8 C0,9.48056471 0.804397259,10.7732524 2,11.4648712 L2,14 C2,14 2,15 3,15 L5,15 C6,15 6,14 6,14 L6,11.4648712 C7.19560274,10.7732524 8,9.48056471 8,8 C8,6.51943529 7.19560274,5.22674762 6,4.53512878 L6,4.53512878 Z M4,10.6666667 C5.47275933,10.6666667 6.66666667,9.47275933 6.66666667,8 C6.66666667,6.52724067 5.47275933,5.33333333 4,5.33333333 C2.52724067,5.33333333 1.33333333,6.52724067 1.33333333,8 C1.33333333,9.47275933 2.52724067,10.6666667 4,10.6666667 Z" id="Shape"></path>
        </g>
    </g>
</svg>