<?xml version="1.0" encoding="UTF-8" standalone="no"?>
<svg width="16px" height="16px" viewBox="0 0 16 16" version="1.1" xmlns="http://www.w3.org/2000/svg" xmlns:xlink="http://www.w3.org/1999/xlink">
    <defs></defs>
    <g id="devices" stroke="none" stroke-width="1" fill="none" fill-rule="evenodd">
        <g id="wearable" fill="#000000">
            <path d="M5,12 C5,12 4,12 4,11 L4,5 C4,4 5,4 5,4 L6,4 L6,2.0035224 C6,1 7,1 7,1 L9,1 C9,1 10,1.0035224 10,2.0035224 L10,4 L11,4 C11,4 12,4 12,5 L12,11 C12,12 11,12 11,12 L10,12 L10,14 C10,15 9,15 9,15 L7,15 C7,15 6,15 6,14 L6,12 L5,12 Z M5,5 L11,5 L11,11 L5,11 L5,5 Z" id="Shape"></path>
        </g>
    </g>
</svg>