<?xml version="1.0" encoding="UTF-8" standalone="no"?>
<svg width="10px" height="16px" viewBox="0 0 10 16" version="1.1" xmlns="http://www.w3.org/2000/svg" xmlns:xlink="http://www.w3.org/1999/xlink">
    <defs></defs>
    <g id="food" stroke="none" stroke-width="1" fill="none" fill-rule="evenodd">
        <g id="wine-glass" fill="#000000">
            <path d="M4,14 L4,9.01708882 C-1.9842157,8.9529055 1.01646091,0 1.01646091,0 L8.98353909,0 C8.98353909,0 12,9 6,9 L6,14 L7.5,14 C10,14 10,16 10,16 L0,16 C0,16 0,14 2.5,14 C2.47674015,14 2.91564552,14 3.54204756,14 L4,14 Z M8.4003526,2.5 L7.99954909,1 L1.99954909,1 L1.59954947,2.5 C1.59954947,2.5 1.3995487,3 1.99845045,3 L7.99954909,3 C8.59954899,3 8.4003526,2.5 8.4003526,2.5 Z" id="Shape"></path>
        </g>
    </g>
</svg>