<?xml version="1.0" encoding="UTF-8" standalone="no"?>
<svg width="10px" height="16px" viewBox="0 0 10 16" version="1.1" xmlns="http://www.w3.org/2000/svg" xmlns:xlink="http://www.w3.org/1999/xlink">
    <defs></defs>
    <g id="food" stroke="none" stroke-width="1" fill="none" fill-rule="evenodd">
        <g id="wine-glass" fill="#000000">
            <path d="M4,14 L4,9.01708882 C-1.9842157,8.9529055 1.01646091,0 1.01646091,0 L8.98353909,0 C8.98353909,0 12,9 6,9 L6,14 C7.03466546,14 8.98353863,14 8.98353863,14 C10,14 10,15 10,15 C10,15 10,16 8.98353863,16 L1,16 C1.48929757e-09,16 1.48929757e-09,15 1.48929757e-09,15 C1.48929757e-09,15 1.48929757e-09,14 1,14 C0.99320103,14 4,14 4,14 Z M8.4003526,2.5 L7.99954909,1 L1.99954909,1 L1.59954947,2.5 C1.59954947,2.5 1.3995487,3 1.99845045,3 L7.99954909,3 C8.59954899,3 8.4003526,2.5 8.4003526,2.5 Z" id="Shape"></path>
        </g>
    </g>
</svg>