<?xml version="1.0" encoding="UTF-8" standalone="no"?>
<svg width="8px" height="16px" viewBox="0 0 8 16" version="1.1" xmlns="http://www.w3.org/2000/svg" xmlns:xlink="http://www.w3.org/1999/xlink">
    <defs></defs>
    <g id="food" stroke="none" stroke-width="1" fill="none" fill-rule="evenodd">
        <g id="wine-glass" fill="#000000">
            <path d="M3,9.92933631 C0,9.47644544 0,7 0,7 L0,1 C0,1.60598298e-09 1,0 1,0 L7,0 C7,0 8,0 8,1.00000004 C8,1 8,7 8,7 C8,7 8,9.47644544 5,9.92933631 L5,15 L6.5,15 C6.5,15 6.99999968,15 7,15.5 C7.00000032,16 6.5,16 6.5,16 L1.5,16 C1.5,16 1.00310103,16 1.00310103,15.5 C1.00310103,15 1.5,15 1.5,15 L3,15 L3,9.92933631 Z M1,1 L7,1 L7,3 L1,3 L1,1 Z" id="Shape"></path>
        </g>
    </g>
</svg>