<?xml version="1.0" encoding="UTF-8"?>
<svg width="11px" height="14px" viewBox="0 0 11 14" version="1.1" xmlns="http://www.w3.org/2000/svg" xmlns:xlink="http://www.w3.org/1999/xlink">
    <defs></defs>
    <g id="web-app" stroke="none" stroke-width="1" fill="none" fill-rule="evenodd">
        <g id="wrench" fill="#000000">
            <path d="M6.71257818,1.7989735 C6.02916642,0.615402764 4.77479346,-0.0327972067 3.49846046,0.00127872627 C3.4975139,-0.000235759644 5.08034099,2.74136236 5.08034099,2.74136236 L4.07093613,4.41714102 L2.12198207,4.44932385 L0.534422218,1.71056539 C-0.134980555,2.79948076 -0.201428625,4.21136025 0.482551075,5.39587754 C1.24187645,6.71101925 2.70619502,7.36527716 4.12242865,7.15684604 L7.84522434,13.6049591 C7.84522434,13.6049591 8.22384581,14.2609208 8.87961821,13.8822994 L9.86346612,13.3143671 C10.5192385,12.9357457 10.140617,12.2797839 10.140617,12.2797839 L6.41763205,5.83167087 C7.30625666,4.70924749 7.47190356,3.11411521 6.71257818,1.7989735 M8.80370461,12.6144853 C9.07517621,12.457736 9.16831709,12.1103508 9.0115678,11.8386899 C8.8546292,11.567029 8.50724399,11.4740774 8.23577239,11.6308267 C7.96411148,11.7877653 7.8709706,12.1349612 8.02771989,12.4066221 C8.18465849,12.6782831 8.5320437,12.7714239 8.80370461,12.6144853" id="Shape"></path>
        </g>
    </g>
</svg>