<?xml version="1.0" encoding="UTF-8" standalone="no"?>
<svg width="12px" height="16px" viewBox="0 0 12 16" version="1.1" xmlns="http://www.w3.org/2000/svg" xmlns:xlink="http://www.w3.org/1999/xlink">
    <defs></defs>
    <g id="web-app" stroke="none" stroke-width="1" fill="none" fill-rule="evenodd">
        <g id="wrench" fill="#000000">
            <path d="M7.67151793,2.05596972 C6.8904759,0.703317444 5.45690681,-0.037482522 3.99824052,0.00146140145 C3.99715875,-0.000269439593 5.80610399,3.13298556 5.80610399,3.13298556 L4.65249844,5.04816117 L2.42512237,5.08494154 L0.610768249,1.95493187 C-0.154263492,3.19940658 -0.230204143,4.81298314 0.551486943,6.16671719 C1.41928737,7.66973628 3.0927943,8.41745961 4.71134703,8.17925262 L8.96597067,15.5485247 C8.96597067,15.5485247 9.39868093,16.2981952 10.1481351,15.865485 L11.2725327,15.2164196 C12.0219869,14.7837093 11.5892766,14.0340388 11.5892766,14.0340388 L7.33443663,6.6647667 C8.35000761,5.38199714 8.53931835,3.55898881 7.67151793,2.05596972 M10.0613767,14.4165547 C10.37163,14.2374126 10.4780767,13.840401 10.2989346,13.5299313 C10.1195762,13.2194617 9.72256456,13.1132314 9.4123113,13.2923734 C9.10184169,13.4717318 8.99539497,13.8685271 9.17453702,14.1789967 C9.35389542,14.4894663 9.75090708,14.5959131 10.0613767,14.4165547" id="Shape"></path>
        </g>
    </g>
</svg>