<?xml version="1.0" encoding="UTF-8"?>
<svg width="24px" height="24px" viewBox="0 0 24 24" version="1.1" xmlns="http://www.w3.org/2000/svg" xmlns:xlink="http://www.w3.org/1999/xlink">
    <!-- Generator: sketchtool 52.2 (67145) - http://www.bohemiancoding.com/sketch -->
    <title>yaki-dango</title>
    <desc>Created with sketchtool.</desc>
    <g id="food" stroke="none" stroke-width="1" fill="none" fill-rule="evenodd">
        <g id="yaki-dango" fill="#000000" fill-rule="nonzero">
            <path d="M13,17.8292943 L13,21 C13,21.5522847 12.5522847,22 12,22 C11.4477153,22 11,21.5522847 11,21 L11,17.8292943 C9.83480763,17.4174579 9,16.3062188 9,15 C9,13.9565146 9.53275467,13.0374608 10.3411024,12.5 C9.53275467,11.9625392 9,11.0434854 9,10 C9,8.95651462 9.53275467,8.03746077 10.3411024,7.5 C9.53275467,6.96253923 9,6.04348538 9,5 C9,3.34314575 10.3431458,2 12,2 C13.6568542,2 15,3.34314575 15,5 C15,6.04348538 14.4672453,6.96253923 13.6588976,7.5 C14.4672453,8.03746077 15,8.95651462 15,10 C15,11.0434854 14.4672453,11.9625392 13.6588976,12.5 C14.4672453,13.0374608 15,13.9565146 15,15 C15,16.3062188 14.1651924,17.4174579 13,17.8292943 Z M12,6 C12.5522847,6 13,5.55228475 13,5 C13,4.44771525 12.5522847,4 12,4 C11.4477153,4 11,4.44771525 11,5 C11,5.55228475 11.4477153,6 12,6 Z M12,11 C12.5522847,11 13,10.5522847 13,10 C13,9.44771525 12.5522847,9 12,9 C11.4477153,9 11,9.44771525 11,10 C11,10.5522847 11.4477153,11 12,11 Z M12,16 C12.5522847,16 13,15.5522847 13,15 C13,14.4477153 12.5522847,14 12,14 C11.4477153,14 11,14.4477153 11,15 C11,15.5522847 11.4477153,16 12,16 Z" id="Shape"></path>
        </g>
    </g>
</svg>